<svg id="Layer_1" data-name="Layer 1" xmlns="http://www.w3.org/2000/svg" width="418.57" height="354.24" viewBox="0 0 418.57 354.24"><title>delhi-logo-2018-cutout</title><path d="M308.58,291.77V257.45H336.4a80.33,80.33,0,0,0,0-160.66H308.58V62.48c-3.93,0-5.53.08-8.35.08-41.49,0-75.74-24.47-90.94-60.56-15.21,36.09-49.46,60.56-90.95,60.56-2.81,0-4.42-.08-8.35-.08V96.79H82.18a80.33,80.33,0,0,0,0,160.66H110v34.32c3.93,0,5.54-.08,8.35-.08,41.49,0,75.74,24.46,90.95,60.55,15.2-36.09,49.45-60.55,90.94-60.55C303.05,291.69,304.65,291.77,308.58,291.77Z" style="fill:#fff"/><text transform="translate(63.87 284.68) scale(1.08 1)" style="font-size:12.766050338745117px;fill:#070d36;font-family:Roboto-Bold, Roboto;font-weight:700;letter-spacing:0.2499929069501178em">A GRE<tspan x="51" y="0" style="letter-spacing:0.20650662659812508em">A</tspan><tspan x="61.75" y="0">T BR</tspan><tspan x="101.29" y="0" style="letter-spacing:0.2358048872594187em">I</tspan><tspan x="108.05" y="0">TISH CUR</tspan><tspan x="189.76" y="0" style="letter-spacing:0.2265826744604643em">R</tspan><tspan x="200.79" y="0" style="letter-spacing:0.2499219668516643em">Y HOUSE</tspan></text><path d="M137.58,83.09h.48a.8.8,0,0,1,.71.45.78.78,0,0,1-.12.83,4.31,4.31,0,0,0-1,2.21,1,1,0,0,0,.24.81,1,1,0,0,0,.56.33.77.77,0,0,1,.62.76l.16,96.33a31.85,31.85,0,0,1,2.28-3.82c5.2-7.44,11.3-11.82,18.15-13a25.47,25.47,0,0,1,18.43-7.61,23.76,23.76,0,0,1,16.68,6.27l-.07-42.26c0-1,.32-23.09,22.87-24l.16,0,.15,0h.72l.15,0,.15,0c22.57.83,23,23,23,23.92l0,13.81.21-.23a26.79,26.79,0,0,1,6.57-4.45,22.43,22.43,0,0,1,10.77-2.79c8,0,17.44,4.4,17.44,25.34v9.44c.44-.33.9-.66,1.37-1,4.07-2.71,9.45-4.09,16-4.09a25.17,25.17,0,0,1,3.27.22l-.12-72.36a.77.77,0,0,1,.62-.76,1.08,1.08,0,0,0,.55-.33,1,1,0,0,0,.25-.81,4.3,4.3,0,0,0-1-2.21.78.78,0,0,1-.11-.83.77.77,0,0,1,.7-.45h.48a1,1,0,0,0,.87-.5,1,1,0,0,0,0-1L297.5,77a1,1,0,0,0-.91-.55h-2.11a.79.79,0,0,1-.78-.78l0-12.27a1,1,0,0,0-1-1l-11.41,0a.81.81,0,0,1-.55-.23.78.78,0,0,1-.23-.55V53a1,1,0,0,0-1-1h-6.91a.78.78,0,0,1-.78-.78l0-11.83a.78.78,0,0,1,.78-.78h.94a1,1,0,0,0,.79-.38,1,1,0,0,0,.21-.84c-.46-2.28-3.1-4.75-6.59-4.75h-3.91a.86.86,0,0,1-.27,0c-6.23-2.27-40.85-10.55-45.27-11.36l-.13,0H218l-.14,0c-4.41.82-39,9.21-45.24,11.51a.86.86,0,0,1-.27,0h-3.92c-3.47,0-6.12,2.47-6.57,4.76a1,1,0,0,0,.21.85,1,1,0,0,0,.79.37h1a.79.79,0,0,1,.78.78l0,11.83a.79.79,0,0,1-.78.78h-6.91a1,1,0,0,0-1,1v8.6a.77.77,0,0,1-.78.78l-11.41,0a1,1,0,0,0-1,1l0,12.28a.8.8,0,0,1-.22.55.78.78,0,0,1-.55.23h-2.12a1,1,0,0,0-.91.56l-2.24,4.35a1,1,0,0,0,.91,1.49Z" style="fill:#fec621"/><polygon points="145.65 133.26 146.54 133.26 148.44 133.26 149.34 133.26 149.85 133.26 149.84 130.64 149.34 130.64 148.44 130.64 146.54 130.64 145.64 130.64 145.21 130.65 144.31 130.65 143.8 130.65 143.81 133.27 144.31 133.26 145.21 133.26 145.65 133.26" style="fill:none"/><polygon points="145.65 134.16 145.21 134.16 145.24 149.36 145.67 149.36 146.57 149.36 148.47 149.35 148.44 134.16 146.55 134.16 145.65 134.16" style="fill:none"/><path d="M217.54,99.36v0l.7,0,.71,0v0c23.88.89,23.93,24.94,23.93,24.94l0,12.83c.21-.18.44-.36.69-.55l0-20.35c0-1-.33-24.75-24.61-25.64l-.22,0h-1a.93.93,0,0,1-.23,0C193.28,91.55,193,115.3,193,116.3l.08,48.89c.23.17.46.36.69.55l-.07-41.37S193.67,100.32,217.54,99.36Z" style="fill:none"/><path d="M297.6,85.79l0-.05h0a3.55,3.55,0,0,0-.44-.78,2.48,2.48,0,0,0-.25-.3s0,0-.05-.05a2.63,2.63,0,0,0-.49-.39h0a1.76,1.76,0,0,0-.92-.27l-29.94,0h-12a2,2,0,0,0-1.37.62,3.37,3.37,0,0,0-1,1.9h1.43l9.23,0h3.71l30.87-.05h1.43a3.92,3.92,0,0,0-.15-.59Z" style="fill:none"/><path d="M150.52,126.82H156l12.11,0h8a3,3,0,0,0-.52-.8.76.76,0,0,0-.52-.27H149a.76.76,0,0,0-.53.27,2.67,2.67,0,0,0-.5.8h2.51Z" style="fill:none"/><path d="M255.34,130.28a1,1,0,0,1-.17-.12.89.89,0,0,1-.21-.71,3.38,3.38,0,0,1,.44-1.27l.11-.19,0,0a1,1,0,0,1,.08-.11,2.65,2.65,0,0,1,2.11-1.19h1.74a3.05,3.05,0,0,1,1.49-1.86v-.94a.9.9,0,0,1,.88-.9h.53v-5.09h-.53a.91.91,0,0,1-.88-.9v-.55H260a.92.92,0,0,1-.68-.3.93.93,0,0,1-.22-.71c.09-.68.75-3.22,2.35-3.23h4.06l22,0c1.6,0,2.27,2.54,2.36,3.22a.93.93,0,0,1-.22.71.89.89,0,0,1-.67.3H288v.55a.9.9,0,0,1-.9.9h-.5v5.09h.5a.89.89,0,0,1,.9.89v.94a3.12,3.12,0,0,1,1.49,1.86h1.74a2.65,2.65,0,0,1,2.11,1.19.71.71,0,0,1,.07.09l.06.08.09.16a3.59,3.59,0,0,1,.45,1.27.9.9,0,0,1-.21.71,1,1,0,0,1-.17.13V133a.9.9,0,0,1-.9.9h-.5l0,15.2h.51a.9.9,0,0,1,.9.89v.38a3.46,3.46,0,0,1,2.72,3,.87.87,0,0,1-.21.71.89.89,0,0,1-.68.31h-2.13v6l.79,0c.76,0,1.51,0,2.25.11l-.12-73.11-30.87,0h-3.71l-9.23,0,.07,44.3a21.87,21.87,0,0,1,2.73-.7Zm19.12-31.49a5.49,5.49,0,1,1-5.48,5.5A5.49,5.49,0,0,1,274.46,98.79Z" style="fill:none"/><path d="M162,99.87a4.23,4.23,0,1,0,4,3.84,4.68,4.68,0,0,0-.68-2.37A4.58,4.58,0,0,0,162,99.87Z" style="fill:none"/><path d="M217.48,89.68v-.05l.75,0,.75,0v.05c25.41.93,25.47,26.54,25.47,26.54l0,19.7a48.25,48.25,0,0,1,4.17-2.49,23.65,23.65,0,0,1,3.05-1.38l-.07-44.62h-.53a.93.93,0,0,1-.68-.3.9.9,0,0,1-.21-.72,4.12,4.12,0,0,1,.24-.88l-64.47.1a4.2,4.2,0,0,1,.24.89.91.91,0,0,1-.22.71.89.89,0,0,1-.68.31h-.52l.12,73.67a23,23,0,0,1,7.24,3.32l-.08-48.22S192.07,90.7,217.48,89.68Z" style="fill:none"/><polygon points="149.92 124.86 150.82 124.85 150.97 124.85 151.87 124.85 154.05 124.85 154.95 124.85 155.46 124.85 155.46 124.01 154.95 124.01 154.05 124.02 151.87 124.02 150.97 124.02 150.82 124.02 149.92 124.02 149.41 124.02 149.41 124.86 149.92 124.86" style="fill:none"/><path d="M182.67,152.52a3.58,3.58,0,0,0-.28-.37,2.06,2.06,0,0,0-1.11-.67,1.45,1.45,0,0,0-.29,0h-9.92l-18.59,0h-9.25a1.35,1.35,0,0,0-.29,0,2,2,0,0,0-1.11.68,2.11,2.11,0,0,0-.28.37,2.93,2.93,0,0,0-.44,1.18h10.72l19.25,0h12A2.93,2.93,0,0,0,182.67,152.52Z" style="fill:none"/><polygon points="144.34 150.6 145.24 150.6 145.67 150.6 146.57 150.6 148.47 150.59 149.37 150.59 149.88 150.59 149.88 150.25 149.37 150.25 148.47 150.25 146.57 150.26 145.67 150.26 145.24 150.26 144.34 150.26 143.83 150.26 143.83 150.6 144.34 150.6" style="fill:none"/><polygon points="150.96 118.03 150.81 118.03 150.81 123.12 150.97 123.12 151.87 123.12 154.05 123.11 154.04 118.03 151.86 118.03 150.96 118.03" style="fill:none"/><path d="M253.46,83.11h12l29.94,0a2.62,2.62,0,0,1,.93.19v-.52l-30.87.05h-3.7l-87.1.14H171l-30.87,0v.51a2.65,2.65,0,0,1,.93-.18l29.94,0h12a3.16,3.16,0,0,1,2.56,1.5l65.38-.1A3.16,3.16,0,0,1,253.46,83.11Z" style="fill:none"/><polygon points="174.19 116.54 173.82 116.54 173.29 116.54 173.14 116.54 172.24 116.55 171.91 116.55 171.01 116.55 170.06 116.55 169.16 116.55 168.66 116.55 168.66 117.1 169.16 117.1 170.06 117.1 171.02 117.1 171.92 117.1 172.24 117.1 173.14 117.1 173.29 117.1 173.82 117.09 174.19 117.09 174.7 117.09 174.7 116.54 174.19 116.54" style="fill:none"/><polygon points="179.84 130.59 178.94 130.59 178.5 130.59 177.6 130.59 175.71 130.59 174.81 130.6 174.75 130.6 174.3 130.6 174.31 133.22 174.75 133.22 174.81 133.22 175.71 133.21 177.61 133.21 178.51 133.21 178.94 133.21 179.84 133.21 180.35 133.21 180.34 130.59 179.84 130.59" style="fill:none"/><path d="M149.9,115.68h6.44l11.41,0h8.79a5.26,5.26,0,0,0-.17-.69,4.61,4.61,0,0,0-.32-.8c-.26-.52-.6-1-1-1H171l-22,0c-.38,0-.72.42-1,.94a5.34,5.34,0,0,0-.32.8,5.52,5.52,0,0,0-.16.7h2.34Z" style="fill:none"/><path d="M168.66,118a.89.89,0,0,1-.43-.12v5.33a.89.89,0,0,1,.43-.12h.5V118Z" style="fill:none"/><polygon points="171.93 123.08 172.25 123.08 173.15 123.08 173.3 123.08 173.29 118 173.14 118 172.24 118 171.92 118 171.02 118 170.06 118 170.07 123.09 171.03 123.09 171.93 123.08" style="fill:none"/><path d="M278.5,103.52a4.52,4.52,0,0,0-.68-2.36,4.58,4.58,0,0,0-7.94,3.13,3.63,3.63,0,0,0,4,3.83A4.59,4.59,0,0,0,278.5,103.52Z" style="fill:none"/><polygon points="150.96 117.13 151.86 117.13 154.04 117.13 154.94 117.13 155.44 117.13 155.44 116.57 154.94 116.57 154.04 116.58 151.86 116.58 150.96 116.58 150.81 116.58 149.91 116.58 149.4 116.58 149.4 117.14 149.91 117.13 150.81 117.13 150.96 117.13" style="fill:none"/><path d="M154.94,118v5.08h.51a.89.89,0,0,1,.42.12V117.9a.89.89,0,0,1-.42.12Z" style="fill:none"/><path d="M156.36,124.84h11.41v-.76a.89.89,0,0,1-.43.12l-10.56,0a.86.86,0,0,1-.42-.12Z" style="fill:none"/><rect x="156.78" y="117.25" width="10.56" height="6.04" transform="translate(-0.2 0.27) rotate(-0.09)" style="fill:none"/><path d="M144.3,129.75h6.44l20.3,0h9.7a2.7,2.7,0,0,0-.4-1.06l0,0a1.46,1.46,0,0,0-.21-.28,1.76,1.76,0,0,0-1-.62.86.86,0,0,0-.28,0H171l-23.35,0h-2.39a1.26,1.26,0,0,0-.28,0,1.82,1.82,0,0,0-1,.61l-.21.29s0,0,0,0a2.53,2.53,0,0,0-.39,1.06h.89Z" style="fill:none"/><path d="M277.82,101.16a4.6,4.6,0,0,1,.9,1.4A4.6,4.6,0,0,0,277.82,101.16Z" style="fill:none"/><polygon points="285.6 123.8 284.69 123.8 282.52 123.8 281.62 123.81 281.11 123.81 281.11 124.64 281.62 124.64 282.52 124.64 284.7 124.63 285.6 124.63 285.75 124.63 286.65 124.63 287.15 124.63 287.15 123.8 286.65 123.8 285.75 123.8 285.6 123.8" style="fill:none"/><path d="M276.85,154.45c0,.5,0,1,0,1.53v9.44c.44-.33.9-.66,1.37-1a22.6,22.6,0,0,1,6.61-2.93v-7.08Z" style="fill:none"/><path d="M281.1,117.82a.89.89,0,0,1-.43-.12V123a.89.89,0,0,1,.43-.12h.5v-5.09Z" style="fill:none"/><polygon points="285.59 122.9 285.75 122.9 285.74 117.81 285.58 117.81 284.69 117.81 282.51 117.82 282.51 122.9 284.69 122.9 285.59 122.9" style="fill:none"/><path d="M174.68,87.56H171l-30.87,0,.15,95.36c.41-.68.83-1.34,1.27-2,.58-.82,1.16-1.6,1.76-2.35l0-24h-2.13a.89.89,0,0,1-.67-.3.93.93,0,0,1-.22-.71,3.46,3.46,0,0,1,2.71-3v-.38a.9.9,0,0,1,.9-.9h.51l0-15.2h-.5a.9.9,0,0,1-.9-.9v-2.8a.7.7,0,0,1-.17-.13.91.91,0,0,1-.22-.71,3.59,3.59,0,0,1,.45-1.27l.1-.17.05-.07a.86.86,0,0,1,.07-.1,2.65,2.65,0,0,1,2.1-1.19H147a3.07,3.07,0,0,1,1.48-1.87V124a.9.9,0,0,1,.9-.9h.51V118h-.51a.89.89,0,0,1-.9-.89v-.56h-.94a.88.88,0,0,1-.67-.31.91.91,0,0,1-.22-.71c.09-.68.74-3.22,2.35-3.22l22,0h4.06c1.59,0,2.27,2.54,2.36,3.22a.93.93,0,0,1-.22.71.87.87,0,0,1-.67.31h-.94v.55a.9.9,0,0,1-.87.9h-.53v5.09h.53a.89.89,0,0,1,.88.89v.94a3.07,3.07,0,0,1,1.5,1.86h1.74A2.64,2.64,0,0,1,181,128l.07.09a.35.35,0,0,1,.05.08c0,.05.06.11.1.17a3.59,3.59,0,0,1,.45,1.27.93.93,0,0,1-.21.71,1.18,1.18,0,0,1-.18.13v2.79a.91.91,0,0,1-.9.91h-.5l0,15.19h.5a.91.91,0,0,1,.91.9v.37a3.47,3.47,0,0,1,2.72,3,.9.9,0,0,1-.21.72.92.92,0,0,1-.68.3H181v5.89a27.14,27.14,0,0,1,3,.5l-.12-73.46ZM162,110a5.5,5.5,0,1,1,5.48-5.51A5.5,5.5,0,0,1,162,110Z" style="fill:none"/><path d="M266.44,131.43l16.16,0a.9.9,0,0,1,.9.9V133h.65a.9.9,0,0,1,.9.9l0,16.45h.8V150a.9.9,0,0,1,.9-.9h.51l0-15.19h-.5a.9.9,0,0,1-.9-.9v-2.62l-20.29,0h-2.36V131a16.46,16.46,0,0,1,2.58.76A.87.87,0,0,1,266.44,131.43Z" style="fill:none"/><path d="M261.84,130.45h-5.6v.43a21.32,21.32,0,0,1,3.19-.25,19.87,19.87,0,0,1,2.86.21v-.4Z" style="fill:none"/><polygon points="286.63 116.36 285.74 116.36 285.58 116.36 284.68 116.36 282.5 116.36 281.6 116.37 281.1 116.37 281.1 116.92 281.6 116.92 282.5 116.92 284.68 116.91 285.58 116.91 285.74 116.91 286.64 116.91 287.14 116.91 287.14 116.36 286.63 116.36" style="fill:none"/><path d="M284.15,133.92H282.6l-13.07,0c3.49,2.84,6.26,7.87,7.08,16.44h7.57Z" style="fill:none"/><path d="M285.74,153.54l6.78,0h3a3,3,0,0,0-.44-1.19,2.48,2.48,0,0,0-.28-.36,2.1,2.1,0,0,0-1.11-.68,1.45,1.45,0,0,0-.29,0H276.69c.06.73.1,1.49.13,2.27h8.92Z" style="fill:none"/><path d="M282.6,132.31l-15.54,0a14.21,14.21,0,0,1,1.24.72l14.3,0Z" style="fill:none"/><path d="M285.74,154.43v6.86a34.55,34.55,0,0,1,6.78-.88v-6Z" style="fill:none"/><path d="M287.25,129.51h5.93a2.66,2.66,0,0,0-.4-1.05v0l-.21-.28a1.82,1.82,0,0,0-1-.61,1.26,1.26,0,0,0-.28,0h-2.4l-23.34,0h-7.82a1.27,1.27,0,0,0-.28,0,1.78,1.78,0,0,0-1,.62,2.55,2.55,0,0,0-.21.28l0,0a3.16,3.16,0,0,0-.26.52,2.56,2.56,0,0,0-.13.53h9.7l20.29,0h1.41Z" style="fill:none"/><polygon points="290.05 133.03 290.95 133.02 291.38 133.02 292.29 133.02 292.79 133.02 292.79 130.4 292.28 130.4 291.38 130.41 290.95 130.41 290.05 130.41 288.15 130.41 287.25 130.41 286.74 130.41 286.75 133.03 287.25 133.03 288.15 133.03 290.05 133.03" style="fill:none"/><path d="M261.84,126.64h6.61l12.11,0h8a2.9,2.9,0,0,0-.51-.8.76.76,0,0,0-.53-.27h-7.32l-11.41,0h-7.32a.78.78,0,0,0-.52.27,2.75,2.75,0,0,0-.51.8h1.39Z" style="fill:none"/><polygon points="292.31 150.02 291.41 150.02 290.98 150.02 290.08 150.02 288.18 150.02 287.28 150.03 286.77 150.03 286.77 150.37 287.28 150.37 288.18 150.36 290.08 150.36 290.98 150.36 291.41 150.36 292.31 150.36 292.82 150.36 292.82 150.02 292.31 150.02" style="fill:none"/><polygon points="290.05 133.93 288.15 133.93 288.18 149.12 290.08 149.12 290.98 149.12 291.41 149.12 291.39 133.92 290.95 133.92 290.05 133.93" style="fill:none"/><polygon points="262.36 124.67 262.73 124.67 263.26 124.67 263.42 124.67 264.31 124.67 264.64 124.67 265.54 124.67 266.5 124.66 267.39 124.66 267.9 124.66 267.9 123.83 267.39 123.83 266.49 123.83 265.54 123.83 264.64 123.83 264.31 123.83 263.41 123.83 263.26 123.83 262.73 123.84 262.36 123.84 261.85 123.84 261.86 124.67 262.36 124.67" style="fill:none"/><polygon points="264.63 117.84 264.3 117.85 263.4 117.85 263.25 117.85 263.26 122.94 263.41 122.94 264.31 122.93 264.64 122.93 265.54 122.93 266.49 122.93 266.48 117.84 265.53 117.84 264.63 117.84" style="fill:none"/><path d="M262.35,115.5h6.43l11.42,0H289c0-.11-.05-.25-.09-.39a4.31,4.31,0,0,0-.22-.7,2.87,2.87,0,0,0-.18-.4c-.26-.52-.6-.94-1-.94l-22,0h-4.06c-.38,0-.72.43-1,1-.06.13-.12.26-.17.4a4.54,4.54,0,0,0-.22.69c0,.15-.07.29-.09.4h2.35Z" style="fill:none"/><path d="M268.8,124.66l11.41,0v-.76a.89.89,0,0,1-.43.12l-10.56,0a.89.89,0,0,1-.42-.12Z" style="fill:none"/><rect x="269.22" y="117.07" width="10.56" height="6.04" transform="translate(-0.2 0.45) rotate(-0.09)" style="fill:none"/><polygon points="263.25 116.95 263.4 116.95 264.3 116.95 264.63 116.95 265.53 116.94 266.48 116.94 267.38 116.94 267.89 116.94 267.88 116.39 267.38 116.39 266.48 116.39 265.53 116.39 264.63 116.39 264.3 116.39 263.4 116.4 263.25 116.4 262.72 116.4 262.35 116.4 261.84 116.4 261.84 116.95 262.35 116.95 262.72 116.95 263.25 116.95" style="fill:none"/><path d="M267.38,117.84v5.09h.51a.89.89,0,0,1,.42.12v-5.33a.83.83,0,0,1-.42.12Z" style="fill:none"/><polygon points="173.31 123.98 173.15 123.98 172.25 123.98 171.93 123.98 171.03 123.99 170.07 123.99 169.17 123.99 168.67 123.99 168.67 124.82 169.18 124.82 170.07 124.82 171.03 124.82 171.93 124.82 172.25 124.82 173.15 124.82 173.31 124.82 173.84 124.82 174.21 124.81 174.71 124.81 174.71 123.98 174.21 123.98 173.84 123.98 173.31 123.98" style="fill:none"/><path d="M191.88,50.44l52.57-.08a4.23,4.23,0,0,0,4.21-4.23h0a4.23,4.23,0,0,0-4.23-4.21L191.87,42A4.22,4.22,0,0,0,188,47.87a4,4,0,0,0,.91,1.34A4.19,4.19,0,0,0,191.88,50.44Z" style="fill:none"/><path d="M173.88,149.45a.85.85,0,0,1,.45-.14h.51l0-15.2h-.5a.95.95,0,0,1-.91-.9V130.6H171l-20.3,0v2.61a.91.91,0,0,1-.9.91h-.51l0,15.19h.5a.91.91,0,0,1,.91.9v.34h.8l0-16.45a.9.9,0,0,1,.9-.9h.65v-.72a.9.9,0,0,1,.9-.9l16.17,0a.89.89,0,0,1,.88.82s0,.05,0,.08v.72h.64a.64.64,0,0,1,.24,0,.89.89,0,0,1,.66.85l0,16.45h.8v-.34A.9.9,0,0,1,173.88,149.45Z" style="fill:none"/><polygon points="178.54 150.2 177.64 150.21 175.74 150.21 174.84 150.21 174.78 150.21 174.33 150.21 174.33 150.55 174.78 150.55 174.84 150.55 175.74 150.55 177.64 150.54 178.54 150.54 178.97 150.54 179.87 150.54 180.38 150.54 180.38 150.2 179.87 150.2 178.97 150.2 178.54 150.2" style="fill:none"/><polygon points="152.45 134.14 152.48 150.59 171.07 150.56 171.73 150.56 171.71 134.1 171.06 134.11 171.04 134.11 170.16 134.11 154 134.13 153.1 134.13 152.45 134.14" style="fill:none"/><path d="M263,44.32a3.53,3.53,0,0,0-.36-.66,5.12,5.12,0,0,1,.39.73Z" style="fill:none"/><path d="M175.39,32.92l85.48-.15h0l-.15,0-.27-.08-.35-.1-.12,0h-.08l-.47-.14-.08,0-.62-.17-.05,0h-.07l-.24-.06L258,32l-.37-.1-.41-.11-.38-.1-.41-.12-.39-.1-.22-.06h-.09l-.06,0h-.09l-.24-.07-.63-.16-.24-.07-.24-.06-.06,0h0l-.14,0h-.07l-.1,0-.37-.1L253,30.6l-.39-.1-.09,0-.18-.05-.1,0h0l-.16,0-.58-.15L251,30.1l-.28-.07h-.1l-.31-.08h0l-.06,0-.22,0-.15,0L249,29.6l-.14,0h-.05l-.28-.07-.18-.05h0l-.06,0-.24-.06-.85-.21-.16,0-.06,0-.07,0-.4-.09-.16,0,0,0h-.05l-.33-.08h0l-.67-.16-.18,0-.14,0h0l-.08,0-.44-.11-.1,0-.09,0-.9-.22h0l-.1,0-.28-.07-.62-.15h-.12l-.26-.07h0l-.46-.11-.08,0-.2-.05-.37-.09-.49-.12h0l-.12,0-.45-.11-.26-.07h0l-.08,0-.08,0-.59-.15-.46-.11h0l-.12,0-.46-.12-.11,0-.1,0-.19,0-.61-.15-.33-.08-.2-.05-.22-.05-.25-.06-.11,0h0l-.52-.12-.31-.08-.1,0-.32-.08-.24-.05-.45-.11h-.06l-.62-.15-.12,0h0l-.13,0-.36-.08-.16,0h0l-.27-.07-.18,0h-.06l-.31-.08-.41-.1h-.05l-.14,0-.25-.06L230,25l-.08,0-.1,0-.2,0h0L229,24.7h-.1l-.11,0-.09,0-.35-.08h-.06l-.07,0h0l-.4-.09-.65-.15h0l-.09,0H227l-.15,0-.1,0-.28-.07L226.1,24l-.43-.1-.13,0-.09,0-.11,0-.18,0-.14,0-.11,0-.82-.19-.51-.12h0l-.43-.1-.38-.08-.5-.12-.31-.07h0l-.09,0h0l-.2,0-.52-.12-.24-.06h0l-.11,0h-.05l-.29-.06-.19-.05-.11,0h0l-.15,0-.06,0h-.05l-.07,0-.26-.05-.15,0h-.08l-.07,0-.09,0h0l-.08,0-.21,0-.09,0h-.24l-.11,0-.06,0h-.43l-.11,0-.08,0h-.15l-.11,0-.19,0-.1,0h-.08l-.09,0h-.07l-.14,0-.25.06h-.07l-.07,0h0l-.19.05H216l-.08,0-.38.09h0l-.12,0h-.06l-.16,0h0l-.14,0-.21.05-.33.07h0l-.09,0h0l-.11,0-.12,0H214l0,0-.21,0-.12,0-.35.08-.15,0h-.09l-.1,0-.23.06h-.07l-.27.07-.1,0-.17,0-.28.07-.13,0-.34.08-.07,0h-.05l-.29.07-.35.08-.14,0h0l-.33.08-.36.08h-.09l-.35.09-.24.05-.11,0-.09,0-.37.09h0l-.08,0-.22.05-.14,0-.22.05-.29.07-.23.06h0l-.08,0-.59.14-.1,0-.79.19-.13,0-.09,0-.08,0-.49.11-.07,0-.07,0h0l-.1,0-.49.12-.42.1-.15,0h-.08l-.24.05-.25.07h0l-.09,0-.12,0-.41.1-.53.13-.19,0h0l-.13,0-.5.12h0l-.59.14-.65.16h-.05l-.06,0h0l-.2,0-.24.06-.09,0-.37.09-.52.13-.4.1-.11,0h0l-.32.08h-.07l-.17,0h0l-.11,0-.36.09-.48.11-.25.07-.16,0-.25.06h0l-.19.05-.1,0-.71.18-.32.08-.29.07-.21.06-.24.05h0l-1,.26-.44.11-.08,0-.12,0h0l-.27.07h-.1l-.52.13-.5.13-.43.11-.08,0h-.11l-.2.06h-.05l-.21.05-.09,0-.92.23-.19.05-.19.05-.08,0-.19.05h-.06l-.29.08-.38.1-.58.15-.32.08-.07,0h0l-.1,0h-.1l-.4.11-.25.06-.94.25H184l-.07,0-.06,0-.52.14-.3.07-.59.16-.17.05h-.05l-.08,0-.11,0-.5.13-.24.07-.61.16-.11,0h0l-.2.05-.52.14-.32.09-.47.13-.49.14-.28.07-.37.11-.38.1-.24.07-.46.13-.29.09-.36.11-.26.07-.37.11-.14.05Z" style="fill:none"/><path d="M262.8,45.36a4.5,4.5,0,0,0-.67-2.35l-.05,0a4.52,4.52,0,0,0-1.4-1l-.08,0a4.67,4.67,0,0,0-.8-.26l-.15,0a4.32,4.32,0,0,0-.88-.1,4.61,4.61,0,0,0-3.54,1.68,4.68,4.68,0,0,0-.69,1.14,4.45,4.45,0,0,0,.36,4.18,4.57,4.57,0,0,0,7.9-3.16Z" style="fill:none"/><path d="M181.76,44.45a4,4,0,0,0-.35-.64,4.1,4.1,0,0,1,.38.72Z" style="fill:none"/><path d="M165.6,37.77h0l105.09-.18h2.74a2.73,2.73,0,0,0-.23-.7,6,6,0,0,0-5.35-3.23H263.6l-90.93.15h-4.25a6,6,0,0,0-5.34,3.24,3.18,3.18,0,0,0-.23.7h2.75Z" style="fill:none"/><polygon points="140.09 82.07 170.96 82.02 171.86 82.01 173.77 82.01 174.67 82.01 261.76 81.87 262.66 81.86 264.57 81.86 265.47 81.86 296.34 81.81 297.24 81.81 298.85 81.81 296.59 77.46 293.58 77.46 292.68 77.46 265.46 77.51 264.56 77.51 262.66 77.51 261.76 77.51 174.66 77.66 173.76 77.66 171.85 77.66 170.95 77.66 143.74 77.71 142.84 77.71 139.82 77.71 137.58 82.07 139.19 82.07 140.09 82.07" style="fill:none"/><path d="M171.87,86.66h2.8l9.23,0h1.43a3.37,3.37,0,0,0-1-1.9,2,2,0,0,0-1.37-.61H171L141,84.2a1.82,1.82,0,0,0-.93.27h0a2.27,2.27,0,0,0-.49.39l0,0,0,0h0a2.43,2.43,0,0,0-.24.3,1.77,1.77,0,0,0-.16.22h0a3.94,3.94,0,0,0-.26.55h0l-.06.14h0a3.16,3.16,0,0,0-.14.59h1.43l30.87,0Z" style="fill:none"/><polygon points="170.95 76.76 171.85 76.76 173.98 76.76 262.43 76.61 264.56 76.61 265.46 76.61 292.68 76.56 292.65 63.39 280.34 63.41 279.44 63.41 271.63 63.42 270.73 63.42 165.64 63.6 164.74 63.6 156.93 63.61 156.03 63.61 143.71 63.63 143.74 76.81 170.95 76.76" style="fill:none"/><path d="M181.56,45.49a4.51,4.51,0,0,0-.67-2.36,4.58,4.58,0,0,0-6.9.2,4.88,4.88,0,0,0-.69,1.14,4.43,4.43,0,0,0-.35,1.79,4.49,4.49,0,0,0,.68,2.37,4.58,4.58,0,0,0,7.93-3.14Z" style="fill:none"/><rect x="153.99" y="132.5" width="16.16" height="0.72" transform="translate(-0.22 0.27) rotate(-0.09)" style="fill:none"/><path d="M165.62,52.3l105.09-.18,0-13.63-105.09.18Zm93.15-11.68a5.5,5.5,0,1,1-5.48,5.5A5.51,5.51,0,0,1,258.77,40.62Zm-66.91.49L244.43,41a5.12,5.12,0,1,1,0,10.24l-52.57.08a5.12,5.12,0,0,1,0-10.23Zm-14.33-.35a5.49,5.49,0,1,1-5.48,5.5A5.49,5.49,0,0,1,177.53,40.76Z" style="fill:none"/><polygon points="164.74 62.7 165.64 62.7 270.73 62.52 271.63 62.52 279.44 62.51 279.43 53.01 271.61 53.02 270.71 53.02 165.63 53.2 164.72 53.2 156.91 53.21 156.93 62.71 164.74 62.7" style="fill:none"/><polygon points="178.53 149.3 178.97 149.3 178.94 134.11 178.51 134.11 177.61 134.11 175.71 134.11 175.74 149.31 177.63 149.31 178.53 149.3" style="fill:none"/><path d="M144.14,154.67l0,22.88a31.92,31.92,0,0,1,6.77-6.07l0-16.82Z" style="fill:none"/><path d="M174.79,154.62H173.3v6.16a26.76,26.76,0,0,1,4.79-.42c.67,0,1.33,0,2,.08v-5.83Z" style="fill:none"/><path d="M172,154.62h-.9l-19.25,0,0,16.27a22.93,22.93,0,0,1,7.82-2.95,25.6,25.6,0,0,1,12.74-7v-6.34Z" style="fill:none"/><path d="M245.05,28.59l-.09,0,.14,0Z" style="fill:#ca57a2"/><path d="M197.2,27.18l-.15,0h0Z" style="fill:#ca57a2"/><path d="M255.83,31.36h0Z" style="fill:#ca57a2"/><path d="M254.24,30.94h0l-.08,0h0Z" style="fill:#ca57a2"/><path d="M182.22,31h0l-.08,0h0l.08,0Z" style="fill:#ca57a2"/><polygon points="271.58 37.59 273.43 37.59 273.43 37.59 271.58 37.59 271.58 37.59" style="fill:#ca57a2"/><path d="M208.42,24.45l-.17,0-.19.05.14,0Z" style="fill:#ca57a2"/><polygon points="218.12 22.21 218.12 22.22 218.13 22.22 218.12 22.21" style="fill:#ca57a2"/><polygon points="217.94 22.24 217.93 22.25 217.94 22.24 217.94 22.24" style="fill:#ca57a2"/><polygon points="218.3 22.24 218.29 22.24 218.29 22.24 218.3 22.24" style="fill:#ca57a2"/><polygon points="218.11 22.22 218.1 22.22 218.12 22.22 218.11 22.22" style="fill:#ca57a2"/><polygon points="164.7 37.77 162.85 37.77 162.85 37.77 164.7 37.77 164.7 37.77" style="fill:#ca57a2"/><path d="M140.1,87.61l30.87,0h3.71l9.23,0L184,161q.45.09.9.21l-.12-73.67h.52a.89.89,0,0,0,.68-.31.91.91,0,0,0,.22-.71,4.2,4.2,0,0,0-.24-.89l64.47-.1a4.12,4.12,0,0,0-.24.88.9.9,0,0,0,.21.72.93.93,0,0,0,.68.3h.53l.07,44.62.9-.32-.07-44.3,9.23,0h3.71l30.87,0,.12,73.11c.6.05,1.2.13,1.8.23l-.12-72.48a1.77,1.77,0,0,0,1-.58,1.8,1.8,0,0,0,.43-1.42,5.12,5.12,0,0,0-1.18-2.61h.47a1.83,1.83,0,0,0,1.54-.87,1.78,1.78,0,0,0,.06-1.76l-2.26-4.35a1.8,1.8,0,0,0-1.6-1h-2.11l0-12.27a1.81,1.81,0,0,0-1.81-1.8l-11.41,0V53a1.81,1.81,0,0,0-1.81-1.8h-6.91l0-11.83h.95a1.8,1.8,0,0,0,1.76-2.16c-.53-2.58-3.49-5.37-7.36-5.37h-3.91c-6.5-2.36-41.14-10.62-45.4-11.4h0a1.81,1.81,0,0,0-.4,0h0a1.72,1.72,0,0,0-.39,0h0c-4.23.79-38.87,9.16-45.37,11.55h-3.92c-3.87,0-6.82,2.8-7.33,5.39a1.8,1.8,0,0,0,1.76,2.15h1l0,11.83h-6.91a1.8,1.8,0,0,0-1.8,1.8v8.6l-11.41,0a1.81,1.81,0,0,0-1.8,1.81l0,12.27h-2.11a1.82,1.82,0,0,0-1.6,1L136,81.25A1.78,1.78,0,0,0,136,83a1.82,1.82,0,0,0,1.54.86h.48a5.19,5.19,0,0,0-1.18,2.61,1.81,1.81,0,0,0,1.42,2l.16,97.92a35.68,35.68,0,0,1,1.79-3.43Zm45.43-2.88a3.16,3.16,0,0,0-2.56-1.5H171L141,83.3a2.65,2.65,0,0,0-.93.18V83l30.87,0h3.71l87.1-.14h3.7l30.87-.05v.52a2.62,2.62,0,0,0-.93-.19l-29.94,0h-12a3.16,3.16,0,0,0-2.55,1.52Zm111.72,1.73h-.9l-30.87.05h-3.71l-9.23,0h-1.43a3.37,3.37,0,0,1,1-1.9,2,2,0,0,1,1.37-.62h12l29.94,0a1.76,1.76,0,0,1,.92.27h0a2.63,2.63,0,0,1,.49.39s0,0,.05.05a2.48,2.48,0,0,1,.25.3,3.55,3.55,0,0,1,.44.78h0l0,.05,0,.08a3.92,3.92,0,0,1,.15.59Zm-40-54.71h0Zm-81.75,1.12.37-.11.26-.07.36-.11.29-.09.46-.13.24-.07.38-.1.37-.11.28-.07.49-.14.47-.13.32-.09.52-.14.2-.05h0l.11,0,.61-.16.24-.07.5-.13.11,0h0l.08,0h0l.17-.05.59-.16.3-.07.52-.14.06,0,.07,0H184l.94-.25.25-.06.4-.11h.1l.1,0h0l.07,0,.32-.08.58-.15.38-.1.29-.08h.06l.19-.05.08,0,.19-.05.19-.05.92-.23.09,0,.21-.05h.05l.2-.06h.11l.08,0,.43-.11.5-.13.52-.13h.1l.27-.07h0l.12,0,.08,0,.44-.11,1-.26h0l.24-.05.21-.06.29-.07.32-.08.71-.18.1,0,.19-.05h0l.25-.06.16,0,.25-.07.48-.11.36-.09.11,0,.15,0h.07l.32-.08h0l.11,0,.4-.1.52-.13.37-.09.09,0,.24-.06.2,0h0l.06,0h.05l.65-.16.59-.14h0l.5-.12.13,0h0l.19,0,.53-.13.41-.1.12,0,.09,0h0l.25-.07.24-.05h.08l.15,0,.42-.1.49-.12.13,0,.07,0,.07,0,.49-.11.08,0,.09,0,.13,0,.79-.19.1,0,.59-.14.08,0h0l.23-.06.29-.07.22-.05.19-.05.17,0,.08,0h0l.37-.09.09,0,.11,0,.24-.05.35-.09h.09l.36-.08.33-.08h0l.14,0,.35-.08.29-.07h.05l.07,0,.34-.08.13,0,.28-.07.17,0,.1,0,.27-.07h.07l.23-.06.1,0h.09l.15,0,.35-.08.12,0,.21,0,0,0h.05l.12,0,.11,0h0l.09,0h0l.33-.07.21-.05.14,0h0l.16,0h.06l.12,0h0l.38-.09.08,0h.12l.19-.05h0l.07,0h.07l.25-.06.14,0H217l.09,0h.08l.1,0,.19,0,.11,0h.15l.08,0,.11,0h.43l.06,0,.11,0h.24l.09,0,.21,0,.08,0h0l.09,0,.07,0h.08l.15,0,.26.05.07,0h.05l.06,0,.15,0h0l.11,0,.19.05.29.06h.05l.11,0h0l.24.06.52.12.2,0h0l.09,0h0l.31.07.5.12.38.08.43.1h0l.51.12.82.19.11,0,.14,0,.18,0,.11,0,.09,0,.13,0,.43.1.36.08.28.07.1,0,.15,0h.06l.09,0h0l.65.15.4.09h0l.07,0h.06l.35.08.09,0,.11,0h.1l.61.15h0l.25.07H230l.08,0,.27.06.25.06.14,0h.05l.41.1.31.08h.06l.18,0,.27.07h0l.16,0,.36.08.13,0h0l.12,0,.62.15h.06l.45.11.24.05.32.08.1,0,.31.08.52.12h0l.11,0,.25.06.22.05.2.05.33.08.61.15.19,0,.1,0,.11,0,.46.12.12,0h0l.46.11.59.15.08,0,.08,0h0l.26.07.45.11.12,0h0l.49.12.37.09.2.05.08,0,.46.11h0l.26.07h.12l.62.15.28.07h0l.09,0,.9.22.09,0,.1,0,.44.11.08,0h0l.09,0h0l.18,0,.67.16h0l.33.08h.05l0,0,.16,0,.4.09.07,0,.06,0,.16,0,.85.21.24.06.06,0h0l.18.05.28.07h.05l.14,0,.84.21.15,0,.22,0,.06,0h0l.31.08h.1l.28.07.39.11.58.15.16,0h0l.1,0,.18.05.09,0,.39.1.51.13.37.1.1,0H254l.14,0,.08,0h0l.24.06.24.07.63.16.24.07h.09l.06,0h.09l.22.06.39.1.41.12.38.1.41.11.37.1.37.11.24.06h.07l.05,0,.62.17.08,0,.47.14H260l.12,0,.35.1.27.08.15,0h0l-85.48.15h0Zm-12.68,4.9h0a3.18,3.18,0,0,1,.23-.7,6,6,0,0,1,5.34-3.24h4.25l90.93-.15h4.25a6,6,0,0,1,5.35,3.23,2.73,2.73,0,0,1,.23.7h-2.74l-105.09.18h-2.75ZM270.71,52.12l-105.09.18,0-13.63,105.09-.18Zm-106,1.08h.89L270.71,53h8.72v9.5h-8.71l-105.09.18h-8.71l0-9.5ZM156,63.61h9.61l105.09-.18h9.61l12.32,0,0,13.17-27.22,0h-3L174,76.76h-3l-27.21,0,0-13.18ZM137.58,82.07l2.24-4.36h3.92l27.21,0h3.71l87.1-.15h3.7l27.22-.05h3.91l2.26,4.35h-2.51l-30.87,0h-3.71L174.67,82H171l-30.87,0h-2.51Zm1.62,4.65h-.53a3.16,3.16,0,0,1,.14-.59h0l.06-.14h0a3.94,3.94,0,0,1,.26-.55h0a1.77,1.77,0,0,1,.16-.22,2.43,2.43,0,0,1,.24-.3h0l0,0,0,0a2.27,2.27,0,0,1,.49-.39h0a1.82,1.82,0,0,1,.93-.27l29.94,0h12a2,2,0,0,1,1.37.61,3.37,3.37,0,0,1,1,1.9H183.9l-9.23,0H171l-30.87,0Z" style="fill:#ca57a2"/><path d="M217.52,90.58a.93.93,0,0,0,.23,0h1l.22,0c24.28.89,24.61,24.63,24.61,25.64l0,20.35c.28-.21.57-.43.9-.65l0-19.7S244.39,90.61,219,89.68v-.05l-.75,0-.75,0v.05c-25.41,1-25.39,26.63-25.39,26.63l.08,48.22.9.66L193,116.3C193,115.3,193.28,91.55,217.52,90.58Z" style="fill:#ca57a2"/><path d="M217.61,101.16l.28,0h.72a1.24,1.24,0,0,0,.27,0c21.83.81,22.2,22.24,22.2,23.15l0,14.66c.29-.33.61-.68,1-1.08.23-.24.51-.5.81-.76l0-12.83s0-24.05-23.93-24.94v0l-.71,0-.7,0v0c-23.87,1-23.85,25-23.85,25l.07,41.37c.62.51,1.22,1.06,1.8,1.64l-.07-43C195.49,123.46,195.79,102,217.61,101.16Z" style="fill:#ca57a2"/><path d="M183.11,154.6a.92.92,0,0,0,.68-.3.9.9,0,0,0,.21-.72,3.47,3.47,0,0,0-2.72-3v-.37a.91.91,0,0,0-.91-.9h-.5l0-15.19h.5a.91.91,0,0,0,.9-.91v-2.79a1.18,1.18,0,0,0,.18-.13.93.93,0,0,0,.21-.71,3.59,3.59,0,0,0-.45-1.27c0-.06-.06-.12-.1-.17a.35.35,0,0,0-.05-.08L181,128a2.64,2.64,0,0,0-2.11-1.18h-1.74a3.07,3.07,0,0,0-1.5-1.86V124a.89.89,0,0,0-.88-.89h-.53V118h.53a.9.9,0,0,0,.87-.9v-.55h.94a.87.87,0,0,0,.67-.31.93.93,0,0,0,.22-.71c-.09-.68-.77-3.22-2.36-3.22H171l-22,0c-1.61,0-2.26,2.54-2.35,3.22a.91.91,0,0,0,.22.71.88.88,0,0,0,.67.31h.94v.56a.89.89,0,0,0,.9.89h.51v5.09h-.51a.9.9,0,0,0-.9.9V125a3.07,3.07,0,0,0-1.48,1.87h-1.75a2.65,2.65,0,0,0-2.1,1.19.86.86,0,0,0-.07.1l-.05.07-.1.17a3.59,3.59,0,0,0-.45,1.27.91.91,0,0,0,.22.71.7.7,0,0,0,.17.13v2.8a.9.9,0,0,0,.9.9h.5l0,15.2h-.51a.9.9,0,0,0-.9.9v.38a3.46,3.46,0,0,0-2.71,3,.93.93,0,0,0,.22.71.89.89,0,0,0,.67.3h2.13l0,24,.9-1.09,0-22.88h6.79l0,16.82c.3-.2.6-.38.9-.56l0-16.27,19.25,0h1.32V161q.43-.11.9-.18v-6.16h6.78v5.83l.9.06v-5.89Zm-3.24-4.4h.51v.34h-6v-.34h5.54Zm-6.44.35h-.8l0-16.45a.89.89,0,0,0-.66-.85.64.64,0,0,0-.24,0h-.64v-.72s0-.05,0-.08a.89.89,0,0,0-.88-.82l-16.17,0a.9.9,0,0,0-.9.9v.72h-.65a.9.9,0,0,0-.9.9l0,16.45h-.8v-.34a.91.91,0,0,0-.91-.9h-.5l0-15.19h.51a.91.91,0,0,0,.9-.91v-2.61l20.3,0h2.36v2.62a.95.95,0,0,0,.91.9h.5l0,15.2h-.51a.85.85,0,0,0-.45.14.9.9,0,0,0-.45.76ZM154,134.13l16.16,0h1.55l0,16.45h-.66l-18.59,0,0-16.45H154Zm0-1.61,16.17,0v.72l-16.16,0Zm21.72,1.59H179l0,15.19h-3.23Zm4.13-.9H174.3V130.6h6v2.62ZM174.21,124h.5v.83h-6V124h5.54Zm-5.54-.89a.89.89,0,0,0-.43.12v-5.33a.89.89,0,0,0,.43.12h.5v5.09Zm1.39-5.09h3.24v5.08h-3.23Zm4.13-.91h-5.53v-.55h6v.55Zm-25.69-1.41h-.94a5.52,5.52,0,0,1,.16-.7,5.34,5.34,0,0,1,.32-.8c.26-.52.6-.94,1-.94l22,0h4.06c.38,0,.72.43,1,1a4.61,4.61,0,0,1,.32.8,5.26,5.26,0,0,1,.17.69h-8.79l-11.41,0H148.5Zm8.28,8.53,10.56,0a.89.89,0,0,0,.43-.12v.76H156.36v-.75A.86.86,0,0,0,156.78,124.21Zm0-6.95h10.56v6l-10.56,0Zm-.89,6a.89.89,0,0,0-.42-.12H155V118h.51a.89.89,0,0,0,.42-.12Zm-6-6.1h-.51v-.55h6v.55h-5.54Zm4.14,6h-3.23V118H154Zm-4.13.91h5.54v.84h-6.05V124Zm-1.41,2a.76.76,0,0,1,.53-.27h26.05a.76.76,0,0,1,.52.27,3,3,0,0,1,.52.8h-8l-12.11,0h-8A2.67,2.67,0,0,1,148.51,126Zm-5.1,3.72a2.53,2.53,0,0,1,.39-1.06s0,0,0,0l.21-.29a1.82,1.82,0,0,1,1-.61,1.26,1.26,0,0,1,.28,0h2.39l23.35,0h7.82a.86.86,0,0,1,.28,0,1.76,1.76,0,0,1,1,.62,1.46,1.46,0,0,1,.21.28l0,0a2.7,2.7,0,0,1,.4,1.06H171l-20.3,0h-7.33Zm.9,3.52h-.5v-2.62h6v2.62h-5.54Zm4.16,16.08h-3.23l0-15.2h3.23Zm-4.13.91h5.54v.34h-6v-.34Zm35.74,3.45h-9l-19.25,0H141.11a2.93,2.93,0,0,1,.44-1.18,2.11,2.11,0,0,1,.28-.37,2,2,0,0,1,1.11-.68,1.35,1.35,0,0,1,.29,0h9.25l18.59,0H181a1.45,1.45,0,0,1,.29,0,2.06,2.06,0,0,1,1.11.67,3.58,3.58,0,0,1,.28.37,2.93,2.93,0,0,1,.44,1.18h-3Z" style="fill:#ca57a2"/><path d="M295.55,154.42a.89.89,0,0,0,.68-.31.87.87,0,0,0,.21-.71,3.46,3.46,0,0,0-2.72-3V150a.9.9,0,0,0-.9-.89h-.51l0-15.2h.5a.9.9,0,0,0,.9-.9v-2.8a1,1,0,0,0,.17-.13.9.9,0,0,0,.21-.71,3.59,3.59,0,0,0-.45-1.27l-.09-.16-.06-.08a.71.71,0,0,0-.07-.09,2.65,2.65,0,0,0-2.11-1.19h-1.74a3.12,3.12,0,0,0-1.49-1.86v-.94a.89.89,0,0,0-.9-.89h-.5v-5.09h.5a.9.9,0,0,0,.9-.9v-.55H289a.89.89,0,0,0,.67-.3.93.93,0,0,0,.22-.71c-.09-.68-.76-3.22-2.36-3.22l-22,0h-4.06c-1.6,0-2.26,2.55-2.35,3.23a.93.93,0,0,0,.22.71.92.92,0,0,0,.68.3h.93V117a.91.91,0,0,0,.88.9h.53v5.09h-.53a.9.9,0,0,0-.88.9v.94a3.05,3.05,0,0,0-1.49,1.86h-1.74a2.65,2.65,0,0,0-2.11,1.19,1,1,0,0,0-.08.11l0,0-.11.19a3.38,3.38,0,0,0-.44,1.27.89.89,0,0,0,.21.71,1,1,0,0,0,.17.12V131c.3-.06.6-.1.9-.14v-.43h6.05v.4l.9.15v-.55h2.36l20.29,0V133a.9.9,0,0,0,.9.9h.5l0,15.19h-.51a.9.9,0,0,0-.9.9v.34h-.8l0-16.45a.9.9,0,0,0-.9-.9h-.65v-.71a.9.9,0,0,0-.9-.9l-16.16,0a.87.87,0,0,0-.67.33q.64.26,1.29.57l15.54,0V133l-14.3,0a14.72,14.72,0,0,1,1.23.89l13.07,0h1.55l0,16.45h-7.57c0,.3.05.6.08.9h16.74a1.45,1.45,0,0,1,.29,0,2.1,2.1,0,0,1,1.11.68,2.48,2.48,0,0,1,.28.36,3,3,0,0,1,.44,1.19h-3l-6.78,0h-8.92l0,.9h8v7.08l.9-.23v-6.86h6.78v6c.3,0,.6,0,.9,0v-6Zm-8.9-30.62h.5v.83h-6v-.83h5.54Zm-5.54-.89a.89.89,0,0,0-.43.12V117.7a.89.89,0,0,0,.43.12h.51v5.09Zm1.4-5.09h3.23v5.09h-3.24Zm4.13-.91H281.1v-.55h6v.55Zm-24.82-1.41H260c0-.11.05-.25.09-.4a4.54,4.54,0,0,1,.22-.69c.05-.14.11-.27.17-.4.26-.52.6-1,1-1h4.06l22,0c.38,0,.72.42,1,.94a2.87,2.87,0,0,1,.18.4,4.31,4.31,0,0,1,.22.7c0,.14.07.28.09.39H280.2l-11.42,0h-7Zm7.4,8.52,10.56,0a.89.89,0,0,0,.43-.12v.76l-11.41,0v-.76A.89.89,0,0,0,269.22,124Zm0-6.94,10.56,0v6H269.22Zm-.89,6a.89.89,0,0,0-.42-.12h-.51v-5.09h.51a.83.83,0,0,0,.42-.12Zm-6-6.1h-.51v-.55h6.05v.55h-5.54Zm4.14,6h-3.23v-5.09h3.23Zm-4.13.91h5.54v.83h-6v-.83Zm-1.4,2a.78.78,0,0,1,.52-.27h7.32l11.41,0h7.32a.76.76,0,0,1,.53.27,2.9,2.9,0,0,1,.51.8h-8l-12.11,0h-8A2.75,2.75,0,0,1,261,125.84Zm24.88,3.67h0l-20.29,0h-9.7A2.56,2.56,0,0,1,256,129a3.16,3.16,0,0,1,.26-.52l0,0a2.55,2.55,0,0,1,.21-.28,1.78,1.78,0,0,1,1-.62,1.27,1.27,0,0,1,.28,0h7.82l23.34,0h2.4a1.26,1.26,0,0,1,.28,0,1.82,1.82,0,0,1,1,.61l.21.28v0a2.66,2.66,0,0,1,.4,1.05h-7.34Zm1.41,3.52h-.5v-2.62h6.05V133h-5.54Zm4.16,16.09h-3.23l0-15.19h3.24Zm.9,1.24h-5.53V150h6.05v.34Z" style="fill:#ca57a2"/><path d="M197.21,27.18h0Z" style="fill:#ca57a2"/><path d="M230,24.93h-.05l-.25-.07.2,0Z" style="fill:#ca57a2"/><path d="M243.31,28.16l-.09,0h0l.1,0Z" style="fill:#ca57a2"/><polygon points="211.31 23.77 211.31 23.77 211.31 23.77 211.31 23.77" style="fill:#ca57a2"/><path d="M204.78,25.33l-.13,0,.1,0Z" style="fill:#ca57a2"/><polygon points="218.29 22.24 218.29 22.24 218.29 22.24 218.29 22.24" style="fill:#ca57a2"/><path d="M209.75,24.13h0Z" style="fill:#ca57a2"/><path d="M258.79,51.61a5.5,5.5,0,1,0-5.5-5.49A5.51,5.51,0,0,0,258.79,51.61ZM263,44.32l0,.07a5.12,5.12,0,0,0-.39-.73A3.53,3.53,0,0,1,263,44.32Zm-8.82,1.8a4.6,4.6,0,0,1,.36-1.78,4.68,4.68,0,0,1,.69-1.14,4.61,4.61,0,0,1,3.54-1.68,4.32,4.32,0,0,1,.88.1l.15,0a4.67,4.67,0,0,1,.8.26l.08,0a4.52,4.52,0,0,1,1.4,1l.05,0a4.5,4.5,0,0,1,.67,2.35,4.57,4.57,0,0,1-7.9,3.16A4.57,4.57,0,0,1,254.18,46.12Z" style="fill:#ca57a2"/><path d="M177.55,51.74a5.49,5.49,0,1,0-5.5-5.48A5.5,5.5,0,0,0,177.55,51.74Zm4.21-7.29,0,.08a4.1,4.1,0,0,0-.38-.72A4,4,0,0,1,181.76,44.45ZM173,46.26a4.43,4.43,0,0,1,.35-1.79,4.88,4.88,0,0,1,.69-1.14,4.58,4.58,0,0,1,6.9-.2,4.51,4.51,0,0,1,.67,2.36,4.58,4.58,0,0,1-7.93,3.14A4.49,4.49,0,0,1,173,46.26Z" style="fill:#ca57a2"/><path d="M191.88,51.34l52.57-.08a5.12,5.12,0,1,0,0-10.24l-52.57.09a5.12,5.12,0,0,0,0,10.23Zm-4.22-5.11A4.21,4.21,0,0,1,191.87,42l52.56-.09a4.23,4.23,0,0,1,4.23,4.21h0a4.22,4.22,0,0,1-4.21,4.23l-52.57.08a4.19,4.19,0,0,1-3-1.23,4,4,0,0,1-.91-1.34A4.21,4.21,0,0,1,187.66,46.23Z" style="fill:#ca57a2"/><path d="M274.48,109.77a5.49,5.49,0,1,0-5.5-5.48A5.49,5.49,0,0,0,274.48,109.77Zm4.24-7.21a4.6,4.6,0,0,0-.9-1.4A4.6,4.6,0,0,1,278.72,102.56Zm-8.84,1.73a4.58,4.58,0,0,1,7.94-3.13,4.52,4.52,0,0,1,.68,2.36,4.59,4.59,0,0,1-4.58,4.6,3.63,3.63,0,0,1-4-3.83Z" style="fill:#ca57a2"/><path d="M162,99a5.5,5.5,0,1,0,5.5,5.48A5.5,5.5,0,0,0,162,99Zm-.55,9.34a4.25,4.25,0,1,1,3.91-7,4.68,4.68,0,0,1,.68,2.37A4.6,4.6,0,0,1,161.47,108.31Z" style="fill:#ca57a2"/><path d="M128.54,156V236l3.61,8.76c-.46.8-1.09,1.78-1.89,2.92a24,24,0,0,1-5.24,4.64,14.49,14.49,0,0,1-8.67,2.92q-9.63,0-12.89-9.62-5.49,9.61-16.14,9.62t-17.18-7a24,24,0,0,1-6.53-17.09V204.77q0-17,9.79-27.06a32.26,32.26,0,0,1,24-10,24.87,24.87,0,0,1,4.81.51,106.24,106.24,0,0,0-3.09-22l-.86-3.43c.45-.57,1.11-1.32,2-2.24a24.86,24.86,0,0,1,5.59-3.69,18.92,18.92,0,0,1,9.1-2.32Q128.54,134.51,128.54,156ZM88.17,221.6q0,6.71,3,9.88t11.08,3.69V197.73a9.18,9.18,0,0,0-3.87-7q-3.35-2.33-10.22-3.69Z" style="fill:#7a002c"/><path d="M197.42,230.71a6.73,6.73,0,0,1,1.89,5,13.63,13.63,0,0,1-1.63,6.27,23.17,23.17,0,0,1-4.81,6.18,25.18,25.18,0,0,1-9,5.07,38.29,38.29,0,0,1-12.79,2.06,36.65,36.65,0,0,1-12.46-2A33,33,0,0,1,148.13,247q-10.83-9.61-10.83-31.43t7.39-32.38q7.38-10.56,16.83-11.59a21.82,21.82,0,0,1,16.58-7.39,19.93,19.93,0,0,1,15.8,7q6.1,7,6.1,19.24,0,14.27-10.48,22.5a60.36,60.36,0,0,1-20.61,10.48q6,7.9,19.93,7.9A59.86,59.86,0,0,0,197.42,230.71Zm-21.3-31.78q0-10.49-12.88-11.51v15.46a45.28,45.28,0,0,0,1.37,12.37Q176.13,208.89,176.12,198.93Z" style="fill:#7a002c"/><path d="M208.25,235V169.73q0-14.26-2.75-23.71l-1-3.26c.45-.57,1.11-1.32,2-2.24a25,25,0,0,1,5.58-3.69,18.62,18.62,0,0,1,8.94-2.32q13.56,0,13.57,21.47V236l3.78,8.76c-.46.8-1.09,1.78-1.89,2.92a23.86,23.86,0,0,1-5.33,4.64,14.88,14.88,0,0,1-8.76,2.92Q208.25,255.27,208.25,235Z" style="fill:#7a002c"/><path d="M273,235q0,8.42,2.06,12.54-1,2.75-5.75,5.24a22.12,22.12,0,0,1-10.48,2.49q-5.76,0-8.93-3.52t-3.18-9.54V169.73q0-14.26-2.75-23.71l-1-3.26c.46-.57,1.12-1.32,2-2.24a25,25,0,0,1,5.58-3.69,18.61,18.61,0,0,1,8.93-2.32Q273,134.51,273,156v20.1a19.86,19.86,0,0,1,7.39-8.41q5.14-3.43,13.83-3.44A19.43,19.43,0,0,1,309.08,171q6.18,6.8,6.18,18.64V236l3.78,8.76c-.46.8-1.09,1.78-1.89,2.92a23.62,23.62,0,0,1-5.33,4.64,14.86,14.86,0,0,1-8.76,2.92Q289,255.27,289,235V201.85q0-9.45-3.44-12.71T273,185.87Z" style="fill:#7a002c"/><path d="M355.11,139.24q0,7.13-3.43,11.68t-10.4,4.55q-7,0-10.3-5.07t-5.59-15.54c.46-.8,1.09-1.81,1.89-3a23.85,23.85,0,0,1,5.24-4.81,13.83,13.83,0,0,1,8.33-3q7.9,0,11.08,4T355.11,139.24Zm-12.88,116q-14.09,0-14.09-20.27,0-51.52,1.2-67.85,3.62-3.61,11.51-3.61,13.57,0,13.57,21.47v51l3.78,8.76c-.46.8-1.09,1.78-1.89,2.92a23.51,23.51,0,0,1-5.32,4.64A14.88,14.88,0,0,1,342.23,255.27Z" style="fill:#7a002c"/></svg>