<?xml version="1.0" encoding="utf-8"?>
<!-- Generator: Adobe Illustrator 22.0.1, SVG Export Plug-In . SVG Version: 6.00 Build 0)  -->
<svg version="1.1" id="Layer_1" xmlns="http://www.w3.org/2000/svg" xmlns:xlink="http://www.w3.org/1999/xlink" x="0px" y="0px"
	 viewBox="0 0 418.6 354.2" style="enable-background:new 0 0 418.6 354.2;" xml:space="preserve">
<style type="text/css">
	.st0{fill:#FFFFFF;}
	.st1{fill:#DBEFF6;}
	.st2{clip-path:url(#SVGID_2_);fill:none;stroke:#EAB72F;stroke-miterlimit:10;}
	.st3{clip-path:url(#SVGID_2_);}
	.st4{fill:#F3EED9;}
	.st5{fill:#EAB72F;}
	.st6{fill:#256637;}
	.st7{fill:#EB9D41;}
	.st8{fill:#B9BA9D;}
	.st9{fill:#5E0042;}
	.st10{fill:none;stroke:#5E0042;stroke-miterlimit:10;}
	.st11{fill:#7C003E;}
	.st12{opacity:0.6;}
	.st13{fill:#7BCCC0;}
	.st14{display:none;fill:#7C003E;}
	.st15{fill:none;stroke:#CA57A2;stroke-width:7;stroke-miterlimit:10;}
	.st16{fill:none;stroke:#FEC621;stroke-width:7;stroke-miterlimit:10;}
	.st17{fill:none;stroke:#FF5460;stroke-width:7;stroke-miterlimit:10;}
	.st18{fill:none;}
	.st19{fill:none;stroke:#1D1D1B;stroke-miterlimit:10;}
	.st20{fill:none;stroke:#5E0042;stroke-width:16;stroke-miterlimit:10;}
	.st21{fill:none;stroke:#CA57A2;stroke-width:16;stroke-miterlimit:10;}
	.st22{fill:none;stroke:#FEC621;stroke-width:16;stroke-miterlimit:10;}
	.st23{fill:none;stroke:#FF5460;stroke-width:16;stroke-miterlimit:10;}
	.st24{fill:none;stroke:#7BCCC0;stroke-width:16;stroke-miterlimit:10;}
	.st25{fill:#EC4863;}
	.st26{fill:#FFC861;}
	.st27{fill:#CA57A2;}
	.st28{fill:none;stroke:#FFFFFF;stroke-miterlimit:10;}
	.st29{fill:#AB9860;}
	.st30{fill:#E1D8C3;}
	.st31{fill:#262729;}
	.st32{fill:#F19541;}
	.st33{fill:#434F47;}
	.st34{fill:#AC8E6F;}
	.st35{fill:#003A75;}
	.st36{fill:#1D1D1B;}
	.st37{fill-rule:evenodd;clip-rule:evenodd;fill:#FFFFFF;}
	.st38{fill:#FEC621;}
	.st39{fill-rule:evenodd;clip-rule:evenodd;fill:#5E0042;}
	.st40{fill-rule:evenodd;clip-rule:evenodd;fill:#FF5460;}
	.st41{fill:#EDEDED;}
	.st42{opacity:0.35;}
	.st43{fill:#5E0042;stroke:#5E0042;stroke-miterlimit:10;}
	.st44{fill:#CA9E67;}
	.st45{fill:#FCEA10;}
	.st46{fill:none;stroke:#FEC621;stroke-width:6;stroke-linecap:round;stroke-miterlimit:10;}
	.st47{fill:none;stroke:#FEC621;stroke-width:12;stroke-linecap:round;stroke-miterlimit:10;}
	.st48{fill:none;stroke:#FEC621;stroke-width:12;stroke-linecap:round;stroke-miterlimit:10;stroke-dasharray:0,25.9523;}
	.st49{fill:none;stroke:#FEC621;stroke-width:12;stroke-linecap:round;stroke-miterlimit:10;stroke-dasharray:0,25.8828;}
	.st50{fill:#FF5460;}
	.st51{clip-path:url(#SVGID_4_);}
	.st52{fill:#ED942C;}
	.st53{fill:#931B21;}
	.st54{fill:#162550;}
	.st55{opacity:0.9;clip-path:url(#SVGID_6_);}
	.st56{fill:#446135;}
	.st57{fill:#E3992B;}
	.st58{fill:#D4D3C9;}
	.st59{fill:#452915;}
	.st60{fill:#C74632;}
	.st61{fill:none;stroke:#5E0042;stroke-width:2;stroke-miterlimit:10;}
	.st62{display:none;}
	.st63{display:inline;fill:#5E0042;}
	.st64{display:inline;}
	.st65{fill:#D3B975;}
	.st66{fill:#A31D2F;}
	.st67{fill:#2B4057;}
	.st68{fill:#FAD53B;}
	.st69{fill:#F06683;}
	.st70{fill:#78081B;}
	.st71{fill:#040607;}
	.st72{fill:#893320;}
	.st73{fill:#B17F4A;}
	.st74{fill:#070D5C;}
	.st75{fill:#CF503F;}
	.st76{display:inline;fill:#FF5460;}
	.st77{clip-path:url(#SVGID_8_);}
	.st78{fill:#9E2013;}
	.st79{fill:#C6C6C6;}
	.st80{fill:#263B7A;}
	.st81{fill:#070D36;}
	.st82{fill:#7A002C;}
	.st83{fill:#81C771;}
	.st84{fill:#4B7779;}
	.st85{fill:#E3D6C5;}
	.st86{fill:#924030;}
	.st87{fill:#D19657;}
	.st88{fill:#E2CEA8;}
	.st89{fill:#F5EDDD;}
	.st90{fill:#EF4057;}
	.st91{fill:#B7DFEE;}
	.st92{fill:#324486;}
	.st93{fill:#D05020;}
	.st94{fill:#FF776E;}
	.st95{fill:#D1E7E0;}
	.st96{fill:#7AC2AB;}
	.st97{fill:#4D7EAD;}
	.st98{fill:#E7D4AD;}
	.st99{fill:#E5D2AB;}
	.st100{fill:#D3B975;stroke:#D3B975;stroke-width:3;stroke-miterlimit:10;}
	.st101{fill:#C6C6C6;stroke:#C6C6C6;stroke-width:3;stroke-miterlimit:10;}
	.st102{fill:#B0E0D9;}
	.st103{clip-path:url(#SVGID_10_);fill:#FFFFFF;}
	.st104{clip-path:url(#SVGID_12_);fill:#7EC6BC;}
</style>
<path class="st0" d="M308.6,291.8v-34.3h27.8c44.3,0,80.2-36,80.2-80.3s-35.9-80.3-80.2-80.3h-27.8V62.5c-3.9,0-5.5,0.1-8.3,0.1
	c-41.5,0-75.7-24.5-90.9-60.6c-15.2,36.1-49.5,60.6-90.9,60.6c-2.8,0-4.4-0.1-8.3-0.1v34.3H82.2c-44.3,0-80.2,36-80.2,80.3
	s35.9,80.3,80.2,80.3H110v34.3c3.9,0,5.5-0.1,8.3-0.1c41.5,0,75.7,24.5,90.9,60.6c15.2-36.1,49.5-60.6,90.9-60.6
	C303,291.7,304.7,291.8,308.6,291.8z"/>
<g>
	<g>
		<path class="st38" d="M140.6,250.9c-0.6,0-1-0.5-1-1l-0.3-161.1c0-0.4-0.3-0.7-0.6-0.8c-0.2,0-0.4-0.2-0.6-0.3
			c-0.2-0.2-0.3-0.5-0.2-0.8c0.1-0.8,0.5-1.6,1-2.2c0.2-0.2,0.2-0.6,0.1-0.8c-0.1-0.3-0.4-0.5-0.7-0.5c0,0-0.5,0-0.5,0
			c-0.4,0-0.7-0.2-0.9-0.5c-0.2-0.3-0.2-0.7,0-1l2.2-4.4c0.2-0.3,0.5-0.6,0.9-0.6l2.1,0c0.2,0,0.4-0.1,0.6-0.2
			c0.1-0.1,0.2-0.3,0.2-0.6l0-12.3c0-0.6,0.5-1,1-1l11.4,0c0.2,0,0.4-0.1,0.6-0.2c0.1-0.1,0.2-0.3,0.2-0.6l0-8.6c0-0.6,0.5-1,1-1
			l6.9,0c0.2,0,0.4-0.1,0.6-0.2c0.1-0.1,0.2-0.3,0.2-0.6l0-11.8c0-0.2-0.1-0.4-0.2-0.6c-0.1-0.1-0.3-0.2-0.5-0.2c0,0-1,0-1,0
			c-0.3,0-0.6-0.1-0.8-0.4c-0.2-0.2-0.3-0.5-0.2-0.8c0.5-2.3,3.1-4.8,6.6-4.8l3.9,0c0.1,0,0.2,0,0.3,0c6.3-2.3,40.8-10.7,45.2-11.5
			c0,0,0.1,0,0.1,0c0,0,0.1,0,0.1,0c0.1,0,0.1,0,0.1,0c0,0,0.1,0,0.1,0c4.4,0.8,39,9.1,45.3,11.4c0.1,0,0.2,0,0.3,0c0,0,3.9,0,3.9,0
			c3.5,0,6.1,2.5,6.6,4.7c0.1,0.3,0,0.6-0.2,0.8c-0.2,0.2-0.5,0.4-0.8,0.4l-0.9,0c-0.4,0-0.8,0.3-0.8,0.8l0,11.8
			c0,0.4,0.3,0.8,0.8,0.8c0,0,6.9,0,6.9,0c0.6,0,1,0.5,1,1l0,8.6c0,0.2,0.1,0.4,0.2,0.6c0.1,0.1,0.3,0.2,0.5,0.2l11.4,0
			c0.6,0,1,0.5,1,1l0,12.3c0,0.2,0.1,0.4,0.2,0.6c0.1,0.1,0.3,0.2,0.5,0.2l2.1,0c0.4,0,0.7,0.2,0.9,0.6l2.3,4.3c0.2,0.3,0.2,0.7,0,1
			c-0.2,0.3-0.5,0.5-0.9,0.5l-0.5,0c-0.3,0-0.6,0.2-0.7,0.5s-0.1,0.6,0.1,0.8c0.5,0.6,0.9,1.4,1,2.2c0,0.3,0,0.6-0.2,0.8
			c-0.1,0.2-0.3,0.3-0.6,0.3c-0.4,0.1-0.6,0.4-0.6,0.8l0.3,161.1c0,0.3-0.1,0.5-0.3,0.7c-0.2,0.2-0.4,0.3-0.7,0.3l-53.5,0.1
			c-0.6,0-1-0.5-1-1l-0.2-125.1c0-0.9-0.4-23.1-23-23.9c0,0-0.1,0-0.2,0c0,0-0.1,0-0.1,0c0,0-0.4,0-0.4,0s-0.3,0-0.3,0
			c0,0-0.1,0-0.1,0c-0.1,0-0.1,0-0.2,0c-22.6,0.9-22.9,23-22.9,24l0.2,125.1c0,0.6-0.5,1-1,1L140.6,250.9L140.6,250.9z"/>
		<g>
			<g>
				<path class="st27" d="M245.3,29c0.1,0,0.1,0,0.2,0C245.4,29,245.3,29,245.3,29c-0.1,0-0.1,0-0.1,0C245.2,28.9,245.3,29,245.3,29
					z"/>
				<path class="st27" d="M197.4,27.5C197.4,27.5,197.5,27.5,197.4,27.5c0,0-0.1,0-0.2,0c0,0,0,0,0,0
					C197.3,27.6,197.4,27.6,197.4,27.5z"/>
				<path class="st27" d="M230.1,25.3C230.1,25.3,230.2,25.3,230.1,25.3C230.1,25.3,230.1,25.3,230.1,25.3c-0.1,0-0.2,0-0.3-0.1
					C230,25.2,230,25.3,230.1,25.3z"/>
				<path class="st27" d="M243.4,28.5C243.5,28.5,243.5,28.5,243.4,28.5C243.5,28.5,243.5,28.5,243.4,28.5
					C243.5,28.5,243.4,28.5,243.4,28.5C243.4,28.5,243.4,28.5,243.4,28.5z"/>
				<path class="st27" d="M256,31.7C256,31.7,256,31.7,256,31.7C256,31.7,256,31.7,256,31.7C256,31.7,256,31.7,256,31.7
					C256,31.7,256,31.7,256,31.7z"/>
				<path class="st27" d="M254.4,31.3C254.4,31.3,254.4,31.3,254.4,31.3C254.5,31.3,254.4,31.3,254.4,31.3
					C254.4,31.3,254.4,31.3,254.4,31.3C254.4,31.3,254.4,31.3,254.4,31.3z"/>
				<path class="st27" d="M182.4,31.4C182.4,31.4,182.4,31.4,182.4,31.4C182.4,31.4,182.4,31.4,182.4,31.4
					C182.4,31.4,182.4,31.4,182.4,31.4C182.3,31.4,182.3,31.4,182.4,31.4C182.4,31.4,182.4,31.4,182.4,31.4z"/>
				<polygon class="st27" points="271.8,38 273.6,38 273.6,38 271.8,38 				"/>
				<polygon class="st27" points="211.5,24.1 211.5,24.1 211.5,24.1 				"/>
				<path class="st27" d="M180.8,31.8C180.8,31.8,180.8,31.8,180.8,31.8C180.8,31.8,180.8,31.8,180.8,31.8z"/>
				<path class="st27" d="M205,25.7C205,25.7,205,25.7,205,25.7c-0.1,0-0.1,0-0.1,0C204.9,25.7,205,25.7,205,25.7z"/>
				<path class="st27" d="M208.4,24.9c0.1,0,0.1,0,0.2-0.1C208.6,24.8,208.5,24.8,208.4,24.9c0,0-0.1,0-0.1,0
					C208.3,24.9,208.4,24.9,208.4,24.9z"/>
				<path class="st27" d="M218.3,22.6C218.3,22.6,218.3,22.6,218.3,22.6C218.3,22.6,218.3,22.6,218.3,22.6
					C218.3,22.6,218.3,22.6,218.3,22.6z"/>
				<polygon class="st27" points="218.2,22.6 218.2,22.6 218.1,22.6 				"/>
				<polygon class="st27" points="218.5,22.6 218.5,22.6 218.5,22.6 				"/>
				<path class="st27" d="M218.3,22.6C218.3,22.6,218.3,22.6,218.3,22.6C218.3,22.6,218.3,22.6,218.3,22.6
					C218.3,22.6,218.3,22.6,218.3,22.6z"/>
				<polygon class="st27" points="163.1,38.1 163.1,38.1 164.9,38.1 164.9,38.1 				"/>
				<path class="st27" d="M210,24.5C210,24.5,210,24.5,210,24.5C210,24.5,210,24.5,210,24.5C210,24.5,210,24.5,210,24.5z"/>
				<path class="st27" d="M257.5,32.1C257.5,32.1,257.5,32.1,257.5,32.1C257.5,32.1,257.5,32.1,257.5,32.1z"/>
				<g>
					<path class="st27" d="M300.7,81.3l-2.3-4.3c-0.3-0.6-0.9-1-1.6-1l-2.1,0l0-12.3c0-1-0.8-1.8-1.8-1.8l-11.4,0l0-8.6
						c0-1-0.8-1.8-1.8-1.8l-6.9,0l0-11.8l0.9,0c0.5,0,1-0.2,1.4-0.7c0.3-0.4,0.5-1,0.4-1.5c-0.5-2.6-3.5-5.4-7.4-5.4l-3.9,0
						c-6.5-2.4-41.1-10.6-45.4-11.4l0,0c-0.1,0-0.3,0-0.4,0c0,0,0,0,0,0c0,0,0,0,0,0c0,0,0,0,0,0c0,0,0,0,0,0c0,0,0,0,0,0
						c-0.1,0-0.3,0-0.4,0l0,0c-4.2,0.8-38.9,9.2-45.4,11.5l-3.9,0c-3.9,0-6.8,2.8-7.3,5.4c-0.1,0.5,0,1.1,0.4,1.5
						c0.3,0.4,0.9,0.7,1.4,0.7l0.9,0l0,11.8l-6.9,0c-1,0-1.8,0.8-1.8,1.8l0,8.6l-11.4,0c-1,0-1.8,0.8-1.8,1.8l0,12.3l-2.1,0
						c-0.7,0-1.3,0.4-1.6,1l-2.2,4.4c-0.3,0.6-0.3,1.2,0.1,1.8c0.3,0.5,0.9,0.9,1.5,0.9l0.5,0c-0.6,0.7-1.1,1.7-1.2,2.6
						c-0.1,0.5,0.1,1,0.4,1.4c0.3,0.3,0.6,0.5,1,0.6l0.3,161.1c0,1,0.8,1.8,1.8,1.8l53.5-0.1c1,0,1.8-0.8,1.8-1.8l-0.2-125.1
						c0-0.9,0.3-22.3,22.1-23.2c0.1,0,0.2,0,0.3,0l0.3,0l0.4,0c0.1,0,0.2,0,0.3,0c21.8,0.8,22.2,22.2,22.2,23.1l0.2,125.1
						c0,1,0.8,1.8,1.8,1.8l53.5-0.1c1,0,1.8-0.8,1.8-1.8l-0.3-161.1c0.4-0.1,0.7-0.3,1-0.6c0.3-0.4,0.5-0.9,0.4-1.4
						c-0.1-1-0.6-1.9-1.2-2.6l0.5,0c0.6,0,1.2-0.3,1.5-0.9C300.9,82.6,301,81.9,300.7,81.3z M296.8,249.6L296.8,249.6
						c0,0,0-0.1,0-0.1c-0.2-1.5-1.4-3-3-3l0,0l0-3.2l0.4,0c0.5,0,0.9-0.4,0.9-0.9l0-1.5c0-0.5-0.4-0.9-0.9-0.9l-0.4,0l-0.1-37.8
						l2.1,0c0.3,0,0.5-0.1,0.7-0.3c0.2-0.2,0.2-0.5,0.2-0.7c-0.2-1.5-1.4-3-3-3l0,0l0-3.2l0.4,0c0.5,0,0.9-0.4,0.9-0.9l0-1.5
						c0-0.5-0.4-0.9-0.9-0.9l-0.4,0l-0.1-36.9l2.1,0c0.3,0,0.5-0.1,0.7-0.3c0.2-0.2,0.2-0.5,0.2-0.7c-0.2-1.4-1.3-2.8-2.7-3l0-0.4
						c0-0.5-0.4-0.9-0.9-0.9l-0.5,0l0-15.2l0.5,0c0.5,0,0.9-0.4,0.9-0.9l0-2.8c0.1,0,0.1-0.1,0.2-0.1c0.2-0.2,0.2-0.5,0.2-0.7
						c-0.1-0.4-0.2-0.9-0.5-1.3c0-0.1-0.1-0.1-0.1-0.2c0,0,0-0.1-0.1-0.1c0,0,0-0.1-0.1-0.1c-0.5-0.7-1.2-1.2-2.1-1.2l-1.7,0
						c-0.3-0.8-0.8-1.6-1.5-1.9l0-0.9c0-0.5-0.4-0.9-0.9-0.9l-0.5,0l0-5.1l0.5,0c0.5,0,0.9-0.4,0.9-0.9l0-0.6l0.9,0
						c0.3,0,0.5-0.1,0.7-0.3c0.2-0.2,0.2-0.5,0.2-0.7c-0.1-0.7-0.8-3.2-2.4-3.2l-22,0l-0.9,0l-1.9,0l-0.9,0l-0.4,0
						c-1.6,0-2.3,2.5-2.3,3.2c0,0.3,0,0.5,0.2,0.7c0.2,0.2,0.4,0.3,0.7,0.3l0.9,0l0,0.6c0,0.5,0.4,0.9,0.9,0.9c0,0,0,0,0,0l0.5,0
						l0,5.1l-0.5,0c0,0,0,0,0,0c-0.5,0-0.9,0.4-0.9,0.9l0,0.9c-0.7,0.3-1.2,1.1-1.5,1.9l-1.7,0c-0.9,0-1.6,0.5-2.1,1.2
						c0,0-0.1,0.1-0.1,0.1c0,0,0,0,0,0c0,0.1-0.1,0.1-0.1,0.2c-0.2,0.4-0.4,0.8-0.4,1.3c0,0.3,0,0.5,0.2,0.7c0,0.1,0.1,0.1,0.2,0.1
						l0,2.8c0,0.5,0.4,0.9,0.9,0.9l0.5,0l0,15.2l-0.5,0c-0.5,0-0.9,0.4-0.9,0.9l0,0.4c-1.5,0.2-2.5,1.6-2.7,3c0,0.3,0,0.5,0.2,0.7
						c0.2,0.2,0.4,0.3,0.7,0.3l2.1,0l0.1,36.9l-0.4,0c-0.5,0-0.9,0.4-0.9,0.9l0,1.5c0,0.5,0.4,0.9,0.9,0.9l0.4,0l0,3.2l0,0
						c-1.6,0-2.8,1.6-3,3.1c0,0.3,0,0.5,0.2,0.7c0.2,0.2,0.4,0.3,0.7,0.3l2.1,0l0.1,37.8l-0.4,0c-0.5,0-0.9,0.4-0.9,0.9l0,1.5
						c0,0.5,0.4,0.9,0.9,0.9l0.4,0l0,3.2l0,0c-1.6,0-2.8,1.6-3,3.1c0,0,0,0.1,0,0.1l0,0l-0.3-161.9l9.2,0l0.9,0l1.9,0l0.9,0
						l30.9-0.1L296.8,249.6z M265.1,249.7l-1.9,0l-0.9,0l-8.3,0c0.1-1.1,1-2.3,2.1-2.3l0,0l0.9,0l5.3,0l0.9,0l1.9,0l0.9,0l26.9,0
						l0.9,0l0,0c1.1,0,2,1.2,2.1,2.3l-30,0L265.1,249.7z M260.3,115.5c0.1-0.2,0.1-0.5,0.2-0.7c0.1-0.1,0.1-0.3,0.2-0.4
						c0.3-0.5,0.6-0.9,1-0.9l0.4,0l0.9,0l1.9,0l0.9,0l22,0c0.4,0,0.7,0.4,1,0.9c0.1,0.1,0.1,0.3,0.2,0.4c0.1,0.2,0.2,0.5,0.2,0.7
						c0,0.1,0.1,0.3,0.1,0.4v0l-0.9,0v0l-0.9,0v0l-0.5,0l-0.9,0l-0.2,0l-0.9,0l-2.2,0l-0.9,0l-0.5,0v0l-0.9,0v0l-11.4,0v0l-0.9,0v0
						l-0.5,0l-0.9,0l-1,0l-0.9,0l-0.3,0l-0.9,0l-0.2,0l-0.5,0l-0.4,0l-0.5,0v0l0,0l-0.9,0v0l-0.9,0v0
						C260.2,115.8,260.3,115.6,260.3,115.5z M287.4,125l-0.5,0l-0.9,0l-0.2,0l-0.9,0l-2.2,0l-0.9,0l-0.5,0l0-0.8l0.5,0l0.9,0l2.2,0
						l0.9,0l0.2,0l0.9,0l0.5,0L287.4,125z M263.5,118.2l0.2,0l0.9,0l0.3,0l0.9,0l1,0l0,5.1l-1,0l-0.9,0l-0.3,0l-0.9,0l-0.2,0
						L263.5,118.2z M267.6,118.2l0.5,0c0.2,0,0.3-0.1,0.4-0.1l0,5.3c-0.1-0.1-0.3-0.1-0.4-0.1l-0.5,0L267.6,118.2z M281.8,123.3
						l-0.5,0c-0.2,0-0.3,0.1-0.4,0.1l0-5.3c0.1,0.1,0.3,0.1,0.4,0.1l0.5,0L281.8,123.3z M280,117.4l0,6l-10.6,0l0-6L280,117.4z
						 M269,124.3c0.1,0.1,0.3,0.1,0.4,0.1l10.6,0c0.2,0,0.3-0.1,0.4-0.1l0,0.8l-11.4,0L269,124.3z M286,123.3l-0.2,0l-0.9,0l-2.2,0
						l0-5.1l2.2,0l0.9,0l0.2,0L286,123.3z M285.8,117.3l-0.9,0l-2.2,0l-0.9,0l-0.5,0l0-0.6l0.5,0l0.9,0l2.2,0l0.9,0l0.2,0l0.9,0
						l0.5,0l0,0.6l-0.5,0l-0.9,0L285.8,117.3z M262.1,116.8l0.5,0l0.4,0l0.5,0l0.2,0l0.9,0l0.3,0l0.9,0l1,0l0.9,0l0.5,0l0,0.6
						l-0.5,0l-0.9,0l-1,0l-0.9,0l-0.3,0l-0.9,0l-0.2,0l-0.5,0l-0.4,0l-0.5,0L262.1,116.8z M263.5,124.2l0.2,0l0.9,0l0.3,0l0.9,0l1,0
						l0.9,0l0.5,0l0,0.8l-0.5,0l-0.9,0l-1,0l-0.9,0l-0.3,0l-0.9,0l-0.2,0l-0.5,0l-0.4,0l-0.5,0l0-0.8l0.5,0l0.4,0L263.5,124.2z
						 M262.1,125.9L262.1,125.9l0.5,0l0.4,0l0.5,0l0.2,0l0.9,0l0.3,0l0.9,0l1,0l0.9,0l0.5,0l0.9,0l11.4,0l0.9,0l0.5,0l0.9,0l2.2,0
						l0.9,0l0.2,0l0.9,0l0.5,0l0.4,0c0.2,0,0.4,0.1,0.5,0.3c0.2,0.2,0.4,0.5,0.5,0.8l-0.9,0l-1.7,0l-0.8,0l-3,0l-1.7,0l-12.1,0
						l-1.7,0l-1.3,0l-0.9,0l-0.9,0l-0.8,0l-0.2,0l-0.9,0l-0.5,0l-0.9,0c0.1-0.3,0.3-0.6,0.5-0.8c0.2-0.2,0.3-0.3,0.5-0.3
						L262.1,125.9z M262.1,127.9l0.9,0l1.9,0l0.9,0l23.3,0l0.9,0l1.5,0c0.1,0,0.2,0,0.3,0c0.4,0.1,0.7,0.3,1,0.6
						c0.1,0.1,0.1,0.2,0.2,0.3c0,0,0,0,0,0c0.2,0.3,0.3,0.7,0.4,1.1l-0.4,0l0,0l-0.5,0l-0.9,0l-0.4,0l-0.9,0l-1.9,0l-0.9,0l-0.5,0v0
						l-0.9,0v0l-20.3,0l-0.9,0l-1.5,0v0l-0.4,0l-0.5,0v0l-0.4,0l-0.1,0l-0.9,0l-1.9,0l-0.9,0l-0.4,0l-0.9,0l-0.5,0l0,0l-0.4,0
						c0-0.2,0.1-0.4,0.1-0.5c0.1-0.2,0.2-0.4,0.3-0.5c0,0,0,0,0,0c0.1-0.1,0.1-0.2,0.2-0.3c0.3-0.3,0.6-0.5,1-0.6c0.1,0,0.2,0,0.3,0
						l1.5,0l0.9,0L262.1,127.9z M262,134.3L262,134.3l0.5,0c0.2,0,0.3-0.1,0.5-0.1c0.3-0.2,0.4-0.4,0.4-0.8l0-2.6l1.5,0l0.9,0
						l20.3,0l0,2.6c0,0.5,0.4,0.9,0.9,0.9l0.5,0l0,15.2l-0.5,0c-0.5,0-0.9,0.4-0.9,0.9l0,0.3l-0.8,0l0-16.4c0-0.5-0.4-0.9-0.9-0.9
						l-0.6,0l0-0.7c0-0.5-0.4-0.9-0.9-0.9l-16.2,0c-0.5,0-0.8,0.4-0.9,0.8c0,0,0,0.1,0,0.1l0,0.7l-0.6,0c-0.1,0-0.2,0-0.2,0
						c-0.4,0.1-0.7,0.4-0.7,0.9l0,16.4l-0.8,0l0-0.3c0-0.3-0.2-0.6-0.4-0.8c-0.1-0.1-0.3-0.1-0.5-0.1l-0.4,0l-0.1,0L262,134.3z
						 M282.8,133.4l-16.2,0l0-0.7l16.2,0L282.8,133.4z M266.7,134.3l16.2,0l0.9,0l0.6,0l0,16.4l-18.6,0l-0.7,0l0-16.4l0.6,0h0
						L266.7,134.3z M293,150.7l-0.5,0l-0.9,0l-0.4,0l-0.9,0l-1.9,0l-0.9,0l-0.5,0l0-0.3l0.5,0l0.9,0l1.9,0l0.9,0l0.4,0l0.9,0l0.5,0
						L293,150.7z M291.6,149.5l-0.4,0l-0.9,0l-1.9,0l0-15.2l1.9,0l0.9,0l0.4,0L291.6,149.5z M291.2,133.4l-0.9,0l-1.9,0l-0.9,0
						l-0.5,0l0-2.6l0.5,0l0.9,0l1.9,0l0.9,0l0.4,0l0.9,0l0.5,0l0,2.6l-0.5,0l-0.9,0L291.2,133.4z M256.5,130.8l0.5,0l0.9,0l0.4,0
						l0.9,0l1.9,0l0.9,0l0.1,0l0.4,0l0,2.6l-0.4,0l-0.1,0l-0.9,0l-1.9,0l-0.9,0l-0.4,0l-0.9,0l-0.5,0L256.5,130.8z M257.9,134.3
						l0.4,0l0.9,0l1.9,0l0,15.2l-1.9,0l-0.9,0l-0.4,0L257.9,134.3z M258.3,150.4l0.9,0l1.9,0l0.9,0l0.1,0l0.4,0l0,0.3l-0.4,0l-0.1,0
						l-0.9,0l-1.9,0l-0.9,0l-0.4,0l-0.9,0l-0.5,0l0-0.3l0.5,0l0.9,0L258.3,150.4z M255.6,151.7c0.1,0,0.2,0,0.3,0l0.6,0l0.5,0l0.9,0
						l0.4,0l0.9,0l1.9,0l0.9,0l0.1,0l0.4,0l0.5,0l0.4,0l0.8,0l0.7,0l0.2,0l0.7,0l18.6,0l0.9,0l0.8,0l0.9,0l0.5,0l0.9,0l1.9,0l0.9,0
						l0.4,0l0.9,0l0.5,0l0.6,0c0.1,0,0.2,0,0.3,0c0.4,0.1,0.8,0.3,1.1,0.7c0.1,0.1,0.2,0.2,0.3,0.4c0.2,0.4,0.4,0.8,0.4,1.2l-2.1,0
						l-0.9,0l-6.8,0l-0.9,0l-19.2,0l-0.9,0l-0.4,0l-0.9,0l-0.6,0l-0.9,0l-5.3,0l-0.9,0l-2.1,0c0.1-0.4,0.2-0.8,0.4-1.2
						c0.1-0.1,0.2-0.3,0.3-0.4C254.8,152.1,255.2,151.8,255.6,151.7z M264.6,195l0-0.2l0-0.7l0-0.2l0-1.3l0-0.9v0l0.4,0l0.9,0
						l19.2,0l0,0l0,0.9l0,1.3l0,0.2l0,0.7l0,0.2l0,0l-19.2,0l-0.9,0L264.6,195L264.6,195z M285.1,190.7l-19.2,0l-0.9,0l-0.4,0
						l-0.1-35.9l0.4,0l0.9,0l19.2,0L285.1,190.7z M286,193.9l0-1.3l6.8,0l0.9,0l0.4,0l0,1.5l-0.4,0l-0.9,0l-6.8,0L286,193.9z
						 M292.8,191.7l-6.8,0v0l-0.1-36.8l6.8,0L292.8,191.7z M256.8,154.8l5.3,0l0.9,0l0.6,0l0.1,36.8l0,0l-0.6,0l-0.9,0l-5.3,0
						L256.8,154.8z M262.2,192.6l0.9,0l0.6,0l0,1.3l0,0.2l-0.6,0l-0.9,0l-5.3,0l-0.9,0l-0.4,0l0-1.5l0.4,0l0.9,0L262.2,192.6z
						 M256.9,195l5.3,0l0.9,0l0.6,0l0,0c0,0.5,0.4,0.9,0.9,0.9l0.4,0l0.9,0l19.2,0c0.5,0,0.9-0.4,0.9-0.9l0,0l6.8,0l0,3.2l-26.9,0
						l-0.9,0l-1.9,0l-0.9,0l-5.3,0L256.9,195z M262.2,199.1l0.9,0l1.9,0l0.9,0l26.9,0l0.9,0l0,0c1.1,0,2,1.2,2.1,2.3l-2.1,0l-0.9,0
						l-6.8,0l-0.9,0l-19.2,0l-0.9,0l-0.4,0l-0.9,0l-0.6,0l-0.9,0l-5.3,0l-0.9,0l-2.1,0c0.1-1.1,1-2.3,2.1-2.3l0,0l0.9,0L262.2,199.1
						z M264.6,243.4l0-0.2l0-0.7l0-0.2l0-1.3l0-0.9l0,0l0.4,0l0.9,0l19.2,0l0,0l0,0.9l0,1.3l0,0.2l0,0.7l0,0.2l0,0l-19.2,0l-0.9,0
						L264.6,243.4L264.6,243.4z M285.2,239.1l-19.2,0l-0.9,0l-0.4,0l-0.1-36.9l0.4,0l0.9,0l19.2,0L285.2,239.1z M286.1,242.2l0-1.3
						l6.8,0l0.9,0l0.4,0l0,1.5l-0.4,0l-0.9,0l-6.8,0L286.1,242.2z M292.9,240l-6.8,0l0,0l-0.1-37.8l6.8,0L292.9,240z M256.9,202.3
						l5.3,0l0.9,0l0.6,0l0.1,37.8l0,0l-0.6,0l-0.9,0l-5.3,0L256.9,202.3z M262.2,241l0.9,0l0.6,0l0,1.3l0,0.2l-0.6,0l-0.9,0l-5.3,0
						l-0.9,0l-0.4,0l0-1.5l0.4,0l0.9,0L262.2,241z M256.9,243.4l5.3,0l0.9,0l0.6,0l0,0c0,0.5,0.4,0.9,0.9,0.9l0.4,0l0.9,0l19.2,0
						c0.5,0,0.9-0.4,0.9-0.9l0,0l6.8,0l0,3.2l-26.9,0l-0.9,0l-1.9,0l-0.9,0l-5.3,0L256.9,243.4z M244.9,249.7l-0.2-133.1
						c0,0-0.1-25.6-25.5-26.5l0,0c-0.3,0-0.5,0-0.7,0c-0.3,0-0.5,0-0.7,0l0,0c-25.4,1-25.4,26.6-25.4,26.6l0.2,133.1l-7.2,0
						L185,87.9l0.5,0c0.3,0,0.5-0.1,0.7-0.3c0.2-0.2,0.2-0.5,0.2-0.7c0-0.3-0.1-0.6-0.2-0.9l64.5-0.1c-0.1,0.3-0.2,0.6-0.2,0.9
						c0,0.3,0,0.5,0.2,0.7c0.2,0.2,0.4,0.3,0.7,0.3l0.5,0l0.3,161.9L244.9,249.7z M243.3,249.7l-0.2-125.1c0,0-0.1-24.1-23.9-24.9
						l0,0c-0.2,0-0.5,0-0.7,0c-0.2,0-0.5,0-0.7,0l0,0c-23.9,1-23.9,25-23.9,25l0.2,125.1l-0.7,0l-0.2-133.1c0-1,0.3-24.8,24.5-25.7
						c0.1,0,0.2,0,0.2,0c0,0,0.1,0,0.1,0l0.3,0l0.4,0c0,0,0.1,0,0.1,0c0.1,0,0.1,0,0.2,0c24.3,0.9,24.6,24.6,24.6,25.6l0.2,133.1
						L243.3,249.7z M174.3,249.8l-1.9,0l-0.9,0l-30,0c0.1-1.1,1-2.3,2.1-2.3l0,0l0.9,0l26.9,0l0.9,0l1.9,0l0.9,0l5.3,0l0.9,0l0,0
						c1.1,0,2,1.2,2.1,2.3l-8.3,0L174.3,249.8z M147.9,115.4c0.1-0.3,0.2-0.5,0.3-0.8c0.3-0.5,0.6-0.9,1-0.9l22,0l0.9,0l1.9,0l0.9,0
						l0.4,0c0.4,0,0.7,0.4,1,0.9c0.1,0.3,0.2,0.5,0.3,0.8c0.1,0.3,0.1,0.5,0.2,0.7l0,0l-0.9,0v0l-0.9,0l0,0v0l-0.5,0l-0.4,0l-0.5,0
						l-0.2,0l-0.9,0l-0.3,0l-0.9,0l-1,0l-0.9,0l-0.5,0v0l-0.9,0l0,0l-11.4,0l0,0l-0.9,0l0,0l-0.5,0l-0.9,0l-2.2,0l-0.9,0l-0.2,0
						l-0.9,0l-0.5,0v0l-0.9,0l0,0l-0.9,0l0,0C147.8,115.9,147.9,115.6,147.9,115.4z M174.9,125.2l-0.5,0l-0.4,0l-0.5,0l-0.2,0
						l-0.9,0l-0.3,0l-0.9,0l-1,0l-0.9,0l-0.5,0l0-0.8l0.5,0l0.9,0l1,0l0.9,0l0.3,0l0.9,0l0.2,0l0.5,0l0.4,0l0.5,0L174.9,125.2z
						 M155.2,118.4l0.5,0c0.2,0,0.3-0.1,0.4-0.1l0,5.3c-0.1-0.1-0.3-0.1-0.4-0.1l-0.5,0L155.2,118.4z M173.5,123.4l-0.2,0l-0.9,0
						l-0.3,0l-0.9,0l-1,0l0-5.1l1,0l0.9,0l0.3,0l0.9,0l0.2,0L173.5,123.4z M169.4,123.5l-0.5,0c-0.2,0-0.3,0.1-0.4,0.1l0-5.3
						c0.1,0.1,0.3,0.1,0.4,0.1l0.5,0L169.4,123.5z M167.5,117.6l0,6l-10.6,0l0-6L167.5,117.6z M156.6,124.5c0.1,0.1,0.3,0.1,0.4,0.1
						l10.6,0c0.2,0,0.3-0.1,0.4-0.1l0,0.8l-11.4,0L156.6,124.5z M173.5,117.5l-0.2,0l-0.9,0l-0.3,0l-0.9,0l-1,0l-0.9,0l-0.5,0l0-0.6
						l0.5,0l0.9,0l1,0l0.9,0l0.3,0l0.9,0l0.2,0l0.5,0l0.4,0l0.5,0l0,0.6l-0.5,0l-0.4,0L173.5,117.5z M149.6,116.9l0.5,0l0.9,0l0.2,0
						l0.9,0l2.2,0l0.9,0l0.5,0l0,0.6l-0.5,0l-0.9,0l-2.2,0l-0.9,0l-0.2,0l-0.9,0l-0.5,0L149.6,116.9z M151,118.4l0.2,0l0.9,0l2.2,0
						l0,5.1l-2.2,0l-0.9,0l-0.2,0L151,118.4z M151.2,124.4l0.9,0l2.2,0l0.9,0l0.5,0l0,0.8l-0.5,0l-0.9,0l-2.2,0l-0.9,0l-0.2,0
						l-0.9,0l-0.5,0l0-0.8l0.5,0l0.9,0L151.2,124.4z M149.6,126.1l0.5,0l0.9,0l0.2,0l0.9,0l2.2,0l0.9,0l0.5,0l0.9,0l11.4,0l0.9,0
						l0.5,0l0.9,0l1,0l0.9,0l0.3,0l0.9,0l0.2,0l0.5,0l0.4,0l0.5,0l0,0l0.4,0c0.2,0,0.4,0.1,0.5,0.3c0.2,0.2,0.4,0.5,0.5,0.8l-0.9,0
						l-0.5,0l-0.9,0l-0.2,0l-0.8,0l-0.9,0l-0.9,0l-1.3,0l-1.7,0l-12.1,0l-1.7,0l-3,0l-0.8,0l-1.7,0l-0.9,0c0.1-0.3,0.3-0.6,0.5-0.8
						c0.2-0.2,0.3-0.3,0.5-0.3L149.6,126.1z M171.2,128.1l0.9,0l1.9,0l0.9,0l1.7,0l0.9,0l1.5,0c0.1,0,0.2,0,0.3,0
						c0.4,0.1,0.7,0.3,1,0.6c0.1,0.1,0.1,0.2,0.2,0.3c0,0,0,0,0,0c0.2,0.3,0.3,0.7,0.4,1.1l-0.4,0v0l-0.5,0l-0.9,0l-0.4,0l-0.9,0
						l-1.9,0l-0.9,0l-0.1,0l-0.4,0l0,0l-0.5,0l-0.4,0v0l-1.5,0l-0.9,0l-20.3,0v0l-0.9,0l0,0l-0.5,0l-0.9,0l-1.9,0l-0.9,0l-0.4,0
						l-0.9,0l-0.5,0l0,0l-0.4,0c0-0.4,0.2-0.7,0.4-1.1c0,0,0,0,0,0c0.1-0.1,0.1-0.2,0.2-0.3c0.3-0.3,0.6-0.5,1-0.6
						c0.1,0,0.2,0,0.3,0l1.5,0l0.9,0L171.2,128.1z M150.1,149.7l-0.5,0l0-15.2l0.5,0c0.5,0,0.9-0.4,0.9-0.9l0-2.6l20.3,0l0.9,0
						l1.5,0l0,2.6c0,0.3,0.2,0.6,0.4,0.8c0.1,0.1,0.3,0.1,0.5,0.1l0.4,0l0.1,0l0,15.2l-0.1,0l-0.4,0c-0.2,0-0.3,0.1-0.5,0.1
						c-0.3,0.2-0.4,0.4-0.4,0.8l0,0.3l-0.8,0l0-16.4c0-0.4-0.3-0.7-0.7-0.9c-0.1,0-0.2,0-0.2,0l-0.6,0l0-0.7c0,0,0-0.1,0-0.1
						c0-0.5-0.4-0.8-0.9-0.8l-16.2,0c-0.5,0-0.9,0.4-0.9,0.9l0,0.7l-0.6,0c-0.5,0-0.9,0.4-0.9,0.9l0,16.4l-0.8,0l0-0.3
						C151,150.1,150.6,149.7,150.1,149.7z M170.4,133.6l-16.2,0l0-0.7l16.2,0L170.4,133.6z M170.4,134.5l0.9,0l0,0l0.6,0l0,16.4
						l-0.7,0l-18.6,0l0-16.4l0.6,0l0.9,0L170.4,134.5z M180.6,150.9l-0.5,0l-0.9,0l-0.4,0l-0.9,0l-1.9,0l-0.9,0l-0.1,0l-0.4,0l0-0.3
						l0.4,0l0.1,0l0.9,0l1.9,0l0.9,0l0.4,0l0.9,0l0.5,0L180.6,150.9z M179.2,149.7l-0.4,0l-0.9,0l-1.9,0l0-15.2l1.9,0l0.9,0l0.4,0
						L179.2,149.7z M178.7,133.6l-0.9,0l-1.9,0l-0.9,0l-0.1,0l-0.4,0l0-2.6l0.4,0l0.1,0l0.9,0l1.9,0l0.9,0l0.4,0l0.9,0l0.5,0l0,2.6
						l-0.5,0l-0.9,0L178.7,133.6z M144,131l0.5,0l0.9,0l0.4,0l0.9,0l1.9,0l0.9,0l0.5,0l0,2.6l-0.5,0l-0.9,0l-1.9,0l-0.9,0l-0.4,0
						l-0.9,0l-0.5,0L144,131z M145.4,134.5l0.4,0l0.9,0l1.9,0l0,15.2l-1.9,0l-0.9,0l-0.4,0L145.4,134.5z M145.9,150.6l0.9,0l1.9,0
						l0.9,0l0.5,0l0,0.3l-0.5,0l-0.9,0l-1.9,0l-0.9,0l-0.4,0l-0.9,0l-0.5,0l0-0.3l0.5,0l0.9,0L145.9,150.6z M143.2,151.9
						c0.1,0,0.2,0,0.3,0l0.6,0l0.5,0l0.9,0l0.4,0l0.9,0l1.9,0l0.9,0l0.5,0l0.9,0l0.8,0l0.9,0l18.6,0l0.7,0l0.2,0l0.7,0l0.8,0l0.4,0
						l0.5,0l0.4,0l0.1,0l0.9,0l1.9,0l0.9,0l0.4,0l0.9,0l0.5,0l0.6,0c0.1,0,0.2,0,0.3,0c0.4,0.1,0.8,0.3,1.1,0.7
						c0.1,0.1,0.2,0.2,0.3,0.4c0.2,0.4,0.4,0.8,0.4,1.2l-2.1,0l-0.9,0l-5.3,0l-0.9,0l-0.6,0l-0.9,0l-0.4,0l-0.9,0l-19.3,0l-0.9,0
						l-6.8,0l-0.9,0l-2.1,0c0.1-0.4,0.2-0.8,0.4-1.2c0.1-0.1,0.2-0.3,0.3-0.4C142.3,152.2,142.7,152,143.2,151.9z M152.1,195.2
						l0-0.2l0-0.7l0-0.2l0-1.3l0-0.9l0,0l19.3,0l0.9,0l0.4,0l0,0l0,0.9l0,1.3l0,0.2l0,0.7l0,0.2l0,0l-0.4,0l-0.9,0L152.1,195.2
						L152.1,195.2z M172.7,190.9l-0.4,0l-0.9,0l-19.3,0L152,155l19.3,0l0.9,0l0.4,0L172.7,190.9z M173.6,194.1l0-1.3l0.6,0l0.9,0
						l5.3,0l0.9,0l0.4,0l0,1.5l-0.4,0l-0.9,0l-5.3,0l-0.9,0l-0.6,0L173.6,194.1z M180.4,191.8l-5.3,0l-0.9,0l-0.6,0l0,0l-0.1-36.8
						l0.6,0l0.9,0l5.3,0L180.4,191.8z M144.4,155l6.8,0l0.1,36.8l0,0l-6.8,0L144.4,155z M151.2,192.8l0,1.3l0,0.2l-6.8,0l-0.9,0
						l-0.4,0l0-1.5l0.4,0l0.9,0L151.2,192.8z M144.4,195.2l6.8,0l0,0c0,0.5,0.4,0.9,0.9,0.9l19.3,0l0.9,0l0.4,0
						c0.5,0,0.9-0.4,0.9-0.9l0,0l0.6,0l0.9,0l5.3,0l0,3.2l-5.3,0l-0.9,0l-1.9,0l-0.9,0l-26.9,0L144.4,195.2z M171.4,199.2l0.9,0
						l1.9,0l0.9,0l5.3,0l0.9,0l0,0c1.1,0,2,1.2,2.1,2.3l-2.1,0l-0.9,0l-5.3,0l-0.9,0l-0.6,0l-0.9,0l-0.4,0l-0.9,0l-19.3,0l-0.9,0
						l-6.8,0l-0.9,0l-2.1,0c0.1-1.1,1-2.3,2.1-2.3l0,0l0.9,0L171.4,199.2z M152.2,243.5l0-0.2l0-0.7l0-0.2l0-1.3l0-0.9l0,0l19.3,0
						l0.9,0l0.4,0l0,0l0,0.9l0,1.3l0,0.2l0,0.7l0,0.2l0,0l-0.4,0l-0.9,0L152.2,243.5L152.2,243.5z M172.8,239.3l-0.4,0l-0.9,0
						l-19.3,0l-0.1-36.9l19.3,0l0.9,0l0.4,0L172.8,239.3z M173.7,242.4l0-1.3l0.6,0l0.9,0l5.3,0l0.9,0l0.4,0l0,1.5l-0.4,0l-0.9,0
						l-5.3,0l-0.9,0l-0.6,0L173.7,242.4z M180.4,240.2l-5.3,0l-0.9,0l-0.6,0l0,0l-0.1-37.8l0.6,0l0.9,0l5.3,0L180.4,240.2z
						 M144.4,202.4l6.8,0l0.1,37.8l0,0l-6.8,0L144.4,202.4z M151.3,241.1l0,1.3l0,0.2l-6.8,0l-0.9,0l-0.4,0l0-1.5l0.4,0l0.9,0
						L151.3,241.1z M144.5,243.5l6.8,0l0,0c0,0.5,0.4,0.9,0.9,0.9l19.3,0l0.9,0l0.4,0c0.5,0,0.9-0.4,0.9-0.9l0,0l0.6,0l0.9,0l5.3,0
						l0,3.2l-5.3,0l-0.9,0l-1.9,0l-0.9,0l-26.9,0L144.5,243.5z M181.4,246.7L181.4,246.7l0-3.2l0.4,0c0.5,0,0.9-0.4,0.9-0.9l0-1.5
						c0-0.5-0.4-0.9-0.9-0.9l-0.4,0l-0.1-37.8l2.1,0c0.3,0,0.5-0.1,0.7-0.3c0.2-0.2,0.2-0.5,0.2-0.7c-0.2-1.5-1.4-3-3-3l0,0l0-3.2
						l0.4,0c0.5,0,0.9-0.4,0.9-0.9l0-1.5c0-0.5-0.4-0.9-0.9-0.9l-0.4,0l-0.1-36.9l2.1,0c0.3,0,0.5-0.1,0.7-0.3
						c0.2-0.2,0.2-0.5,0.2-0.7c-0.2-1.4-1.3-2.8-2.7-3l0-0.4c0-0.5-0.4-0.9-0.9-0.9l-0.5,0l0-15.2l0.5,0c0.5,0,0.9-0.4,0.9-0.9
						l0-2.8c0.1,0,0.1-0.1,0.2-0.1c0.2-0.2,0.2-0.5,0.2-0.7c-0.1-0.4-0.2-0.9-0.5-1.3c0-0.1-0.1-0.1-0.1-0.2c0,0,0-0.1-0.1-0.1
						c0,0,0-0.1-0.1-0.1c-0.5-0.7-1.2-1.2-2.1-1.2l-1.7,0c-0.3-0.8-0.8-1.6-1.5-1.9l0-0.9c0-0.5-0.4-0.9-0.9-0.9c0,0,0,0,0,0l-0.5,0
						l0-5.1l0.5,0c0,0,0,0,0,0c0.5,0,0.9-0.4,0.9-0.9l0-0.6l0.9,0c0.3,0,0.5-0.1,0.7-0.3c0.2-0.2,0.2-0.5,0.2-0.7
						c-0.1-0.7-0.8-3.2-2.4-3.2l-0.4,0l-0.9,0l-1.9,0l-0.9,0l-22,0c-1.6,0-2.3,2.5-2.3,3.2c0,0.3,0,0.5,0.2,0.7
						c0.2,0.2,0.4,0.3,0.7,0.3l0.9,0l0,0.6c0,0.5,0.4,0.9,0.9,0.9l0.5,0l0,5.1l-0.5,0c-0.5,0-0.9,0.4-0.9,0.9l0,0.9
						c-0.7,0.3-1.2,1.1-1.5,1.9l-1.7,0c-0.9,0-1.6,0.5-2.1,1.2c0,0-0.1,0.1-0.1,0.1c0,0,0,0-0.1,0.1c0,0.1-0.1,0.1-0.1,0.2
						c-0.2,0.4-0.4,0.8-0.4,1.3c0,0.3,0,0.5,0.2,0.7c0,0.1,0.1,0.1,0.2,0.1l0,2.8c0,0.5,0.4,0.9,0.9,0.9l0.5,0l0,15.2l-0.5,0
						c-0.5,0-0.9,0.4-0.9,0.9l0,0.4c-1.5,0.2-2.5,1.6-2.7,3c0,0.3,0,0.5,0.2,0.7c0.2,0.2,0.4,0.3,0.7,0.3l2.1,0l0.1,36.9l-0.4,0
						c-0.5,0-0.9,0.4-0.9,0.9l0,1.5c0,0.5,0.4,0.9,0.9,0.9l0.4,0l0,3.2l0,0c-1.6,0-2.8,1.6-3,3.1c0,0.3,0,0.5,0.2,0.7
						c0.2,0.2,0.4,0.3,0.7,0.3l2.1,0l0.1,37.8l-0.4,0c-0.5,0-0.9,0.4-0.9,0.9l0,1.5c0,0.5,0.4,0.9,0.9,0.9l0.4,0l0,3.2l0,0
						c-1.6,0-2.8,1.6-3,3.1c0,0,0,0.1,0,0.1l0,0L140.3,88l30.9-0.1l0.9,0l1.9,0l0.9,0l9.2,0l0.3,161.9l0,0c0,0,0-0.1,0-0.1
						C184.2,248.2,183,246.7,181.4,246.7z M296.6,83.6c-0.3-0.1-0.6-0.2-0.9-0.2l-29.9,0l-0.9,0l-1.9,0l-0.9,0l-8.3,0
						c-1.1,0-2,0.7-2.5,1.5l-65.4,0.1c-0.6-0.9-1.5-1.5-2.6-1.5l-8.3,0l-0.9,0l-1.9,0l-0.9,0l-29.9,0c-0.3,0-0.6,0.1-0.9,0.2l0-0.5
						l30.9-0.1l0.9,0l1.9,0l0.9,0l87.1-0.1l0.9,0l1.9,0l0.9,0l30.9-0.1L296.6,83.6z M139,86.5L139,86.5c0,0,0-0.1,0.1-0.1l0,0
						c0.1-0.2,0.2-0.4,0.3-0.5c0,0,0,0,0,0c0-0.1,0.1-0.2,0.2-0.2c0.1-0.1,0.2-0.2,0.2-0.3l0,0c0,0,0,0,0,0c0,0,0,0,0,0
						c0.2-0.2,0.3-0.3,0.5-0.4l0,0c0,0,0,0,0,0c0.3-0.2,0.6-0.3,0.9-0.3l29.9,0l0.9,0l1.9,0l0.9,0l8.3,0c0.5,0,1,0.2,1.4,0.6
						c0.3,0.3,0.5,0.6,0.7,0.9c0.2,0.3,0.3,0.7,0.3,1l-0.5,0l-0.9,0l-9.2,0l-0.9,0l-1.9,0l-0.9,0l-30.9,0.1l-0.9,0l-0.5,0
						C138.9,86.9,139,86.7,139,86.5z M265.7,86.9l-0.9,0l-1.9,0l-0.9,0l-9.2,0l-0.9,0l-0.5,0c0-0.3,0.2-0.7,0.3-1
						c0.2-0.3,0.4-0.6,0.7-0.9c0.4-0.4,0.9-0.6,1.4-0.6l8.3,0l0.9,0l1.9,0l0.9,0l29.9,0c0.3,0,0.6,0.1,0.9,0.3c0,0,0,0,0,0
						c0.2,0.1,0.3,0.2,0.5,0.4c0,0,0,0,0,0c0.1,0.1,0.2,0.2,0.2,0.3c0.2,0.2,0.3,0.5,0.4,0.8l0,0c0,0,0,0,0,0.1c0,0,0,0.1,0,0.1
						c0.1,0.2,0.1,0.4,0.1,0.6l-0.5,0l-0.9,0L265.7,86.9z M296.6,82.2l-30.9,0.1l-0.9,0l-1.9,0l-0.9,0l-87.1,0.1l-0.9,0l-1.9,0
						l-0.9,0l-30.9,0.1l-0.9,0l-1.6,0l2.2-4.4l3,0l0.9,0l27.2,0l0.9,0l1.9,0l0.9,0l87.1-0.1l0.9,0l1.9,0l0.9,0l27.2,0l0.9,0l3,0
						l2.3,4.3l-1.6,0L296.6,82.2z M143.9,64l12.3,0l0.9,0l7.8,0l0.9,0l105.1-0.2l0.9,0l7.8,0l0.9,0l12.3,0l0,13.2l-27.2,0l-0.9,0
						l-2.1,0l-88.4,0.1l-2.1,0l-0.9,0l-27.2,0L143.9,64z M157.1,53.6l7.8,0l0.9,0l105.1-0.2l0.9,0l7.8,0l0,9.5l-7.8,0l-0.9,0
						l-105.1,0.2l-0.9,0l-7.8,0L157.1,53.6z M163.1,38.1c0-0.2,0.1-0.5,0.2-0.7c0.7-1.6,2.8-3.2,5.3-3.2l2.7,0l1.5,0l0,0l90.9-0.1
						l0,0l0,0l1.5,0l2.7,0c2.5,0,4.6,1.6,5.4,3.2c0.1,0.2,0.2,0.5,0.2,0.7l0,0l-1.8,0l0,0l-0.9,0l0,0l-105.1,0.2l0,0l-0.9,0l0,0
						L163.1,38.1L163.1,38.1z M218.3,22.6C218.3,22.6,218.3,22.6,218.3,22.6C218.3,22.6,218.3,22.6,218.3,22.6L218.3,22.6
						L218.3,22.6L218.3,22.6L218.3,22.6C218.3,22.6,218.3,22.6,218.3,22.6C218.3,22.6,218.3,22.6,218.3,22.6
						C218.4,22.6,218.4,22.6,218.3,22.6C218.4,22.6,218.4,22.6,218.3,22.6c0.1,0,0.1,0,0.1,0c0,0,0,0,0,0c0,0,0,0,0,0l0,0
						c0,0,0,0,0,0l0,0c0,0,0,0,0,0c0,0,0,0,0.1,0c0,0,0.1,0,0.1,0c0,0,0.1,0,0.1,0c0,0,0,0,0,0c0,0,0,0,0.1,0c0,0,0,0,0,0
						c0,0,0,0,0,0c0,0,0,0,0,0c0,0,0.1,0,0.1,0c0.1,0,0.1,0,0.2,0c0,0,0.1,0,0.1,0c0,0,0,0,0,0c0,0,0.1,0,0.1,0c0,0,0.1,0,0.1,0
						c0,0,0,0,0,0c0,0,0,0,0,0c0,0,0.1,0,0.1,0c0.1,0,0.2,0,0.3,0.1c0,0,0,0,0.1,0c0,0,0,0,0.1,0c0,0,0,0,0.1,0c0,0,0.1,0,0.1,0
						c0,0,0,0,0,0c0,0,0.1,0,0.1,0c0.1,0,0.1,0,0.2,0c0.1,0,0.2,0,0.3,0.1c0,0,0,0,0,0c0,0,0.1,0,0.1,0c0,0,0,0,0,0c0,0,0,0,0,0
						c0.1,0,0.2,0,0.2,0.1c0.2,0,0.3,0.1,0.5,0.1c0.1,0,0.1,0,0.2,0c0,0,0,0,0,0c0,0,0.1,0,0.1,0c0,0,0,0,0,0c0,0,0,0,0,0
						c0.1,0,0.2,0,0.3,0.1c0.2,0,0.3,0.1,0.5,0.1c0.1,0,0.3,0.1,0.4,0.1c0.1,0,0.3,0.1,0.4,0.1c0,0,0,0,0,0c0.2,0,0.3,0.1,0.5,0.1
						c0.3,0.1,0.5,0.1,0.8,0.2c0,0,0.1,0,0.1,0c0,0,0.1,0,0.1,0c0.1,0,0.1,0,0.2,0c0,0,0.1,0,0.1,0c0,0,0.1,0,0.1,0c0,0,0.1,0,0.1,0
						c0.1,0,0.3,0.1,0.4,0.1c0.1,0,0.2,0.1,0.4,0.1c0.1,0,0.2,0,0.3,0.1c0,0,0.1,0,0.1,0c0.1,0,0.1,0,0.2,0c0,0,0,0,0.1,0
						c0,0,0.1,0,0.1,0c0,0,0,0,0,0c0.2,0.1,0.4,0.1,0.6,0.2c0.1,0,0.3,0.1,0.4,0.1c0,0,0,0,0,0c0,0,0.1,0,0.1,0c0,0,0,0,0.1,0
						c0.1,0,0.2,0.1,0.3,0.1c0,0,0.1,0,0.1,0c0,0,0.1,0,0.1,0c0,0,0,0,0,0c0,0,0,0,0.1,0c0.2,0,0.4,0.1,0.6,0.1c0,0,0,0,0,0
						c0.1,0,0.1,0,0.2,0c0,0,0.1,0,0.1,0c0,0,0.1,0,0.1,0c0.1,0,0.2,0,0.3,0.1c0.1,0,0.2,0,0.3,0.1c0,0,0.1,0,0.1,0c0,0,0,0,0.1,0
						c0.1,0,0.3,0.1,0.4,0.1c0.1,0,0.2,0.1,0.3,0.1c0,0,0,0,0.1,0c0.1,0,0.1,0,0.2,0c0.1,0,0.2,0,0.3,0.1c0,0,0,0,0,0
						c0.1,0,0.1,0,0.2,0c0.1,0,0.2,0.1,0.4,0.1c0,0,0.1,0,0.1,0c0,0,0,0,0,0c0,0,0.1,0,0.1,0c0.2,0,0.4,0.1,0.6,0.1c0,0,0,0,0,0
						c0,0,0,0,0,0c0.1,0,0.3,0.1,0.4,0.1c0.1,0,0.2,0,0.2,0.1c0.1,0,0.2,0.1,0.3,0.1c0,0,0.1,0,0.1,0c0.1,0,0.2,0,0.3,0.1
						c0.2,0,0.4,0.1,0.5,0.1c0,0,0,0,0,0c0,0,0.1,0,0.1,0c0.1,0,0.2,0,0.3,0.1c0.1,0,0.1,0,0.2,0.1c0.1,0,0.1,0,0.2,0
						c0.1,0,0.2,0.1,0.3,0.1c0.2,0,0.4,0.1,0.6,0.1c0.1,0,0.1,0,0.2,0c0,0,0.1,0,0.1,0c0,0,0.1,0,0.1,0c0.2,0,0.3,0.1,0.5,0.1
						c0,0,0.1,0,0.1,0c0,0,0,0,0,0c0,0,0,0,0,0c0.2,0,0.3,0.1,0.5,0.1c0.2,0,0.4,0.1,0.6,0.1c0,0,0.1,0,0.1,0c0,0,0.1,0,0.1,0
						c0,0,0,0,0,0c0.1,0,0.2,0,0.3,0.1c0.1,0,0.3,0.1,0.4,0.1c0,0,0.1,0,0.1,0c0,0,0,0,0,0c0.2,0,0.3,0.1,0.5,0.1
						c0.1,0,0.2,0.1,0.4,0.1c0.1,0,0.1,0,0.2,0.1c0,0,0.1,0,0.1,0c0.2,0,0.3,0.1,0.5,0.1c0,0,0,0,0,0c0.1,0,0.2,0,0.3,0.1
						c0,0,0,0,0.1,0c0,0,0,0,0,0c0,0,0,0,0,0c0.2,0.1,0.4,0.1,0.6,0.2c0.1,0,0.2,0,0.3,0.1c0,0,0.1,0,0.1,0c0,0,0,0,0,0
						c0.3,0.1,0.6,0.1,0.9,0.2c0,0,0.1,0,0.1,0c0,0,0.1,0,0.1,0c0.1,0,0.3,0.1,0.4,0.1c0,0,0.1,0,0.1,0c0,0,0,0,0,0c0,0,0.1,0,0.1,0
						c0.1,0,0.2,0,0.2,0.1c0.2,0.1,0.4,0.1,0.7,0.2c0,0,0,0,0,0c0.1,0,0.2,0.1,0.3,0.1c0,0,0,0,0.1,0c0,0,0,0,0,0c0.1,0,0.1,0,0.2,0
						c0.1,0,0.3,0.1,0.4,0.1c0,0,0,0,0.1,0c0,0,0,0,0.1,0c0.1,0,0.1,0,0.2,0c0.3,0.1,0.6,0.1,0.9,0.2c0.1,0,0.2,0,0.2,0.1
						c0,0,0,0,0.1,0c0,0,0,0,0,0c0.1,0,0.1,0,0.2,0c0.1,0,0.2,0,0.3,0.1c0,0,0,0,0,0c0,0,0,0,0,0c0,0,0,0,0,0c0,0,0.1,0,0.1,0
						c0.3,0.1,0.6,0.1,0.8,0.2c0.1,0,0.1,0,0.2,0c0.1,0,0.1,0,0.2,0.1c0,0,0,0,0.1,0c0,0,0,0,0,0c0.1,0,0.2,0.1,0.3,0.1
						c0,0,0,0,0.1,0c0,0,0,0,0,0c0.1,0,0.2,0,0.3,0.1c0.1,0,0.3,0.1,0.4,0.1c0.2,0,0.4,0.1,0.6,0.1c0.1,0,0.1,0,0.2,0c0,0,0,0,0,0
						c0,0,0,0,0,0c0,0,0,0,0,0c0,0,0.1,0,0.1,0c0.1,0,0.1,0,0.2,0c0,0,0.1,0,0.1,0c0.1,0,0.3,0.1,0.4,0.1c0.2,0,0.3,0.1,0.5,0.1
						c0.1,0,0.2,0.1,0.4,0.1c0,0,0.1,0,0.1,0c0,0,0,0,0,0c0,0,0,0,0,0c0.1,0,0.1,0,0.1,0c0,0,0,0,0.1,0c0,0,0,0,0,0
						c0.1,0,0.2,0,0.2,0.1c0.1,0,0.2,0,0.2,0.1c0.2,0.1,0.4,0.1,0.6,0.2c0.1,0,0.2,0,0.2,0.1c0,0,0,0,0,0c0,0,0,0,0,0c0,0,0,0,0,0
						c0,0,0,0,0.1,0c0,0,0,0,0.1,0c0,0,0,0,0,0c0.1,0,0.1,0,0.2,0.1c0.1,0,0.3,0.1,0.4,0.1c0.1,0,0.3,0.1,0.4,0.1
						c0.1,0,0.3,0.1,0.4,0.1c0.1,0,0.3,0.1,0.4,0.1c0.1,0,0.3,0.1,0.4,0.1c0.1,0,0.2,0.1,0.4,0.1c0.1,0,0.2,0,0.2,0.1c0,0,0,0,0,0
						c0,0,0,0,0,0c0,0,0,0,0,0c0,0,0,0,0.1,0c0.2,0.1,0.4,0.1,0.6,0.2c0,0,0.1,0,0.1,0c0.2,0,0.3,0.1,0.5,0.1c0,0,0,0,0,0
						c0,0,0,0,0,0c0,0,0,0,0,0c0,0,0,0,0,0c0,0,0,0,0,0c0,0,0.1,0,0.1,0c0.1,0,0.2,0.1,0.3,0.1c0.1,0,0.2,0.1,0.3,0.1
						c0.1,0,0.1,0,0.1,0l0,0l0,0l-85.5,0.1l0,0l0,0c0,0,0.1,0,0.1,0c0.1,0,0.2-0.1,0.4-0.1c0.1,0,0.2-0.1,0.3-0.1
						c0.1,0,0.2-0.1,0.4-0.1c0.1,0,0.2-0.1,0.3-0.1c0.1,0,0.3-0.1,0.5-0.1c0.1,0,0.2,0,0.2-0.1c0.1,0,0.2-0.1,0.4-0.1
						c0.1,0,0.2-0.1,0.4-0.1c0.1,0,0.2-0.1,0.3-0.1c0.2,0,0.3-0.1,0.5-0.1c0.2,0,0.3-0.1,0.5-0.1c0.1,0,0.2-0.1,0.3-0.1
						c0.2,0,0.3-0.1,0.5-0.1c0.1,0,0.1,0,0.2-0.1c0,0,0,0,0,0c0,0,0.1,0,0.1,0c0.2-0.1,0.4-0.1,0.6-0.2c0.1,0,0.2,0,0.2-0.1
						c0.2,0,0.3-0.1,0.5-0.1c0,0,0.1,0,0.1,0c0,0,0,0,0,0c0,0,0.1,0,0.1,0c0,0,0,0,0,0c0,0,0,0,0,0c0,0,0,0,0,0c0.1,0,0.1,0,0.2,0
						c0.2-0.1,0.4-0.1,0.6-0.2c0.1,0,0.2-0.1,0.3-0.1c0.2,0,0.4-0.1,0.5-0.1c0,0,0,0,0.1,0c0,0,0,0,0.1,0c0,0,0,0,0.1,0
						c0.3-0.1,0.6-0.2,0.9-0.2c0.1,0,0.2,0,0.3-0.1c0.1,0,0.3-0.1,0.4-0.1c0,0,0,0,0.1,0c0,0,0,0,0,0c0,0,0.1,0,0.1,0c0,0,0,0,0,0
						c0,0,0,0,0.1,0c0.1,0,0.2-0.1,0.3-0.1c0.2,0,0.4-0.1,0.6-0.1c0.1,0,0.3-0.1,0.4-0.1c0.1,0,0.2,0,0.3-0.1c0,0,0,0,0.1,0
						c0.1,0,0.1,0,0.2-0.1c0,0,0.1,0,0.1,0c0.1,0,0.1,0,0.2,0c0.1,0,0.1,0,0.2,0c0.3-0.1,0.6-0.2,0.9-0.2c0,0,0.1,0,0.1,0
						c0.1,0,0.1,0,0.2-0.1c0,0,0,0,0,0c0.1,0,0.1,0,0.2-0.1c0,0,0.1,0,0.1,0c0,0,0,0,0,0c0,0,0.1,0,0.1,0c0.1,0,0.3-0.1,0.4-0.1
						c0.2,0,0.3-0.1,0.5-0.1c0.2,0,0.3-0.1,0.5-0.1c0,0,0,0,0,0c0,0,0,0,0.1,0c0.1,0,0.2,0,0.3-0.1c0,0,0,0,0,0c0,0,0,0,0,0
						c0,0,0.1,0,0.1,0c0,0,0.1,0,0.1,0c0.1,0,0.3-0.1,0.4-0.1c0.3-0.1,0.7-0.2,1-0.3c0,0,0,0,0,0c0.1,0,0.2,0,0.2-0.1
						c0.1,0,0.1,0,0.2-0.1c0.1,0,0.2,0,0.3-0.1c0.1,0,0.2-0.1,0.3-0.1c0.2-0.1,0.5-0.1,0.7-0.2c0,0,0.1,0,0.1,0c0.1,0,0.1,0,0.2,0
						c0,0,0,0,0,0c0.1,0,0.2,0,0.2-0.1c0.1,0,0.1,0,0.2,0c0.1,0,0.2,0,0.2-0.1c0.2,0,0.3-0.1,0.5-0.1c0.1,0,0.2-0.1,0.4-0.1
						c0,0,0.1,0,0.1,0c0.1,0,0.1,0,0.2-0.1c0.1,0,0.2-0.1,0.3-0.1c0,0,0,0,0,0c0,0,0,0,0,0c0,0,0.1,0,0.1,0c0.1,0,0.3-0.1,0.4-0.1
						c0.2,0,0.3-0.1,0.5-0.1c0.1,0,0.2-0.1,0.4-0.1c0,0,0.1,0,0.1,0c0.1,0,0.2,0,0.2-0.1c0.1,0,0.1,0,0.2,0c0,0,0,0,0,0
						c0,0,0,0,0.1,0c0,0,0,0,0,0c0.2-0.1,0.4-0.1,0.7-0.2c0.2,0,0.4-0.1,0.6-0.1c0,0,0,0,0,0c0.2,0,0.3-0.1,0.5-0.1c0,0,0.1,0,0.1,0
						c0,0,0,0,0.1,0c0.1,0,0.1,0,0.2,0c0.2,0,0.4-0.1,0.5-0.1c0.1,0,0.3-0.1,0.4-0.1c0,0,0.1,0,0.1,0c0,0,0.1,0,0.1,0c0,0,0,0,0,0
						c0.1,0,0.2,0,0.3-0.1c0.1,0,0.2,0,0.2-0.1c0,0,0,0,0,0c0,0,0,0,0,0c0,0,0,0,0,0c0.1,0,0.1,0,0.2,0c0.1,0,0.3-0.1,0.4-0.1
						c0.2,0,0.3-0.1,0.5-0.1c0,0,0.1,0,0.1,0c0,0,0,0,0,0c0,0,0,0,0.1,0c0,0,0,0,0.1,0c0.2,0,0.3-0.1,0.5-0.1c0,0,0.1,0,0.1,0
						c0,0,0.1,0,0.1,0c0,0,0.1,0,0.1,0c0.3-0.1,0.5-0.1,0.8-0.2c0,0,0.1,0,0.1,0c0.2,0,0.4-0.1,0.6-0.1c0,0,0.1,0,0.1,0
						c0,0,0,0,0.1,0c0.1,0,0.2,0,0.2-0.1c0.1,0,0.2,0,0.3-0.1c0.1,0,0.2,0,0.2-0.1c0.1,0,0.1,0,0.2,0c0.1,0,0.1,0,0.2,0
						c0,0,0.1,0,0.1,0c0,0,0,0,0,0c0.1,0,0.2-0.1,0.4-0.1c0,0,0.1,0,0.1,0c0,0,0.1,0,0.1,0c0.1,0,0.2,0,0.2-0.1
						c0.1,0,0.2-0.1,0.4-0.1c0,0,0,0,0.1,0c0,0,0,0,0,0c0.1,0,0.2-0.1,0.4-0.1c0.1,0,0.2-0.1,0.3-0.1c0,0,0,0,0,0c0,0,0.1,0,0.1,0
						c0.1,0,0.2-0.1,0.3-0.1c0.1,0,0.2,0,0.3-0.1c0,0,0,0,0,0l0,0c0,0,0,0,0,0c0,0,0,0,0,0c0,0,0,0,0.1,0c0.1,0,0.2-0.1,0.3-0.1
						c0,0,0.1,0,0.1,0c0.1,0,0.2,0,0.3-0.1c0.1,0,0.1,0,0.2,0c0,0,0.1,0,0.1,0c0.1,0,0.2,0,0.3-0.1c0,0,0,0,0.1,0
						c0.1,0,0.2,0,0.2-0.1c0,0,0.1,0,0.1,0c0,0,0,0,0,0c0,0,0,0,0,0c0,0,0,0,0,0c0,0,0,0,0,0c0,0,0.1,0,0.1,0c0.1,0,0.2-0.1,0.4-0.1
						c0,0,0.1,0,0.1,0c0.1,0,0.1,0,0.2,0c0,0,0,0,0.1,0c0,0,0,0,0.1,0c0,0,0.1,0,0.1,0c0,0,0.1,0,0.1,0c0,0,0,0,0,0c0,0,0.1,0,0.1,0
						c0,0,0,0,0,0c0.1,0,0.2-0.1,0.3-0.1c0.1,0,0.1,0,0.2,0c0.1,0,0.1,0,0.1,0c0,0,0,0,0,0c0.1,0,0.1,0,0.2,0c0,0,0,0,0.1,0
						c0,0,0,0,0,0c0,0,0.1,0,0.1,0c0,0,0,0,0,0c0.1,0,0.3-0.1,0.4-0.1c0,0,0,0,0.1,0c0,0,0,0,0.1,0c0,0,0,0,0,0c0.1,0,0.1,0,0.2,0
						c0,0,0,0,0,0c0,0,0,0,0.1,0c0,0,0,0,0.1,0c0.1,0,0.2,0,0.3-0.1c0,0,0.1,0,0.1,0c0,0,0,0,0,0c0,0,0,0,0,0c0,0,0.1,0,0.1,0
						c0,0,0,0,0.1,0c0,0,0,0,0,0c0,0,0,0,0,0c0,0,0.1,0,0.1,0c0.1,0,0.1,0,0.2,0c0,0,0.1,0,0.1,0c0,0,0,0,0,0c0,0,0,0,0,0
						c0,0,0,0,0,0c0,0,0,0,0.1,0c0,0,0,0,0,0c0,0,0.1,0,0.1,0c0,0,0.1,0,0.1,0c0,0,0,0,0.1,0c0,0,0,0,0,0c0,0,0,0,0,0c0,0,0,0,0,0
						c0,0,0,0,0,0c0,0,0,0,0,0C218.2,22.6,218.2,22.6,218.3,22.6C218.2,22.6,218.3,22.6,218.3,22.6
						C218.3,22.6,218.3,22.6,218.3,22.6C218.3,22.6,218.3,22.6,218.3,22.6z M165.8,39l105.1-0.2l0,13.6l-105.1,0.2L165.8,39z"/>
					<path class="st27" d="M259,41c-3,0-5.5,2.5-5.5,5.5c0,3,2.5,5.5,5.5,5.5c3,0,5.5-2.5,5.5-5.5C264.5,43.4,262,41,259,41z
						 M254.8,44.7c0.2-0.4,0.4-0.8,0.7-1.1c0.8-1,2.1-1.7,3.5-1.7c0.3,0,0.6,0,0.9,0.1c0.1,0,0.1,0,0.1,0c0.3,0.1,0.5,0.2,0.8,0.3
						c0,0,0.1,0,0.1,0c0.5,0.2,1,0.6,1.4,1c0,0,0,0,0,0.1c0.4,0.7,0.7,1.5,0.7,2.4c0,2.5-2,4.6-4.6,4.6c-1.3,0-2.5-0.6-3.3-1.4
						c-0.4-0.7-0.7-1.5-0.7-2.4C254.4,45.9,254.5,45.3,254.8,44.7z M263.2,44.8c-0.1-0.3-0.2-0.5-0.4-0.7
						C263,44.2,263.1,44.5,263.2,44.8C263.2,44.7,263.2,44.7,263.2,44.8z"/>
					<path class="st27" d="M177.7,41.1c-3,0-5.5,2.5-5.5,5.5c0,3,2.5,5.5,5.5,5.5c3,0,5.5-2.5,5.5-5.5
						C183.2,43.6,180.8,41.1,177.7,41.1z M173.5,44.8c0.2-0.4,0.4-0.8,0.7-1.1c0.8-1,2.1-1.7,3.5-1.7c1.3,0,2.5,0.6,3.4,1.5
						c0.4,0.7,0.7,1.5,0.7,2.4c0,2.5-2,4.6-4.6,4.6c-1.3,0-2.5-0.6-3.4-1.5c-0.4-0.7-0.7-1.5-0.7-2.4
						C173.2,46,173.3,45.4,173.5,44.8z M182,44.9c-0.1-0.3-0.2-0.5-0.4-0.7C181.8,44.4,181.9,44.6,182,44.9
						C182,44.8,182,44.9,182,44.9z"/>
					<path class="st27" d="M244.6,41.4l-52.6,0.1c-2.8,0-5.1,2.3-5.1,5.1c0,2.8,2.3,5.1,5.1,5.1l52.6-0.1c2.8,0,5.1-2.3,5.1-5.1
						C249.8,43.7,247.5,41.4,244.6,41.4z M248.9,46.5L248.9,46.5c0,0.6-0.1,1.1-0.3,1.6c-0.2,0.5-0.5,1-0.9,1.3
						c-0.8,0.8-1.8,1.2-3,1.2l-52.6,0.1c-1.2,0-2.2-0.5-3-1.2c-0.4-0.4-0.7-0.8-0.9-1.3c-0.2-0.5-0.3-1.1-0.3-1.6l0,0
						c0-2.3,1.9-4.2,4.2-4.2l52.6-0.1C247,42.3,248.9,44.2,248.9,46.5z"/>
					<path class="st27" d="M274.7,110.1c3,0,5.5-2.5,5.5-5.5c0-3-2.5-5.5-5.5-5.5c-3,0-5.5,2.5-5.5,5.5
						C269.2,107.7,271.7,110.1,274.7,110.1z M278.9,102.9c-0.2-0.5-0.5-1-0.9-1.4C278.4,101.9,278.7,102.4,278.9,102.9z
						 M274.7,100.1c1.3,0,2.5,0.6,3.4,1.5c0.4,0.7,0.7,1.5,0.7,2.4c0,2.5-2,4.6-4.6,4.6c-1.3,0-2.5-0.6-3.3-1.4
						c-0.4-0.7-0.7-1.5-0.7-2.4C270.1,102.1,272.1,100.1,274.7,100.1z"/>
					<path class="st27" d="M162.2,99.3c-3,0-5.5,2.5-5.5,5.5c0,3,2.5,5.5,5.5,5.5c3,0,5.5-2.5,5.5-5.5
						C167.7,101.8,165.3,99.3,162.2,99.3z M162.2,100.2c1.3,0,2.5,0.6,3.4,1.5c0.4,0.7,0.7,1.5,0.7,2.4c0,2.5-2,4.6-4.6,4.6
						c-1.3,0-2.5-0.6-3.4-1.5c-0.4-0.7-0.7-1.5-0.7-2.4C157.7,102.3,159.7,100.2,162.2,100.2z"/>
				</g>
			</g>
		</g>
	</g>
	<g class="st62">
		<g class="st64">
			<g>
				<path class="st9" d="M255.5,103.8c0,0-0.1-44.2-44-45.9v-0.1c-0.4,0-0.9,0-1.3,0c-0.4,0-0.9,0-1.3,0v0.1
					c-43.9,1.8-43.9,46-43.9,46l0.1,49.6c0.5-0.2,1-0.4,1.6-0.6l-0.1-49.1c0-1.7,0.5-42.8,42.4-44.4c0.1,0,0.3,0,0.4-0.1
					c0.1,0,0.1,0,0.2,0l0.6,0l0.6,0c0.1,0,0.1,0,0.2,0c0.1,0,0.3,0.1,0.4,0.1c41.9,1.5,42.5,42.6,42.5,44.3l0,18.1
					c0.5-0.1,1-0.2,1.6-0.2L255.5,103.8z"/>
				<path class="st9" d="M84,134.8l0.8,0l1.6,0l1.6,0c0,0,0-0.1,0.1-0.1c0.4-0.5,0.8-0.9,1.2-1.5l-2.9,0l-1.6,0l-0.8,0l-1.6,0
					l-0.9,0l0-4.5l0.9,0l1.6,0l0.8,0l1.6,0l3.3,0l1.6,0l0.9,0l0,1.6c0.5-0.4,1-0.8,1.6-1.2l0-0.4l0.5,0c0.7-0.5,1.5-1,2.4-1.6
					l-2.9,0v0l-1.6,0v0l-0.9,0l-1.6,0l-3.3,0l-1.6,0l-0.8,0l-1.6,0l-0.9,0v0l-0.7,0c0.1-0.6,0.3-1.3,0.7-1.8c0,0,0,0,0,0
					c0.1-0.2,0.2-0.3,0.4-0.5c0.5-0.5,1-0.9,1.7-1.1c0.2,0,0.3-0.1,0.5-0.1l2.5,0l1.6,0l14.9,0c1.7-0.7,3.4-1.2,5.2-1.6l-5.7,0
					l-2.9,0l-5.2,0l-1.4,0l-2.9,0l-1.5,0c0.2-0.5,0.5-1,0.9-1.4c0.3-0.3,0.6-0.5,0.9-0.5l0.6,0l0.9,0l1.6,0l0.3,0l1.6,0l3.8,0l1.6,0
					l0.9,0l1.6,0l19.7,0l1.6,0l0.9,0l1.6,0l1.6,0l1.6,0l0.6,0l1.6,0l0.3,0l0.9,0l0.6,0l0.9,0l0,0l0.6,0c0.3,0,0.6,0.2,0.9,0.5
					c0.3,0.3,0.6,0.8,0.9,1.4l-1.5,0l-0.9,0l-1.6,0l-0.4,0l-1.4,0l-1.5,0l-1.6,0l-2.2,0l-2.9,0l-2.3,0c1.5,0.3,3.1,0.8,4.7,1.5
					l2.7,0l1.6,0l3.3,0l1.6,0l3,0l1.6,0l2.5,0c0.2,0,0.3,0,0.5,0.1c0.7,0.1,1.2,0.5,1.7,1.1c0.1,0.2,0.3,0.3,0.4,0.5c0,0,0,0,0,0
					c0.4,0.6,0.6,1.2,0.7,1.8l-0.7,0v0l-0.9,0l-1.6,0l-0.8,0l-1.6,0l-3.3,0l-1.6,0l-0.1,0l-0.8,0v0l-0.8,0l-0.8,0v0l-1.1,0
					c0.9,0.8,1.8,1.6,2.7,2.6l0-1l0.8,0l0.1,0l1.6,0l3.3,0l1.6,0l0.8,0l1.6,0l0.9,0l0,4.5l-0.9,0l-1.6,0l-0.8,0l-1.6,0l-3.1,0
					c0.3,0.5,0.6,1,0.9,1.6l2.2,0l1.6,0l0.8,0l0,26.3l0,0v1.6l0,0l1.6,0l0.9,0l0,0.6l-0.9,0l-1.6,0l0,0v1.6l0.1,0l1.6,0l0.7,0
					c0.7-0.5,1.4-1,2.1-1.4c-0.1,0-0.2-0.1-0.4-0.1l0-0.6c0-0.9-0.7-1.6-1.6-1.6l-0.9,0l0-26.3l0.9,0c0.9,0,1.6-0.7,1.6-1.6l0-4.8
					c0.1-0.1,0.2-0.1,0.3-0.2c0.3-0.3,0.4-0.8,0.4-1.2c-0.1-0.7-0.4-1.5-0.8-2.2c-0.1-0.1-0.1-0.2-0.2-0.3c0,0-0.1-0.1-0.1-0.1
					c0-0.1-0.1-0.1-0.1-0.2c-0.9-1.2-2.1-2-3.6-2l-3,0c-0.5-1.3-1.3-2.7-2.6-3.2l0-1.6c0-0.8-0.7-1.5-1.5-1.5c0,0,0,0,0,0l-0.9,0
					l0-8.8l0.9,0c0,0,0,0,0,0c0.8,0,1.5-0.7,1.5-1.5l0-1l1.6,0c0.4,0,0.9-0.2,1.2-0.5c0.3-0.3,0.4-0.8,0.4-1.2
					c-0.2-1.2-1.3-5.6-4.1-5.6l-0.6,0l-1.6,0l-3.3,0l-1.6,0l-38,0.1c-2.8,0-3.9,4.4-4.1,5.6c-0.1,0.4,0.1,0.9,0.4,1.2
					c0.3,0.3,0.7,0.5,1.2,0.5l1.6,0l0,1c0,0.9,0.7,1.6,1.6,1.6l0.9,0l0,8.8l-0.9,0c-0.9,0-1.6,0.7-1.6,1.6l0,1.6
					c-1.3,0.5-2.1,1.9-2.6,3.2l-3,0c-1.5,0-2.8,0.9-3.6,2.1c0,0.1-0.1,0.1-0.1,0.2c0,0-0.1,0.1-0.1,0.1c-0.1,0.1-0.1,0.2-0.2,0.3
					c-0.4,0.7-0.7,1.5-0.8,2.2c-0.1,0.4,0.1,0.9,0.4,1.2c0.1,0.1,0.2,0.1,0.3,0.2l0,4.8c0,0.9,0.7,1.6,1.6,1.6l0.9,0l0,22.1
					c0.5-0.2,1-0.3,1.6-0.5L84,134.8z M101.7,115.7l-0.9,0l0-8.8l0.9,0c0.3,0,0.5-0.1,0.7-0.2l0,9.2
					C102.2,115.8,102,115.7,101.7,115.7z M103.3,118.7l0-1.3c0.2,0.1,0.5,0.2,0.7,0.2l18.2,0c0.3,0,0.5-0.1,0.7-0.2l0,1.3
					L103.3,118.7z M104,105.6l18.2,0l0,10.4l-18.2,0L104,105.6z M123.8,115.9l0-9.2c0.2,0.1,0.5,0.2,0.7,0.2l0.9,0l0,8.8l-0.9,0
					C124.3,115.6,124,115.7,123.8,115.9z M134.1,117.2l0.9,0l0,1.4l-0.9,0l-0.6,0l-0.9,0l-0.3,0l-1.6,0l-0.6,0l-1.6,0l-1.6,0l-1.6,0
					l-0.9,0l0-1.4l0.9,0l1.6,0l1.6,0l1.6,0l0.6,0l1.6,0l0.3,0l0.9,0L134.1,117.2z M127,106.8l1.6,0l1.6,0l0.6,0l1.6,0l0.3,0l0,8.8
					l-0.3,0l-1.6,0l-0.6,0l-1.6,0l-1.6,0L127,106.8z M134.1,105.3l-0.6,0l-0.9,0l-0.3,0l-1.6,0l-0.6,0l-1.6,0l-1.6,0l-1.6,0l-0.9,0
					l0-1l0.9,0l1.6,0l1.6,0l1.6,0l0.6,0l1.6,0l0.3,0l0.9,0l0.6,0l0.9,0l0,1L134.1,105.3z M89.7,102.8L89.7,102.8l-1.6,0v0
					c0-0.3,0.1-0.7,0.3-1.2c0.1-0.5,0.3-0.9,0.5-1.4c0.4-0.9,1-1.6,1.7-1.6l38-0.1l1.6,0l3.3,0l1.6,0l0.6,0c0.7,0,1.2,0.7,1.7,1.6
					c0.2,0.4,0.4,0.9,0.6,1.4c0.1,0.5,0.2,0.9,0.3,1.2v0l-1.6,0v0l-1.5,0l0,0v0l-0.9,0l-0.6,0l-0.9,0l-0.3,0l-1.6,0l-0.6,0l-1.6,0
					l-1.6,0l-1.6,0l-0.9,0v0l-1.6,0v0l-19.7,0v0l-1.6,0l0,0l-0.9,0l-1.6,0l-3.8,0l-1.6,0l-0.3,0l-1.6,0l-0.9,0v0L89.7,102.8z
					 M92.1,105.3l-0.9,0l0-1l0.9,0l1.6,0l0.3,0l1.6,0l3.8,0l1.6,0l0.9,0l0,1l-0.9,0l-1.6,0l-3.8,0l-1.6,0l-0.3,0L92.1,105.3z
					 M99.3,115.7l-3.8,0l-1.6,0l-0.3,0l0-8.8l0.3,0l1.6,0l3.8,0L99.3,115.7z M92.1,117.2l1.6,0l0.3,0l1.6,0l3.8,0l1.6,0l0.9,0l0,1.4
					l-0.9,0l-1.6,0l-3.8,0l-1.6,0l-0.3,0l-1.6,0l-0.9,0l0-1.4L92.1,117.2z"/>
				<path class="st9" d="M252.8,117.7c0,0-0.1-41.6-41.4-43.1v-0.1c-0.4,0-0.8,0-1.2,0c-0.4,0-0.8,0-1.2,0l0,0.1
					c-41.2,1.7-41.2,43.2-41.2,43.2l0.1,34.7c1-0.3,2.1-0.6,3.1-0.8l-0.1-34c0-1.6,0.5-38.6,38.2-40.1c0.2,0,0.3,0,0.5-0.1l0.6,0
					l0.7,0c0.2,0,0.3,0,0.5,0.1c37.7,1.4,38.3,38.4,38.4,40l0,5.2c1-0.3,2.1-0.6,3.1-0.8L252.8,117.7z"/>
				<path class="st9" d="M281.4,121.8l-3,0c-1.5,0-2.8,0.9-3.6,2.1c0,0.1-0.1,0.1-0.1,0.2c0,0,0,0.1-0.1,0.1
					c-0.1,0.1-0.1,0.2-0.2,0.3c-0.2,0.3-0.4,0.7-0.5,1c0.4,0.3,0.9,0.6,1.3,0.9c0-0.2,0.1-0.3,0.2-0.5c0.1-0.3,0.3-0.6,0.4-0.9
					c0,0,0,0,0,0c0.1-0.2,0.2-0.3,0.4-0.5c0.5-0.5,1-0.9,1.7-1.1c0.2,0,0.3-0.1,0.5-0.1l2.5,0l1.6,0l3,0l1.6,0l3.3,0l1.6,0l25.4,0
					c0.4-0.5,0.9-1,1.4-1.6l-0.8,0l-20.9,0l-2.9,0l-2.2,0l-1.6,0l-1.5,0l-1.4,0l-0.4,0l-1.6,0l-0.9,0l-1.5,0c0.2-0.5,0.5-1,0.9-1.4
					c0.3-0.3,0.6-0.5,0.9-0.5l0.6,0l0,0l0.9,0l0.6,0l0.9,0l0.3,0l1.6,0l0.6,0l1.6,0l1.6,0l1.6,0l0.9,0l1.6,0l19.7,0l1.6,0l0.9,0
					l0.9,0c0.6-0.5,1.2-1,1.8-1.6l-1.2,0l-1.6,0l-0.9,0l0-1.4l0.9,0l1.6,0l3,0c0.1-0.1,0.3-0.2,0.4-0.3c0.6-0.4,1.2-0.8,1.8-1.2
					l-1.4,0l-3.8,0l0-8.8l3.8,0l1.6,0l0.3,0l0,8.6c0.5-0.3,1-0.6,1.6-0.9l0-7.7l0.9,0c0.9,0,1.6-0.7,1.6-1.6l0-1l1.6,0
					c0.4,0,0.9-0.2,1.2-0.5c0.3-0.3,0.4-0.8,0.4-1.2c-0.2-1.2-1.3-5.6-4.1-5.6l-38,0.1l-1.6,0l-3.3,0l-1.6,0l-0.6,0
					c-2.8,0-3.9,4.4-4.1,5.6c-0.1,0.4,0.1,0.9,0.4,1.2c0.3,0.3,0.7,0.5,1.2,0.5l1.6,0l0,1c0,0.8,0.7,1.5,1.5,1.5c0,0,0,0,0,0l0.9,0
					l0,8.8l-0.9,0c0,0,0,0,0,0c-0.8,0-1.5,0.7-1.5,1.5l0,1.6C282.7,119,281.9,120.5,281.4,121.8z M296,115.4l-0.9,0l0-8.8l0.9,0
					c0.3,0,0.5-0.1,0.7-0.2l0,9.2C296.5,115.4,296.2,115.4,296,115.4z M297.5,118.3l0-1.3c0.2,0.1,0.5,0.2,0.7,0.2l18.2,0
					c0.3,0,0.5-0.1,0.7-0.2l0,1.3L297.5,118.3z M298.3,105.3l18.2,0l0,10.4l-18.2,0L298.3,105.3z M318.8,115.3
					c-0.3,0-0.5,0.1-0.7,0.2l0-9.2c0.2,0.1,0.5,0.2,0.7,0.2l0.9,0l0,8.8L318.8,115.3z M328.4,105l-1.6,0l-0.3,0l-1.6,0l-3.8,0
					l-1.6,0l-0.9,0l0-1l0.9,0l1.6,0l3.8,0l1.6,0l0.3,0l1.6,0l0.9,0l0,1L328.4,105z M285.5,102.5l-1.5,0v0l-1.6,0v0
					c0-0.2,0.1-0.4,0.1-0.7c0.1-0.4,0.2-0.8,0.4-1.2c0.1-0.2,0.2-0.5,0.3-0.7c0.4-0.9,1-1.6,1.7-1.6l0.6,0l1.6,0l3.3,0l1.6,0l38-0.1
					c0.7,0,1.2,0.7,1.7,1.6c0.1,0.2,0.2,0.5,0.3,0.7c0.2,0.4,0.3,0.8,0.4,1.2c0.1,0.3,0.1,0.5,0.1,0.7v0l-1.6,0v0l-1.6,0v0l-0.9,0
					l-1.6,0l-0.3,0l-1.6,0l-3.8,0l-1.6,0l-0.9,0v0l-1.6,0l0,0l-19.7,0v0l-1.6,0v0l-0.9,0l-1.6,0l-1.6,0l-1.6,0l-0.6,0l-1.6,0l-0.3,0
					l-0.9,0l-0.6,0L285.5,102.5L285.5,102.5L285.5,102.5z M286.4,105l-0.9,0l0-1l0.9,0l0.6,0l0.9,0l0.3,0l1.6,0l0.6,0l1.6,0l1.6,0
					l1.6,0l0.9,0l0,1l-0.9,0l-1.6,0l-1.6,0l-1.6,0l-0.6,0l-1.6,0l-0.3,0l-0.9,0L286.4,105z M293.6,115.4l-1.6,0l-1.6,0l-0.6,0
					l-1.6,0l-0.3,0l0-8.8l0.3,0l1.6,0l0.6,0l1.6,0l1.6,0L293.6,115.4z M286.4,116.9l0.6,0l0.9,0l0.3,0l1.6,0l0.6,0l1.6,0l1.6,0
					l1.6,0l0.9,0l0,1.4l-0.9,0l-1.6,0l-1.6,0l-1.6,0l-0.6,0l-1.6,0l-0.3,0l-0.9,0l-0.6,0l-0.9,0l0-1.4L286.4,116.9z"/>
				<path class="st9" d="M290.8,134.4l1.1,0h0l1.5,0l18.6,0c0-0.5,0.1-1,0.2-1.6l-18.8,0l0-1.2l19.1,0c0.1-0.5,0.3-1,0.5-1.6
					l-19.7,0c-0.8,0-1.4,0.6-1.5,1.4c0,0.1,0,0.1,0,0.2l0,1.2l-1.1,0c-0.1,0-0.3,0-0.4,0.1c-0.7,0.2-1.1,0.8-1.1,1.5l0,16.9
					c0.5-0.1,1-0.1,1.6-0.1L290.8,134.4z"/>
				<path class="st9" d="M70.8,47.9l0.8,0c-1.1,1.3-1.8,2.9-2,4.5c-0.1,0.9,0.2,1.8,0.7,2.5c0.4,0.5,1,0.9,1.7,1l0.2,106
					c1-0.7,2-1.3,3.1-1.8L75.2,54.3l53.3-0.1l1.6,0l3.3,0l1.6,0l15.9,0l0.2,106.7c0.5-0.2,1-0.4,1.6-0.6l-0.2-106.1l0.9,0
					c0.4,0,0.9-0.2,1.2-0.5c0.3-0.3,0.4-0.8,0.4-1.2c-0.1-0.5-0.2-1-0.4-1.5l111.4-0.2c-0.2,0.5-0.3,1-0.4,1.5
					c-0.1,0.4,0.1,0.9,0.4,1.2c0.3,0.3,0.7,0.5,1.2,0.5l0.9,0l0.1,68.6c0.5,0.2,1,0.4,1.6,0.6L269.4,54l15.9,0l1.6,0l3.3,0l1.6,0
					l53.3-0.1l0.1,57.2c1.1,0.1,2.1,0.3,3.1,0.5l-0.1-56.2c0.7-0.1,1.3-0.5,1.7-1c0.6-0.7,0.9-1.6,0.7-2.5c-0.2-1.7-1-3.3-2-4.5
					l0.8,0c1.1,0,2.1-0.6,2.7-1.5c0.6-0.9,0.6-2.1,0.1-3l-3.9-7.5c-0.5-1-1.6-1.7-2.8-1.7l-3.7,0l0-21.2c0-1.7-1.4-3.1-3.1-3.1
					l-19.7,0l0-14.9c0-1.7-1.4-3.1-3.1-3.1l-11.9,0l0-20.4l1.6,0c0.9,0,1.8-0.4,2.4-1.1c0.6-0.7,0.8-1.7,0.6-2.6
					c-0.9-4.5-6-9.3-12.7-9.3l-6.8,0C277.9-46,218-60.3,210.7-61.6l0,0c-0.2-0.1-0.5-0.1-0.7-0.1c0,0,0,0,0,0c0,0,0,0,0,0
					c0,0,0,0,0,0c0,0,0,0,0,0c0,0,0,0,0,0c-0.2,0-0.5,0-0.7,0.1l0,0c-7.3,1.4-67.2,15.8-78.4,19.9l-6.8,0c-6.7,0-11.8,4.8-12.7,9.3
					c-0.2,0.9,0.1,1.9,0.6,2.6s1.5,1.1,2.4,1.1l1.6,0l0,20.4l-11.9,0c-1.7,0-3.1,1.4-3.1,3.1l0,14.9l-19.7,0c-1.7,0-3.1,1.4-3.1,3.1
					l0,21.2l-3.7,0c-1.2,0-2.2,0.7-2.8,1.7l-3.9,7.5c-0.5,1-0.5,2.1,0.1,3C68.7,47.3,69.8,47.9,70.8,47.9z M152.4,52.7l-1.6,0
					l-15.9,0l-1.6,0l-3.3,0l-1.6,0l-53.3,0.1l-1.6,0l-0.9,0c0-0.3,0.1-0.7,0.3-1l0,0c0-0.1,0.1-0.2,0.1-0.2v0
					c0.1-0.3,0.3-0.6,0.5-0.9c0,0,0,0,0,0c0.1-0.1,0.2-0.3,0.3-0.4c0.1-0.2,0.3-0.4,0.4-0.5l0,0c0,0,0,0,0,0c0,0,0,0,0,0
					c0.3-0.3,0.5-0.5,0.9-0.7h0c0,0,0,0,0,0c0.5-0.3,1-0.5,1.6-0.5l51.7-0.1l1.6,0l3.3,0l1.6,0l14.3,0c0.9,0,1.7,0.4,2.4,1.1
					c0.5,0.4,0.9,1,1.1,1.6c0.3,0.6,0.5,1.2,0.6,1.7L152.4,52.7z M153.7,49.4c-1-1.5-2.6-2.6-4.4-2.6l-14.3,0l-1.6,0l-3.3,0l-1.6,0
					l-51.7,0.1c-0.6,0-1.1,0.1-1.6,0.3l0-0.9l53.3-0.1l1.6,0l3.3,0l1.6,0L285.4,46l1.6,0l3.3,0l1.6,0l53.3-0.1l0,0.9
					c-0.5-0.2-1-0.3-1.6-0.3l-51.7,0.1l-1.6,0l-3.3,0l-1.6,0l-14.3,0c-1.8,0-3.4,1.1-4.4,2.6L153.7,49.4z M346.7,52.3l-1.6,0
					l-53.3,0.1l-1.6,0l-3.3,0l-1.6,0l-15.9,0l-1.6,0l-0.9,0c0.1-0.6,0.3-1.2,0.6-1.7c0.3-0.6,0.7-1.1,1.1-1.6
					c0.7-0.6,1.5-1.1,2.4-1.1l14.3,0l1.6,0l3.3,0l1.6,0l51.7-0.1c0.6,0,1.1,0.2,1.6,0.5c0,0,0,0,0,0c0.3,0.2,0.6,0.4,0.9,0.7
					c0,0,0.1,0.1,0.1,0.1c0.2,0.2,0.3,0.3,0.4,0.5c0.3,0.4,0.6,0.9,0.8,1.4l0,0c0,0,0,0.1,0,0.1c0,0,0,0.1,0.1,0.1
					c0.1,0.3,0.2,0.7,0.3,1L346.7,52.3z M136.4-40.2c0.2-0.1,0.4-0.1,0.6-0.2c0.1,0,0.3-0.1,0.4-0.1c0.2-0.1,0.4-0.1,0.6-0.2
					c0.2,0,0.3-0.1,0.5-0.1c0.3-0.1,0.5-0.2,0.8-0.2c0.1,0,0.3-0.1,0.4-0.1c0.2-0.1,0.4-0.1,0.6-0.2c0.2-0.1,0.4-0.1,0.6-0.2
					c0.2,0,0.3-0.1,0.5-0.1c0.3-0.1,0.6-0.2,0.9-0.2c0.3-0.1,0.5-0.1,0.8-0.2c0.2-0.1,0.4-0.1,0.5-0.2c0.3-0.1,0.6-0.2,0.9-0.2
					c0.1,0,0.2-0.1,0.4-0.1c0,0,0,0,0,0c0.1,0,0.1,0,0.2-0.1c0.3-0.1,0.7-0.2,1-0.3c0.1,0,0.3-0.1,0.4-0.1c0.3-0.1,0.6-0.2,0.9-0.2
					c0.1,0,0.1,0,0.2-0.1c0,0,0,0,0,0c0,0,0.1,0,0.1,0c0,0,0,0,0,0c0,0,0,0,0,0c0,0,0,0,0,0c0.1,0,0.2-0.1,0.3-0.1
					c0.3-0.1,0.7-0.2,1-0.3c0.2,0,0.3-0.1,0.5-0.1c0.3-0.1,0.6-0.2,0.9-0.2c0,0,0.1,0,0.1,0c0,0,0.1,0,0.1,0c0,0,0.1,0,0.1,0
					c0.5-0.1,1.1-0.3,1.6-0.4c0.1,0,0.3-0.1,0.4-0.1c0.2-0.1,0.5-0.1,0.7-0.2c0,0,0.1,0,0.1,0c0,0,0.1,0,0.1,0c0.1,0,0.1,0,0.2,0
					c0,0,0,0,0,0c0,0,0.1,0,0.1,0c0.2,0,0.4-0.1,0.5-0.1c0.3-0.1,0.7-0.2,1-0.3c0.2-0.1,0.4-0.1,0.7-0.2c0.2,0,0.3-0.1,0.5-0.1
					c0,0,0.1,0,0.1,0c0.1,0,0.2-0.1,0.3-0.1c0,0,0.1,0,0.1,0c0.1,0,0.2-0.1,0.3-0.1c0.1,0,0.2-0.1,0.3-0.1c0.5-0.1,1.1-0.3,1.6-0.4
					c0.1,0,0.1,0,0.2,0c0.1,0,0.2-0.1,0.4-0.1c0,0,0.1,0,0.1,0c0.1,0,0.2-0.1,0.4-0.1c0,0,0.1,0,0.1,0c0,0,0,0,0,0c0,0,0.1,0,0.1,0
					c0.3-0.1,0.5-0.1,0.8-0.2c0.3-0.1,0.6-0.1,0.9-0.2c0.3-0.1,0.6-0.2,0.9-0.2c0,0,0,0,0.1,0c0,0,0.1,0,0.1,0
					c0.2,0,0.3-0.1,0.5-0.1c0,0,0,0,0,0c0,0,0,0,0.1,0c0.1,0,0.1,0,0.2,0c0,0,0.1,0,0.1,0c0.3-0.1,0.5-0.1,0.8-0.2
					c0.6-0.1,1.2-0.3,1.8-0.4c0,0,0,0,0,0c0.1,0,0.3-0.1,0.4-0.1c0.1,0,0.2-0.1,0.4-0.1c0.2,0,0.3-0.1,0.5-0.1
					c0.2,0,0.4-0.1,0.5-0.1c0.4-0.1,0.8-0.2,1.2-0.3c0.1,0,0.1,0,0.2,0c0.1,0,0.2-0.1,0.3-0.1c0,0,0,0,0,0c0.1,0,0.3-0.1,0.4-0.1
					c0.1,0,0.2,0,0.3-0.1c0.1,0,0.3-0.1,0.4-0.1c0.3-0.1,0.5-0.1,0.8-0.2c0.2-0.1,0.4-0.1,0.6-0.2c0.1,0,0.1,0,0.2,0
					c0.1,0,0.2-0.1,0.4-0.1c0.2,0,0.4-0.1,0.6-0.1c0,0,0,0,0,0c0,0,0,0,0,0c0.1,0,0.1,0,0.2,0c0.2-0.1,0.5-0.1,0.7-0.2
					c0.3-0.1,0.6-0.1,0.9-0.2c0.2-0.1,0.4-0.1,0.6-0.2c0.1,0,0.1,0,0.2,0c0.1,0,0.3-0.1,0.4-0.1c0.1,0,0.2-0.1,0.3-0.1c0,0,0,0,0,0
					c0,0,0.1,0,0.1,0c0,0,0.1,0,0.1,0c0.4-0.1,0.8-0.2,1.1-0.3c0.3-0.1,0.7-0.2,1-0.2c0,0,0.1,0,0.1,0c0.3-0.1,0.6-0.1,0.9-0.2
					c0.1,0,0.2,0,0.2-0.1c0,0,0.1,0,0.1,0c0.1,0,0.2-0.1,0.3-0.1c0.3-0.1,0.6-0.1,0.9-0.2c0.2-0.1,0.5-0.1,0.7-0.2
					c0.1,0,0.1,0,0.2-0.1c0.1,0,0.1,0,0.2,0c0,0,0,0,0.1,0c0.1,0,0.3-0.1,0.4-0.1c0.1,0,0.3-0.1,0.4-0.1c0,0,0,0,0.1,0c0,0,0,0,0,0
					c0,0,0,0,0.1,0c0.1,0,0.2,0,0.3-0.1c0.2-0.1,0.5-0.1,0.7-0.2c0.3-0.1,0.6-0.1,0.8-0.2c0.1,0,0.1,0,0.2,0c0,0,0,0,0.1,0
					c0,0,0.1,0,0.1,0c0,0,0.1,0,0.1,0c0.3-0.1,0.6-0.1,0.8-0.2c0,0,0.1,0,0.1,0c0.1,0,0.1,0,0.2,0c0.1,0,0.1,0,0.2-0.1
					c0.5-0.1,0.9-0.2,1.4-0.3c0.1,0,0.1,0,0.2,0c0.3-0.1,0.7-0.2,1-0.2c0,0,0.1,0,0.1,0c0,0,0.1,0,0.1,0c0.1,0,0.3-0.1,0.4-0.1
					c0.2,0,0.3-0.1,0.5-0.1c0.1,0,0.3-0.1,0.4-0.1c0.1,0,0.2-0.1,0.3-0.1c0.1,0,0.2,0,0.3-0.1c0,0,0.1,0,0.1,0c0,0,0,0,0,0
					c0.2-0.1,0.4-0.1,0.6-0.2c0.1,0,0.1,0,0.2,0c0.1,0,0.1,0,0.2,0c0.1,0,0.3-0.1,0.4-0.1c0.2,0,0.4-0.1,0.6-0.1c0,0,0.1,0,0.1,0
					c0,0,0,0,0,0c0.2,0,0.4-0.1,0.6-0.1c0.2,0,0.4-0.1,0.6-0.1c0,0,0,0,0.1,0c0.1,0,0.2,0,0.2-0.1c0.2,0,0.4-0.1,0.6-0.1
					c0.2,0,0.3-0.1,0.5-0.1c0,0,0,0,0.1,0l0,0c0,0,0,0,0,0c0,0,0,0,0,0c0,0,0.1,0,0.1,0c0.2,0,0.4-0.1,0.6-0.1c0.1,0,0.2,0,0.2-0.1
					c0.2,0,0.3-0.1,0.5-0.1c0.1,0,0.2,0,0.3-0.1c0.1,0,0.1,0,0.2,0c0.2,0,0.3-0.1,0.5-0.1c0,0,0.1,0,0.1,0c0.1,0,0.3-0.1,0.4-0.1
					c0.1,0,0.1,0,0.2,0c0,0,0,0,0.1,0c0,0,0,0,0,0c0,0,0,0,0,0c0,0,0,0,0.1,0c0.1,0,0.2,0,0.3-0.1c0.2,0,0.4-0.1,0.6-0.1
					c0.1,0,0.1,0,0.2-0.1c0.1,0,0.2-0.1,0.4-0.1c0,0,0.1,0,0.1,0c0,0,0.1,0,0.1,0c0.1,0,0.1,0,0.2,0c0.1,0,0.1,0,0.2,0
					c0,0,0,0,0.1,0c0,0,0.1,0,0.2,0c0,0,0,0,0,0c0.2,0,0.4-0.1,0.6-0.1c0.1,0,0.2-0.1,0.4-0.1c0.1,0,0.2,0,0.2-0.1c0,0,0,0,0.1,0
					c0.1,0,0.2,0,0.3-0.1c0,0,0.1,0,0.1,0c0,0,0,0,0,0c0.1,0,0.1,0,0.2,0c0,0,0,0,0.1,0c0.2-0.1,0.5-0.1,0.7-0.2c0,0,0.1,0,0.1,0
					c0,0,0.1,0,0.1,0c0,0,0.1,0,0.1,0c0.1,0,0.2-0.1,0.3-0.1c0,0,0,0,0,0c0,0,0.1,0,0.1,0c0,0,0.1,0,0.1,0c0.2,0,0.3-0.1,0.4-0.1
					c0.1,0,0.2,0,0.2-0.1c0,0,0,0,0.1,0c0,0,0,0,0.1,0c0.1,0,0.1,0,0.2,0c0,0,0.1,0,0.1,0c0,0,0,0,0,0c0,0,0,0,0,0
					c0.1,0,0.1,0,0.2,0c0.1,0,0.2,0,0.3-0.1c0.1,0,0.1,0,0.2,0c0,0,0,0,0,0c0,0,0,0,0.1,0c0,0,0,0,0.1,0c0,0,0.1,0,0.1,0
					c0,0,0,0,0,0c0,0,0.1,0,0.1,0c0.1,0,0.1,0,0.2,0c0,0,0.1,0,0.1,0c0,0,0,0,0,0c0,0,0,0,0,0c0,0,0,0,0,0c0,0,0,0,0,0
					c0,0,0,0,0.1,0c0,0,0,0,0,0c0,0,0.1,0,0.1,0c0,0,0,0,0.1,0c0,0,0,0,0,0c0,0,0,0,0,0c0,0,0,0,0,0l0,0l0,0l0,0l0,0c0,0,0,0,0,0
					c0,0,0,0,0,0c0,0,0,0,0,0c0,0,0,0,0.1,0c0,0,0.1,0,0.1,0c0,0,0,0,0,0c0,0,0,0,0.1,0l0,0c0,0,0,0,0,0l0,0c0,0,0,0,0,0
					c0,0,0.1,0,0.1,0c0.1,0,0.1,0,0.2,0c0,0,0.1,0,0.1,0c0,0,0,0,0,0c0,0,0.1,0,0.1,0c0,0,0,0,0,0c0,0,0,0,0,0c0,0,0,0,0,0
					c0.1,0,0.1,0,0.2,0c0.1,0,0.2,0,0.4,0.1c0,0,0.1,0,0.1,0c0,0,0,0,0,0c0,0,0.1,0,0.1,0c0,0,0.1,0,0.1,0c0,0,0,0,0.1,0
					c0,0,0.1,0,0.1,0c0.1,0,0.2,0,0.3,0.1c0.1,0,0.3,0.1,0.4,0.1c0,0,0.1,0,0.1,0c0,0,0.1,0,0.1,0c0,0,0.1,0,0.1,0
					c0.1,0,0.2,0,0.2,0.1c0,0,0,0,0,0c0.1,0,0.1,0,0.2,0c0.1,0,0.2,0,0.3,0.1c0.2,0,0.3,0.1,0.5,0.1c0,0,0.1,0,0.1,0
					c0.1,0,0.1,0,0.2,0c0,0,0,0,0,0c0,0,0,0,0,0c0.1,0,0.3,0.1,0.4,0.1c0.3,0.1,0.6,0.1,0.9,0.2c0.1,0,0.2,0.1,0.3,0.1c0,0,0,0,0,0
					c0,0,0.1,0,0.1,0c0,0,0,0,0,0c0,0,0,0,0.1,0c0.2,0,0.4,0.1,0.5,0.1c0.3,0.1,0.6,0.1,0.9,0.2c0.2,0,0.4,0.1,0.7,0.2
					c0.2,0.1,0.5,0.1,0.7,0.2c0,0,0,0,0,0c0.3,0.1,0.6,0.1,0.9,0.2c0.5,0.1,0.9,0.2,1.4,0.3c0.1,0,0.1,0,0.2,0c0.1,0,0.2,0,0.3,0.1
					c0.1,0,0.2,0,0.3,0.1c0.1,0,0.1,0,0.2,0c0,0,0.1,0,0.1,0c0.1,0,0.2,0,0.2,0.1c0.2,0.1,0.5,0.1,0.7,0.2c0.2,0,0.4,0.1,0.6,0.1
					c0.2,0,0.3,0.1,0.5,0.1c0.1,0,0.1,0,0.2,0c0.1,0,0.2,0,0.3,0.1c0,0,0.1,0,0.1,0c0.1,0,0.1,0,0.2,0c0,0,0,0,0,0
					c0.4,0.1,0.7,0.2,1.1,0.3c0.2,0.1,0.5,0.1,0.7,0.2c0,0,0,0,0,0c0,0,0.1,0,0.1,0c0,0,0.1,0,0.1,0c0.2,0,0.4,0.1,0.6,0.1
					c0.1,0,0.1,0,0.2,0c0.1,0,0.1,0,0.2,0c0,0,0,0,0,0c0,0,0.1,0,0.1,0c0.3,0.1,0.7,0.2,1.1,0.2c0,0,0,0,0,0c0.1,0,0.2,0.1,0.3,0.1
					c0.1,0,0.1,0,0.2,0c0,0,0.1,0,0.1,0c0.2,0,0.3,0.1,0.5,0.1c0.1,0,0.3,0.1,0.4,0.1c0.1,0,0.2,0,0.2,0.1c0,0,0.1,0,0.1,0
					c0.2,0.1,0.5,0.1,0.7,0.2c0.2,0,0.4,0.1,0.5,0.1c0,0,0.1,0,0.1,0c0.1,0,0.2,0,0.3,0.1c0.2,0,0.3,0.1,0.5,0.1c0,0,0,0,0.1,0
					c0.1,0,0.2,0,0.3,0.1c0.2,0,0.4,0.1,0.6,0.1c0.1,0,0.2,0,0.2,0.1c0,0,0,0,0,0c0.1,0,0.1,0,0.2,0c0.4,0.1,0.7,0.2,1.1,0.3
					c0,0,0,0,0.1,0c0,0,0,0,0,0c0.3,0.1,0.5,0.1,0.8,0.2c0.1,0,0.3,0.1,0.4,0.1c0.2,0,0.4,0.1,0.6,0.1c0.1,0,0.1,0,0.2,0
					c0.2,0,0.4,0.1,0.5,0.1c0.3,0.1,0.6,0.1,0.9,0.2c0,0,0,0,0,0c0.1,0,0.1,0,0.2,0c0.1,0,0.3,0.1,0.4,0.1c0.1,0,0.2,0.1,0.4,0.1
					c0.1,0,0.2,0.1,0.4,0.1c0.2,0,0.4,0.1,0.6,0.1c0.4,0.1,0.7,0.2,1.1,0.3c0.1,0,0.2,0.1,0.3,0.1c0.1,0,0.1,0,0.2,0
					c0.1,0,0.1,0,0.2,0c0.3,0.1,0.5,0.1,0.8,0.2c0.1,0,0.1,0,0.2,0.1c0,0,0,0,0,0c0,0,0,0,0,0c0.3,0.1,0.5,0.1,0.8,0.2
					c0.3,0.1,0.7,0.2,1,0.3c0,0,0.1,0,0.1,0c0,0,0.1,0,0.1,0c0,0,0,0,0.1,0c0.2,0,0.3,0.1,0.5,0.1c0.3,0.1,0.5,0.1,0.8,0.2
					c0.1,0,0.1,0,0.2,0.1c0,0,0,0,0,0c0.3,0.1,0.6,0.1,0.8,0.2c0.2,0.1,0.4,0.1,0.6,0.2c0.1,0,0.2,0.1,0.4,0.1c0,0,0.1,0,0.1,0
					c0.3,0.1,0.5,0.1,0.8,0.2c0,0,0.1,0,0.1,0c0.2,0,0.3,0.1,0.5,0.1c0,0,0.1,0,0.1,0c0,0,0,0,0,0c0,0,0,0,0.1,0
					c0.4,0.1,0.7,0.2,1.1,0.3c0.2,0,0.3,0.1,0.5,0.1c0.1,0,0.1,0,0.2,0c0,0,0,0,0,0c0.5,0.1,1,0.3,1.6,0.4c0.1,0,0.1,0,0.2,0
					c0.1,0,0.1,0,0.2,0c0.3,0.1,0.5,0.1,0.8,0.2c0,0,0.1,0,0.1,0c0,0,0,0,0.1,0c0.1,0,0.1,0,0.2,0c0.1,0,0.3,0.1,0.4,0.1
					c0.4,0.1,0.8,0.2,1.2,0.3c0,0,0,0,0,0c0.2,0,0.4,0.1,0.6,0.1c0,0,0.1,0,0.1,0c0,0,0.1,0,0.1,0c0.1,0,0.2,0,0.3,0.1
					c0.2,0.1,0.5,0.1,0.7,0.2c0,0,0.1,0,0.1,0c0,0,0.1,0,0.1,0c0.1,0,0.2,0,0.3,0.1c0.5,0.1,1,0.2,1.5,0.4c0.1,0,0.3,0.1,0.4,0.1
					c0,0,0.1,0,0.1,0c0,0,0,0,0,0c0.1,0,0.2,0.1,0.3,0.1c0.2,0,0.3,0.1,0.5,0.1c0,0,0,0,0,0c0,0,0,0,0,0c0,0,0,0,0,0
					c0.1,0,0.2,0,0.2,0.1c0.5,0.1,1,0.2,1.4,0.4c0.1,0,0.2,0,0.3,0.1c0.1,0,0.3,0.1,0.4,0.1c0,0,0.1,0,0.1,0c0,0,0,0,0.1,0
					c0.2,0,0.4,0.1,0.5,0.1c0,0,0.1,0,0.1,0c0,0,0,0,0.1,0c0.2,0,0.3,0.1,0.5,0.1c0.2,0.1,0.5,0.1,0.7,0.2c0.3,0.1,0.7,0.2,1,0.3
					c0.1,0,0.2,0,0.3,0.1c0,0,0,0,0,0c0,0,0,0,0,0c0,0,0,0,0,0c0.1,0,0.1,0,0.2,0c0.1,0,0.2,0.1,0.3,0.1c0.1,0,0.1,0,0.2,0
					c0.2,0.1,0.4,0.1,0.7,0.2c0.3,0.1,0.6,0.2,0.9,0.2c0.2,0.1,0.4,0.1,0.6,0.2c0.1,0,0.1,0,0.2,0c0,0,0,0,0,0c0,0,0,0,0.1,0
					c0.1,0,0.2,0,0.3,0.1c0,0,0.1,0,0.1,0c0,0,0,0,0,0c0.1,0,0.3,0.1,0.4,0.1c0.1,0,0.3,0.1,0.4,0.1c0.4,0.1,0.7,0.2,1.1,0.3
					c0.1,0,0.3,0.1,0.4,0.1c0,0,0,0,0.1,0c0,0,0,0,0.1,0c0,0,0,0,0,0c0,0,0.1,0,0.1,0c0,0,0.1,0,0.1,0c0,0,0,0,0.1,0
					c0.1,0,0.3,0.1,0.4,0.1c0.2,0.1,0.4,0.1,0.7,0.2c0.2,0.1,0.5,0.1,0.7,0.2c0.2,0.1,0.4,0.1,0.7,0.2c0.2,0.1,0.5,0.1,0.7,0.2
					c0.2,0.1,0.4,0.1,0.6,0.2c0.2,0.1,0.4,0.1,0.6,0.2c0.1,0,0.3,0.1,0.4,0.1c0,0,0,0,0.1,0c0,0,0,0,0,0c0,0,0,0,0,0
					c0,0,0.1,0,0.1,0c0.4,0.1,0.7,0.2,1.1,0.3c0,0,0.1,0,0.1,0c0.3,0.1,0.6,0.2,0.8,0.2c0,0,0,0,0,0c0,0,0,0,0,0c0,0,0,0,0,0
					c0,0,0,0,0.1,0c0,0,0,0,0,0c0.1,0,0.1,0,0.2,0.1c0.2,0.1,0.4,0.1,0.6,0.2c0.2,0,0.3,0.1,0.5,0.1c0.1,0,0.2,0,0.3,0.1l0,0h0
					l-147.7,0.2l0,0l0,0C136.2-40.2,136.3-40.2,136.4-40.2z M114.5-31.8L114.5-31.8c0.1-0.4,0.2-0.8,0.4-1.2
					c1.3-2.8,4.8-5.6,9.2-5.6l4.7,0l2.7,0l0,0l157.1-0.3l0,0l2.7,0l4.7,0c4.4,0,8,2.7,9.3,5.6c0.2,0.4,0.3,0.8,0.4,1.2l0,0l-3.2,0v0
					l-1.6,0l-181.6,0.3v0l-1.6,0v0L114.5-31.8z M300.8-7L119.3-6.7l0-23.5l181.6-0.3L300.8-7z M117.7-5.1l1.6,0l181.6-0.3l1.6,0
					l13.5,0l0,16.4l-13.5,0l-1.6,0l-181.6,0.3l-1.6,0l-13.5,0l0-16.4L117.7-5.1z M102.7,12.9l1.6,0l13.5,0l1.6,0l181.6-0.3l1.6,0
					l13.5,0l1.6,0l21.3,0l0,22.8l-47,0.1l-1.6,0l-3.7,0l-152.8,0.3l-3.7,0l-1.6,0l-47,0.1l0-22.8L102.7,12.9z M74.7,37.2l5.2,0
					l1.6,0l47-0.1l1.6,0l3.3,0l1.6,0l150.5-0.2l1.6,0l3.3,0l1.6,0l47-0.1l1.6,0l5.2,0l3.9,7.5l-2.8,0l-1.6,0l-53.3,0.1l-1.6,0
					l-3.3,0l-1.6,0l-150.5,0.2l-1.6,0l-3.3,0l-1.6,0l-53.3,0.1l-1.6,0l-2.8,0L74.7,37.2z"/>
				<path class="st9" d="M275.8,126.8c0.6,0.5,1.2,1,1.7,1.6l0.7,0l0.8,0l1.6,0l3.3,0l1.6,0l0.1,0l0.8,0l0,4.5l-0.8,0l-0.1,0l-1.6,0
					l-2.7,0c0.3,0.5,0.6,1,0.9,1.6l1.8,0l0,3.9c0.6,1.6,1.1,3.3,1.6,5.2l0-9.1l0.1,0l0.8,0c0.3,0,0.6-0.1,0.8-0.2
					c0.4-0.3,0.8-0.7,0.8-1.3l0-4.5l2.5,0l1.6,0l22,0c0.3-0.5,0.6-1,0.9-1.6l-23,0l-1.6,0l-2.5,0v0l-0.8,0l-0.8,0v0l-0.8,0l-0.1,0
					l-1.6,0l-3.3,0l-1.6,0l-0.8,0l-1.6,0L275.8,126.8L275.8,126.8L275.8,126.8z"/>
			</g>
		</g>
	</g>
	<g>
		<path class="st0" d="M358.5,189v-3.6c0-20.9-9.5-25.3-17.4-25.3c-6.3,0-11.1,1.6-14.2,4.7c-0.7,0.7-1.1,1.5-1.1,2.5
			c-0.4,4.9-0.6,12.2-0.8,21.8h-5.5c-0.2-8.4-2.6-15.2-7.2-20.2c-4.9-5.3-10.8-8-17.7-8c-6.5,0-11.9,1.4-16,4.1
			c-0.5,0.3-0.9,0.6-1.4,1v-9.4c0-20.9-9.5-25.3-17.4-25.3c-3.7,0-7.4,0.9-10.8,2.8c-3.3,1.8-5.4,3.2-6.6,4.5c-1,1-1.7,1.8-2.2,2.5
			c-0.8,1-1.1,2.3-0.7,3.6l1,3.2c0.4,1.4,0.7,2.8,1.1,4.4h-3.1c-1.3-17.1-9.9-20.9-17.3-20.9c-3.7,0-7.4,0.9-10.8,2.8
			c-3.3,1.8-5.4,3.2-6.6,4.5c-1,1-1.7,1.8-2.2,2.5c-0.8,1-1.1,2.3-0.7,3.6l1,3.2c1.7,5.9,2.6,13.5,2.6,22.6V189H204
			c-0.3-8.2-2.7-14.9-7-19.9c-4.8-5.6-11.1-8.4-18.7-8.4c-7.1,0-13.3,2.6-18.4,7.6c-6.8,1.2-12.9,5.6-18.2,13
			c-1.6,2.2-2.9,4.8-4,7.6h-5.1v-32.6c0-20.9-9.5-25.3-17.4-25.3c-3.8,0-7.5,0.9-10.9,2.8c-3.3,1.8-5.4,3.2-6.6,4.5
			c-1,1-1.7,1.8-2.2,2.5c-0.8,0.9-1,2.2-0.7,3.4l0.9,3.4c1.4,5.6,2.3,11.2,2.7,16.7c-0.2,0-0.5,0-0.7,0c-10.5,0-19.6,3.8-26.8,11.2
			c-3.8,3.9-6.5,8.4-8.4,13.6l-2.4,12v22.1c12.8,27.4,33.3,34.3,65.5,34.3h27.8l153.4-0.1L358.5,189z"/>
	</g>
	<g>
		<path class="st82" d="M128.8,156.4v80l3.6,8.8c-0.5,0.8-1.1,1.8-1.9,2.9c-0.8,1.1-2.6,2.7-5.2,4.6c-2.7,1.9-5.6,2.9-8.7,2.9
			c-6.4,0-10.7-3.2-12.9-9.6c-3.7,6.4-9,9.6-16.1,9.6c-7.1,0-12.8-2.3-17.2-7c-4.4-4.6-6.5-10.3-6.5-17.1v-26.5
			c0-11.3,3.3-20.4,9.8-27.1c6.5-6.7,14.5-10,24-10c1.5,0,3.1,0.2,4.8,0.5c-0.2-7.2-1.3-14.5-3.1-22l-0.9-3.4c0.5-0.6,1.1-1.3,2-2.2
			c0.9-0.9,2.7-2.1,5.6-3.7c2.9-1.5,5.9-2.3,9.1-2.3C124.2,134.9,128.8,142,128.8,156.4z M88.4,222c0,4.5,1,7.8,3,9.9
			c2,2.1,5.7,3.3,11.1,3.7v-37.4c-0.3-3.1-1.6-5.4-3.9-7c-2.2-1.5-5.6-2.8-10.2-3.7V222z"/>
		<path class="st82" d="M197.6,231.1c1.3,1.3,1.9,2.9,1.9,5c0,2.1-0.5,4.2-1.6,6.3c-1.1,2.1-2.7,4.2-4.8,6.2c-2.1,2-5.1,3.7-9,5.1
			c-3.9,1.4-8.2,2.1-12.8,2.1c-4.6,0-8.8-0.7-12.5-2c-3.7-1.3-7.2-3.4-10.5-6.3c-7.2-6.4-10.8-16.9-10.8-31.4
			c0-14.5,2.5-25.3,7.4-32.4c4.9-7,10.5-10.9,16.8-11.6c4.6-4.9,10.1-7.4,16.6-7.4c6.5,0,11.7,2.3,15.8,7c4.1,4.7,6.1,11.1,6.1,19.2
			c0,9.5-3.5,17-10.5,22.5c-5.7,4.6-12.6,8.1-20.6,10.5c4,5.3,10.6,7.9,19.9,7.9C191.7,231.8,194.5,231.5,197.6,231.1z M176.3,199.3
			c0-7-4.3-10.8-12.9-11.5v15.5c0,5.2,0.5,9.3,1.4,12.4C172.5,211.4,176.3,205.9,176.3,199.3z"/>
		<path class="st82" d="M208.5,235.4v-65.3c0-9.5-0.9-17.4-2.7-23.7l-1-3.3c0.5-0.6,1.1-1.3,2-2.2c0.9-0.9,2.7-2.1,5.6-3.7
			c2.9-1.5,5.8-2.3,8.9-2.3c9,0,13.6,7.2,13.6,21.5v80l3.8,8.8c-0.5,0.8-1.1,1.8-1.9,2.9c-0.8,1.1-2.6,2.7-5.3,4.6
			c-2.7,1.9-5.7,2.9-8.8,2.9C213.2,255.6,208.5,248.9,208.5,235.4z"/>
		<path class="st82" d="M273.2,235.4c0,5.6,0.7,9.8,2.1,12.5c-0.7,1.8-2.6,3.6-5.8,5.2c-3.2,1.7-6.6,2.5-10.5,2.5
			c-3.8,0-6.8-1.2-8.9-3.5c-2.1-2.3-3.2-5.5-3.2-9.5v-72.5c0-9.5-0.9-17.4-2.7-23.7l-1-3.3c0.5-0.6,1.1-1.3,2-2.2
			c0.9-0.9,2.7-2.1,5.6-3.7c2.9-1.5,5.8-2.3,8.9-2.3c9,0,13.6,7.2,13.6,21.5v20.1c1.5-3.3,4-6.1,7.4-8.4c3.4-2.3,8-3.4,13.8-3.4
			c5.8,0,10.7,2.3,14.9,6.8c4.1,4.5,6.2,10.7,6.2,18.6v46.4l3.8,8.8c-0.5,0.8-1.1,1.8-1.9,2.9c-0.8,1.1-2.6,2.7-5.3,4.6
			c-2.7,1.9-5.7,2.9-8.8,2.9c-9.4,0-14.1-6.8-14.1-20.3v-33.2c0-6.3-1.1-10.5-3.4-12.7c-2.3-2.2-6.5-3.3-12.5-3.3V235.4z"/>
		<path class="st82" d="M355.3,139.6c0,4.8-1.1,8.6-3.4,11.7c-2.3,3-5.8,4.6-10.4,4.6c-4.6,0-8.1-1.7-10.3-5.1
			c-2.2-3.4-4.1-8.6-5.6-15.5c0.5-0.8,1.1-1.8,1.9-3c0.8-1.2,2.5-2.8,5.2-4.8c2.7-2,5.5-3,8.3-3c5.3,0,9,1.3,11.1,4
			C354.3,131.1,355.3,134.9,355.3,139.6z M342.4,255.6c-9.4,0-14.1-6.8-14.1-20.3c0-34.4,0.4-57,1.2-67.9c2.4-2.4,6.2-3.6,11.5-3.6
			c9,0,13.6,7.2,13.6,21.5v51l3.8,8.8c-0.5,0.8-1.1,1.8-1.9,2.9c-0.8,1.1-2.6,2.7-5.3,4.6C348.5,254.7,345.5,255.6,342.4,255.6z"/>
	</g>
</g>
<g>
	<g>
		<path class="st81" d="M69.9,282.7h-3.2l-0.7,2h-2l3.3-9.1h2l3.3,9.1h-2L69.9,282.7z M67.2,281.3h2.2l-1.1-3.2h0L67.2,281.3z"/>
		<path class="st81" d="M91.3,283.4c-0.3,0.4-0.8,0.7-1.4,1c-0.6,0.3-1.4,0.4-2.3,0.4c-1.2,0-2.2-0.3-2.9-1s-1.1-1.6-1.1-2.7v-1.9
			c0-1.1,0.4-2,1.1-2.7s1.7-1,2.8-1c1.2,0,2.1,0.3,2.7,0.8c0.6,0.5,0.9,1.2,0.9,2.1l0,0h-1.8c0-0.5-0.2-0.9-0.5-1.1
			c-0.3-0.3-0.7-0.4-1.3-0.4c-0.6,0-1.1,0.2-1.5,0.6c-0.4,0.4-0.6,1-0.6,1.7v1.9c0,0.7,0.2,1.2,0.6,1.7c0.4,0.4,0.9,0.6,1.5,0.6
			c0.5,0,0.8,0,1.1-0.1c0.3-0.1,0.5-0.2,0.6-0.3v-1.8h-1.9v-1.3h3.9V283.4z"/>
		<path class="st81" d="M98.4,281.1v3.6h-2v-9.1h3.4c1.1,0,2,0.2,2.6,0.7c0.6,0.5,0.9,1.1,0.9,2c0,0.5-0.1,0.9-0.4,1.2
			c-0.3,0.3-0.7,0.6-1.2,0.8c0.6,0.2,1,0.4,1.2,0.8c0.3,0.4,0.4,0.8,0.4,1.4v0.7c0,0.3,0,0.5,0.1,0.8c0.1,0.3,0.2,0.5,0.4,0.6v0.1
			h-2c-0.2-0.1-0.3-0.4-0.3-0.7c-0.1-0.3-0.1-0.6-0.1-0.9v-0.6c0-0.5-0.1-0.8-0.4-1.1s-0.6-0.4-1.1-0.4H98.4z M98.4,279.6h1.4
			c0.6,0,1-0.1,1.2-0.3c0.3-0.2,0.4-0.5,0.4-1c0-0.4-0.1-0.7-0.4-1s-0.7-0.4-1.2-0.4h-1.4V279.6z"/>
		<path class="st81" d="M114.3,280.7h-3.6v2.6h4.3v1.4h-6.3v-9.1h6.3v1.4h-4.3v2.3h3.6V280.7z"/>
		<path class="st81" d="M124.9,282.7h-3.2l-0.7,2h-2l3.3-9.1h2l3.3,9.1h-2L124.9,282.7z M122.2,281.3h2.2l-1.1-3.2h0L122.2,281.3z"
			/>
		<path class="st81" d="M138.2,277h-2.8v7.7h-2V277h-2.8v-1.4h7.5V277z"/>
		<path class="st81" d="M149.6,284.7v-9.1h3.2c1.2,0,2,0.2,2.7,0.6c0.6,0.4,1,1,1,1.9c0,0.4-0.1,0.8-0.3,1.1c-0.2,0.3-0.6,0.6-1,0.7
			c0.6,0.1,1.1,0.3,1.4,0.7c0.3,0.4,0.5,0.8,0.5,1.4c0,0.9-0.3,1.5-0.9,2c-0.6,0.4-1.5,0.7-2.6,0.7H149.6z M151.5,279.4h1.3
			c0.5,0,0.9-0.1,1.2-0.3c0.3-0.2,0.4-0.5,0.4-0.9c0-0.4-0.1-0.7-0.4-0.9c-0.3-0.2-0.7-0.3-1.3-0.3h-1.2V279.4z M151.5,280.7v2.6
			h1.8c0.5,0,0.9-0.1,1.2-0.3s0.4-0.5,0.4-0.9c0-0.4-0.1-0.8-0.4-1c-0.3-0.2-0.7-0.4-1.2-0.4H151.5z"/>
		<path class="st81" d="M163.8,281.1v3.6h-2v-9.1h3.4c1.1,0,2,0.2,2.6,0.7c0.6,0.5,0.9,1.1,0.9,2c0,0.5-0.1,0.9-0.4,1.2
			c-0.3,0.3-0.7,0.6-1.2,0.8c0.6,0.2,1,0.4,1.2,0.8c0.3,0.4,0.4,0.8,0.4,1.4v0.7c0,0.3,0,0.5,0.1,0.8c0.1,0.3,0.2,0.5,0.4,0.6v0.1
			h-2c-0.2-0.1-0.3-0.4-0.3-0.7c-0.1-0.3-0.1-0.6-0.1-0.9v-0.6c0-0.5-0.1-0.8-0.4-1.1s-0.6-0.4-1.1-0.4H163.8z M163.8,279.6h1.4
			c0.6,0,1-0.1,1.2-0.3c0.3-0.2,0.4-0.5,0.4-1c0-0.4-0.1-0.7-0.4-1s-0.7-0.4-1.2-0.4h-1.4V279.6z"/>
		<path class="st81" d="M176.1,284.7h-2v-9.1h2V284.7z"/>
		<path class="st81" d="M188.1,277h-2.8v7.7h-2V277h-2.8v-1.4h7.5V277z"/>
		<path class="st81" d="M194.7,284.7h-2v-9.1h2V284.7z"/>
		<path class="st81" d="M205.2,282.3c0-0.3-0.1-0.6-0.4-0.8c-0.3-0.2-0.7-0.4-1.4-0.6c-1.1-0.3-2-0.7-2.6-1.1
			c-0.6-0.4-0.9-1-0.9-1.8c0-0.7,0.3-1.4,1-1.8c0.7-0.5,1.5-0.7,2.5-0.7c1.1,0,2,0.3,2.6,0.8s1,1.2,1,2l0,0h-1.9
			c0-0.5-0.1-0.8-0.4-1c-0.3-0.2-0.7-0.4-1.2-0.4c-0.5,0-0.9,0.1-1.1,0.3c-0.3,0.2-0.4,0.5-0.4,0.8c0,0.3,0.1,0.6,0.4,0.8
			c0.3,0.2,0.8,0.4,1.5,0.6c1.1,0.3,1.9,0.7,2.5,1.1s0.8,1.1,0.8,1.8c0,0.8-0.3,1.4-1,1.8c-0.7,0.4-1.5,0.7-2.6,0.7
			c-1.1,0-2-0.2-2.7-0.7c-0.8-0.5-1.1-1.2-1.1-2.2l0,0h1.9c0,0.5,0.2,0.9,0.5,1.2c0.3,0.3,0.8,0.4,1.4,0.4c0.5,0,0.9-0.1,1.2-0.3
			S205.2,282.7,205.2,282.3z"/>
		<path class="st81" d="M220,284.7h-2v-3.8h-4v3.8h-2v-9.1h2v3.9h4v-3.9h2V284.7z"/>
		<path class="st81" d="M239.4,281.7L239.4,281.7c0,1-0.3,1.8-0.9,2.3s-1.6,0.8-2.7,0.8c-1.2,0-2.1-0.4-2.8-1.1
			c-0.7-0.7-1.1-1.6-1.1-2.7v-1.8c0-1.1,0.4-2,1.1-2.7c0.7-0.7,1.6-1.1,2.8-1.1c1.2,0,2.1,0.3,2.8,0.8c0.7,0.5,1,1.3,1,2.3l0,0h-1.9
			c0-0.6-0.2-1-0.5-1.3c-0.3-0.3-0.8-0.4-1.4-0.4c-0.6,0-1,0.2-1.4,0.7c-0.3,0.4-0.5,1-0.5,1.7v1.8c0,0.7,0.2,1.3,0.5,1.7
			c0.3,0.4,0.8,0.7,1.4,0.7c0.6,0,1-0.1,1.3-0.4s0.4-0.7,0.4-1.3H239.4z"/>
		<path class="st81" d="M252,275.6v5.9c0,1-0.4,1.8-1.1,2.4s-1.7,0.9-2.8,0.9c-1.2,0-2.1-0.3-2.8-0.9c-0.7-0.6-1.1-1.4-1.1-2.4v-5.9
			h2v5.9c0,0.6,0.2,1.1,0.5,1.4c0.3,0.3,0.8,0.5,1.4,0.5c0.6,0,1.1-0.2,1.4-0.5c0.4-0.3,0.5-0.8,0.5-1.4v-5.9H252z"/>
		<path class="st81" d="M259.1,281.1v3.6h-2v-9.1h3.4c1.1,0,2,0.2,2.6,0.7c0.6,0.5,0.9,1.1,0.9,2c0,0.5-0.1,0.9-0.4,1.2
			c-0.3,0.3-0.7,0.6-1.2,0.8c0.6,0.2,1,0.4,1.2,0.8c0.3,0.4,0.4,0.8,0.4,1.4v0.7c0,0.3,0,0.5,0.1,0.8c0.1,0.3,0.2,0.5,0.4,0.6v0.1
			h-2c-0.2-0.1-0.3-0.4-0.3-0.7c-0.1-0.3-0.1-0.6-0.1-0.9v-0.6c0-0.5-0.1-0.8-0.4-1.1s-0.6-0.4-1.1-0.4H259.1z M259.1,279.6h1.4
			c0.6,0,1-0.1,1.2-0.3c0.3-0.2,0.4-0.5,0.4-1c0-0.4-0.1-0.7-0.4-1s-0.7-0.4-1.2-0.4h-1.4V279.6z"/>
		<path class="st81" d="M271.4,281.1v3.6h-2v-9.1h3.4c1.1,0,2,0.2,2.6,0.7c0.6,0.5,0.9,1.1,0.9,2c0,0.5-0.1,0.9-0.4,1.2
			c-0.3,0.3-0.7,0.6-1.2,0.8c0.6,0.2,1,0.4,1.2,0.8c0.3,0.4,0.4,0.8,0.4,1.4v0.7c0,0.3,0,0.5,0.1,0.8c0.1,0.3,0.2,0.5,0.4,0.6v0.1
			h-2c-0.2-0.1-0.3-0.4-0.3-0.7c-0.1-0.3-0.1-0.6-0.1-0.9v-0.6c0-0.5-0.1-0.8-0.4-1.1s-0.6-0.4-1.1-0.4H271.4z M271.4,279.6h1.4
			c0.6,0,1-0.1,1.2-0.3c0.3-0.2,0.4-0.5,0.4-1c0-0.4-0.1-0.7-0.4-1s-0.7-0.4-1.2-0.4h-1.4V279.6z"/>
		<path class="st81" d="M284.7,279.8L284.7,279.8l2.2-4.2h2.2l-3.4,5.9v3.2h-2v-3.3l-3.3-5.8h2.2L284.7,279.8z"/>
		<path class="st81" d="M308.3,284.7h-2v-3.8h-4v3.8h-2v-9.1h2v3.9h4v-3.9h2V284.7z"/>
		<path class="st81" d="M321.4,281c0,1.1-0.4,2-1.1,2.8c-0.8,0.7-1.7,1.1-3,1.1c-1.2,0-2.2-0.4-2.9-1.1s-1.1-1.6-1.1-2.8v-1.6
			c0-1.1,0.4-2,1.1-2.8c0.8-0.7,1.7-1.1,2.9-1.1c1.2,0,2.2,0.4,3,1.1s1.1,1.6,1.1,2.8V281z M319.5,279.3c0-0.7-0.2-1.3-0.6-1.7
			c-0.4-0.5-0.9-0.7-1.6-0.7c-0.7,0-1.2,0.2-1.5,0.7c-0.4,0.5-0.6,1-0.6,1.7v1.6c0,0.7,0.2,1.3,0.6,1.8c0.4,0.5,0.9,0.7,1.6,0.7
			c0.7,0,1.2-0.2,1.6-0.7c0.4-0.5,0.6-1,0.6-1.8V279.3z"/>
		<path class="st81" d="M334.2,275.6v5.9c0,1-0.4,1.8-1.1,2.4s-1.7,0.9-2.8,0.9c-1.2,0-2.1-0.3-2.8-0.9c-0.7-0.6-1.1-1.4-1.1-2.4
			v-5.9h2v5.9c0,0.6,0.2,1.1,0.5,1.4c0.3,0.3,0.8,0.5,1.4,0.5c0.6,0,1.1-0.2,1.4-0.5c0.4-0.3,0.5-0.8,0.5-1.4v-5.9H334.2z"/>
		<path class="st81" d="M344.4,282.3c0-0.3-0.1-0.6-0.4-0.8c-0.3-0.2-0.7-0.4-1.4-0.6c-1.1-0.3-2-0.7-2.6-1.1
			c-0.6-0.4-0.9-1-0.9-1.8c0-0.7,0.3-1.4,1-1.8c0.7-0.5,1.5-0.7,2.5-0.7c1.1,0,2,0.3,2.6,0.8s1,1.2,1,2l0,0h-1.9
			c0-0.5-0.1-0.8-0.4-1c-0.3-0.2-0.7-0.4-1.2-0.4c-0.5,0-0.9,0.1-1.1,0.3c-0.3,0.2-0.4,0.5-0.4,0.8c0,0.3,0.1,0.6,0.4,0.8
			c0.3,0.2,0.8,0.4,1.5,0.6c1.1,0.3,1.9,0.7,2.5,1.1s0.8,1.1,0.8,1.8c0,0.8-0.3,1.4-1,1.8c-0.7,0.4-1.5,0.7-2.6,0.7
			c-1.1,0-2-0.2-2.7-0.7c-0.8-0.5-1.1-1.2-1.1-2.2l0,0h1.9c0,0.5,0.2,0.9,0.5,1.2c0.3,0.3,0.8,0.4,1.4,0.4c0.5,0,0.9-0.1,1.2-0.3
			S344.4,282.7,344.4,282.3z"/>
		<path class="st81" d="M356.9,280.7h-3.6v2.6h4.3v1.4h-6.3v-9.1h6.3v1.4h-4.3v2.3h3.6V280.7z"/>
	</g>
</g>
</svg>
