<svg id="Layer_1" data-name="Layer 1" xmlns="http://www.w3.org/2000/svg" viewBox="0 0 418.57 354.24"><title>Delhi_logo2018_v3b</title><path d="M309.09,289.58v-33.8h27.4a79.13,79.13,0,0,0,0-158.26h-27.4V63.72c-3.87,0-5.45.08-8.22.08-40.87,0-74.61-24.1-89.58-59.65-15,35.55-48.71,59.65-89.58,59.65-2.78,0-4.36-.08-8.23-.08v33.8H86.08a79.13,79.13,0,0,0,0,158.26h27.4v33.8c3.87,0,5.45-.08,8.23-.08,40.87,0,74.6,24.1,89.58,59.65,15-35.55,48.71-59.65,89.58-59.65C303.64,289.5,305.22,289.58,309.09,289.58Z" style="fill:#fff"/><path d="M141,266.76h-3l-.62,1.86h-2l3.14-8.62h1.91l3.12,8.62h-2Zm-2.56-1.35h2.11l-1-3h0Z" style="fill:#070d36"/><path d="M161.4,267.44a3.57,3.57,0,0,1-1.29.92,5.47,5.47,0,0,1-2.23.39,3.93,3.93,0,0,1-2.76-1,3.3,3.3,0,0,1-1.07-2.55v-1.8a3.38,3.38,0,0,1,1-2.55,3.73,3.73,0,0,1,2.68-1,4,4,0,0,1,2.61.75,2.37,2.37,0,0,1,.87,2v0h-1.75a1.37,1.37,0,0,0-.43-1.07,1.8,1.8,0,0,0-1.25-.38,1.72,1.72,0,0,0-1.38.61,2.33,2.33,0,0,0-.52,1.58v1.81a2.32,2.32,0,0,0,.54,1.59,1.79,1.79,0,0,0,1.43.62,3.28,3.28,0,0,0,1.05-.13,1.53,1.53,0,0,0,.6-.31v-1.67h-1.79v-1.2h3.66Z" style="fill:#070d36"/><path d="M168.12,265.17v3.45h-1.86V260h3.22a4,4,0,0,1,2.48.67,2.2,2.2,0,0,1,.9,1.87,1.75,1.75,0,0,1-.38,1.15,2.63,2.63,0,0,1-1.11.78,2,2,0,0,1,1.19.75,2.26,2.26,0,0,1,.36,1.3v.64a2.9,2.9,0,0,0,.11.75,1,1,0,0,0,.36.59v.12h-1.93a.91.91,0,0,1-.33-.63,6.2,6.2,0,0,1-.07-.84v-.61a1.34,1.34,0,0,0-.38-1,1.5,1.5,0,0,0-1.08-.36Zm0-1.33h1.33a1.79,1.79,0,0,0,1.16-.31,1.08,1.08,0,0,0,.39-.91,1.2,1.2,0,0,0-.39-.94,1.64,1.64,0,0,0-1.13-.35h-1.36Z" style="fill:#070d36"/><path d="M183.18,264.83h-3.45v2.46h4.1v1.33h-6V260h6v1.33h-4.09v2.17h3.45Z" style="fill:#070d36"/><path d="M193.26,266.76h-3l-.62,1.86h-2l3.14-8.62h1.91l3.12,8.62h-2Zm-2.56-1.35h2.11l-1-3h0Z" style="fill:#070d36"/><path d="M205.92,261.33h-2.66v7.29H201.4v-7.29h-2.62V260h7.14Z" style="fill:#070d36"/><path d="M216.74,268.62V260h3a4.75,4.75,0,0,1,2.56.59,2,2,0,0,1,.92,1.77,1.78,1.78,0,0,1-.33,1.06,2.05,2.05,0,0,1-1,.71,1.92,1.92,0,0,1,1.75,2,2.19,2.19,0,0,1-.88,1.88,4.28,4.28,0,0,1-2.5.63Zm1.87-5h1.24a2,2,0,0,0,1.15-.28,1,1,0,0,0,.4-.83,1,1,0,0,0-.4-.89,2.1,2.1,0,0,0-1.21-.28h-1.18Zm0,1.2v2.48h1.73a1.83,1.83,0,0,0,1.13-.29,1.06,1.06,0,0,0,.39-.89,1.25,1.25,0,0,0-.38-1,1.76,1.76,0,0,0-1.16-.33Z" style="fill:#070d36"/><path d="M230.21,265.17v3.45h-1.86V260h3.22a4.07,4.07,0,0,1,2.49.67,2.22,2.22,0,0,1,.89,1.87,1.75,1.75,0,0,1-.38,1.15,2.63,2.63,0,0,1-1.11.78,2,2,0,0,1,1.19.75,2.26,2.26,0,0,1,.36,1.3v.64a2.9,2.9,0,0,0,.11.75,1,1,0,0,0,.36.59v.12h-1.93a.91.91,0,0,1-.33-.63,6.2,6.2,0,0,1-.07-.84v-.61a1.34,1.34,0,0,0-.38-1,1.49,1.49,0,0,0-1.07-.36Zm0-1.33h1.33a1.79,1.79,0,0,0,1.16-.31,1.08,1.08,0,0,0,.39-.91,1.2,1.2,0,0,0-.39-.94,1.64,1.64,0,0,0-1.13-.35h-1.36Z" style="fill:#070d36"/><path d="M242,268.62h-1.87V260H242Z" style="fill:#070d36"/><path d="M253.36,261.33h-2.65v7.29h-1.87v-7.29h-2.62V260h7.14Z" style="fill:#070d36"/><path d="M259.65,268.62h-1.87V260h1.87Z" style="fill:#070d36"/><path d="M269.61,266.37a1,1,0,0,0-.37-.8,4,4,0,0,0-1.31-.57,7.67,7.67,0,0,1-2.45-1.06,2,2,0,0,1-.83-1.66,2,2,0,0,1,.94-1.74,4.07,4.07,0,0,1,2.39-.67,3.92,3.92,0,0,1,2.49.73,2.18,2.18,0,0,1,.91,1.89v0h-1.81a1.23,1.23,0,0,0-.42-1,1.8,1.8,0,0,0-1.18-.34,1.63,1.63,0,0,0-1.07.31,1,1,0,0,0-.37.78.82.82,0,0,0,.4.72,5.78,5.78,0,0,0,1.42.6,6.26,6.26,0,0,1,2.33,1,2.08,2.08,0,0,1,.81,1.71,2,2,0,0,1-.93,1.75,4.37,4.37,0,0,1-2.47.64,4.61,4.61,0,0,1-2.58-.7,2.24,2.24,0,0,1-1-2.06v0h1.81a1.32,1.32,0,0,0,.49,1.13,2.14,2.14,0,0,0,1.31.36,1.92,1.92,0,0,0,1.14-.29A.94.94,0,0,0,269.61,266.37Z" style="fill:#070d36"/><path d="M283.64,268.62h-1.86V265H278v3.58h-1.87V260H278v3.71h3.79V260h1.86Z" style="fill:#070d36"/><path d="M157,279v0a2.59,2.59,0,0,1-.91,2.16,3.89,3.89,0,0,1-2.57.78,3.75,3.75,0,0,1-2.71-1,3.47,3.47,0,0,1-1-2.58v-1.72a3.49,3.49,0,0,1,1-2.58,3.54,3.54,0,0,1,2.63-1,4.17,4.17,0,0,1,2.66.77,2.55,2.55,0,0,1,.93,2.17v0h-1.82a1.6,1.6,0,0,0-.43-1.23,1.89,1.89,0,0,0-1.33-.41,1.55,1.55,0,0,0-1.31.63,2.61,2.61,0,0,0-.47,1.61v1.73a2.55,2.55,0,0,0,.5,1.62,1.66,1.66,0,0,0,1.38.63,1.74,1.74,0,0,0,1.25-.41,1.69,1.69,0,0,0,.41-1.25Z" style="fill:#070d36"/><path d="M169,273.27v5.65a2.74,2.74,0,0,1-1.05,2.28,4.2,4.2,0,0,1-2.7.82,4.14,4.14,0,0,1-2.68-.82,2.76,2.76,0,0,1-1-2.28v-5.65h1.88v5.65a1.69,1.69,0,0,0,.49,1.32,2.24,2.24,0,0,0,2.72,0,1.66,1.66,0,0,0,.5-1.32v-5.65Z" style="fill:#070d36"/><path d="M175.74,278.45v3.45h-1.87v-8.63h3.22a4.07,4.07,0,0,1,2.49.68,2.2,2.2,0,0,1,.9,1.87,1.83,1.83,0,0,1-.38,1.15,2.76,2.76,0,0,1-1.11.78,2,2,0,0,1,1.18.75,2.26,2.26,0,0,1,.36,1.3v.64a2.9,2.9,0,0,0,.11.75,1.06,1.06,0,0,0,.36.59v.12h-1.92a1,1,0,0,1-.33-.63,5,5,0,0,1-.07-.85v-.61a1.32,1.32,0,0,0-.38-1,1.53,1.53,0,0,0-1.08-.36Zm0-1.33h1.32a1.84,1.84,0,0,0,1.17-.31,1.11,1.11,0,0,0,.38-.91,1.21,1.21,0,0,0-.38-.94,1.62,1.62,0,0,0-1.14-.35h-1.35Z" style="fill:#070d36"/><path d="M187.34,278.45v3.45h-1.86v-8.63h3.22a4.07,4.07,0,0,1,2.49.68,2.19,2.19,0,0,1,.89,1.87,1.77,1.77,0,0,1-.38,1.15,2.66,2.66,0,0,1-1.1.78,2,2,0,0,1,1.18.75,2.26,2.26,0,0,1,.36,1.3v.64a2.9,2.9,0,0,0,.11.75,1.06,1.06,0,0,0,.36.59v.12h-1.92a.92.92,0,0,1-.33-.63,5,5,0,0,1-.08-.85v-.61a1.28,1.28,0,0,0-.38-1,1.49,1.49,0,0,0-1.07-.36Zm0-1.33h1.33a1.84,1.84,0,0,0,1.17-.31,1.11,1.11,0,0,0,.38-.91,1.19,1.19,0,0,0-.39-.94,1.6,1.6,0,0,0-1.13-.35h-1.36Z" style="fill:#070d36"/><path d="M200.06,277.25h0l2-4h2.05l-3.19,5.6v3h-1.87v-3.12L196,273.27h2Z" style="fill:#070d36"/><path d="M222.42,281.9h-1.86v-3.58h-3.79v3.58H214.9v-8.63h1.87V277h3.79v-3.71h1.86Z" style="fill:#070d36"/><path d="M234.93,278.36a3.48,3.48,0,0,1-1.08,2.63,4.33,4.33,0,0,1-5.61,0,3.48,3.48,0,0,1-1.07-2.63v-1.55a3.48,3.48,0,0,1,1.07-2.62,3.84,3.84,0,0,1,2.79-1,3.9,3.9,0,0,1,2.81,1,3.46,3.46,0,0,1,1.09,2.62Zm-1.86-1.56a2.48,2.48,0,0,0-.54-1.65,1.88,1.88,0,0,0-1.5-.65,1.81,1.81,0,0,0-1.48.65,2.53,2.53,0,0,0-.52,1.65v1.56a2.5,2.5,0,0,0,.53,1.67,1.8,1.8,0,0,0,1.48.65,1.82,1.82,0,0,0,1.49-.65,2.5,2.5,0,0,0,.54-1.67Z" style="fill:#070d36"/><path d="M247.05,273.27v5.65A2.74,2.74,0,0,1,246,281.2a4.2,4.2,0,0,1-2.7.82,4.14,4.14,0,0,1-2.68-.82,2.75,2.75,0,0,1-1-2.28v-5.65h1.87v5.65a1.66,1.66,0,0,0,.5,1.32,1.88,1.88,0,0,0,1.34.46,1.94,1.94,0,0,0,1.37-.46,1.66,1.66,0,0,0,.5-1.32v-5.65Z" style="fill:#070d36"/><path d="M256.78,279.65a1,1,0,0,0-.37-.8,4,4,0,0,0-1.32-.57,7.71,7.71,0,0,1-2.44-1.06,2,2,0,0,1-.83-1.66,2,2,0,0,1,.94-1.74,4.63,4.63,0,0,1,4.88.05,2.2,2.2,0,0,1,.91,1.9v0h-1.81a1.21,1.21,0,0,0-.42-1,1.82,1.82,0,0,0-1.18-.34,1.68,1.68,0,0,0-1.07.3,1,1,0,0,0-.38.79.86.86,0,0,0,.41.72,5.5,5.5,0,0,0,1.41.6,6.16,6.16,0,0,1,2.34,1.05,2.08,2.08,0,0,1,.81,1.71,2,2,0,0,1-.94,1.74,4.24,4.24,0,0,1-2.46.64,4.69,4.69,0,0,1-2.58-.69,2.2,2.2,0,0,1-1-2.07v0h1.81a1.3,1.3,0,0,0,.48,1.12,2.18,2.18,0,0,0,1.32.36,1.85,1.85,0,0,0,1.14-.29A.91.91,0,0,0,256.78,279.65Z" style="fill:#070d36"/><path d="M268.61,278.11h-3.45v2.46h4.1v1.33h-6v-8.63h5.95v1.34h-4.08v2.17h3.45Z" style="fill:#070d36"/><path d="M295.36,81.76l-2.14-4.13a1,1,0,0,0-.86-.53h-2a.74.74,0,0,1-.52-.22.79.79,0,0,1-.22-.52V64.7a1,1,0,0,0-1-1l-10.84,0a.75.75,0,0,1-.53-.22A.74.74,0,0,1,277,63l0-8.17a1,1,0,0,0-1-1h-6.57a.74.74,0,0,1-.74-.74l0-11.24a.74.74,0,0,1,.74-.74h.9A1,1,0,0,0,271.3,40c-.44-2.17-3-4.51-6.26-4.51h-3.73a.74.74,0,0,1-.25-.05c-5.92-2.15-38.82-10-43-10.79l-.12,0h-.26l-.12,0c-4.2.77-37.05,8.75-43,10.94a.75.75,0,0,1-.26,0h-3.72c-3.3,0-5.82,2.35-6.25,4.53a1,1,0,0,0,.21.8,1,1,0,0,0,.75.36h.9a.72.72,0,0,1,.52.21.74.74,0,0,1,.22.52l0,11.25a.74.74,0,0,1-.22.52.73.73,0,0,1-.52.22h-6.57a1,1,0,0,0-1,1v8.18a.78.78,0,0,1-.21.52.75.75,0,0,1-.53.22H147.07a1,1,0,0,0-1,1l0,11.66a.75.75,0,0,1-.22.53.72.72,0,0,1-.52.21h-2a1,1,0,0,0-.86.52L140.37,82a1,1,0,0,0,.87,1.42h.45a.74.74,0,0,1,.68.43.76.76,0,0,1-.11.79,4.11,4.11,0,0,0-.95,2.1,1,1,0,0,0,.77,1.07.74.74,0,0,1,.58.73l.06,31.54.34-.12.57-.17a2.34,2.34,0,0,1,.38-.09c.2,0,.4-.08.6-.11l.32,0a7.57,7.57,0,0,1,.95-.06h0a8.63,8.63,0,0,1,1,.06c.23,0,.48.08.74.14a6.76,6.76,0,0,1,1.2.4,6.15,6.15,0,0,1,2.35,1.85,6.4,6.4,0,0,1,.66,1l.91-1.14.15-.18c.16-.19.34-.39.58-.65a8.83,8.83,0,0,1,2.17-1.56l.27-.15a8.63,8.63,0,0,1,4.13-1.06h0a7.65,7.65,0,0,1,1.52.17,6.5,6.5,0,0,1,3.16,1.65,7.25,7.25,0,0,1,1.5,2.14,12.34,12.34,0,0,1,1,4.79,13.41,13.41,0,0,1,1.6-.22c.37,0,.75,0,1.14,0h0a8.88,8.88,0,0,1,6.7,3,8.76,8.76,0,0,1,.66.82c.2.28.39.58.57.88a10.91,10.91,0,0,1,.84,2c.21-.29.42-.57.63-.83a10.11,10.11,0,0,1,4.8-3.39,3.24,3.24,0,0,1,.41-.13,9.37,9.37,0,0,1,2.16-1.42,7.67,7.67,0,0,1,.78-.34,10.17,10.17,0,0,1,1.64-.44c.28,0,.57-.09.86-.12s.58,0,.88,0h0a9,9,0,0,1,1.17.07l.33,0q.41.06.81.15l.34.09c.27.08.53.17.79.27l.26.1a7.59,7.59,0,0,1,1,.49h0v-5.27c0-.89.31-21.93,21.74-22.79l.15,0,.14,0h.68l.15,0h.14c21.45.79,21.81,21.84,21.81,22.74l0,13.12.2-.21a25.76,25.76,0,0,1,6.25-4.24A21.36,21.36,0,0,1,257,128.62c7.56,0,16.57,4.18,16.57,24.08v9c.42-.32.86-.63,1.31-.93,3.87-2.57,9-3.88,15.18-3.88a24.49,24.49,0,0,1,3.11.21L293.1,88.3a.75.75,0,0,1,.58-.73.9.9,0,0,0,.53-.31.93.93,0,0,0,.23-.76,4.11,4.11,0,0,0-.95-2.1.74.74,0,0,1,.56-1.22h.46a1,1,0,0,0,.82-.47A1,1,0,0,0,295.36,81.76Z" style="fill:#fec621"/><path d="M293.31,86l0,0h0a3.23,3.23,0,0,0-.41-.75,2.09,2.09,0,0,0-.24-.28l0,0a2.8,2.8,0,0,0-.48-.37h0a1.7,1.7,0,0,0-.88-.25l-28.45,0H251.37a1.92,1.92,0,0,0-1.31.59,3.1,3.1,0,0,0-.62.85,3.17,3.17,0,0,0-.31,1h1.36l8.77,0h3.53l29.33-.05h1.36a2.78,2.78,0,0,0-.14-.55Z" style="fill:none"/><path d="M251.37,83.45l7.89,0h3.52l28.46-.05a2.38,2.38,0,0,1,.88.18v-.5l-29.34,0h-3.52l-82.77.13H173l-29.33,0v.49a2.56,2.56,0,0,1,.88-.18L173,83.57h11.42A3,3,0,0,1,186.8,85l62.15-.1A3,3,0,0,1,251.37,83.45Z" style="fill:none"/><path d="M275.16,102.85a4.11,4.11,0,0,0-8.19.72,4.24,4.24,0,0,0,.68,2.28,4.34,4.34,0,0,0,7.51-3Z" style="fill:none"/><path d="M274.52,100.6a4.41,4.41,0,0,1,.86,1.33A4.41,4.41,0,0,0,274.52,100.6Z" style="fill:none"/><polygon points="281.9 122.11 281.05 122.11 278.98 122.12 278.12 122.12 277.64 122.12 277.64 122.91 278.13 122.91 278.98 122.91 281.05 122.91 281.91 122.91 282.05 122.91 282.91 122.9 283.39 122.9 283.39 122.11 282.91 122.11 282.05 122.11 281.9 122.11" style="fill:none"/><path d="M273.59,151.24c0,.48,0,1,0,1.46v9c.42-.32.86-.63,1.31-.93A21.64,21.64,0,0,1,281.2,158v-6.73Z" style="fill:none"/><path d="M277.63,116.43a.78.78,0,0,1-.4-.12v5.07a.77.77,0,0,1,.4-.11h.48v-4.83Z" style="fill:none"/><polygon points="281.9 121.26 282.05 121.26 282.04 116.42 281.9 116.42 281.04 116.42 278.97 116.43 278.98 121.26 281.05 121.26 281.9 121.26" style="fill:none"/><path d="M263.7,129.37l15.36,0a.86.86,0,0,1,.85.86v.68h.61a.86.86,0,0,1,.86.85l0,15.63h.76V147a.86.86,0,0,1,.86-.86h.48l0-14.44H283a.85.85,0,0,1-.85-.85V128.4l-19.28,0h-2.25V129a15.56,15.56,0,0,1,2.45.72A.86.86,0,0,1,263.7,129.37Z" style="fill:none"/><path d="M259.33,128.44H254v.4a20.4,20.4,0,0,1,3-.23,19.2,19.2,0,0,1,2.71.19v-.37Z" style="fill:none"/><polygon points="282.89 115.04 282.04 115.04 281.89 115.04 281.04 115.05 278.97 115.05 278.11 115.05 277.63 115.05 277.63 115.58 278.11 115.57 278.97 115.57 281.04 115.57 281.89 115.57 282.04 115.57 282.89 115.57 283.38 115.57 283.38 115.04 282.89 115.04" style="fill:none"/><path d="M280.53,131.73h-1.47l-12.42,0c3.31,2.69,5.94,7.47,6.73,15.62h7.19Z" style="fill:none"/><path d="M282,150.37h9.33a2.88,2.88,0,0,0-.42-1.13,3,3,0,0,0-.27-.35,2,2,0,0,0-1.05-.64,2.4,2.4,0,0,0-.28,0H273.44c.06.7.1,1.41.13,2.16H282Z" style="fill:none"/><path d="M279.06,130.2l-14.77,0c.4.21.79.43,1.18.68l13.59,0Z" style="fill:none"/><path d="M282,151.23v6.51a33.56,33.56,0,0,1,6.45-.84v-5.68Z" style="fill:none"/><path d="M283.48,127.54h5.63a2.59,2.59,0,0,0-.37-1l0,0a2.69,2.69,0,0,0-.2-.27,1.71,1.71,0,0,0-.94-.58,1.09,1.09,0,0,0-.26,0H285l-22.19,0h-7.43a1.17,1.17,0,0,0-.26,0,1.76,1.76,0,0,0-.94.59,3.16,3.16,0,0,0-.2.27v0a2.47,2.47,0,0,0-.24.49,1.91,1.91,0,0,0-.13.51h9.22l19.28,0h1.34Z" style="fill:none"/><polygon points="286.14 130.88 287 130.88 287.41 130.88 288.26 130.88 288.74 130.88 288.74 128.39 288.26 128.39 287.4 128.39 286.99 128.39 286.14 128.39 284.33 128.4 283.48 128.4 283 128.4 283 130.89 283.48 130.89 284.34 130.89 286.14 130.88" style="fill:none"/><path d="M259.33,124.81h6.29l11.5,0h7.61a2.92,2.92,0,0,0-.48-.76.77.77,0,0,0-.5-.25h-7l-10.85,0H259a.73.73,0,0,0-.5.26,2.54,2.54,0,0,0-.48.76h1.32Z" style="fill:none"/><polygon points="288.29 147.03 287.43 147.03 287.02 147.03 286.17 147.03 284.36 147.04 283.51 147.04 283.03 147.04 283.03 147.36 283.51 147.36 284.36 147.36 286.17 147.36 287.02 147.35 287.44 147.35 288.29 147.35 288.77 147.35 288.77 147.03 288.29 147.03" style="fill:none"/><polygon points="286.14 131.74 284.34 131.74 284.36 146.18 286.17 146.18 287.02 146.18 287.43 146.18 287.41 131.74 287 131.74 286.14 131.74" style="fill:none"/><polygon points="259.83 122.94 260.18 122.94 260.68 122.94 260.83 122.94 261.68 122.94 261.99 122.94 262.85 122.94 263.75 122.94 264.61 122.93 265.09 122.93 265.09 122.14 264.61 122.14 263.75 122.14 262.85 122.14 261.99 122.15 261.68 122.15 260.83 122.15 260.68 122.15 260.18 122.15 259.82 122.15 259.34 122.15 259.34 122.94 259.83 122.94" style="fill:none"/><polygon points="261.98 116.46 261.67 116.46 260.82 116.46 260.67 116.46 260.68 121.29 260.82 121.29 261.68 121.29 261.99 121.29 262.85 121.29 263.75 121.29 263.74 116.45 262.84 116.45 261.98 116.46" style="fill:none"/><path d="M259.81,114.22h25.31c0-.1,0-.23-.08-.37a5.11,5.11,0,0,0-.21-.67l-.17-.38c-.25-.49-.57-.89-.93-.89l-20.9,0H259c-.36,0-.68.41-.93.9-.06.12-.12.25-.17.38a5.5,5.5,0,0,0-.21.66,3.48,3.48,0,0,0-.07.38h2.22Z" style="fill:none"/><path d="M265.94,122.93l10.85,0v-.72a.82.82,0,0,1-.41.12l-10,0a.82.82,0,0,1-.41-.12Z" style="fill:none"/><rect x="266.34" y="115.72" width="10.03" height="5.74" transform="translate(-0.2 0.45) rotate(-0.09)" style="fill:none"/><polygon points="260.67 115.6 260.81 115.6 261.67 115.6 261.98 115.6 262.84 115.6 263.74 115.6 264.6 115.6 265.08 115.6 265.07 115.07 264.6 115.07 263.74 115.07 262.83 115.08 261.98 115.08 261.67 115.08 260.81 115.08 260.67 115.08 260.17 115.08 259.81 115.08 259.33 115.08 259.33 115.61 259.81 115.6 260.17 115.6 260.67 115.6" style="fill:none"/><path d="M264.6,116.45v4.84h.48a.77.77,0,0,1,.4.11v-5.07a.78.78,0,0,1-.4.12Z" style="fill:none"/><path d="M192.84,52.4l50-.08a4,4,0,0,0,2.83-1.18,4,4,0,0,0,1.17-2.84h0a4,4,0,0,0-4-4l-50,.08a4,4,0,0,0-4,4,3.89,3.89,0,0,0,.32,1.56,3.81,3.81,0,0,0,.86,1.27A4,4,0,0,0,192.84,52.4Z" style="fill:none"/><path d="M260.44,46.58a6.14,6.14,0,0,0-.34-.62,4.52,4.52,0,0,1,.36.69S260.45,46.6,260.44,46.58Z" style="fill:none"/><path d="M177.18,35.74l81.23-.13h0l-.14,0-.26-.08-.34-.1-.11,0h-.07l-.45-.13-.08,0-.58-.17h-.12l-.22-.06-.36-.1-.35-.1-.39-.1-.36-.1-.39-.11-.37-.1-.21,0-.05,0h-.18l-.23-.06-.59-.16-.23-.06-.23-.06H252l-.14,0h-.06l-.1,0-.36-.09-.48-.13-.36-.09-.09,0-.18,0-.1,0h0l-.15,0-.55-.14-.38-.1L248.8,33h-.09l-.3-.08h0l-.06,0-.21-.05-.15,0-.79-.2-.14,0H247l-.26-.07-.17,0h0l-.06,0-.22,0-.81-.21-.16,0h0l-.07,0-.38-.09-.15,0h-.09l-.32-.08h0l-.63-.16-.17-.05-.13,0h0l-.08,0-.42-.1-.09,0-.09,0-.85-.21h0l-.09,0-.27-.06-.59-.15h-.11l-.25-.07h0l-.43-.1-.08,0-.19-.05-.35-.09-.47-.11h0l-.12,0-.42-.1-.25-.07h0l-.07,0-.08,0-.56-.14-.43-.1h0l-.12,0-.44-.1-.1,0-.09,0-.19-.05-.58-.14-.31-.07-.19,0-.21-.05-.24-.06-.1,0h0l-.51-.12-.29-.07-.09,0-.31-.07-.22-.06-.43-.1h-.06l-.59-.15-.11,0h0l-.12,0-.34-.08-.15,0h0l-.26-.06-.16,0-.06,0-.3-.07-.39-.09h-.05l-.12,0-.24-.06-.26-.06-.08,0-.1,0-.19-.05h0l-.58-.14-.07,0h0l-.11,0-.09,0-.33-.08h-.05l-.08,0h0l-.38-.09-.62-.15h0l-.09,0,0,0-.14,0-.1,0-.26-.06-.35-.08-.4-.1-.13,0-.08,0-.11,0-.16,0-.15,0-.09,0-.78-.18-.49-.11h0l-.41-.09-.36-.09-.47-.1-.3-.07h0l-.08,0h0l-.19,0-.5-.12-.22-.05h0l-.1,0h-.05l-.27-.06-.18,0-.11,0h0l-.14,0-.06,0h-.11l-.25-.06-.14,0h-.15l-.07,0h0l-.07,0-.2,0-.09,0h-.07l-.06,0h0l-.07,0-.11,0h-.47l-.1,0h-.22l-.1,0-.18,0-.1,0h-.07l-.09,0h-.07l-.13,0-.24.06h-.07l-.06,0h0l-.19,0h0l-.07,0-.07,0-.37.08h0l-.11,0h-.06l-.16,0h0l-.14,0-.19.05-.32.07h0l-.09,0h0l-.11,0-.11,0,0,0h-.05l-.19,0-.12,0-.34.08-.13,0H213l-.09,0-.22.06h-.07l-.25.06-.1,0-.16,0-.26.06-.13,0-.33.08-.07,0h0l-.28.06-.33.08-.13,0h0l-.31.07-.34.09h0l-.07,0-.33.08-.23.05-.11,0-.08,0-.36.08h0l-.08,0-.2.05-.14,0-.21,0-.28.07-.21.05h-.05l-.08,0-.56.13-.09,0-.76.18-.11,0-.1,0-.07,0-.46.11-.07,0h-.09l-.1,0-.46.11-.4.1-.15,0h-.07l-.23.06-.24.06h0l-.09,0-.11,0-.39.09-.51.12-.17.05h-.05l-.12,0-.48.11h0l-.56.14-.62.15h0l-.06,0h0l-.19.05-.23.06-.08,0-.36.08-.49.12-.37.1-.11,0h0l-.31.08h-.06l-.16,0h0l-.11,0-.34.09-.45.11-.24.06-.16,0-.23.06h0l-.17,0-.1,0-.67.17L195,31l-.28.07-.2.05-.23.06h0l-1,.25-.42.1-.08,0-.1,0h0l-.26.07h-.1l-.49.12-.47.12-.42.11-.07,0h0l-.07,0-.2,0h0l-.2.06-.09,0-.87.22-.19,0-.17,0-.07,0-.19,0h-.06l-.27.07-.37.1-.55.14-.3.08-.06,0h0l-.1,0h0l-.06,0-.37.1-.24.06-.9.23-.05,0-.07,0h-.05l-.5.13-.28.08-.56.14-.17.05h-.05l-.07,0-.11,0-.47.13-.23.06-.58.15-.11,0h0l-.2.06-.49.13-.3.09-.45.12-.47.13-.26.07-.36.1-.35.1-.23.07-.44.12-.27.08-.35.1-.25.08-.35.1-.13,0h0Z" style="fill:none"/><path d="M260.25,47.57a4.5,4.5,0,0,0-.64-2.24l-.05,0a4.35,4.35,0,0,0-1.33-1l-.08,0a4,4,0,0,0-.76-.25l-.14,0a4.6,4.6,0,0,0-.84-.09,4.39,4.39,0,0,0-3.36,1.6,3.93,3.93,0,0,0-.65,1.08,4.17,4.17,0,0,0,.34,4,4.3,4.3,0,0,0,3.15,1.37A4.37,4.37,0,0,0,260.25,47.57Z" style="fill:none"/><path d="M183.23,46.71a3.74,3.74,0,0,0-.34-.62,4.52,4.52,0,0,1,.36.69S183.24,46.73,183.23,46.71Z" style="fill:none"/><path d="M167.87,40.35h0l99.87-.16h2.61a3.41,3.41,0,0,0-.22-.66A5.69,5.69,0,0,0,265,36.45h-4l-86.41.14h-4a5.66,5.66,0,0,0-5.08,3.08,2.88,2.88,0,0,0-.21.67h2.61Z" style="fill:none"/><polygon points="143.63 82.45 172.96 82.41 173.82 82.4 175.63 82.4 176.49 82.4 259.26 82.26 260.11 82.26 261.93 82.26 262.78 82.26 292.12 82.21 292.97 82.21 294.5 82.2 292.36 78.07 289.49 78.08 288.64 78.08 262.77 78.12 261.92 78.12 260.11 78.13 259.25 78.13 176.48 78.26 175.62 78.26 173.81 78.27 172.95 78.27 147.09 78.31 146.24 78.31 143.37 78.32 141.24 82.46 142.77 82.45 143.63 82.45" style="fill:none"/><polygon points="172.95 77.41 173.81 77.41 175.84 77.41 259.89 77.27 261.92 77.27 262.77 77.27 288.64 77.22 288.62 64.7 276.91 64.72 276.06 64.72 268.63 64.73 267.78 64.74 167.91 64.9 167.05 64.9 159.63 64.91 158.77 64.92 147.07 64.94 147.09 77.46 172.95 77.41" style="fill:none"/><path d="M183,47.7a4.31,4.31,0,0,0-.64-2.25,4.35,4.35,0,0,0-6.56.19,4.25,4.25,0,0,0-.65,1.08,4.37,4.37,0,0,0-.34,1.7,4.32,4.32,0,0,0,.65,2.25,4.32,4.32,0,0,0,3.18,1.4A4.37,4.37,0,0,0,183,47.7Z" style="fill:none"/><path d="M167.89,54.16,267.76,54l0-13-99.87.17Zm88.52-11.09a5.22,5.22,0,1,1-5.21,5.23A5.22,5.22,0,0,1,256.41,43.07Zm-63.58.46,50-.08a4.86,4.86,0,1,1,0,9.72l-50,.08a4.86,4.86,0,0,1,0-9.72ZM179.2,43.2A5.22,5.22,0,1,1,174,48.42,5.22,5.22,0,0,1,179.2,43.2Z" style="fill:none"/><polygon points="167.05 64.05 167.91 64.05 267.77 63.88 268.63 63.88 276.06 63.87 276.04 54.84 268.62 54.85 267.76 54.85 167.89 55.02 167.04 55.02 159.61 55.03 159.62 64.06 167.05 64.05" style="fill:none"/><path d="M243.37,31.63l-.08,0,.13,0Z" style="fill:#ca57a2"/><path d="M197.9,30.29l-.14,0h0Z" style="fill:#ca57a2"/><path d="M253.62,34.27h0l-.07,0h0Z" style="fill:#ca57a2"/><path d="M252.11,33.86h0l-.07,0h.09Z" style="fill:#ca57a2"/><path d="M183.66,33.93h0l-.07,0h0l.07,0Z" style="fill:#ca57a2"/><polygon points="268.59 40.19 270.35 40.18 270.35 40.18 268.59 40.19 268.59 40.19" style="fill:#ca57a2"/><path d="M208.56,27.7l-.16,0-.18,0,.14,0Z" style="fill:#ca57a2"/><polygon points="217.78 25.57 217.78 25.57 217.79 25.58 217.78 25.57" style="fill:#ca57a2"/><polygon points="217.61 25.6 217.6 25.6 217.61 25.6 217.61 25.6" style="fill:#ca57a2"/><polygon points="217.95 25.6 217.95 25.6 217.95 25.6 217.95 25.6" style="fill:#ca57a2"/><polygon points="217.77 25.57 217.76 25.58 217.78 25.57 217.77 25.57" style="fill:#ca57a2"/><polygon points="167.01 40.35 165.26 40.36 165.26 40.36 167.01 40.35 167.01 40.35" style="fill:#ca57a2"/><path d="M296,81.42l-2.14-4.14a1.73,1.73,0,0,0-1.52-.92h-2V64.7A1.72,1.72,0,0,0,288.61,63l-10.84,0,0-8.17A1.71,1.71,0,0,0,276,53.13h-6.57l0-11.24h.9a1.72,1.72,0,0,0,1.32-.62,1.7,1.7,0,0,0,.35-1.42c-.49-2.46-3.31-5.11-7-5.11h-3.73c-6.17-2.25-39.09-10.09-43.14-10.83h0a1.58,1.58,0,0,0-.38-.05h0a2.35,2.35,0,0,0-.37.05h0c-4,.75-36.94,8.7-43.12,11h-3.72c-3.68,0-6.48,2.66-7,5.12a1.71,1.71,0,0,0,1.68,2h.9l0,11.24h-6.57A1.71,1.71,0,0,0,157.9,55v8.18H147.07a1.72,1.72,0,0,0-1.71,1.72l0,11.66h-2a1.72,1.72,0,0,0-1.52.92l-2.13,4.14a1.71,1.71,0,0,0,1.52,2.5h.45a4.84,4.84,0,0,0-1.11,2.48A1.67,1.67,0,0,0,141,88a1.71,1.71,0,0,0,.93.55l.06,31.87a8.81,8.81,0,0,1,1.71-.64l-.06-32,29.34,0h12.3l.06,40.77a7.64,7.64,0,0,1,.86-.53l-.07-40.24h.5a.9.9,0,0,0,.65-.3.86.86,0,0,0,.2-.67,3.84,3.84,0,0,0-.23-.85l61.27-.1a3.67,3.67,0,0,0-.22.85.82.82,0,0,0,.2.67.84.84,0,0,0,.64.29h.51l.07,42.41c.28-.11.57-.22.85-.31l-.07-42.1h12.3l29.33,0,.12,69.48c.58,0,1.15.12,1.71.22l-.11-68.88a1.79,1.79,0,0,0,.93-.55,1.74,1.74,0,0,0,.41-1.35,4.87,4.87,0,0,0-1.13-2.48h.46a1.75,1.75,0,0,0,1.46-.83A1.69,1.69,0,0,0,296,81.42ZM177.3,35.7l.35-.1.25-.08.35-.1.27-.08.44-.12.23-.07.35-.1.36-.1.26-.07.47-.13.45-.12.3-.09.49-.13.2-.06h0l.11,0,.58-.15.23-.06.47-.13.11,0h0l.07,0h0l.17-.05.56-.14.28-.08.5-.13h.05l.07,0,.05,0,.9-.23.24-.06.37-.1.06,0h0l.1,0h0l.06,0,.3-.08.55-.14.37-.1.27-.07h.06l.18,0,.08,0,.17,0,.19,0,.87-.22.09,0,.2-.06h0l.2,0,.07,0h0l.07,0,.42-.11.47-.12.49-.12h.1l.26-.07h0l.1,0,.08,0,.42-.1,1-.25h0l.23-.06.2-.05L195,31l.3-.07.67-.17.1,0,.17,0h0l.23-.06.16,0,.24-.06.45-.11.34-.09.11,0,.14,0H198l.31-.08h0l.11,0,.37-.1.49-.12.36-.08.08,0,.23-.06.19-.05h0l.06,0h0l.62-.15.55-.14h0l.48-.11.12,0h.05l.18-.05.5-.12.39-.09.11,0,.09,0h0l.24-.06.23-.06H204l.15,0,.4-.1.46-.11.13,0h.06l.07,0,.46-.11.07,0,.1,0,.11,0,.76-.18.09,0,.56-.13.08,0h.05l.21-.05.28-.07.21,0,.18,0,.16,0,.08,0h0l.36-.08.08,0,.11,0,.23-.05.33-.08.07,0h0l.34-.09.31-.07h0l.13,0,.33-.08.28-.06h0l.07,0,.33-.08.13,0,.26-.06.16,0,.1,0,.25-.06h.07l.22-.06.09,0h.09l.13,0,.34-.08.12,0,.19,0h.05l0,0,.11,0,.11,0h0l.09,0h0l.32-.07.19-.05.14,0h0l.16,0h.06l.11,0h0l.37-.08.07,0,.07,0h0l.19,0h0l.06,0h.07l.24-.06.13,0h.07l.09,0h.07l.1,0,.18,0,.1,0h.22l.1,0H218l.11,0,.07,0h0l.06,0h.07l.09,0,.2,0,.07,0h0l.07,0h.15l.14,0,.25.06h.11l.06,0,.14,0h0l.11,0,.18,0,.27.06h.05l.11,0h0l.22.05.5.12.19,0h0l.08,0h0l.3.07.47.1.36.09.41.09h0l.49.11.78.18.1,0,.14,0,.16,0,.11,0,.08,0,.13,0,.4.1.35.08.26.06.1,0,.14,0,0,0,.09,0h0l.62.15.38.09h0l.08,0h.05l.33.08.09,0,.11,0h0l.07,0,.58.14h0l.25.06h0l.08,0,.26.06.24.06.12,0h.05l.39.09.3.07.06,0,.16,0,.26.06h0l.15,0,.34.08.12,0h0l.11,0,.59.15h.06l.43.1.22.06.31.07.09,0,.29.07.51.12h0l.1,0,.24.06.21.05.19,0,.31.07.58.14.19.05.09,0,.1,0,.44.1.12,0h0l.43.1.56.14.08,0,.07,0h0l.25.07.42.1.12,0h0l.47.11.35.09.19.05.08,0,.43.1h0l.25.07h.11l.59.15.27.06h0l.09,0,.85.21.09,0,.09,0,.42.1.08,0h0l.08,0h0l.17.05.63.16h0l.32.08h.09l.15,0,.38.09.07,0h0l.16,0,.81.21.22,0,.06,0h0l.17,0,.26.07H247l.14,0,.79.2.15,0,.21.05.06,0h0l.3.08h.09l.26.07.38.1.55.14.15,0h0l.1,0,.18,0,.09,0,.36.09.48.13.36.09.1,0h.06l.14,0,.07,0h0l.23.06.23.06.59.16.23.06h.14l.07,0h0l.21,0,.37.1.39.11.36.1.39.1.35.1.36.1.22.06h.12l.58.17.08,0,.45.13h.07l.12,0,.33.1.26.08.14,0h0l-81.24.13h0Zm-12,4.66h0a2.88,2.88,0,0,1,.21-.67,5.66,5.66,0,0,1,5.08-3.08h4L261,36.46h4a5.69,5.69,0,0,1,5.09,3.07,3.41,3.41,0,0,1,.22.66h-2.61l-99.87.16h-2.61ZM267.76,54l-99.87.16,0-12.95L267.74,41ZM167,55h.85l99.87-.17H276l0,9h-8.28l-99.87.17h-8.29V55Zm-8.27,9.9h9.14l99.87-.16h.85l7.43,0h.85l11.71,0,0,12.52-25.87,0h-2.88l-84,.14H173l-25.86,0,0-12.53ZM186.12,86.8h-.86l-8.77,0H173l-29.34.05h-1.36a3.7,3.7,0,0,1,.14-.55h0l.05-.14h0a3.54,3.54,0,0,1,.25-.52h0l.15-.21a3.22,3.22,0,0,1,.24-.28h0l0,0,0,0a2.12,2.12,0,0,1,.47-.38h0a1.8,1.8,0,0,1,.88-.25l28.45,0h11.42a1.92,1.92,0,0,1,1.31.58,3,3,0,0,1,.62.86,2.79,2.79,0,0,1,.31,1ZM186.8,85a3,3,0,0,0-2.42-1.43H173l-28.45.05a2.56,2.56,0,0,0-.88.18v-.49l29.33,0h3.53l82.77-.13h3.52l29.34,0v.5a2.38,2.38,0,0,0-.88-.18l-28.46.05h-3.52l-7.89,0A3,3,0,0,0,249,84.89ZM293,86.63h-.86l-29.33.05h-3.53l-8.77,0h-1.36a3.17,3.17,0,0,1,.31-1,3.1,3.1,0,0,1,.62-.85,1.92,1.92,0,0,1,1.31-.59h11.42l28.45,0a1.7,1.7,0,0,1,.88.25h0a2.8,2.8,0,0,1,.48.37l0,0a2.09,2.09,0,0,1,.24.28,3.23,3.23,0,0,1,.41.75h0s0,0,0,0l0,.08a2.78,2.78,0,0,1,.14.55Zm0-4.42h-.85l-29.34.05h-3.52l-82.78.14H173l-29.33,0h-2.39l2.13-4.14h3.72l25.86,0h3.53l82.77-.13h3.53l25.86,0h3.72l2.14,4.14Z" style="fill:#ca57a2"/><path d="M242.81,114.91s-.06-24.33-24.22-25.22v0l-.71,0-.71,0v0C193,90.66,193,115,193,115l0,12a7.57,7.57,0,0,1,.85.23l0-12.19c0-1,.28-23.52,23.32-24.45a.57.57,0,0,0,.22,0h.92a.52.52,0,0,0,.21,0C241.63,91.39,242,114,242,114.91l0,19.34c.27-.2.55-.41.86-.62Z" style="fill:#ca57a2"/><path d="M241.31,122.58s-.05-22.86-22.74-23.7v0l-.67,0-.67,0v0c-22.69.91-22.67,23.77-22.67,23.77v4.78a8.23,8.23,0,0,1,1.71,1v-5.75c0-.86.29-21.22,21-22.06a1.09,1.09,0,0,0,.26,0h.69a1.07,1.07,0,0,0,.25,0c20.75.77,21.1,21.13,21.1,22l0,13.93c.28-.31.58-.65.93-1a9,9,0,0,1,.77-.72Z" style="fill:#ca57a2"/><path d="M180.14,131.06h-2.53a9,9,0,0,1,.48.86h1.82a11.73,11.73,0,0,1,.89-.85h-.66Z" style="fill:#ca57a2"/><path d="M150.73,115.26h.89v.52a.86.86,0,0,0,.85.86H153v4.84h-.48a.86.86,0,0,0-.85.86v.37l.15.26.91-1.14c.17-.21.41-.49.73-.83a4.91,4.91,0,0,1,.4-.38v-4h3.07v2.18a8.45,8.45,0,0,1,.85-.28v-1.9h.48a.78.78,0,0,0,.4-.12v1.83c.28,0,.56-.07.85-.09V115.9h10v5.74h-3.65a7.48,7.48,0,0,1,.42.85h3.23a.93.93,0,0,0,.41-.12v.72h-3.4a8.63,8.63,0,0,1,.24.85h10.12a.74.74,0,0,1,.5.26,2.92,2.92,0,0,1,.48.76H167c.05.28.09.56.12.86h13.37a1.09,1.09,0,0,1,.26,0,1.72,1.72,0,0,1,.94.59,1.89,1.89,0,0,1,.2.27l0,0a2.39,2.39,0,0,1,.37,1h-8.2a9.22,9.22,0,0,1,2.09,1.52v-.67h5.74v1.67c.28-.18.57-.35.86-.5v-1.35a1,1,0,0,0,.17-.12.87.87,0,0,0,.2-.68,3.28,3.28,0,0,0-.43-1.2l-.09-.16a.18.18,0,0,0-.05-.07l-.07-.09a2.51,2.51,0,0,0-2-1.13H178.8a2.9,2.9,0,0,0-1.42-1.77v-.89a.85.85,0,0,0-.83-.85H176V116.6h.5a.85.85,0,0,0,.83-.85v-.52h.89a.86.86,0,0,0,.65-.29.88.88,0,0,0,.2-.68c-.09-.64-.73-3-2.24-3H173l-20.9,0c-1.53,0-2.15,2.42-2.23,3.07a.83.83,0,0,0,.21.67A.86.86,0,0,0,150.73,115.26Zm7,.51h-5.27v-.52h5.75v.52Zm12.64,5.79v-5.07a.78.78,0,0,0,.4.12h.48v4.84h-.48A.78.78,0,0,0,170.38,121.56Zm5.67.73h.48v.79h-5.75v-.79h5.27Zm-3.94-5.69h3.07v4.83h-3.07Zm3.92-.86h-5.26v-.52h5.75v.52Zm-25.3-1.34a3.63,3.63,0,0,1,.15-.65,6.11,6.11,0,0,1,.3-.77c.24-.49.57-.89.93-.89l20.9,0h3.86c.36,0,.68.4.93.89a4.44,4.44,0,0,1,.3.76,3.65,3.65,0,0,1,.16.66h-8.34l-10.85,0h-8.34Z" style="fill:#ca57a2"/><path d="M291.37,151.21a.82.82,0,0,0,.64-.29.86.86,0,0,0,.21-.67,3.31,3.31,0,0,0-2.59-2.87V147a.87.87,0,0,0-.86-.86h-.48l0-14.44h.49a.85.85,0,0,0,.85-.85v-2.66a1.67,1.67,0,0,0,.16-.12.88.88,0,0,0,.2-.68,3.32,3.32,0,0,0-.43-1.21s0-.1-.09-.16l-.05-.07-.07-.09a2.5,2.5,0,0,0-2-1.12h-1.66a2.93,2.93,0,0,0-1.42-1.77v-.89a.85.85,0,0,0-.85-.85h-.49v-4.84h.48a.85.85,0,0,0,.85-.86V115h.89a.86.86,0,0,0,.64-.29.9.9,0,0,0,.21-.68c-.09-.65-.72-3.06-2.24-3.06l-20.9,0H259c-1.52,0-2.15,2.41-2.23,3.06a.85.85,0,0,0,.85,1h.89v.53a.85.85,0,0,0,.83.85h.5v4.83h-.5a.85.85,0,0,0-.83.85V123a2.94,2.94,0,0,0-1.41,1.78h-1.66a2.52,2.52,0,0,0-2,1.13s-.06.07-.08.11l0,0a1.62,1.62,0,0,0-.1.18,3.19,3.19,0,0,0-.42,1.2.88.88,0,0,0,.2.68,1.67,1.67,0,0,0,.16.12V129c.28-.06.57-.1.85-.14v-.4h5.74v.37l.86.15v-.52h2.25l19.28,0v2.49a.85.85,0,0,0,.85.85h.48l0,14.44H283a.86.86,0,0,0-.86.86v.32h-.76l0-15.63a.86.86,0,0,0-.86-.85h-.61v-.68a.86.86,0,0,0-.85-.86l-15.36,0a.86.86,0,0,0-.64.31q.63.24,1.23.54l14.77,0v.68l-13.59,0a13,13,0,0,1,1.17.86l12.42,0h1.47l0,15.64h-7.19c0,.28.05.57.07.85h15.91a2.4,2.4,0,0,1,.28,0,2,2,0,0,1,1.05.64,3,3,0,0,1,.27.35,2.88,2.88,0,0,1,.42,1.13h-17.8c0,.28,0,.56,0,.85h7.6V158l.85-.22v-6.51h6.45v5.68l.85,0v-5.66Zm-8.46-29.1h.48v.79h-5.75v-.79h5.27Zm-5.27-.84a.77.77,0,0,0-.4.11v-5.07a.78.78,0,0,0,.4.12h.48v4.83Zm1.33-4.84H282v4.84H279Zm3.93-.86h-5.27v-.53h5.75v.53Zm-23.59-1.34h-1.72a3.48,3.48,0,0,1,.07-.38,5.5,5.5,0,0,1,.21-.66c.05-.13.11-.26.17-.38.25-.49.57-.9.93-.9h3.86l20.9,0c.36,0,.68.4.93.89l.17.38a5.11,5.11,0,0,1,.21.67c0,.14.06.27.08.37H259.31Zm7,8.1,10,0a.82.82,0,0,0,.41-.12v.72l-10.85,0v-.72A.82.82,0,0,0,266.35,122.33Zm0-6.6,10,0v5.74l-10,0Zm-.85,5.67a.77.77,0,0,0-.4-.11h-.48v-4.84h.48a.78.78,0,0,0,.4-.12Zm-5.68-5.8h-.48v-.53h5.75v.53h-5.27Zm3.94,5.69h-3.07v-4.83h3.07Zm-3.93.86h5.27v.79h-5.75v-.79Zm-1.33,1.91a.73.73,0,0,1,.5-.26h6.95l10.85,0h7a.77.77,0,0,1,.5.25,2.92,2.92,0,0,1,.48.76h-7.61l-11.5,0H258A2.54,2.54,0,0,1,258.49,124.06Zm23.65,3.49h0l-19.28,0h-9.22a1.91,1.91,0,0,1,.13-.51,2.47,2.47,0,0,1,.24-.49v0a3.16,3.16,0,0,1,.2-.27,1.76,1.76,0,0,1,.94-.59,1.17,1.17,0,0,1,.26,0h7.43l22.19,0h2.28a1.09,1.09,0,0,1,.26,0,1.71,1.71,0,0,1,.94.58,2.69,2.69,0,0,1,.2.27l0,0a2.59,2.59,0,0,1,.37,1h-7Zm1.34,3.34H283V128.4h5.74v2.49h-5.26Zm3.95,15.29h-3.07l0-14.44h3.07Zm.86,1.17H283V147h5.74v.32Z" style="fill:#ca57a2"/><path d="M197.9,30.29Z" style="fill:#ca57a2"/><path d="M229,28.15h0l-.25-.06.19.05Z" style="fill:#ca57a2"/><path d="M241.72,31.22l-.09,0h0l.09,0Z" style="fill:#ca57a2"/><polygon points="211.3 27.05 211.31 27.05 211.31 27.05 211.3 27.05" style="fill:#ca57a2"/><path d="M205.11,28.53l-.13,0,.1,0Z" style="fill:#ca57a2"/><polygon points="217.95 25.6 217.95 25.6 217.95 25.6 217.95 25.6" style="fill:#ca57a2"/><path d="M209.83,27.4h0Z" style="fill:#ca57a2"/><path d="M256.43,53.51a5.22,5.22,0,1,0-5.23-5.21A5.24,5.24,0,0,0,256.43,53.51Zm4-6.93s0,.05,0,.07a4.52,4.52,0,0,0-.36-.69A6.14,6.14,0,0,1,260.44,46.58Zm-8.39,1.71a4.33,4.33,0,0,1,.35-1.69,3.93,3.93,0,0,1,.65-1.08,4.39,4.39,0,0,1,3.36-1.6,4.6,4.6,0,0,1,.84.09l.14,0a4,4,0,0,1,.76.25l.08,0a4.35,4.35,0,0,1,1.33,1l.05,0a4.5,4.5,0,0,1,.64,2.24,4.37,4.37,0,0,1-4.36,4.37,4.3,4.3,0,0,1-3.15-1.37A4.31,4.31,0,0,1,252.05,48.29Z" style="fill:#ca57a2"/><path d="M179.22,53.63A5.22,5.22,0,1,0,174,48.42,5.22,5.22,0,0,0,179.22,53.63Zm4-6.92s0,0,0,.07a4.52,4.52,0,0,0-.36-.69A3.74,3.74,0,0,1,183.23,46.71Zm-8.38,1.71a4.37,4.37,0,0,1,.34-1.7,4.25,4.25,0,0,1,.65-1.08,4.35,4.35,0,0,1,6.56-.19A4.31,4.31,0,0,1,183,47.7a4.37,4.37,0,0,1-4.36,4.37,4.32,4.32,0,0,1-3.18-1.4A4.32,4.32,0,0,1,174.85,48.42Z" style="fill:#ca57a2"/><path d="M192.84,53.25l50-.08a4.86,4.86,0,1,0,0-9.72l-50,.08a4.86,4.86,0,0,0,0,9.72Zm-4-4.85a4,4,0,0,1,4-4l50-.08a4,4,0,0,1,4,4h0a4,4,0,0,1-1.17,2.84,4,4,0,0,1-2.83,1.18l-50,.08A4,4,0,0,1,190,51.23a3.81,3.81,0,0,1-.86-1.27A3.89,3.89,0,0,1,188.83,48.4Z" style="fill:#ca57a2"/><path d="M271.34,108.78a5.22,5.22,0,1,0-5.22-5.21A5.22,5.22,0,0,0,271.34,108.78Zm4-6.85a4.41,4.41,0,0,0-.86-1.33A4.41,4.41,0,0,1,275.38,101.93ZM267,103.57a3.46,3.46,0,1,1,.68,2.28A4.24,4.24,0,0,1,267,103.57Z" style="fill:#ca57a2"/><path d="M164.47,98.52a5.22,5.22,0,1,0,5.22,5.21A5.22,5.22,0,0,0,164.47,98.52Zm-.52,8.87a4,4,0,1,1,3.71-6.62,4.35,4.35,0,0,1-3.71,6.62Z" style="fill:#ca57a2"/><path d="M132.65,152.7v76.07l3.43,8.33c-.44.76-1,1.69-1.8,2.77a22.72,22.72,0,0,1-5,4.41,13.8,13.8,0,0,1-8.24,2.78q-9.15,0-12.25-9.14-5.22,9.14-15.34,9.14t-16.32-6.61a22.84,22.84,0,0,1-6.21-16.25V199.06q0-16.16,9.31-25.71a30.68,30.68,0,0,1,22.85-9.55,23.91,23.91,0,0,1,4.57.49,100.86,100.86,0,0,0-2.94-20.89l-.81-3.27c.43-.54,1.06-1.25,1.88-2.12a23.16,23.16,0,0,1,5.3-3.51,17.91,17.91,0,0,1,8.65-2.2Q132.65,132.3,132.65,152.7ZM94.29,215.06c0,4.25.95,7.37,2.85,9.39s5.42,3.18,10.53,3.51V192.37a8.75,8.75,0,0,0-3.67-6.61q-3.18-2.2-9.71-3.51Z" style="fill:#7a002c"/><path d="M198.11,223.71a6.41,6.41,0,0,1,1.8,4.74,13,13,0,0,1-1.55,6,22.25,22.25,0,0,1-4.57,5.87,24.09,24.09,0,0,1-8.57,4.82,36.54,36.54,0,0,1-12.17,2,34.88,34.88,0,0,1-11.83-1.88,31.62,31.62,0,0,1-10-6Q141,230.08,141,209.35t7-30.77q7-10.05,16-11a20.75,20.75,0,0,1,15.76-7,19,19,0,0,1,15,6.69q5.79,6.69,5.79,18.28,0,13.56-10,21.39a57.47,57.47,0,0,1-19.59,10q5.72,7.5,18.94,7.51A55.39,55.39,0,0,0,198.11,223.71Zm-20.24-30.2q0-9.94-12.24-10.93v14.69a42.79,42.79,0,0,0,1.3,11.75Q177.87,203,177.87,193.51Z" style="fill:#7a002c"/><path d="M208.4,227.79v-62q0-13.55-2.62-22.53l-1-3.1c.44-.54,1.07-1.25,1.88-2.12A23.54,23.54,0,0,1,212,134.5a17.62,17.62,0,0,1,8.49-2.2q12.89,0,12.89,20.4v76.07L237,237.1c-.43.76-1,1.69-1.79,2.77a22.46,22.46,0,0,1-5.06,4.41,14.17,14.17,0,0,1-8.33,2.78Q208.4,247.06,208.4,227.79Z" style="fill:#7a002c"/><path d="M269.94,227.79q0,8,2,11.92-1,2.61-5.47,5a21,21,0,0,1-10,2.37q-5.48,0-8.49-3.35t-3-9.06V165.76q0-13.55-2.61-22.53l-1-3.1c.43-.54,1.06-1.25,1.88-2.12a23.16,23.16,0,0,1,5.3-3.51,17.62,17.62,0,0,1,8.49-2.2q12.9,0,12.9,20.4v19.1a18.89,18.89,0,0,1,7-8q4.89-3.26,13.14-3.26A18.45,18.45,0,0,1,304.22,167q5.88,6.45,5.88,17.71v44.07l3.59,8.33c-.44.76-1,1.69-1.8,2.77a22.46,22.46,0,0,1-5.06,4.41,14.16,14.16,0,0,1-8.32,2.78q-13.39,0-13.39-19.27v-31.5q0-9-3.27-12.08t-11.91-3.1Z" style="fill:#7a002c"/><path d="M348,136.79a18,18,0,0,1-3.26,11.1q-3.27,4.32-9.88,4.32T325,147.4q-3.18-4.82-5.3-14.78c.43-.76,1-1.71,1.79-2.85a22.32,22.32,0,0,1,5-4.58,13.14,13.14,0,0,1,7.92-2.85c5,0,8.51,1.28,10.53,3.83S348,132.27,348,136.79ZM335.73,247.06q-13.39,0-13.39-19.27,0-49,1.14-64.48,3.43-3.42,10.94-3.43,12.9,0,12.9,20.41v48.48l3.59,8.33c-.44.76-1,1.69-1.8,2.77a22.46,22.46,0,0,1-5.06,4.41A14.14,14.14,0,0,1,335.73,247.06Z" style="fill:#7a002c"/><path d="M153.87,131.1a7,7,0,0,1,.49,2.58,17.85,17.85,0,0,1-.08,2,2.82,2.82,0,0,1-.61,1.32,1.7,1.7,0,0,1-1.42.71c-.59,0-1.44,0-2.55-.1v7.21q0,4.8,4.17,6.37a5.13,5.13,0,0,1-1.25,3.33,4.17,4.17,0,0,1-3.41,1.52,6.26,6.26,0,0,1-5.05-2.3,9.09,9.09,0,0,1-1.91-6V137a13.14,13.14,0,0,1-2.3-.83l0-.59c0-2.22.76-3.71,2.3-4.46a22.33,22.33,0,0,0-.83-5.34l-.2-.69c.13-.16.32-.37.56-.64a6.68,6.68,0,0,1,1.6-1,5.36,5.36,0,0,1,2.55-.64q3.83,0,3.82,6.13v2C150.75,131.05,152.13,131.1,153.87,131.1Z" style="fill:#7a002c"/><path d="M163.87,150.22a8.42,8.42,0,0,0,.58,3.58,3.19,3.19,0,0,1-1.64,1.49,6.34,6.34,0,0,1-3,.71,3.27,3.27,0,0,1-2.55-1,3.93,3.93,0,0,1-.9-2.72V131.59a24.72,24.72,0,0,0-.79-6.76l-.29-.93c.13-.17.32-.38.56-.64a7.29,7.29,0,0,1,1.59-1.05,5.23,5.23,0,0,1,2.55-.67c2.58,0,3.88,2,3.88,6.13v5.74A5.67,5.67,0,0,1,166,131a7.06,7.06,0,0,1,3.95-1,5.55,5.55,0,0,1,4.24,1.94,7.62,7.62,0,0,1,1.76,5.32v13.23L177,153a9.32,9.32,0,0,1-.54.83,6.67,6.67,0,0,1-1.52,1.33,4.28,4.28,0,0,1-2.5.83q-4,0-4-5.78v-9.46c0-1.8-.32-3-1-3.63s-1.84-.93-3.57-.93Z" style="fill:#7a002c"/><path d="M196.36,149a1.93,1.93,0,0,1,.54,1.42,3.88,3.88,0,0,1-.46,1.79,6.66,6.66,0,0,1-1.38,1.77,7.14,7.14,0,0,1-2.57,1.44,11.59,11.59,0,0,1-7.21,0,9.62,9.62,0,0,1-3-1.79q-3.07-2.75-3.08-9t2.1-9.24q2.12-3,4.81-3.31a6.23,6.23,0,0,1,4.73-2.11,5.7,5.7,0,0,1,4.51,2,8.11,8.11,0,0,1,1.74,5.49,7.73,7.73,0,0,1-3,6.42,17.17,17.17,0,0,1-5.88,3q1.71,2.26,5.68,2.26A16.92,16.92,0,0,0,196.36,149Zm-6.08-9.07q0-3-3.67-3.28v4.41a12.89,12.89,0,0,0,.39,3.53Q190.29,142.76,190.28,139.92Z" style="fill:#7a002c"/></svg>