<svg id="Layer_1" data-name="Layer 1" xmlns="http://www.w3.org/2000/svg" width="1473.5" height="579.06" viewBox="0 0 1473.5 579.06"><defs><style>.cls-1,.cls-2,.cls-3{fill:none;stroke:#fec621;stroke-linecap:round;stroke-miterlimit:10;stroke-width:12px;}.cls-2{stroke-dasharray:0 25.95;}.cls-3{stroke-dasharray:0 25.88;}</style></defs><title>shape2-yellowdots</title><line class="cls-1" x1="1461.63" y1="290.97" x2="1461.63" y2="290.97"/><path class="cls-2" d="M1449.36,313.83c-36.19,77.46-37.13,181.67-39.27,225-.82,16.42-14.65,29.33-31.45,29.33H96.28c-16.69,0-30.48-12.74-31.43-29-2.67-46.06-5.93-162.63-46.75-242.53"/><line class="cls-1" x1="11.87" y1="285.2" x2="11.87" y2="285.2"/><path class="cls-3" d="M24.06,262.37c35.19-75.65,38.25-179,40.79-222.43,1-16.3,14.74-29,31.43-29H1378.62c16.82,0,30.65,12.91,31.45,29.34,2.23,45.83,1.85,165.21,44.71,239.75"/></svg>