<svg id="Layer_1" data-name="Layer 1" xmlns="http://www.w3.org/2000/svg" width="455.58" height="381.86" viewBox="0 0 455.58 381.86" preserveAspectRatio="xMidYMid meet"><defs><style>.cls-1{fill:#7bccc0;}</style></defs><title>shape1-pattern-blue</title><path class="cls-1" d="M218.21,363.75q2.79,4.26,5.21,8.8l1.77-4,1.34,0a64.59,64.59,0,0,0,.17,10.68l.72,1.62a1.08,1.08,0,0,0,.75,0c.23-.54.47-1.08.71-1.62a65.71,65.71,0,0,0,.18-10.68l1.34,0,1.77,4q2.42-4.55,5.2-8.81a26.81,26.81,0,0,1-19.16,0Z"/><path class="cls-1" d="M230.4,13.31l-1.34,0a65.67,65.67,0,0,0-.18-10.68c-.24-.54-.48-1.08-.71-1.62a1.08,1.08,0,0,0-.75,0l-.72,1.62a64.56,64.56,0,0,0-.17,10.68l-1.34,0-1.77-4q-2.41,4.54-5.21,8.8a27,27,0,0,1,19.16,0q-2.79-4.25-5.2-8.8Z"/><path class="cls-1" d="M227.79,71.41c-15-.58-27.53-12.15-27.53-27.54a26.81,26.81,0,0,1,.53-5.32c-.84.76-1.68,1.52-2.54,2.25-.05.31-.1.62-.13.93-.1-.19-.21-.37-.32-.56-.59.51-1.2,1-1.81,1.49.32.62.62,1.25.89,1.91,5.94,14.35-1.16,29.54-14.83,35.93-13.34,4.85-28.37.18-35.05-12.89a28.78,28.78,0,0,1-1.24-2.8c-1.56.24-3.14.45-4.72.63a28.31,28.31,0,0,1,2.24,2c10.82,11.07,10.28,27.8,0,38.94-11,10.18-28,10.93-38.94,0a26.14,26.14,0,0,1-2.59-3H99.22l0,0a23.37,23.37,0,0,0,2.06,3,24.8,24.8,0,0,0-3.68-.79,28.33,28.33,0,0,0-3.87-.45,27.06,27.06,0,0,1-7.91-1.68c-1.18,0-2.35.11-3.52.2a3.39,3.39,0,0,1-.19,1.93,3.42,3.42,0,0,1-4.42,1.84,3.55,3.55,0,0,1-2.08-3c-1.43.23-2.85.49-4.25.78a8.13,8.13,0,0,1-.67,1.66c-2.64,5-8.16,4.69-11.44,1.8-.79.29-1.57.6-2.35.91.15.17.3.34.46.5l-.5-.47v0c-.71.29-1.42.58-2.13.89,3.75,3.37,7.14,7.12,9.92,10l-.52,1.23a72.51,72.51,0,0,0-10.71-4.19,1,1,0,0,0-.8,1.91,71.5,71.5,0,0,0,10.54,4.62c-.17.41-.33.82-.5,1.24-8,.16-19.92,1-27.83-2.86A87.88,87.88,0,0,0,11.7,150.73a13.25,13.25,0,0,0,1.9,6.93,15.34,15.34,0,0,0-4.27-2c-.37.85-.73,1.7-1.07,2.56,5.13.9,9.56,5,8.92,11.89-.78,8.45-8.3,11.3-14.49,9.45-.13,1-.24,2-.34,3.05a16.12,16.12,0,0,0,8.94-.94,13.65,13.65,0,0,0-3.54,9.22,13.38,13.38,0,0,0,3.53,9.22,16.09,16.09,0,0,0-8.93-.94c.08.87.18,1.74.28,2.61.27-.08.53-.16.8-.22a11.51,11.51,0,0,1,13.75,10.11c.57,6.88-3.83,10.95-8.93,11.88.35.86.71,1.72,1.08,2.56a15.22,15.22,0,0,0,4.28-2,13.25,13.25,0,0,0-1.91,6.93,87.9,87.9,0,0,0,23.16,28.23c7.91-3.88,19.85-3,27.83-2.86.17.41.33.83.5,1.24a70.46,70.46,0,0,0-10.54,4.62,1,1,0,0,0,.8,1.9,71.38,71.38,0,0,0,10.71-4.18l.52,1.23c-2.79,2.9-6.18,6.65-9.94,10,.72.31,1.43.61,2.15.9v0l.55-.51c-.18.17-.36.35-.52.53.78.32,1.56.62,2.35.91,3.26-2.86,8.75-3.2,11.45,1.8a7,7,0,0,1,.63,1.66c1.42.3,2.85.56,4.29.79a3.63,3.63,0,0,1,2.08-3A3.46,3.46,0,0,1,82,275.93a3.21,3.21,0,0,1,.31,2.24c1.17.09,2.35.16,3.53.2a26.86,26.86,0,0,1,7.88-1.68,28.87,28.87,0,0,0,3.92-.45,24.56,24.56,0,0,0,3.66-.8,23.94,23.94,0,0,0-2,2.84l-.11.17h2.5a25.65,25.65,0,0,1,2.63-3c11.07-10.82,27.79-10.28,38.94,0,10.17,11,10.93,28,0,38.95a27.46,27.46,0,0,1-2.29,2c1.64.18,3.26.4,4.87.65.09-.26.19-.52.29-.78,5.95-14.35,21.72-20.09,35.91-14.93,12.85,6,20.17,19.92,15.66,33.89a27.87,27.87,0,0,1-1.65,4c.58.47,1.16.94,1.73,1.43.11-.19.22-.37.32-.56,0,.31.08.62.13.92.86.74,1.7,1.49,2.54,2.26a26.81,26.81,0,0,1-.53-5.32c0-15.39,12.53-27,27.53-27.54,15,.58,27.54,12.15,27.54,27.54a26.82,26.82,0,0,1-.54,5.32c.84-.77,1.69-1.52,2.55-2.26,0-.3.1-.61.13-.92l.31.56c.6-.51,1.2-1,1.81-1.49-.31-.62-.61-1.26-.88-1.91-5.95-14.35,1.16-29.54,14.82-35.93,13.34-4.85,28.37-.18,35.06,12.89a26.46,26.46,0,0,1,1.23,2.8c1.57-.24,3.14-.46,4.73-.63a25.18,25.18,0,0,1-2.24-2c-10.83-11.07-10.28-27.8,0-38.95,11-10.17,28-10.92,38.94,0a27,27,0,0,1,2.58,3h2.54l0,0a24.1,24.1,0,0,0-2.06-3,23.49,23.49,0,0,0,3.67.8,28.33,28.33,0,0,0,3.87.45,27.2,27.2,0,0,1,7.92,1.68c1.18,0,2.35-.11,3.52-.2a3.22,3.22,0,0,1,.19-1.93,3.42,3.42,0,0,1,4.42-1.85,3.62,3.62,0,0,1,2.08,3c1.42-.23,2.84-.49,4.24-.78a8.83,8.83,0,0,1,.67-1.67c2.65-5,8.17-4.68,11.44-1.8.79-.28,1.57-.59,2.35-.9-.15-.17-.29-.34-.45-.5l.5.47,0,0c.72-.29,1.43-.59,2.13-.89-3.74-3.37-7.13-7.12-9.92-10l.53-1.23a71.68,71.68,0,0,0,10.7,4.18,1,1,0,0,0,.81-1.9,70.91,70.91,0,0,0-10.54-4.62l.49-1.24c8-.16,19.92-1,27.84,2.86a87.85,87.85,0,0,0,23.15-28.23,13.15,13.15,0,0,0-1.9-6.93,15,15,0,0,0,4.27,2q.56-1.26,1.08-2.55c-5.13-.9-9.56-5-8.93-11.89.78-8.46,8.31-11.3,14.5-9.45.13-1,.24-2,.33-3a16,16,0,0,0-8.94.94,13.66,13.66,0,0,0,3.55-9.22,13.41,13.41,0,0,0-3.53-9.22,16.06,16.06,0,0,0,8.92.94c-.08-.87-.17-1.74-.28-2.61-.26.08-.52.16-.8.22a11.51,11.51,0,0,1-13.75-10.11c-.56-6.88,3.84-11,8.93-11.88-.34-.87-.7-1.72-1.08-2.57a15.34,15.34,0,0,0-4.27,2,13.25,13.25,0,0,0,1.9-6.93,87.92,87.92,0,0,0-23.16-28.24c-7.91,3.88-19.85,3-27.83,2.87-.16-.42-.33-.83-.49-1.24a72,72,0,0,0,10.54-4.62,1.05,1.05,0,0,0-.81-1.91,72.83,72.83,0,0,0-10.7,4.19l-.53-1.23c2.79-2.91,6.19-6.65,9.94-10-.71-.31-1.43-.61-2.15-.9l0,0-.55.51a6.63,6.63,0,0,0,.52-.54c-.78-.31-1.57-.61-2.36-.9-3.26,2.86-8.75,3.19-11.45-1.81a6.73,6.73,0,0,1-.62-1.65c-1.42-.3-2.85-.56-4.3-.79a3.58,3.58,0,0,1-2.08,3,3.46,3.46,0,0,1-4.29-1.53,3.32,3.32,0,0,1-.31-2.24c-1.17-.09-2.34-.16-3.52-.2a27,27,0,0,1-7.89,1.67,28.89,28.89,0,0,0-3.92.46,24.14,24.14,0,0,0-3.65.79,23,23,0,0,0,2-2.83s.07-.11.11-.17h-2.49a26.52,26.52,0,0,1-2.63,3c-11.07,10.83-27.8,10.28-38.94,0-10.18-11-10.93-28,0-38.94a25.65,25.65,0,0,1,2.28-2c-1.63-.18-3.25-.4-4.86-.65-.1.26-.19.52-.3.77-5.94,14.36-21.72,20.09-35.9,14.94-12.85-6-20.18-19.92-15.67-33.89a26.81,26.81,0,0,1,1.66-4c-.58-.47-1.17-.94-1.74-1.43l-.31.56c0-.31-.09-.62-.13-.92-.86-.74-1.71-1.49-2.55-2.26a26.82,26.82,0,0,1,.54,5.32C255.33,59.26,242.79,70.83,227.79,71.41ZM58.31,111l-.4-.38c.14.12.3.22.45.33C58.35,111,58.33,111,58.31,111Zm-.21,160,.21-.2,0,0Zm339.17-.21.41.39-.46-.34A.12.12,0,0,0,397.27,270.84Zm.21-160-.21.2,0,0C397.31,110.92,397.41,110.87,397.48,110.81ZM238.08,75.38c0,3.77-5.63,3.73-5.83,0C232.45,71.64,238.08,71.61,238.08,75.38Zm-10.29,1.19c3,4,6.71,7.11,10.15,10.75,4.13,4.38,6.34,9.55,6,14.77a19.62,19.62,0,0,1-3.66,9.51c-2-.31-4-.54-6-.69,1.72-3,3.4-6.45,3.31-9.91a10.23,10.23,0,0,0-.79-4.34c-1.62-3.83-5-5.42-9-5.42s-7.35,1.61-9,5.42A10.2,10.2,0,0,0,218,101c-.09,3.48,1.63,7,3.35,10q-3,.25-6,.74a20,20,0,0,1-3.75-9.8c-.28-5.16,1.9-10.28,6-14.59C221.1,83.7,224.78,80.54,227.79,76.57Zm30,42.74c6.56,3.37,1.15,16.85-5.8,16.51-.76-.34-1.53-.63-2.3-.93C244.21,130.06,250.81,115.7,257.83,119.31Zm-7.45-2.8a1.43,1.43,0,0,1-.72,2.75C247.81,118.86,248.54,116.06,250.38,116.51Zm32.44,19.39c4.47,4.38-2,12.82-8,13.86a2.23,2.23,0,0,0-.36.05,5.5,5.5,0,0,1-3.5-.65q-.71-.74-1.44-1.44a5.51,5.51,0,0,1-.65-3.43,2.32,2.32,0,0,0,.06-.45C270,137.93,278.35,131.54,282.82,135.9Zm-5.69-5.07c1.34,1.33-.62,3.46-1.93,2.06S275.76,129.94,277.13,130.83ZM269,238a2,2,0,0,0,0-.35,5.48,5.48,0,0,1,.8-3.77l1-1a5.45,5.45,0,0,1,3.73-.83,2.32,2.32,0,0,0,.45.06c5.91,1,12.31,9.4,7.94,13.86S270,243.94,269,238ZM277.13,251c-1.37.88-3.17-.76-1.93-2.07S278.46,249.7,277.13,251ZM249.72,247l1-.37.12-.07s.08,0,.13,0l1-.46c7-.43,12.44,13.12,5.86,16.5C250.81,266.16,244.21,251.81,249.72,247Zm.66,18.37c-1.84.45-2.58-2.36-.72-2.75A1.43,1.43,0,0,1,250.38,265.35ZM256.32,244c1.27-.46,2,1.35.88,2C255.86,246.62,254.9,244.46,256.32,244Zm-1.68,22.6c1.26-.43,2.52-.88,3.77-1.38l.12-.07c.05,0,.09,0,.13,0,1.23-.54,2.44-1.11,3.63-1.7h0c2.17,1.74,4.53,3.54,6,5.93a10.21,10.21,0,0,1,1.12,2.34c.93,3.58-1,7-4.72,8.44-4.17,1.62-8.25.36-9.86-3.9C253.88,273.11,254.3,269.73,254.64,266.57Zm8.62-9.63a1.43,1.43,0,0,1,1.17,2.59A1.43,1.43,0,1,1,263.26,256.94Zm-2.78-15.63c.46-.3.9-.61,1.35-.92,7.07-2.63,15.8,11.42,8.92,15.3C264.09,259.45,255.65,246.7,260.48,241.31Zm5.38-3.72c1-1.11,2.59.51,1.54,1.59C266.36,239.82,264.93,238.62,265.86,237.59Zm8.59-8.6c1.06-.89,2.24.5,1.59,1.54C275,231.58,273.32,230,274.45,229Zm12.77,15.58a.94.94,0,0,0,.3.15c3,.86,6,1.74,8.43,3.68l.24.21c3.25,3,3.16,7.39-.15,10.57-2.52,2.42-5.77,3.34-8.63,1.78-2.82-2.36-4.82-6.85-5.83-10.3a1.19,1.19,0,0,0-.14-.3Q284.47,247.6,287.22,244.57Zm.67-4.31c-1.33,1.34-3.46-.62-2.06-1.93S288.78,238.9,287.89,240.26Zm-10.62-15.33.84-1.25c5.35-4.94,18.36,3.6,14.45,10.2C288.5,240.72,274.59,232,277.27,224.93Zm3.56-5.48c.49-1.4,2.66-.45,2,.89A1.12,1.12,0,0,1,280.83,219.45Zm2.11-4.62c.27-.6.52-1.21.77-1.82,4.7-5.78,19.34.87,15.7,8C296,227.63,282.14,221.94,282.94,214.83Zm19.27-46.49c.45,1.84-2.35,2.58-2.75.72A1.43,1.43,0,0,1,302.21,168.34Zm-2-11.87.05,0c1.74-2.17,3.55-4.53,5.93-6a10.87,10.87,0,0,1,2.34-1.12c3.58-.93,7,1,8.44,4.73,1.63,4.16.37,8.24-3.9,9.86-3.09,1-6.48.56-9.64.22h0C302.48,161.49,301.4,159,300.21,156.47Zm3.68,19c2.16,7.56-13.29,11.31-16.88,4.89-.13-.74-.28-1.48-.44-2.21C287.45,171.15,301.82,168.22,303.89,175.43Zm-.54,42.34h.08c3.69-.4,8.72-.23,12,1.55,2.32,2,2.81,5.29,1.54,8.53a7.15,7.15,0,0,1-7.58,4.87c-3.49-1.3-7-4.69-9.13-7.3,0,0-.07-.05-.1-.08A79.91,79.91,0,0,0,303.35,217.77Zm-3.89-5c.4-1.84,3.2-1.12,2.75.73A1.43,1.43,0,0,1,299.46,212.79Zm4.43-6.36c-2.06,7.19-16.38,4.28-17.31-2.64.17-.76.32-1.54.46-2.31C290.69,195.15,306.05,198.87,303.89,206.43Zm-14-9.39c-.3,1.3-2.31,1.27-2.2-.19S289.89,195.66,289.91,197Zm-2.2-12c-.11-1.46,1.9-1.49,2.2-.19C289.89,186.2,287.82,186.44,287.71,185Zm14.65,13.29c.15-1.85,2.81-1.54,2.81.24C304.81,200.24,302.21,200.14,302.36,198.3ZM288,192.23c0-.86,0-1.73,0-2.59,2.37-6.62,17.63-6.35,17.63,1.29S290.36,198.83,288,192.23Zm14.38-8.67c-.15-1.84,2.45-1.95,2.81-.24C305.17,185.09,302.51,185.41,302.36,183.56Zm-17-10.22a1.12,1.12,0,0,1,2.16-.55C287.88,174.22,285.66,174.82,285.38,173.34Zm2.16,35.73a1.12,1.12,0,0,1-2.16-.55C285.65,207.05,287.88,207.63,287.54,209.07Zm6.27,17.33a1.42,1.42,0,1,1,2.58,1.17A1.42,1.42,0,0,1,293.81,226.4Zm5.34,1c2.06,2.67,4.43,5.43,7.53,6.77a9.71,9.71,0,0,0,.94.38h0a10.94,10.94,0,0,0,2.7.7,9,9,0,0,0,9.19-5.16c1.88-3.78,2-8.08-1.1-11.29a10.13,10.13,0,0,0-3.78-2.46c-3.19-1.43-7.08-1.16-10.53-.73.63-1.92,1.2-3.87,1.69-5.85a20.19,20.19,0,0,1,10.17.16,18.43,18.43,0,0,1,10.38,9c.33.61,7.07,14.13,6.72,15.32-.42,1.4-15.05,6.42-15.83,6.65a18.54,18.54,0,0,1-12.05-.23,19.28,19.28,0,0,1-9-8h0C297.23,230.92,298.23,229.17,299.15,227.38ZM308,186.75a.32.32,0,0,0,.09,0c2.79-1.52,5.66-3.11,8.88-3.36,4.6-.13,7.44,3,7.36,7.57-.07,4.09-2.25,7.46-6.65,7.65-3.46-.07-6.63-1.83-9.59-3.45l-.08,0A77.54,77.54,0,0,0,308,186.75Zm9.74,13.94a10.22,10.22,0,0,0,4.34-.78c3.83-1.62,5.42-5,5.42-9s-1.61-7.36-5.42-9a10.2,10.2,0,0,0-4.34-.79c-3.45-.1-6.88,1.59-9.88,3.29-.17-2-.41-4-.72-6a19.82,19.82,0,0,1,9.69-3.68c5.16-.29,10.28,1.9,14.59,6,3.62,3.46,6.78,7.13,10.75,10.15-4,3-7.11,6.71-10.75,10.15-4.37,4.13-9.55,6.34-14.77,6a19.58,19.58,0,0,1-9.54-3.69q.48-3,.74-6C310.84,199.11,314.26,200.79,317.72,200.69Zm11.33,40.16a3,3,0,0,1,3.8-1.58,3,3,0,0,1,1.67,3.54,2.91,2.91,0,1,1-5.47-2Zm5.53-13.36a2.91,2.91,0,1,1,5.47,2,3,3,0,0,1-3.8,1.58A3,3,0,0,1,334.58,227.49Zm4.52-4.68c-4.69,1.55-7.9-2-10.2-5.49a26.13,26.13,0,0,0-7.18-7.71,23.35,23.35,0,0,0,8.76-3.8c2.95-2,5.53-4.14,9.28-3.15,5.35,1.42,6.93,6.76,5.78,11.61C344.63,218.15,343.27,221.43,339.1,222.81Zm4.25-21.59c-3.77,0-3.74-5.64,0-5.84C347.08,195.58,347.11,201.22,343.35,201.22Zm0-14.74c-3.74-.21-3.77-5.84,0-5.84S347.08,186.27,343.35,186.48Zm-1.71-7.84c-3.83,2.22-7.29.08-10.44-2.09a24.91,24.91,0,0,0-9.53-4.31,23.55,23.55,0,0,0,6.76-7c2.26-3.43,4.54-7,9.27-6.43,4.92.55,6.85,4.51,7.84,8.74S345.71,176.28,341.64,178.64Zm-3.16-22.44a2.9,2.9,0,0,1-2.24-5.36,3,3,0,0,1,3.71,1.31A2.93,2.93,0,0,1,338.48,156.2Zm-5.62-13.62a3,3,0,0,1-3.71-1.31,2.93,2.93,0,0,1,1.47-4.05,2.89,2.89,0,0,1,3.79,1.57A2.94,2.94,0,0,1,332.86,142.58Zm.21,5.08c.41,1.38-6.35,14.63-6.72,15.31a18.62,18.62,0,0,1-8.54,8.3,19.33,19.33,0,0,1-12,.84q-.72-3-1.67-5.85c3.45.44,7.38.7,10.58-.77a10.2,10.2,0,0,0,3.68-2.42c3.07-3.22,3-7.51,1.1-11.29a9,9,0,0,0-9.19-5.16,10.7,10.7,0,0,0-3.69,1.11c-3.06,1.33-5.41,4.06-7.45,6.7q-1.4-2.69-3-5.27a20.49,20.49,0,0,1,7-7,18.39,18.39,0,0,1,14-1.19C318,141.23,332.69,146.4,333.07,147.66Zm-36.68,6.63c.8,1.72-1.89,2.93-2.58,1.17A1.42,1.42,0,0,1,296.39,154.29Zm3,6.6c3.65,7.1-11.06,13.76-15.73,7.92-.24-.61-.48-1.22-.74-1.82C282.19,159.9,296,154.24,299.41,160.89Zm-18.58,1.51a1.12,1.12,0,0,1,2-.88C283.49,162.86,281.33,163.82,280.83,162.4Zm-2.57-4.08c-.33-.51-.68-1-1-1.5-2.5-7.06,11.46-15.7,15.33-8.84C296.29,154.59,283.71,163,278.26,158.32Zm9.63-16.72c.89,1.36-.75,3.16-2.06,1.93S286.56,140.26,287.89,141.6Zm-.37-4.46a1.36,1.36,0,0,0-.21.1,82.49,82.49,0,0,0-5.82-5.86,1,1,0,0,0,.09-.18c.87-3,1.74-6,3.69-8.43.06-.09.14-.16.2-.24,3-3.25,7.39-3.16,10.57.15,2.42,2.52,3.34,5.77,1.79,8.63C295.46,134.13,291,136.13,287.52,137.14Zm-13.07,15.72c-1.11-1,.52-2.58,1.59-1.54C276.68,152.36,275.48,153.79,274.45,152.86Zm-12.36-11.31c-.61-.43-1.22-.87-1.84-1.28-4.29-5.55,4-17.94,10.5-14.11C277.49,130.16,269.08,143.75,262.09,141.55Zm3.77,2.72c-.9-1.05.49-2.24,1.54-1.59C268.45,143.75,266.82,145.41,265.86,144.27Zm-2.6-19.36c-1.76-.69-.55-3.38,1.17-2.58A1.42,1.42,0,0,1,263.26,124.91Zm-.93-6.48a75.58,75.58,0,0,0-7.7-3.2c-.39-3.69-.21-8.68,1.56-11.94,2-2.32,5.29-2.81,8.54-1.54a7.13,7.13,0,0,1,4.86,7.58C268.3,112.81,264.94,116.33,262.33,118.43Zm-6,19.46c-1.41-.49-.46-2.66.88-2A1.12,1.12,0,0,1,256.32,137.89Zm25.21,31c12.22,29.79-2.56,63-31.47,75.79-28.74,11.05-61.86-.87-75-29.28-13.76-29.67.53-65.79,30.68-78.16C235.08,125.14,269.49,139.53,281.53,168.85ZM216,249.68l.31.06c7.66,2.57,4,19.55-4,17.28C204.75,264.86,208.31,249.25,216,249.68Zm-5.74-1.16c1.46.27.88,2.5-.56,2.15A1.12,1.12,0,0,1,210.21,248.52Zm10.22,17c1.84.14,1.53,2.81-.25,2.81C218.48,268,218.58,265.35,220.43,265.5Zm7.36,3.25c-8.06,0-7.9-16.92-.18-17.89H228C235.71,251.79,235.85,268.75,227.79,268.75Zm5.93-17.9c1.45-.11,1.48,1.89.18,2.2C232.52,253,232.28,251,233.72,250.85Zm-12,2.2c-1.3-.31-1.26-2.31.19-2.2S223.06,253,221.68,253.05Zm1.91,18.16a1.23,1.23,0,0,0,.13-.38q4.07.21,8.16,0a1,1,0,0,0,.12.36c1.53,2.79,3.11,5.65,3.36,8.88.13,4.59-3,7.43-7.57,7.36-4.09-.07-7.46-2.26-7.65-6.65C220.21,277.34,222,274.17,223.59,271.21Zm11.57-5.71c1.84-.15,2,2.44.24,2.81C233.63,268.31,233.31,265.64,235.16,265.5Zm3.75-15.61,1.25-.22c7.28.29,10.5,15.24,3.13,17.35C235.53,269.25,231.78,252.93,238.91,249.89Zm6.47-1.37a1.12,1.12,0,0,1,.55,2.15C244.5,251,243.9,248.79,245.38,248.52Zm-47.63,14c-6.75-3.47-.81-17.67,6.43-16.44l1.22.49C211.73,251,205,266.25,197.75,262.55Zm7.45,2.8a1.43,1.43,0,0,1,.73-2.75C207.78,263,207.05,265.8,205.2,265.35ZM172.77,246c-4.47-4.37,2-12.81,8-13.85a2.23,2.23,0,0,0,.36,0,5.51,5.51,0,0,1,3.16.46c.64.65,1.28,1.3,1.94,1.92a5.61,5.61,0,0,1,.49,3.14,2.22,2.22,0,0,0-.06.44C185.58,243.93,177.23,250.32,172.77,246Zm5.69,5.08c-1.34-1.33.62-3.46,1.93-2.07S179.82,251.91,178.46,251Zm8.16-107.16a2.23,2.23,0,0,0,0,.36,5.61,5.61,0,0,1-.49,3.24c-.64.6-1.27,1.23-1.88,1.86a5.56,5.56,0,0,1-3.15.49,3.11,3.11,0,0,0-.44-.06c-5.91-1-12.31-9.39-7.94-13.86S185.58,137.92,186.62,143.87Zm-8.16-13c1.36-.89,3.16.75,1.93,2.06S177.12,132.16,178.46,130.83Zm27.13,4.28q-.81.31-1.62.66c-7.14.92-12.91-13-6.22-16.46C204.89,115.64,211.58,130.51,205.59,135.11Zm-.39-18.6c1.84-.45,2.58,2.35.73,2.75A1.43,1.43,0,0,1,205.2,116.51Zm-5.93,21.38a1.12,1.12,0,0,1-.89-2C199.72,135.23,200.68,137.39,199.27,137.89ZM201,115.4q-3.87,1.38-7.59,3.14l-.07-.08c-2.16-1.74-4.53-3.55-6-5.93a11.12,11.12,0,0,1-1.12-2.34c-.92-3.58,1-7,4.73-8.44,4.16-1.63,8.24-.37,9.86,3.9,1,3.1.57,6.48.23,9.64C200.94,115.33,201,115.36,201,115.4Zm-8.62,9.51a1.42,1.42,0,0,1-1.18-2.58C192.87,121.53,194.09,124.22,192.33,124.91Zm2.9,15.49c-.59.38-1.17.76-1.74,1.15-7,2.19-15.45-11.55-8.65-15.39C191.43,122.44,199.79,134.93,195.23,140.4Zm-5.5,3.87c-1,1.11-2.59-.52-1.54-1.59C189.23,142,190.66,143.24,189.73,144.27Zm-8.59,8.59c-1.06.9-2.24-.49-1.6-1.54C180.62,150.28,182.27,151.9,181.14,152.86Zm-13-15.68-.09,0c-3-.87-6-1.74-8.43-3.69l-.24-.2c-3.24-3.05-3.15-7.39.15-10.57,2.53-2.42,5.77-3.34,8.64-1.78,2.81,2.36,4.81,6.84,5.82,10.3,0,.05,0,.07.06.11A79.81,79.81,0,0,0,168.15,137.18Zm1.61,6.35c-1.31,1.23-2.95-.57-2.07-1.93C169,140.25,171.15,142.21,169.76,143.53Zm8.7,13c-.47.68-1,1.35-1.4,2-5.58,4.16-17.85-4.12-14-10.55C167,141.28,180.43,149.52,178.46,156.49Zm-3.7,5.91c-.5,1.41-2.66.46-2-.88A1.12,1.12,0,0,1,174.76,162.4Zm-2.1,4.48c-.28.65-.53,1.31-.79,2-4.71,5.77-19.34-.88-15.7-8C159.57,154.27,173.25,159.84,172.66,166.88Zm-19.28,46.64c-.45-1.84,2.35-2.58,2.74-.73A1.42,1.42,0,0,1,153.38,213.52Zm1.92,11.95c-1.74,2.15-3.54,4.5-5.91,6a11.12,11.12,0,0,1-2.34,1.12c-3.57.93-7-1-8.44-4.73-1.62-4.16-.36-8.24,3.9-9.86,3.09-1,6.47-.57,9.63-.23A78.81,78.81,0,0,0,155.3,225.47Zm-3.6-19c-2.18-7.61,13.47-11.36,16.93-4.78.12.63.27,1.26.4,1.88C168.43,210.64,153.78,213.71,151.7,206.43Zm.47-42.35h0c-3.68.4-8.72.23-12-1.55-2.32-2-2.8-5.29-1.54-8.53a7.15,7.15,0,0,1,7.58-4.87c3.49,1.29,7,4.67,9.12,7.28A80.68,80.68,0,0,0,152.17,164.08Zm4,5c-.39,1.85-3.2,1.12-2.74-.72A1.42,1.42,0,0,1,156.12,169.06Zm-4.42,6.37c2.09-7.29,16.76-4.2,17.34,2.92-.13.58-.24,1.16-.34,1.74C165.36,186.82,149.5,183.1,151.7,175.43ZM167.88,185c-.11,1.44-2.19,1.19-2.21-.19C166,183.52,168,183.55,167.88,185Zm-14.65-1.45c-.15,1.84-2.82,1.54-2.82-.24C150.78,181.62,153.37,181.71,153.23,183.56Zm14.52,6.54c0,.57,0,1.14,0,1.7-1.86,7-17.75,6.93-17.75-.87S165.94,183,167.75,190.1Zm.13,6.75c.11,1.46-1.9,1.48-2.21.19C165.69,195.66,167.77,195.42,167.88,196.85Zm-14.65,1.45c.14,1.84-2.45,1.94-2.82.24C150.41,196.77,153.08,196.45,153.23,198.3Zm17,10.22a1.12,1.12,0,0,1-2.15.55C167.7,207.64,169.93,207,170.2,208.52Zm-2.15-35.73a1.12,1.12,0,0,1,2.15.55C169.93,174.81,167.7,174.22,168.05,172.79Zm-6.27-17.33c-.69,1.76-3.39.55-2.59-1.17A1.43,1.43,0,0,1,161.78,155.46Zm-5.45-1.12c-2-2.62-4.37-5.32-7.42-6.63a9.71,9.71,0,0,0-.94-.38h0a10.41,10.41,0,0,0-2.7-.7,9,9,0,0,0-9.19,5.16c-1.87,3.78-2,8.08,1.11,11.29a10.09,10.09,0,0,0,3.77,2.46c3.19,1.42,7.06,1.16,10.51.73-.61,1.92-1.15,3.87-1.61,5.83a20.16,20.16,0,0,1-10.22-.14,18.38,18.38,0,0,1-10.38-9c-.34-.6-7.08-14.12-6.72-15.31.42-1.41,15-6.42,15.83-6.66a18.64,18.64,0,0,1,12,.23,19.36,19.36,0,0,1,8.9,7.8Q157.7,151.64,156.33,154.34Zm-8.59,40.72a1,1,0,0,0-.23.07c-2.79,1.53-5.65,3.12-8.88,3.37-4.59.13-7.43-3-7.35-7.57.06-4.09,2.25-7.46,6.64-7.66,3.46.08,6.63,1.83,9.59,3.45a.79.79,0,0,0,.23.08A81.28,81.28,0,0,0,147.74,195.06Zm-9.87-13.9a10.2,10.2,0,0,0-4.34.79c-3.84,1.62-5.43,5-5.43,9s1.62,7.36,5.43,9a10.16,10.16,0,0,0,4.33.79c3.5.1,7-1.64,10-3.37q.24,3,.7,6a20,20,0,0,1-9.8,3.74c-5.16.28-10.27-1.9-14.58-6-3.62-3.46-6.78-7.13-10.75-10.15,4-3,7.1-6.71,10.75-10.15,4.37-4.13,9.54-6.34,14.76-6a19.58,19.58,0,0,1,9.63,3.74c-.3,2-.54,4-.7,6C144.84,182.8,141.37,181.07,137.87,181.16ZM126.54,141a3,3,0,0,1-3.8,1.58,3,3,0,0,1-1.68-3.54,2.91,2.91,0,1,1,5.48,2ZM121,154.37a2.91,2.91,0,1,1-1.68-3.54A3,3,0,0,1,121,154.37Zm-4.52,4.68c4.68-1.55,7.89,2,10.19,5.49a26.26,26.26,0,0,0,7.18,7.71,23.17,23.17,0,0,0-8.76,3.8c-2.95,2-5.52,4.14-9.27,3.15-5.35-1.42-6.93-6.76-5.79-11.62C111,163.71,112.31,160.43,116.49,159.05Zm-4.25,21.59c3.77,0,3.74,5.63,0,5.84C108.5,186.27,108.47,180.64,112.24,180.64Zm0,14.74c3.73.2,3.77,5.84,0,5.84S108.5,195.58,112.24,195.38Zm1.71,7.84c3.83-2.22,7.29-.08,10.43,2.09a25,25,0,0,0,9.53,4.31,23.55,23.55,0,0,0-6.76,7c-2.25,3.43-4.54,7-9.27,6.43-4.92-.55-6.84-4.52-7.84-8.75S109.88,205.57,114,203.22Zm3.16,22.44a2.89,2.89,0,0,1,3.79,1.57,2.91,2.91,0,0,1-5.26,2.48A2.92,2.92,0,0,1,117.11,225.66Zm5.62,13.62a3,3,0,0,1,3.7,1.31,2.91,2.91,0,1,1-5.26,2.48A3,3,0,0,1,122.73,239.28Zm-.21-5.08c-.41-1.38,6.34-14.63,6.72-15.32a18.6,18.6,0,0,1,8.54-8.29,19.27,19.27,0,0,1,12-.83q.7,2.94,1.62,5.84c-3.46-.44-7.39-.7-10.58.77a10.12,10.12,0,0,0-3.68,2.42c-3.08,3.21-3,7.51-1.11,11.29a9.05,9.05,0,0,0,9.19,5.16,10.68,10.68,0,0,0,3.7-1.11c3-1.31,5.34-4,7.36-6.6q1.38,2.7,3,5.31a20.39,20.39,0,0,1-6.9,6.82,18.27,18.27,0,0,1-14,1.19C137.57,240.63,122.89,235.45,122.52,234.2Zm36.67-6.63c-.8-1.72,1.89-2.94,2.59-1.17A1.43,1.43,0,0,1,159.19,227.57Zm-3-6.6c-3.63-7.06,10.89-13.69,15.65-8,.28.72.54,1.46.86,2.17C173.08,222.09,159.55,227.54,156.17,221Zm18.59-1.52a1.12,1.12,0,0,1-2,.89C172.1,219,174.26,218,174.76,219.45Zm2.24,3.82c.49.78,1,1.53,1.51,2.27,1.7,7-11.71,15-15.48,8.34C159.37,227.4,171.39,219.2,177,223.27Zm-9.31,17c-.88-1.36.76-3.16,2.07-1.93S169,241.6,167.69,240.26Zm.37,4.46.07,0a76.49,76.49,0,0,0,5.92,5.89s0,.05-.05.09c-.86,3-1.74,6-3.68,8.43l-.21.24c-3,3.24-7.39,3.15-10.57-.15-2.42-2.52-3.34-5.77-1.78-8.64C160.12,247.73,164.61,245.73,168.06,244.72ZM181.14,229c1.11,1-.52,2.59-1.6,1.55C178.9,229.5,180.1,228.06,181.14,229Zm12.3,11.3c.59.4,1.19.79,1.79,1.17,4.52,5.48-3.88,18.09-10.39,14.23C178.11,251.71,186.46,238.18,193.44,240.29Zm-3.71-2.7c.9,1-.49,2.23-1.54,1.59C187.14,238.1,188.76,236.45,189.73,237.59Zm2.6,19.35c1.75.7.55,3.39-1.18,2.59A1.43,1.43,0,0,1,192.33,256.94Zm1,6.46c.05,0,.06-.08.1-.12a79.91,79.91,0,0,0,7.57,3.07,1.48,1.48,0,0,0,0,.22c.39,3.69.22,8.72-1.56,12-2,2.32-5.29,2.81-8.53,1.54a7.15,7.15,0,0,1-4.87-7.58C187.29,269,190.68,265.5,193.29,263.4Zm6-19.43c1.41.49.45,2.65-.89,2A1.12,1.12,0,0,1,199.27,244Zm28.52-130.86c7.7,0,7.9,15.45,1.17,17.67-.77,0-1.53,0-2.29,0C219.88,128.62,220.09,113.11,227.79,113.11ZM221.87,131c-1.46.11-1.48-1.9-.19-2.2C223.06,128.83,223.3,130.9,221.87,131Zm12-2.2c1.3.31,1.27,2.31-.18,2.2S232.53,128.83,233.9,128.81Zm1.5-15.26c1.7.36,1.61,3-.24,2.81S233.63,113.55,235.4,113.55Zm-3.4-2.9s0,.07,0,.11a79.59,79.59,0,0,0-8.32,0,.75.75,0,0,0,0-.16c-1.53-2.79-3.12-5.65-3.37-8.88-.13-4.59,3-7.44,7.57-7.36,4.09.07,7.47,2.25,7.66,6.65C235.38,104.52,233.62,107.69,232,110.65Zm-11.57,5.71c-1.85.15-2-2.45-.25-2.81C222,113.55,222.27,116.21,220.43,116.36ZM217,131.81c-.6.12-1.2.23-1.79.36-7.12-.59-10.19-15.25-2.91-17.34C219.93,112.64,223.68,128.43,217,131.81Zm-6.78,1.53a1.12,1.12,0,0,1-.56-2.16C211.09,130.84,211.68,133.07,210.21,133.34Zm35.72-2.16a1.12,1.12,0,0,1-.53,2.16l-.08,0C243.94,133,244.52,130.85,245.93,131.18Zm-5.14.95c-.84-.18-1.67-.34-2.51-.49-6.24-3.71-2.52-19,5-16.81C250.44,116.88,247.61,131,240.79,132.13ZM223.34,75.38c-.2,3.73-5.83,3.76-5.83,0S223.14,71.64,223.34,75.38ZM202.29,62.5c5.24-.77,6.72,7.06,1.52,8.09S197.17,63.79,202.29,62.5ZM195.7,81c.55-4.92,4.52-6.85,8.75-7.84s8.7-.17,11.05,3.9c2.22,3.83.08,7.29-2.09,10.44a24.8,24.8,0,0,0-4.3,9.53,23.71,23.71,0,0,0-7-6.76C198.7,88,195.17,85.75,195.7,81ZM189,78.77a2.92,2.92,0,1,1-1.31,3.71A3,3,0,0,1,189,78.77Zm-4.48,6.88c1.37-.41,14.62,6.35,15.31,6.72a18.7,18.7,0,0,1,8.29,8.54A19.35,19.35,0,0,1,209,113c-2,.48-3.91,1-5.84,1.66.44-3.48.72-7.46-.76-10.69a10.2,10.2,0,0,0-2.42-3.68c-3.21-3.07-7.51-3-11.29-1.1a9,9,0,0,0-5.15,9.19,10.47,10.47,0,0,0,1.1,3.69c1.33,3.07,4.07,5.41,6.71,7.46-1.8.91-3.58,1.9-5.31,2.95a20.49,20.49,0,0,1-6.93-7,18.3,18.3,0,0,1-1.19-14C178.09,100.7,183.27,86,184.53,85.65Zm-8.87-1.34a2.93,2.93,0,0,1,3.78,1.55,3,3,0,0,1-1.31,3.71,2.91,2.91,0,1,1-2.47-5.26Zm-6.08,4.85c5.82,1.46,6.42,6.39,5.38,11.6-.12.59-.22,1.18-.32,1.76,0,.12,0,.23,0,.35a23.64,23.64,0,0,0,0,8.43,21.52,21.52,0,0,0-7.49-3.22c-3.06-.7-6.74-.69-9.25-2.89-4.54-4-1.26-10.94,2.55-13.67C163.31,89.43,166,88.27,169.58,89.16ZM155,82.08c4.28-2.56,8.91,3.24,4.93,6.56a4.1,4.1,0,0,1-5.78-.56A4.15,4.15,0,0,1,155,82.08Zm-1.88,6.7ZM149.23,102a2.92,2.92,0,1,1,0,4.12A2.94,2.94,0,0,1,149.23,102Zm25,12.42a19.28,19.28,0,0,1,6.38,11.72q-2.46,1.77-4.78,3.72c-.87-3.21-2-6.63-4.35-9a11,11,0,0,0-3-2.4c-4-2.18-8.11-1-11.16,2.06s-4.21,7.16-2.05,11.16a10.74,10.74,0,0,0,2.39,3c2.39,2.32,5.8,3.47,9,4.34q-1.69,2-3.26,4.06c-.18.23-.34.47-.51.7a19.24,19.24,0,0,1-11.57-6.28c-4.72-7-3.11-18.23-4.35-27.31C156,111.32,167.2,109.72,174.18,114.37Zm-35.37-2a2.91,2.91,0,1,1,0,4.12A2.95,2.95,0,0,1,138.81,112.37Zm1.51,7.68c3.56,2.07,3.69,5.76,4.45,9.44a22.36,22.36,0,0,0,3.38,8.22,23.73,23.73,0,0,0-9.67.2c-4.16.86-9.75,1.73-11.94-3.15-1.84-4.09-.68-7.8,1.84-11.22C131.19,119.71,135.82,117.44,140.32,120.05Zm-21.38-1.9a4.2,4.2,0,0,1,5.7-1.1,4.14,4.14,0,0,1,.86,6C122.17,127,116.38,122.44,118.94,118.15Zm-47.48-7.23c-.1.19-.18.39-.28.58h0Zm-4.89,13.23a27.52,27.52,0,0,1,35.86-14.86c14.35,5.94,20.09,21.72,14.93,35.91-6,12.84-19.92,20.17-33.89,15.66A27.66,27.66,0,0,1,66.57,124.15Zm14.17,94.32a27.54,27.54,0,1,1,0-55.08c15.39,0,27,12.54,27.53,27.54C107.69,205.93,96.12,218.47,80.74,218.47Zm18.62-2c-.77-5.24,7.06-6.71,8.1-1.52S100.65,221.55,99.36,216.43Zm-38.81,1.28c3.53-.82,7,.12,10.56,1.15a28.78,28.78,0,0,0,4,1.12,23.66,23.66,0,0,0,3.49.62,27.7,27.7,0,0,0-4.37,3c-.57.43-1.13.87-1.66,1.34-2.91,2.37-5.83,4.69-9.5,5.29-3.14.07-6.15-1.54-7-4.72C55.15,222,57.37,218.93,60.55,217.71Zm-3.36-7.11c4.35.23,4.39,6.79,0,6.79S52.84,210.83,57.19,210.6Zm0-46.13c4.39,0,4.35,6.55,0,6.79C52.85,171,52.81,164.47,57.19,164.47Zm-1.12-8.08c.84-3.17,3.85-4.78,7-4.72,3.66.6,6.57,2.92,9.48,5.28.56.5,1.15,1,1.75,1.41a26.3,26.3,0,0,0,4.3,2.89,24,24,0,0,0-3.31.59,27.73,27.73,0,0,0-4.39,1.22c-3.44,1-6.88,1.89-10.34,1.09C57.37,162.93,55.15,159.82,56.07,156.39Zm43.29,9c1.29-5.13,9.13-3.69,8.1,1.52S98.59,170.67,99.36,165.43ZM58.23,145.66a3.43,3.43,0,0,1,4.42-1.84,3.47,3.47,0,0,1,1.95,4.12,3.39,3.39,0,1,1-6.37-2.28Zm-6.79-18.07v0a3.75,3.75,0,0,0-.47,0Zm-2-.06h.26l-.26,0ZM43,134.84c3.08-8.46,16.36-5.38,14.49,3.65C55.43,148.3,40.58,144.62,43,134.84Zm3,10.73,0,.05-.27-.18ZM45,145l-.7-.43,0,0A8,8,0,0,0,45,145ZM28.39,130.41c2.7-7.52,14.35-4.51,12.45,3.41C38.83,142.14,26.32,138.73,28.39,130.41ZM16,154a9.51,9.51,0,0,1,2-10c10.41-9.57,26.59,3.06,36.15,9.73-.09.43-.2.87-.29,1.3a72.76,72.76,0,0,0-11.37-2c-1.19-.14-1.38,1.75-.28,2.05a71.25,71.25,0,0,0,11.16,2.45c-.09.44-.15.88-.24,1.32C41.71,161.32,22.1,166.86,16,154ZM35.6,209.85c-.31-9.47,14.1-11.07,14.88-1.42S37.21,219.15,35.6,209.85Zm6.89,8.75s0,0,0,0l-.3,0Zm-1.63-.24-.33-.05v0Zm-2.07-17.75.24-.09-.24.11Zm1.59-.61.25-.1s0,0,0,0Zm10.1-26.57c-.88,9.62-15.19,8.07-14.88-1.43C37.2,162.73,51.35,163.8,50.48,173.43Zm-9.84,8.5v0l-.2-.08ZM39,181.31l-.16-.06v0Zm1.58-17.76.37-.06-.37.09Zm1.63-.28.32-.05a.06.06,0,0,0,0,0Zm-8.92,8.46c-.75,8.36-13.1,7-12.81-1.22C21.81,162.46,34,163.36,33.24,171.73Zm-20.4,24.35a8.53,8.53,0,0,1,0-10.3c8.31-11.37,26.89-2,37.33,2.54,0,.45,0,.9,0,1.34a69.54,69.54,0,0,0-11.36.23,1,1,0,0,0,0,2.08,68.44,68.44,0,0,0,11.36.22c0,.45,0,.9,0,1.35C39.72,198.09,21.12,207.41,12.84,196.08Zm7.59,15.27c-.29-8.23,12.14-9.61,12.81-1.22S21.81,219.41,20.43,211.35Zm-2.5,26.52a9.51,9.51,0,0,1-2-10c6.14-12.85,25.8-7.31,37.11-4.83.09.44.15.88.24,1.32a71.25,71.25,0,0,0-11.16,2.45c-1.09.3-.92,2.19.28,2a70.5,70.5,0,0,0,11.37-2c.09.44.2.87.29,1.31C44.49,234.83,28.4,247.49,17.93,237.87ZM46,236.27l-.4.22.38-.25S46,236.26,46,236.27Zm-1.36.82-.31.22,0,0ZM28.39,251.44c-2.07-8.3,10.44-11.73,12.45-3.4C42.74,256,31.1,259,28.39,251.44Zm21.08,2.88v0c.13,0,.27,0,.41,0Zm2-.06-.75,0a6.36,6.36,0,0,0,.75-.08S51.44,254.24,51.44,254.26ZM43,247c-2.39-9.77,12.55-13.49,14.49-3.65C59.24,252.4,46.07,255.51,43,247Zm19.67-9a3.47,3.47,0,0,1-4.3-1.54,3.41,3.41,0,0,1,1.71-4.72,3.37,3.37,0,0,1,4.41,1.84A3.43,3.43,0,0,1,62.65,238Zm8.52,32.32h0c.1.19.18.39.28.58Zm33.3,1.36a27.49,27.49,0,1,1-23-49.88C95.78,215.9,111,223,117.37,236.67,122.21,250,117.54,265,104.47,271.72Zm21.17-6.13h0Zm-.69-1a4.16,4.16,0,0,1-6-.85c-2.56-4.27,3.25-8.91,6.56-4.93A4.11,4.11,0,0,1,125,264.55Zm18,4.94a2.92,2.92,0,1,1,0-4.13A2.95,2.95,0,0,1,142.93,269.49Zm-.88-8.62c-4,4.54-10.94,1.27-13.67-2.55-2.09-2.91-3.25-5.62-2.36-9.18,1.47-5.82,6.4-6.42,11.6-5.38.6.12,1.18.23,1.77.32l.34,0a23.64,23.64,0,0,0,8.43,0,21.77,21.77,0,0,0-3.22,7.48C144.24,254.68,144.26,258.36,142.05,260.87Zm9.18-16.33a19.3,19.3,0,0,1,11.62-6.35c1.2,1.64,2.45,3.24,3.75,4.77-3.19.87-6.58,2-8.95,4.33a10.59,10.59,0,0,0-2.4,3c-2.18,4-1,8.11,2.05,11.16s7.16,4.21,11.16,2.05a10.75,10.75,0,0,0,3-2.39c2.32-2.39,3.47-5.83,4.34-9,1.55,1.31,3.14,2.54,4.78,3.71a19.3,19.3,0,0,1-6.31,11.68c-7,4.71-18.22,3.1-27.31,4.34C148.18,262.72,146.58,251.52,151.23,244.54Zm-2,35.37a2.92,2.92,0,1,1,4.13,0A3,3,0,0,1,149.23,279.91ZM155,299.78a4.19,4.19,0,0,1-1.1-5.7,4.13,4.13,0,0,1,6-.86C163.88,296.56,159.31,302.34,155,299.78Zm16.6-7.59c-4.09,1.83-7.79.67-11.22-1.85-3.82-2.81-6.09-7.44-3.48-11.94,2.06-3.56,5.75-3.68,9.43-4.45a22.63,22.63,0,0,0,8.23-3.37,23.73,23.73,0,0,0,.2,9.67C175.63,284.4,176.5,290,171.62,292.19Zm7.83,3.79a3,3,0,0,1-3.53,1.68,2.91,2.91,0,1,1,3.53-1.68Zm5.08.22c-1.41-.42-6.43-15.05-6.66-15.83a18.5,18.5,0,0,1,.23-12,19.34,19.34,0,0,1,7.92-9q2.61,1.57,5.32,2.94c-2.66,2.06-5.43,4.42-6.77,7.52-.15.31-.26.63-.38.94v0a10.4,10.4,0,0,0-.69,2.7,9,9,0,0,0,5.15,9.19c3.78,1.87,8.08,2,11.29-1.11a10.09,10.09,0,0,0,2.46-3.77c1.45-3.25,1.15-7.21.7-10.72,1.93.62,3.88,1.15,5.84,1.62,0,0,0,.07,0,.11a20.3,20.3,0,0,1-.12,10.31,18.47,18.47,0,0,1-9,10.39C199.23,289.82,185.71,296.56,184.53,296.2Zm8.54,5.41a2.92,2.92,0,0,1-3.8,1.58,2.91,2.91,0,0,1,2-5.47A2.92,2.92,0,0,1,193.07,301.61Zm9.22,17.75c-5.12-1.29-3.68-9.13,1.52-8.1S207.53,320.13,202.29,319.36Zm13.77-16.47c-1.42,5.35-6.76,6.93-11.61,5.79-3.88-.91-7.16-2.27-8.54-6.45-1.55-4.68,2-7.89,5.49-10.19a26.26,26.26,0,0,0,7.71-7.18,23.49,23.49,0,0,0,3.8,8.76C214.91,296.57,217.06,299.14,216.06,302.89Zm1.45,3.59c0-3.77,5.63-3.73,5.83,0C223.14,310.22,217.51,310.25,217.51,306.48Zm10.28-1.2c-3-4-6.7-7.1-10.15-10.74-4.13-4.38-6.34-9.55-6-14.77a19.66,19.66,0,0,1,3.86-9.8h0c2,.3,4,.54,6,.7-1.77,3.08-3.56,6.62-3.46,10.18a10.42,10.42,0,0,0,.78,4.35c1.62,3.83,5,5.42,9,5.42s7.36-1.62,9-5.42a10.23,10.23,0,0,0,.79-4.34c.1-3.54-1.68-7.07-3.44-10.13q3-.23,6-.68a20,20,0,0,1,3.82,9.89c.28,5.17-1.9,10.28-6,14.6C234.48,298.15,230.81,301.32,227.79,305.28Zm4.46,1.2c.2-3.73,5.83-3.77,5.83,0S232.45,310.22,232.25,306.48Zm21,12.88c-5.24.77-6.71-7.06-1.52-8.1S258.41,318.07,253.29,319.36Zm6.59-18.52c-.55,4.92-4.51,6.84-8.74,7.84s-8.7.16-11.06-3.91c-2.22-3.83-.08-7.28,2.09-10.43a25,25,0,0,0,4.31-9.53,23.67,23.67,0,0,0,7,6.76C256.88,293.82,260.41,296.11,259.88,300.84Zm6.69,2.24a2.91,2.91,0,1,1,1.31-3.7A3,3,0,0,1,266.57,303.08Zm4.49-6.88c-1.38.41-14.62-6.34-15.31-6.71a18.64,18.64,0,0,1-8.3-8.55,19.3,19.3,0,0,1-.81-12.11q2.93-.68,5.83-1.56c-.44,3.46-.71,7.4.76,10.6a10,10,0,0,0,2.43,3.68c3.21,3.08,7.51,3,11.28,1.11a9,9,0,0,0,5.16-9.19,10.9,10.9,0,0,0-1.1-3.69c-1.33-3-4-5.39-6.66-7.42,1.78-.94,3.53-1.95,5.23-3a20.55,20.55,0,0,1,7,7,18.32,18.32,0,0,1,1.19,14C277.49,281.15,272.32,295.83,271.06,296.2Zm8.87,1.35a2.91,2.91,0,1,1,1.58-3.79A2.91,2.91,0,0,1,279.93,297.55ZM286,292.7c-5.83-1.46-6.43-6.39-5.38-11.6.11-.59.22-1.18.32-1.76,0-.12,0-.24.05-.35a23.88,23.88,0,0,0,0-8.43,21.85,21.85,0,0,0,7.48,3.22c3.06.7,6.74.68,9.25,2.89,4.54,4,1.27,10.94-2.54,13.67C292.27,292.43,289.56,293.59,286,292.7Zm14.56,7.08c-4.28,2.56-8.91-3.25-4.94-6.56a4.11,4.11,0,1,1,4.94,6.56Zm1.88-6.7Zm3.9-13.17a2.91,2.91,0,1,1,0-4.12A2.93,2.93,0,0,1,306.35,279.91Zm-24.94-12.42a19.28,19.28,0,0,1-6.4-11.84c1.63-1.2,3.21-2.47,4.74-3.79.89,3.27,2,6.77,4.4,9.21a10.59,10.59,0,0,0,3,2.4c4,2.19,8.11,1,11.16-2.05s4.21-7.16,2.06-11.16a10.78,10.78,0,0,0-2.4-3c-2.44-2.37-6-3.52-9.23-4.4,1.31-1.53,2.57-3.12,3.76-4.74a19.3,19.3,0,0,1,11.83,6.33c4.71,7,3.1,18.22,4.34,27.31C299.59,270.54,288.39,272.14,281.41,267.49Zm35.37,2a2.92,2.92,0,1,1,0-4.13A3,3,0,0,1,316.78,269.49Zm-1.52-7.68c-3.56-2.07-3.68-5.76-4.45-9.44a22.63,22.63,0,0,0-3.37-8.23,23.73,23.73,0,0,0,9.67-.2c4.16-.85,9.75-1.72,11.94,3.16,1.84,4.09.68,7.79-1.85,11.22C324.39,262.14,319.76,264.41,315.26,261.81Zm21.38,1.89a4.18,4.18,0,0,1-5.69,1.1,4.12,4.12,0,0,1-.87-6C333.42,254.84,339.21,259.41,336.64,263.7Zm47.48,7.24c.1-.19.18-.39.29-.58h0C384.31,270.55,384.22,270.75,384.12,270.94ZM389,257.7a27.52,27.52,0,0,1-35.86,14.87c-14.36-5.94-20.09-21.72-14.94-35.91,6-12.84,19.92-20.17,33.89-15.66A27.66,27.66,0,0,1,389,257.7Zm-14.17-94.31a27.54,27.54,0,0,1,0,55.08c-15.39,0-27-12.54-27.54-27.54C347.89,175.93,359.46,163.39,374.85,163.39Zm-18.63,2c.78,5.24-7.06,6.71-8.09,1.52S354.94,160.31,356.22,165.43ZM395,164.15C391.5,165,388,164,384.47,163a28,28,0,0,0-4-1.12,23.47,23.47,0,0,0-3.49-.63,26.13,26.13,0,0,0,4.37-2.94c.57-.43,1.13-.87,1.66-1.34,2.91-2.37,5.83-4.69,9.51-5.3,3.14-.06,6.14,1.55,7,4.72C400.43,159.82,398.22,162.93,395,164.15Zm3.35,7.11c-4.34-.24-4.38-6.79,0-6.79S402.74,171,398.39,171.26Zm0,46.13c-4.38,0-4.35-6.56,0-6.79C402.74,210.83,402.78,217.39,398.39,217.39Zm1.13,8.07c-.85,3.18-3.85,4.79-7,4.72-3.67-.6-6.58-2.91-9.48-5.27-.56-.5-1.15-1-1.76-1.42a27.64,27.64,0,0,0-4.3-2.89,22.28,22.28,0,0,0,3.31-.58,29.36,29.36,0,0,0,4.39-1.22c3.45-1,6.89-1.89,10.35-1.09C398.22,218.93,400.43,222,399.52,225.46Zm-43.3-9c-1.29,5.12-9.12,3.68-8.09-1.52S357,211.19,356.22,216.43Zm41.14,19.76a3.44,3.44,0,0,1-4.43,1.85,3.48,3.48,0,0,1-1.95-4.12,3.39,3.39,0,1,1,6.38,2.27Zm6.78,18.08v0l.48.05Zm2,0h-.27l.27,0S406.11,254.31,406.12,254.32Zm6.48-7.3c-3.07,8.46-16.35,5.38-14.48-3.65C400.15,233.55,415,237.24,412.6,247Zm-3-10.73,0,0,.27.17C409.79,236.36,409.67,236.33,409.58,236.29Zm1,.57.69.43,0,0A8,8,0,0,0,410.59,236.86Zm16.6,14.58c-2.7,7.53-14.35,4.52-12.44-3.4C416.75,239.72,429.27,243.13,427.19,251.44Zm12.44-23.58a9.5,9.5,0,0,1-2,10c-10.41,9.56-26.59-3.06-36.16-9.73.1-.44.2-.87.29-1.31a70.62,70.62,0,0,0,11.38,2c1.18.15,1.38-1.74.27-2a71.37,71.37,0,0,0-11.15-2.45c.08-.44.15-.88.23-1.32C413.87,220.54,433.48,215,439.63,227.86ZM420,172c.3,9.48-14.1,11.08-14.88,1.43S418.38,162.71,420,172Zm-6.89-8.74s0,0,0,0l.29.05Zm1.63.24.33.05v0Zm2.07,17.75-.24.09.23-.11Zm-1.59.61L415,182s0,0,0,0Zm-10.1,26.57c.87-9.62,15.18-8.08,14.88,1.42C418.38,219.13,404.24,218.06,405.11,208.43Zm9.83-8.5s0,0,0,0l.2.07Zm1.69.62.17.06v0Zm-1.57,17.76-.37.06.36-.09Zm-1.64.27-.31.06s0,0,0,0Zm8.92-8.45c.75-8.37,13.11-7,12.82,1.22C433.78,219.39,421.59,218.49,422.34,210.13Zm20.41-24.35a11,11,0,0,1,1.72,5.15,11.07,11.07,0,0,1-1.72,5.15c-8.31,11.36-26.89,2-37.34-2.54,0-.45,0-.9,0-1.35A68.56,68.56,0,0,0,416.8,192a1,1,0,0,0,0-2.08,69.66,69.66,0,0,0-11.37-.23c0-.44,0-.89,0-1.34C415.86,183.77,434.46,174.45,442.75,185.78Zm-7.59-15.27c.29,8.23-12.14,9.61-12.82,1.22S433.77,162.44,435.16,170.51Zm2.5-26.52a9.52,9.52,0,0,1,2,10c-6.14,12.85-25.79,7.31-37.11,4.83-.08-.44-.15-.88-.23-1.32a71.37,71.37,0,0,0,11.15-2.45c1.09-.3.93-2.2-.27-2.05a72.88,72.88,0,0,0-11.38,2c-.09-.43-.19-.87-.29-1.3C411.09,147,427.18,134.37,437.66,144Zm-28.07,1.6.41-.22-.39.25Zm1.37-.82.31-.22v0Zm16.23-14.36c2.07,8.3-10.44,11.74-12.44,3.41C412.84,125.9,424.49,122.88,427.19,130.41Zm-21.07-2.87s0,0,0,0l-.41,0Zm-2,.06.75,0c-.25,0-.5,0-.75.07Zm8.46,7.24c2.4,9.77-12.55,13.49-14.48,3.65C396.34,129.45,409.52,126.35,412.6,134.84Zm-19.66,9a3.46,3.46,0,0,1,4.29,1.54,3.39,3.39,0,1,1-4.29-1.54Zm-8.53-32.32h0c-.11-.19-.18-.39-.28-.58Zm-33.29-1.37a27.5,27.5,0,1,1,23,49.89c-14.35,5.94-29.54-1.17-35.93-14.83C333.38,131.85,338,116.82,351.12,110.13ZM330,116.27Zm.69,1a4.15,4.15,0,0,1,6,.84c2.56,4.28-3.24,8.91-6.56,4.94A4.1,4.1,0,0,1,330.64,117.31Zm-18-4.94a2.92,2.92,0,1,1,0,4.12A3,3,0,0,1,312.65,112.37Zm.88,8.62c4-4.54,10.94-1.27,13.67,2.55,2.09,2.91,3.26,5.62,2.36,9.17-1.46,5.83-6.39,6.43-11.6,5.39-.59-.12-1.18-.23-1.76-.32l-.35-.06a23.88,23.88,0,0,0-8.43,0,21.39,21.39,0,0,0,3.22-7.48C311.34,127.18,311.33,123.5,313.53,121Zm-9.18,16.32a19.3,19.3,0,0,1-11.79,6.4c-1.19-1.64-2.44-3.22-3.75-4.76,3.24-.88,6.71-2,9.13-4.38a11,11,0,0,0,2.4-3c2.18-4,1-8.11-2.06-11.16s-7.16-4.21-11.16-2.06a10.59,10.59,0,0,0-3,2.4c-2.34,2.41-3.49,5.86-4.36,9.08-1.54-1.32-3.12-2.58-4.76-3.78a19.29,19.29,0,0,1,6.3-11.66c7-4.71,18.23-3.1,27.31-4.34C307.4,119.13,309,130.33,304.35,137.31Zm2-35.36a2.91,2.91,0,1,1-4.12,0A2.95,2.95,0,0,1,306.35,102Zm-5.78-19.87a4.2,4.2,0,0,1,1.1,5.7,4.14,4.14,0,0,1-6,.86C291.7,85.3,296.28,79.51,300.57,82.08ZM284,89.67c4.09-1.84,7.8-.68,11.23,1.85,3.82,2.81,6.09,7.44,3.48,11.94-2.07,3.56-5.76,3.68-9.44,4.45a22.58,22.58,0,0,0-8.22,3.37,23.73,23.73,0,0,0-.2-9.67C280,97.45,279.08,91.87,284,89.67Zm-7.83-3.79a3,3,0,0,1,3.54-1.68,2.91,2.91,0,1,1-3.54,1.68Zm-5.07-.23c1.41.42,6.43,15,6.66,15.83a18.6,18.6,0,0,1-.23,12,19.34,19.34,0,0,1-7.84,8.92q-2.56-1.59-5.27-3c2.63-2,5.32-4.37,6.63-7.42.15-.3.26-.62.39-.94h0a10.41,10.41,0,0,0,.7-2.7,9,9,0,0,0-5.16-9.19c-3.78-1.88-8.07-2-11.28,1.1a10.21,10.21,0,0,0-2.46,3.78c-1.42,3.15-1.18,7-.75,10.4-.62-.2-1.24-.4-1.88-.59-1.31-.39-2.64-.73-4-1a20.21,20.21,0,0,1,.17-10.09,18.45,18.45,0,0,1,9-10.38C256.35,92,269.87,85.3,271.06,85.65Zm-8.54-5.41a2.9,2.9,0,0,1,3.79-1.57,2.94,2.94,0,0,1,1.58,3.8,3,3,0,0,1-3.53,1.67A2.93,2.93,0,0,1,262.52,80.24Zm-2.84-.62c1.55,4.69-2.05,7.9-5.5,10.2A26.26,26.26,0,0,0,246.47,97a23.11,23.11,0,0,0-3.8-8.76c-2-2.95-4.14-5.53-3.15-9.27,1.42-5.36,6.76-6.93,11.62-5.79C255,74.09,258.3,75.45,259.68,79.62Zm-7.91-9c-5.2-1-3.71-8.86,1.52-8.09C258.42,63.79,257,71.63,251.77,70.59Z"/><path class="cls-1" d="M450.91,191.83c.89.48,1.78,1,2.68,1.5q0-1.19,0-2.37l-.05,0,.05,0q0-1.18,0-2.37c-.9.51-1.79,1-2.68,1.5A1,1,0,0,0,450.91,191.83Z"/><path class="cls-1" d="M4.67,190c-.88-.48-1.78-1-2.68-1.5q0,1.18,0,2.37l0,0,0,0q0,1.18,0,2.37c.9-.51,1.8-1,2.68-1.5A1,1,0,0,0,4.67,190Z"/><path class="cls-1" d="M325.6,246.68a5.08,5.08,0,0,0-4.46-.37c-.06,0-.09.06-.14.08l-.11,0a11.55,11.55,0,0,0-6.22,9.42,5.23,5.23,0,0,0,1.79,3.91,4.36,4.36,0,0,0,4.41.43.5.5,0,0,0,.12-.08l.13,0a11.61,11.61,0,0,0,6.28-9.53A4.56,4.56,0,0,0,325.6,246.68Zm-5.43,11.54a2.39,2.39,0,0,1-2.45-.12,3.08,3.08,0,0,1-1-2.26,9.57,9.57,0,0,1,5.05-7.55,3.08,3.08,0,0,1,2.47,0,2.4,2.4,0,0,1,1,2.24A9.57,9.57,0,0,1,320.17,258.22Z"/><path class="cls-1" d="M130,135.18a5.11,5.11,0,0,0,4.46.37,1.48,1.48,0,0,0,.13-.08s.08,0,.12,0a11.54,11.54,0,0,0,6.21-9.43,5.25,5.25,0,0,0-1.78-3.9,4.38,4.38,0,0,0-4.42-.43l-.12.07s-.08,0-.13,0a11.6,11.6,0,0,0-6.27,9.53A4.52,4.52,0,0,0,130,135.18Zm5.42-11.54a2.39,2.39,0,0,1,2.46.12,3.12,3.12,0,0,1,1,2.25,9.58,9.58,0,0,1-5.06,7.56,3.05,3.05,0,0,1-2.46,0,2.37,2.37,0,0,1-1-2.23A9.56,9.56,0,0,1,135.41,123.64Z"/><path class="cls-1" d="M254.65,296.1l-.14,0a.6.6,0,0,0-.11-.06,11.66,11.66,0,0,0-11.08,2.26c-2.24,2.55-1.92,6,1.31,7.45,0,0,.08,0,.13,0l.12.07a11.62,11.62,0,0,0,11.19-2.29,4.56,4.56,0,0,0,1.46-3.95A5,5,0,0,0,254.65,296.1Zm-.06,5.95a9.66,9.66,0,0,1-9.07,1.78,2.45,2.45,0,0,1-1.59-1.59,2.91,2.91,0,0,1,.87-2.5,9.72,9.72,0,0,1,8.92-1.77,3.07,3.07,0,0,1,1.73,1.8A2.39,2.39,0,0,1,254.59,302.05Z"/><path class="cls-1" d="M336.44,161.19a5,5,0,0,0-3.48,2.89.58.58,0,0,0,0,.14s-.05.06-.07.1a11.69,11.69,0,0,0,2.27,11.08c2.55,2.24,6,1.92,7.44-1.31a.5.5,0,0,0,0-.13,1.25,1.25,0,0,0,.08-.12,11.63,11.63,0,0,0-2.3-11.19A4.54,4.54,0,0,0,336.44,161.19Zm4.25,12a2.45,2.45,0,0,1-1.59,1.59,2.92,2.92,0,0,1-2.5-.87,9.74,9.74,0,0,1-1.77-8.92,3.13,3.13,0,0,1,1.8-1.73,2.38,2.38,0,0,1,2.28.86A9.66,9.66,0,0,1,340.69,173.2Z"/><path class="cls-1" d="M200.94,85.76l.14,0s.06.06.11.07a11.67,11.67,0,0,0,11.07-2.27c2.24-2.54,1.92-6-1.3-7.44l-.13,0c-.05,0-.07-.06-.12-.07a11.59,11.59,0,0,0-11.19,2.29,4.56,4.56,0,0,0-1.47,4A5,5,0,0,0,200.94,85.76Zm.05-6A9.67,9.67,0,0,1,210.07,78a2.49,2.49,0,0,1,1.59,1.59,3,3,0,0,1-.87,2.5,9.74,9.74,0,0,1-8.93,1.77,3.08,3.08,0,0,1-1.72-1.8A2.4,2.4,0,0,1,201,79.81Z"/><path class="cls-1" d="M119.15,220.67a5,5,0,0,0,3.47-2.89c0-.05,0-.09,0-.14a1.05,1.05,0,0,0,.07-.11,11.67,11.67,0,0,0-2.27-11.07c-2.55-2.24-6-1.92-7.45,1.31,0,0,0,.08,0,.12s0,.08-.07.13a11.61,11.61,0,0,0,2.29,11.18A4.54,4.54,0,0,0,119.15,220.67Zm-4.26-12a2.49,2.49,0,0,1,1.6-1.59,2.94,2.94,0,0,1,2.49.87,9.74,9.74,0,0,1,1.77,8.93,3.05,3.05,0,0,1-1.8,1.72,2.4,2.4,0,0,1-2.28-.85A9.67,9.67,0,0,1,114.89,208.65Z"/><path class="cls-1" d="M172.33,284.14a.53.53,0,0,0,0-.12,11.53,11.53,0,0,0-9.42-6.21,5.27,5.27,0,0,0-3.91,1.78,4.4,4.4,0,0,0-.43,4.42.5.5,0,0,0,.08.12.79.79,0,0,0,0,.13,11.6,11.6,0,0,0,9.52,6.28,4.55,4.55,0,0,0,3.87-1.81,5,5,0,0,0,.37-4.46A1.48,1.48,0,0,0,172.33,284.14Zm-1.92,3.27a2.38,2.38,0,0,1-2.24,1,9.54,9.54,0,0,1-7.67-5.14,2.39,2.39,0,0,1,.12-2.45,3.09,3.09,0,0,1,2.26-1,9.61,9.61,0,0,1,7.56,5.06A3.09,3.09,0,0,1,170.41,287.41Z"/><path class="cls-1" d="M134.7,246.42l-.11,0-.14-.08a5.08,5.08,0,0,0-4.46.37,4.51,4.51,0,0,0-1.8,3.87,11.6,11.6,0,0,0,6.27,9.53l.13,0a.5.5,0,0,0,.12.08,4.38,4.38,0,0,0,4.42-.43,5.27,5.27,0,0,0,1.78-3.91A11.53,11.53,0,0,0,134.7,246.42Zm3.17,11.68a2.41,2.41,0,0,1-2.46.12,9.57,9.57,0,0,1-5.14-7.67,2.4,2.4,0,0,1,1-2.24,3.05,3.05,0,0,1,2.46,0,9.58,9.58,0,0,1,5.06,7.55A3.12,3.12,0,0,1,137.87,258.1Z"/><path class="cls-1" d="M112.91,173.84a1.27,1.27,0,0,0,.07.12s0,.09,0,.13c1.47,3.22,4.9,3.55,7.45,1.31a11.69,11.69,0,0,0,2.27-11.08s0-.06-.07-.1,0-.1,0-.14a5,5,0,0,0-3.47-2.89,4.56,4.56,0,0,0-4,1.46A11.62,11.62,0,0,0,112.91,173.84Zm3.76-9.71a2.41,2.41,0,0,1,2.28-.86,3.1,3.1,0,0,1,1.8,1.73,9.68,9.68,0,0,1-1.77,8.92,2.89,2.89,0,0,1-2.49.87,2.44,2.44,0,0,1-1.6-1.59A9.66,9.66,0,0,1,116.67,164.13Z"/><path class="cls-1" d="M158.62,97.73a.5.5,0,0,0-.08.12,4.36,4.36,0,0,0,.43,4.41,5.24,5.24,0,0,0,3.91,1.79,11.54,11.54,0,0,0,9.42-6.22.35.35,0,0,0,0-.11s.06-.08.08-.13a5.07,5.07,0,0,0-.37-4.47,4.56,4.56,0,0,0-3.87-1.8,11.58,11.58,0,0,0-9.52,6.28A.5.5,0,0,0,158.62,97.73Zm1.88.82a9.57,9.57,0,0,1,7.67-5.14,2.39,2.39,0,0,1,2.24,1,3.12,3.12,0,0,1,0,2.47,9.58,9.58,0,0,1-7.56,5,3,3,0,0,1-2.26-1A2.39,2.39,0,0,1,160.5,98.55Z"/><path class="cls-1" d="M283.26,97.72s0,.08,0,.11a11.55,11.55,0,0,0,9.43,6.22,5.22,5.22,0,0,0,3.9-1.79,4.36,4.36,0,0,0,.43-4.41s-.05-.08-.07-.12,0-.09,0-.13a11.63,11.63,0,0,0-9.53-6.28,4.58,4.58,0,0,0-3.87,1.8,5.1,5.1,0,0,0-.36,4.47S283.23,97.67,283.26,97.72Zm1.92-3.28a2.37,2.37,0,0,1,2.23-1,9.54,9.54,0,0,1,7.67,5.14A2.35,2.35,0,0,1,295,101a3,3,0,0,1-2.25,1,9.55,9.55,0,0,1-7.56-5A3.08,3.08,0,0,1,285.18,94.44Z"/><path class="cls-1" d="M320.89,135.44l.11,0c.05,0,.08.06.14.08a5.11,5.11,0,0,0,4.46-.37,4.56,4.56,0,0,0,1.8-3.87,11.61,11.61,0,0,0-6.28-9.53s-.08,0-.13,0l-.12-.07a4.36,4.36,0,0,0-4.41.43,5.26,5.26,0,0,0-1.79,3.9A11.55,11.55,0,0,0,320.89,135.44Zm-3.17-11.68a2.37,2.37,0,0,1,2.45-.12,9.58,9.58,0,0,1,5.15,7.67,2.37,2.37,0,0,1-1,2.23,3.08,3.08,0,0,1-2.47,0,9.57,9.57,0,0,1-5.05-7.56A3.08,3.08,0,0,1,317.72,123.76Z"/><path class="cls-1" d="M342.68,208c0-.05-.06-.08-.08-.13a.53.53,0,0,0,0-.12c-1.46-3.23-4.89-3.55-7.44-1.31a11.68,11.68,0,0,0-2.27,11.07,1.05,1.05,0,0,0,.07.11.7.7,0,0,0,0,.14,5,5,0,0,0,3.48,2.89,4.55,4.55,0,0,0,3.94-1.47A11.63,11.63,0,0,0,342.68,208Zm-3.77,9.71a2.4,2.4,0,0,1-2.28.85,3.08,3.08,0,0,1-1.8-1.72,9.76,9.76,0,0,1,1.77-8.93,3,3,0,0,1,2.5-.87,2.49,2.49,0,0,1,1.59,1.59A9.67,9.67,0,0,1,338.91,217.73Z"/><path class="cls-1" d="M297,284.13s.06-.07.07-.12a4.38,4.38,0,0,0-.43-4.42,5.25,5.25,0,0,0-3.9-1.78,11.54,11.54,0,0,0-9.43,6.21.5.5,0,0,0,0,.12.35.35,0,0,0-.08.13,5.07,5.07,0,0,0,.36,4.46,4.55,4.55,0,0,0,3.87,1.81,11.63,11.63,0,0,0,9.53-6.28C297,284.21,297,284.17,297,284.13Zm-1.89-.82a9.54,9.54,0,0,1-7.67,5.14,2.36,2.36,0,0,1-2.23-1,3.05,3.05,0,0,1,0-2.46,9.58,9.58,0,0,1,7.56-5.06,3.09,3.09,0,0,1,2.25,1A2.35,2.35,0,0,1,295.08,283.31Z"/><path class="cls-1" d="M201.19,296c-.05,0-.07,0-.11.06l-.14,0a5,5,0,0,0-2.89,3.47,4.56,4.56,0,0,0,1.47,3.95,11.62,11.62,0,0,0,11.19,2.29l.12-.07s.08,0,.13,0c3.22-1.46,3.54-4.9,1.3-7.45A11.64,11.64,0,0,0,201.19,296Zm10.47,6.24a2.47,2.47,0,0,1-1.59,1.59,9.67,9.67,0,0,1-9.08-1.78,2.4,2.4,0,0,1-.85-2.28,3.05,3.05,0,0,1,1.72-1.8,9.7,9.7,0,0,1,8.93,1.77A3,3,0,0,1,211.66,302.24Z"/><path class="cls-1" d="M244.88,76.05s-.08,0-.12.07a.5.5,0,0,0-.13,0c-3.22,1.46-3.55,4.89-1.31,7.44a11.69,11.69,0,0,0,11.08,2.27s.07,0,.11-.07l.14,0a5,5,0,0,0,2.88-3.47,4.56,4.56,0,0,0-1.46-4A11.62,11.62,0,0,0,244.88,76.05Zm10.57,6a3.1,3.1,0,0,1-1.73,1.8,9.72,9.72,0,0,1-8.92-1.77,2.92,2.92,0,0,1-.87-2.5A2.45,2.45,0,0,1,245.52,78a9.66,9.66,0,0,1,9.07,1.78A2.4,2.4,0,0,1,255.45,82.09Z"/><path class="cls-1" d="M227.79,314.82c-12.59.64-23.16,10.08-23.16,23.17A23.16,23.16,0,0,0,251,338C251,324.91,240.38,315.46,227.79,314.82Zm11.11,6.67c0,2.34-3.48,2.32-3.61,0C235.42,319.18,238.9,319.16,238.9,321.49Zm-18.61,0c-.12,2.31-3.61,2.34-3.61,0S220.17,319.18,220.29,321.49Zm-9.28,4c.23-.3.49-.59.74-.88a4,4,0,0,1,2.53-1c5.16.28,5.21,8.08,0,8.08C210.63,331.66,209.56,327.86,211,325.47Zm6.51,9.31v.07l0-.05ZM212,332.83c6.6.35,6.66,10.31,0,10.31S205.37,333.19,212,332.83Zm-.37,18.47c-.26-.31-.5-.62-.74-.94a4.14,4.14,0,0,1,3.41-6.15c5.16.28,5.21,8.07,0,8.07A3.81,3.81,0,0,1,211.61,351.3Zm5.07,3.25c0-2.33,3.49-2.31,3.61,0C220.17,356.86,216.68,356.88,216.68,354.55Zm11.11,4.31c-7.62,0-8.47-16.09-8.54-20.87s.92-20.87,8.54-20.87,8.47,16.08,8.54,20.87S235.41,358.86,227.79,358.86Zm7.5-4.31c.13-2.31,3.61-2.33,3.61,0S235.42,356.86,235.29,354.55Zm9.43-4.22c-.22.31-.44.62-.69.92a3.78,3.78,0,0,1-2.72,1c-5.22,0-5.17-7.79,0-8.07A4.14,4.14,0,0,1,244.72,350.33Zm-6.65-15.55,0,0,0,0Zm5.54,8.36c-6.66,0-6.61-9.95,0-10.31C250.21,333.18,250.27,343.14,243.61,343.14Zm.72-18c1.79,2.34.81,6.54-3,6.54-5.22,0-5.17-7.8,0-8.08a4,4,0,0,1,2.86,1.33Z"/><path class="cls-1" d="M180.51,305.46l-.13,0-.12-.07c-11.8-4.2-25.09.57-30.09,12.48l2.22.46a5.24,5.24,0,0,1,6.49-2.31,5.38,5.38,0,0,1,3.17,4.91c.8.26,1.6.51,2.39.78,2.56-5.6,7.39-14.61,13.58-14.32,8.14.37,4.09,15.11,2,21.17.7.39,1.41.77,2.1,1.17a5.15,5.15,0,0,1,9,4.64,4.82,4.82,0,0,1-.36.87c.61.43,1.22.86,1.81,1.3.12-.24.23-.47.33-.72C197.92,323.76,191.89,310.86,180.51,305.46ZM163.22,320a.11.11,0,0,0,0-.05h0Zm3.64-6.74a4,4,0,1,1-6.66-4.06c.51-.32,1-.62,1.56-.89a4.49,4.49,0,0,1,2.78.06A4.13,4.13,0,0,1,166.86,313.21Zm4-4.53a1.85,1.85,0,0,1-2.19,1,1.81,1.81,0,0,1-1.13-2.41,1.79,1.79,0,0,1,2.34-1A1.82,1.82,0,0,1,170.89,308.68Zm11.3,19.17,0-.1,0,0Zm2.58-13.42a1.83,1.83,0,0,1,2.19-1,1.8,1.8,0,1,1-2.19,1Zm7.06,9.13a4,4,0,1,1-7.57-2.71,4.09,4.09,0,0,1,5.26-2.19,4.58,4.58,0,0,1,2,1.92c.17.52.32,1.05.44,1.59A4,4,0,0,1,191.83,323.56Z"/><path class="cls-1" d="M140.18,278.54c-9.25-8.54-23.44-9.14-32.65-.09H117.6a4,4,0,0,1,1.12-3.28,4.16,4.16,0,0,1,1.56-.94c.49-.08,1-.16,1.48-.2a4.34,4.34,0,0,1,2.67,1.14,4,4,0,0,1-4.81,6.36v5.62c4.42-4,13.08-10.71,18-7.73a4.88,4.88,0,0,1,1.69,1.69c3.49,5.74-6.31,16.61-9.45,19.84a55.46,55.46,0,0,1-10.23,8v2.84a1.72,1.72,0,0,1,.33,2.73,2.73,2.73,0,0,1-.33.28v1.07c4.28,0,6-.09,9.09-.09,1.65,0,3.27.05,4.9.12a22.67,22.67,0,0,0,6.57-4.57C149.37,302.11,148.73,287.8,140.18,278.54Zm-10-.59c-1.71,1.55-4.2-.9-2.56-2.56S131.72,276.23,130.17,278Zm10.6,10.6c1.72-1.55,4.2.9,2.56,2.56S139.22,290.27,140.77,288.55Zm-2.93,5.74a4.09,4.09,0,0,1,5.71,0,4.27,4.27,0,0,1,1.14,2.71c0,.46-.11.92-.18,1.38a4,4,0,0,1-1,1.62,4,4,0,0,1-5.71-5.71Zm-4.5,5.63a0,0,0,0,0,0,0l-.06,0ZM129,314.58a3.85,3.85,0,0,1-2,1.07l-.31.05a4,4,0,0,1-3.39-6.83,4,4,0,0,1,5.7,5.71Zm9.68-4.84a5.15,5.15,0,1,1,0-7.29A5.2,5.2,0,0,1,138.64,309.74Z"/><path class="cls-1" d="M113.3,238.34s0-.08,0-.13c-5.4-11.38-18.31-17.4-30.32-12.34a23.15,23.15,0,0,0,17.73,42.78c12.09-4.93,16.93-18.32,12.7-30.19C113.35,238.41,113.32,238.39,113.3,238.34Zm-10.38-7.71a1.8,1.8,0,1,1,1.37,3.32,1.8,1.8,0,1,1-1.37-3.32ZM94.8,227a3.86,3.86,0,0,1,1.6-.31,16.3,16.3,0,0,1,1.73.47,4.53,4.53,0,0,1,1.93,2,4.12,4.12,0,0,1-1.83,5.1A4,4,0,1,1,94.8,227Zm-10.88.81a5.21,5.21,0,0,1,6.72,2.77,5.27,5.27,0,0,1-2.33,6.52,5.14,5.14,0,1,1-4.39-9.29Zm7,8.65-.09,0,.05-.07Zm-17.4.6c.16-.29.34-.58.52-.87a4,4,0,0,1,1.65-1.3A4.08,4.08,0,0,1,81,237.1a4.13,4.13,0,0,1-1.82,5.11,4.06,4.06,0,0,1-5.62-2A4,4,0,0,1,73.57,237.1Zm-2.1,8.69a1.8,1.8,0,1,1,2.28.81A1.82,1.82,0,0,1,71.47,245.79Zm9.4,18a1.79,1.79,0,0,1-2.34-1,1.82,1.82,0,0,1,1-2.35,1.85,1.85,0,0,1,2.29.82A1.81,1.81,0,0,1,80.87,263.8Zm8.65,3.38a3.86,3.86,0,0,1-3,.28l-.3-.09a4,4,0,0,1-.11-7.46,4,4,0,0,1,3.43,7.27Zm-17-13.47c-.31-6.92,11-12.14,16.15-14.39,4.47-1.75,22.33-7.59,22.74,1.38.32,6.92-11,12.15-16.14,14.39C90.76,256.84,72.9,262.68,72.48,253.71Zm26.34,1.77v0h-.06Zm1.59,10.89a5.14,5.14,0,1,1,2.33-6.52A5.26,5.26,0,0,1,100.41,266.37Zm10.07-9.4q-.37.73-.81,1.44a4.13,4.13,0,0,1-1.09.88,4,4,0,1,1,1.82-5.11A4.53,4.53,0,0,1,110.48,257Zm.93-5.82a1.79,1.79,0,0,1-2.34-1,1.82,1.82,0,0,1,1-2.35,1.84,1.84,0,0,1,2.28.82A1.81,1.81,0,0,1,111.41,251.15Z"/><path class="cls-1" d="M80.74,167.77a23.16,23.16,0,1,0,0,46.32c13.07,0,22.52-10.57,23.16-23.16C103.26,178.34,93.82,167.77,80.74,167.77Zm16.49,12c2.33,0,2.31,3.48,0,3.61C94.92,183.3,94.9,179.82,97.23,179.82Zm-4-5.68c.3.24.59.5.89.75a4,4,0,0,1,1,2.52c-.28,5.17-8.08,5.22-8.08,0C87.06,173.77,90.86,172.7,93.25,174.14Zm-7.36,1c-.35,6.6-10.31,6.66-10.31,0S85.54,168.51,85.89,175.11Zm-2,5.55h-.07l0,0Zm-16.52-5.92c.31-.25.62-.5.94-.73a4.14,4.14,0,0,1,6.15,3.4c-.28,5.17-8.07,5.22-8.07,0A3.81,3.81,0,0,1,67.42,174.74Zm-3.25,5.08c2.34,0,2.32,3.48,0,3.61C61.86,183.3,61.84,179.82,64.17,179.82Zm0,22.22c-2.33,0-2.31-3.49,0-3.61C66.48,198.55,66.51,202,64.17,202Zm4.22,5.82c-.31-.23-.62-.45-.91-.69a3.75,3.75,0,0,1-1-2.72c0-5.22,7.79-5.18,8.07,0A4.14,4.14,0,0,1,68.39,207.86Zm7.19-1.11c0-6.67,10-6.61,10.31,0C85.54,213.35,75.58,213.41,75.58,206.75Zm8.3-5.54h.06l0,0Zm9.93,6.1-.21.16c-2.34,1.78-6.54.8-6.54-3,0-5.22,7.8-5.18,8.08,0A4,4,0,0,1,93.81,207.31ZM97.23,202c-2.33,0-2.31-3.49,0-3.61C99.54,198.55,99.56,202,97.23,202Zm-16.49-2.57c-4.75-.07-20.87-.92-20.87-8.54s16.08-8.47,20.87-8.54,20.86.92,20.86,8.54S85.52,199.4,80.74,199.47Z"/><path class="cls-1" d="M82.94,156c12,5.07,24.92-1,30.32-12.35,0,0,0-.08,0-.12s0-.08.07-.13c4.23-11.86-.63-25.25-12.7-30.18A23.15,23.15,0,0,0,82.94,156Zm7.69-4.75a5.24,5.24,0,0,1-6.24,3,5.14,5.14,0,1,1,6.24-3Zm.3-5.84-.06-.07.1,0S90.94,145.38,90.93,145.4Zm9.13,7.25a4.53,4.53,0,0,1-1.92,2q-.78.26-1.59.45a3.88,3.88,0,0,1-1.38-.15,4,4,0,1,1,2.7-7.58A4.09,4.09,0,0,1,100.06,152.65Zm5.27-2.56a1.8,1.8,0,1,1-1-2.18A1.82,1.82,0,0,1,105.33,150.09Zm6.08-19.39A1.8,1.8,0,1,1,110,134a1.8,1.8,0,1,1,1.37-3.32Zm-3.2-8.28a3.89,3.89,0,0,1,1.36.92,17,17,0,0,1,.89,1.56,4.49,4.49,0,0,1-.06,2.78,4.13,4.13,0,0,1-4.89,2.32,4,4,0,1,1,2.7-7.58Zm-15-4.34a5.12,5.12,0,0,1,6.7-2.78,5.21,5.21,0,0,1,2.8,6.71,5.27,5.27,0,0,1-6.25,3A5.17,5.17,0,0,1,93.24,118.08Zm5.58,8.3,0,0h0ZM83.91,116.7a4,4,0,0,1,2.19-2.18c.32-.09.65-.17,1-.24a3.89,3.89,0,0,1,2.09.25,4,4,0,1,1-5.25,2.17Zm-5.45,2.49a1.82,1.82,0,0,1,2.41-1.14,1.8,1.8,0,0,1,1,2.35,1.82,1.82,0,0,1-2.35,1A1.84,1.84,0,0,1,78.46,119.19Zm16.77,7.58c5.17,2.24,16.46,7.47,16.14,14.38-.41,9-18.27,3.14-22.74,1.39-5.17-2.25-16.46-7.47-16.15-14.39C72.9,119.17,90.76,125,95.23,126.77Zm-22.85,11.8a1.79,1.79,0,0,1-1-2.34,1.8,1.8,0,1,1,1,2.34Zm1.39,6.58-.15-.29a4.08,4.08,0,0,1-.06-3.18,4,4,0,0,1,5.25-2.18A4.08,4.08,0,0,1,81,144.76a4.13,4.13,0,0,1-4.89,2.32A4,4,0,0,1,73.77,145.15Z"/><path class="cls-1" d="M140.18,103.32c8.57-9.29,9.15-23.54,0-32.75A22.32,22.32,0,0,0,133.63,66c-1.63.07-3.27.11-4.92.11-3.07,0-4.81-.08-9.09-.08V67.1a3.92,3.92,0,0,1,.33.27,1.72,1.72,0,0,1-.33,2.74V73a55.66,55.66,0,0,1,10.23,8C133,84.12,142.79,95,139.3,100.75a5.42,5.42,0,0,1-.74,1,5.07,5.07,0,0,1-.95.74c-4.91,3-13.56-3.75-18-7.73v5.62a4,4,0,0,1,4.81,6.36,4.31,4.31,0,0,1-2.71,1.14c-.46,0-.92-.11-1.38-.18a4,4,0,0,1-1.62-1,4.06,4.06,0,0,1-1.12-3.28H107.53C116.71,112.5,131,111.84,140.18,103.32Zm.59-10c-1.55-1.71.9-4.2,2.56-2.55S142.49,94.86,140.77,93.3ZM129,73a4,4,0,1,1,0-5.71A4.08,4.08,0,0,1,129,73Zm4.38,9,0,0,0,0A0,0,0,0,0,133.34,81.94Zm-2-2.53a5.16,5.16,0,1,1,7.29,0A5.21,5.21,0,0,1,131.35,79.41Zm6.49,8.16a4,4,0,1,1,6.65-4.16c.08.5.16,1,.2,1.49a4.25,4.25,0,0,1-1.14,2.67A4.1,4.1,0,0,1,137.84,87.57Zm-7.67,16.34c1.55,1.71-.9,4.2-2.56,2.55S128.45,102.35,130.17,103.91Z"/><path class="cls-1" d="M180.26,76.51a.5.5,0,0,0,.12-.08l.13,0c11.38-5.4,17.4-18.31,12.34-30.32-.1-.25-.21-.49-.32-.73-.61.45-1.22.89-1.84,1.32.06.13.13.25.18.38a5.2,5.2,0,0,1-2.77,6.72,5.33,5.33,0,0,1-6-1.59c-.69.39-1.39.77-2.09,1.15,2.13,6.07,6.18,20.81-2,21.18-6.19.28-11-8.72-13.58-14.33-.8.28-1.6.54-2.4.79a5.41,5.41,0,0,1-3.17,4.91,5.25,5.25,0,0,1-6.5-2.31l-2.2.46C155.17,76,168.46,80.71,180.26,76.51Zm2-22.4,0-.1.07.06A.08.08,0,0,0,182.22,54.11Zm4.89,14.3a1.82,1.82,0,0,1-2.34-1,1.84,1.84,0,0,1,.82-2.29,1.8,1.8,0,1,1,1.52,3.27Zm-.67-12.65a4,4,0,0,1,5.24,2.18,3.86,3.86,0,0,1,.31,1.6,17.71,17.71,0,0,1-.47,1.73,4.46,4.46,0,0,1-2,1.92,4.1,4.1,0,0,1-5.1-1.82A4,4,0,0,1,186.44,55.76ZM168.55,72.2a1.82,1.82,0,0,1,2.34,1,1.84,1.84,0,0,1-.82,2.29,1.82,1.82,0,0,1-2.5-.92A1.8,1.8,0,0,1,168.55,72.2Zm-5.33-10.3,0,.06h0A.11.11,0,0,1,163.22,61.9Zm-1.76,4.2a4,4,0,0,1,5.25,2.18,4.08,4.08,0,0,1-2.17,5.26,4.6,4.6,0,0,1-2.79.08q-.74-.37-1.44-.81a4,4,0,0,1,1.15-6.71Z"/><path class="cls-1" d="M204.63,43.87C204.63,57,215.2,66.4,227.79,67,240.39,66.4,251,57,251,43.87a23.16,23.16,0,0,0-46.32,0Zm15.66-16.56c-.12,2.31-3.61,2.33-3.61,0S220.17,25,220.29,27.31Zm-9.43,4.22c.23-.31.45-.62.69-.92a3.8,3.8,0,0,1,2.73-1c5.21,0,5.17,7.8,0,8.08A4.14,4.14,0,0,1,210.86,31.53Zm6.66,15.54h0l0-.05ZM212,38.72c6.66,0,6.6,10,0,10.31C205.37,48.67,205.31,38.72,212,38.72ZM211.42,57l-.17-.21c-1.78-2.35-.8-6.54,3-6.54,5.21,0,5.17,7.8,0,8.07A3.92,3.92,0,0,1,211.42,57Zm5.26,3.42c0-2.34,3.49-2.32,3.61,0C220.17,62.68,216.68,62.7,216.68,60.37Zm18.61,0c.13-2.32,3.61-2.34,3.61,0S235.42,62.68,235.29,60.37Zm9.29-4c-.24.31-.49.6-.75.89a4,4,0,0,1-2.52,1c-5.17-.27-5.22-8.07,0-8.07C245,50.2,246,54,244.58,56.38Zm-6.52-9.31a.13.13,0,0,0,0-.06l0,.05Zm5.55,2c-6.6-.36-6.66-10.31,0-10.31S250.22,48.67,243.61,49ZM244,30.56c.25.31.5.62.73.94a4.14,4.14,0,0,1-3.4,6.15c-5.17-.28-5.22-8.08,0-8.08A3.82,3.82,0,0,1,244,30.56Zm-5.08-3.25c0,2.33-3.48,2.31-3.61,0C235.42,25,238.9,25,238.9,27.31Zm-2.57,16.56c-.07,4.75-.92,20.87-8.54,20.87s-8.47-16.08-8.54-20.87S220.17,23,227.79,23,236.26,39.09,236.33,43.87Z"/><path class="cls-1" d="M275.08,76.4a.5.5,0,0,0,.13,0,.5.5,0,0,0,.12.08c11.79,4.2,25.09-.58,30.08-12.48l-2.22-.46a5.24,5.24,0,0,1-6.48,2.31A5.37,5.37,0,0,1,293.54,61c-.8-.26-1.6-.51-2.4-.79-2.55,5.61-7.39,14.61-13.57,14.33-8.15-.37-4.09-15.11-2-21.18-.71-.38-1.41-.76-2.11-1.16a5.33,5.33,0,0,1-6,1.6,5.26,5.26,0,0,1-3-6.25,5.45,5.45,0,0,1,.35-.87c-.61-.42-1.21-.85-1.81-1.3l-.33.73C257.66,58.1,263.69,71,275.08,76.4Zm17.29-14.5V62h0Zm-3.64,6.75a4,4,0,1,1,7.57,2.7,4.11,4.11,0,0,1-.91,1.36c-.51.32-1,.62-1.57.89a4.49,4.49,0,0,1-2.78-.06A4.11,4.11,0,0,1,288.73,68.65Zm-4,4.53A1.8,1.8,0,1,1,288,74.55a1.8,1.8,0,0,1-2.35,1A1.82,1.82,0,0,1,284.7,73.18ZM273.39,54l0,.1,0,0Zm-2.57,13.42a1.85,1.85,0,0,1-2.19,1,1.81,1.81,0,0,1-1.13-2.41,1.79,1.79,0,0,1,2.34-1A1.82,1.82,0,0,1,270.82,67.43Zm-7.07-9.13a4,4,0,1,1,2.32,4.89,4.51,4.51,0,0,1-2-1.91q-.26-.78-.45-1.59A4,4,0,0,1,263.75,58.3Z"/><path class="cls-1" d="M315.4,103.32c9.26,8.54,23.44,9.14,32.66.09H338a3.91,3.91,0,0,1-2.68,4.22c-.49.08-1,.15-1.49.2a4.38,4.38,0,0,1-2.67-1.14,4,4,0,0,1,4.82-6.36V94.71c-4.42,4-13.09,10.71-18,7.73a4.88,4.88,0,0,1-1.69-1.69c-3.49-5.75,6.32-16.61,9.46-19.85A55.92,55.92,0,0,1,336,73V70.11a1.72,1.72,0,0,1-.34-2.74,2.88,2.88,0,0,1,.34-.27V66c-4.28,0-6,.08-9.1.08-1.64,0-3.27,0-4.89-.11a22.52,22.52,0,0,0-6.58,4.57C306.22,79.75,306.86,94.06,315.4,103.32Zm10,.59c1.71-1.56,4.2.9,2.55,2.55S323.86,105.62,325.42,103.91ZM314.81,93.3c-1.71,1.56-4.2-.89-2.55-2.55S316.37,91.59,314.81,93.3Zm2.94-5.73a4.1,4.1,0,0,1-5.71,0,4.34,4.34,0,0,1-1.15-2.71c0-.46.11-.92.18-1.38a3.84,3.84,0,0,1,1-1.62,4,4,0,0,1,5.71,5.71Zm4.5-5.63,0,0,.06,0Zm4.37-14.66a4,4,0,0,1,2-1.08l.31,0a4,4,0,0,1,3.39,1.12,4,4,0,1,1-5.71,0ZM317,72.11a5.16,5.16,0,1,1,0,7.3A5.22,5.22,0,0,1,317,72.11Z"/><path class="cls-1" d="M342.29,143.52a.53.53,0,0,0,0,.12c5.4,11.39,18.31,17.41,30.33,12.35a23.16,23.16,0,0,0-17.74-42.78c-12.08,4.92-16.92,18.31-12.69,30.18C342.23,143.44,342.27,143.47,342.29,143.52Zm10.37,7.71a1.8,1.8,0,0,1-1.37-3.33,1.85,1.85,0,0,1,2.29.82A1.82,1.82,0,0,1,352.66,151.23Zm8.13,3.59a4.07,4.07,0,0,1-1.61.31c-.58-.13-1.16-.29-1.73-.47a4.56,4.56,0,0,1-1.92-2,4.13,4.13,0,0,1,1.82-5.11,4,4,0,1,1,3.44,7.28Zm10.88-.81a5.14,5.14,0,0,1-4.39-9.29,5.14,5.14,0,1,1,4.39,9.29Zm-7.05-8.65.09,0-.06.06Zm17.4-.6-.52.87a4,4,0,0,1-6.92-.88,4.12,4.12,0,0,1,1.83-5.1,4,4,0,0,1,5.61,5.11Zm2.1-8.69a1.8,1.8,0,1,1-2.28-.82A1.84,1.84,0,0,1,384.12,136.07Zm-9.41-18a1.82,1.82,0,0,1,2.35,1,1.8,1.8,0,1,1-2.35-1Zm-8.65-3.37a3.88,3.88,0,0,1,3-.28l.3.09a4,4,0,1,1-5.15,5.29A4.11,4.11,0,0,1,366.06,114.68Zm17,13.47c.32,6.92-11,12.14-16.15,14.39-4.47,1.75-22.33,7.59-22.74-1.39-.32-6.91,11-12.14,16.15-14.38C364.83,125,382.69,119.17,383.1,128.15Zm-26.33-1.77v0h.05Zm-1.6-10.89a5.19,5.19,0,0,1,7.18,2.59,5.13,5.13,0,0,1-2.79,6.7,5.2,5.2,0,0,1-6.72-2.77A5.26,5.26,0,0,1,355.17,115.49Zm-10.06,9.4c.24-.49.51-1,.8-1.44a4,4,0,1,1,4.53,6.39,4.07,4.07,0,0,1-5.26-2.17A4.49,4.49,0,0,1,345.11,124.89Zm-.94,5.81a1.82,1.82,0,0,1,2.35,1,1.8,1.8,0,1,1-2.35-1Z"/><path class="cls-1" d="M374.85,214.09a23.16,23.16,0,0,0,0-46.32c-13.08,0-22.53,10.57-23.16,23.16C352.32,203.52,361.77,214.09,374.85,214.09ZM358.36,202c-2.34,0-2.32-3.49,0-3.61C360.67,198.55,360.69,202,358.36,202Zm4,5.67c-.31-.23-.6-.49-.89-.74a4,4,0,0,1-1-2.52c.28-5.17,8.07-5.22,8.07,0C368.52,208.09,364.73,209.16,362.34,207.71Zm7.35-1c.36-6.6,10.32-6.67,10.32,0S370.05,213.35,369.69,206.75Zm2-5.55h.07l-.06,0S371.65,201.21,371.65,201.2Zm16.51,5.92-.94.73a4.14,4.14,0,0,1-6.15-3.4c.28-5.17,8.08-5.22,8.08,0A3.77,3.77,0,0,1,388.16,207.12Zm3.25-5.08c-2.33,0-2.31-3.49,0-3.61C393.73,198.55,393.75,202,391.41,202Zm0-22.22c2.34,0,2.32,3.48,0,3.61C389.1,183.3,389.08,179.82,391.41,179.82ZM387.2,174c.3.23.62.45.91.69a3.79,3.79,0,0,1,1,2.72c0,5.22-7.8,5.17-8.08,0A4.15,4.15,0,0,1,387.2,174ZM380,175.11c0,6.66-10,6.61-10.32,0C370.05,168.51,380,168.45,380,175.11Zm-8.3,5.54h-.06s0,0,0,0Zm-9.93-6.1.2-.16c2.35-1.79,6.54-.81,6.54,3,0,5.22-7.79,5.17-8.07,0A3.94,3.94,0,0,1,361.78,174.55Zm-3.42,5.27c2.33,0,2.31,3.48,0,3.61C356,183.3,356,179.82,358.36,179.82Zm16.49,2.57c4.75.07,20.87.92,20.87,8.54s-16.09,8.47-20.87,8.54S354,198.55,354,190.93,370.07,182.46,374.85,182.39Z"/><path class="cls-1" d="M372.65,225.87c-12-5.07-24.93,1-30.33,12.34a.79.79,0,0,0,0,.13s-.06.07-.07.12c-4.23,11.87.62,25.26,12.69,30.19a23.16,23.16,0,0,0,17.74-42.78Zm-7.7,4.75a5.26,5.26,0,0,1,6.25-3,5.14,5.14,0,1,1-3.45,9.68A5.22,5.22,0,0,1,365,230.62Zm-.29,5.84a.18.18,0,0,0,0,.07l-.09,0Zm-9.13-7.25a4.59,4.59,0,0,1,1.91-2c.53-.17,1.06-.32,1.59-.44a3.93,3.93,0,0,1,1.39.15,4,4,0,1,1-4.89,2.32Zm-5.28,2.56a1.8,1.8,0,1,1,1,2.18A1.84,1.84,0,0,1,350.25,231.77Zm-6.08,19.38a1.8,1.8,0,0,1-1-2.34,1.8,1.8,0,1,1,1,2.34Zm3.2,8.29a4,4,0,0,1-1.36-.92c-.32-.51-.62-1-.89-1.56a4.56,4.56,0,0,1,.06-2.78,4.14,4.14,0,0,1,4.9-2.32,4,4,0,1,1-2.71,7.58Zm15,4.34a5.15,5.15,0,0,1-6.71,2.78,5.22,5.22,0,0,1-2.8-6.72,5.27,5.27,0,0,1,6.25-3A5.19,5.19,0,0,1,362.35,263.78Zm-5.58-8.3.05,0h-.05Zm14.91,9.67a4,4,0,0,1-2.2,2.18c-.32.1-.64.17-1,.25a3.85,3.85,0,0,1-2.08-.25,4,4,0,1,1,5.25-2.18Zm5.44-2.48a1.8,1.8,0,1,1-1-2.19A1.83,1.83,0,0,1,377.12,262.67Zm-16.76-7.58c-5.18-2.24-16.47-7.47-16.15-14.39.41-9,18.27-3.13,22.74-1.38,5.18,2.25,16.47,7.47,16.15,14.39C382.69,262.68,364.83,256.84,360.36,255.09Zm22.84-11.81a1.8,1.8,0,0,1,1,2.35,1.82,1.82,0,0,1-2.35,1,1.8,1.8,0,1,1,1.37-3.32Zm-1.39-6.57.15.29a4,4,0,0,1-5.19,5.36,4,4,0,0,1,2.71-7.58A3.88,3.88,0,0,1,381.81,236.71Z"/><path class="cls-1" d="M315.4,278.54c-8.57,9.28-9.14,23.54,0,32.75a22.23,22.23,0,0,0,6.56,4.57c1.63-.07,3.26-.12,4.91-.12,3.07,0,4.82.09,9.1.09v-1.08a1.68,1.68,0,0,1-.34-.27,1.71,1.71,0,0,1,.34-2.73v-2.84a55.37,55.37,0,0,1-10.23-8c-3.12-3.21-12.94-14.1-9.46-19.84a5.07,5.07,0,0,1,.74-.95,5.42,5.42,0,0,1,1-.74c4.91-3,13.57,3.75,18,7.73v-5.62a4,4,0,0,1-4.82-6.36,4.33,4.33,0,0,1,2.71-1.14c.47,0,.92.11,1.38.18a3.92,3.92,0,0,1,1.62,1,4.05,4.05,0,0,1,1.13,3.28h10.07C338.87,269.36,324.63,270,315.4,278.54Zm-.59,10c1.56,1.72-.9,4.2-2.55,2.56S313.1,287,314.81,288.55Zm11.81,20.32a4,4,0,1,1,0,5.71A4.1,4.1,0,0,1,326.62,308.87Zm-4.37-8.95,0,0h-.05A0,0,0,0,1,322.25,299.92Zm2,2.53a5.15,5.15,0,1,1-7.29,0A5.2,5.2,0,0,1,324.24,302.45Zm-6.49-8.16A4,4,0,0,1,312,300a4,4,0,0,1-1-1.55c-.07-.5-.15-1-.19-1.49a4.23,4.23,0,0,1,1.14-2.67A4.1,4.1,0,0,1,317.75,294.29ZM325.42,278c-1.56-1.71.9-4.2,2.55-2.56S327.13,279.5,325.42,278Z"/><path class="cls-1" d="M275.33,305.35l-.12.07-.13,0c-11.39,5.4-17.4,18.31-12.35,30.32.11.25.22.48.33.72.6-.44,1.22-.88,1.83-1.31l-.18-.38a5.21,5.21,0,0,1,2.78-6.72,5.3,5.3,0,0,1,6,1.59c.69-.4,1.39-.78,2.1-1.16-2.13-6.06-6.19-20.8,2-21.17,6.18-.29,11,8.72,13.57,14.32l2.41-.79a5.37,5.37,0,0,1,3.16-4.9,5.27,5.27,0,0,1,6.51,2.31c.72-.16,1.46-.32,2.19-.46C300.42,305.91,287.12,301.15,275.33,305.35Zm-2,22.4,0,.1-.06-.06Zm-4.89-14.3a1.8,1.8,0,0,1,1.53,3.26,1.8,1.8,0,1,1-1.53-3.26Zm.68,12.65a4,4,0,0,1-5.56-3.78c.14-.59.29-1.16.47-1.73a4.58,4.58,0,0,1,2-1.93,4.13,4.13,0,0,1,5.11,1.83A4.05,4.05,0,0,1,269.15,326.1ZM287,309.66a1.82,1.82,0,0,1-2.34-1,1.85,1.85,0,0,1,.81-2.29,1.81,1.81,0,1,1,1.53,3.27Zm5.33,10.3,0-.06h0Zm1.75-4.2a4,4,0,0,1-5.24-2.18,4.08,4.08,0,0,1,2.17-5.26,4.49,4.49,0,0,1,2.78-.08c.49.25,1,.52,1.45.81a4.31,4.31,0,0,1,.87,1.09A4,4,0,0,1,294.12,315.76Z"/><path class="cls-1" d="M227.79,327.41c-4.29,0-4.83,7.75-4.87,10.58s.58,10.58,4.87,10.58,4.83-7.75,4.87-10.58S232.08,327.4,227.79,327.41Zm0,2.35c2.53.13,2.55,3.94,0,3.94S225.27,329.89,227.79,329.76Zm0,16.7c-2.54,0-2.52-3.81,0-3.94C230.32,342.65,230.34,346.46,227.79,346.46Zm0-5.45c-3.9,0-3.87-5.84,0-6.05C231.66,335.17,231.7,341,227.79,341Z"/><path class="cls-1" d="M175.61,317.06l-.25-.11h0c-3.15-1-5.86,3.05-7.39,6,.85.33,1.69.68,2.53,1a2.94,2.94,0,0,1,3.81,1.68c.8.37,1.59.75,2.38,1.14C177.7,323.59,178.76,318.35,175.61,317.06Zm.19,4.53a2,2,0,0,1-2.64,1.23,2,2,0,0,1-1.06-2.56,2,2,0,0,1,2.56-1.06A2,2,0,0,1,175.8,321.59Z"/><path class="cls-1" d="M101.78,243.38h0a3.13,3.13,0,0,0-.15-.32c-1.65-3.74-9-1.34-11.48-.36a.18.18,0,0,0-.07,0H90c-2.6,1.13-9.14,4.38-7.91,8.29h0a3.13,3.13,0,0,0,.15.32c1.65,3.74,9,1.34,11.48.36a.18.18,0,0,0,.07,0h.08C96.47,250.54,103,247.29,101.78,243.38Zm-17.67,7.06a2,2,0,0,1,1.06-2.56,2,2,0,0,1,2.57,1.06C88.5,251.31,85.1,252.84,84.11,250.44Zm9.24-.57a3,3,0,1,1,1.37-3.82A3.09,3.09,0,0,1,93.35,249.87Zm2.55-4.31A2,2,0,0,1,97,243a2,2,0,0,1,2.57,1.05C100.29,246.42,96.89,248,95.9,245.56Z"/><path class="cls-1" d="M131.29,94.42c3-3-2.07-8.9-4-10.92-1.43-1.39-4.74-4.31-7.63-4.88v1.81a2,2,0,0,1,1,3.31,1.92,1.92,0,0,1-1,.5v5.35c.27.31.53.58.74.8C122.4,92.36,128.25,97.46,131.29,94.42Zm-1.66-1.66c-1.87,1.71-4.59-1-2.79-2.78S131.33,90.9,129.63,92.76Zm-8-8a3,3,0,1,1,0,4.27A3,3,0,0,1,121.67,84.81Z"/><path class="cls-1" d="M175.34,64.91h0a2.59,2.59,0,0,0,.29-.14c3.09-1.33,2-6.52,1-9.72-.79.39-1.58.77-2.38,1.14a2.94,2.94,0,0,1-3.82,1.68c-.84.35-1.68.7-2.52,1C169.48,61.86,172.2,65.9,175.34,64.91ZM173.16,59a2,2,0,0,1,1.51,3.63C172.3,63.43,170.77,60,173.16,59Z"/><path class="cls-1" d="M222.92,43.87c0,2.83.58,10.59,4.87,10.58s4.83-7.75,4.87-10.58-.58-10.59-4.87-10.58S223,41,222.92,43.87Zm4.87,8.23c-2.52-.13-2.54-3.94,0-3.94S230.32,52,227.79,52.1Zm0-5.21c-3.87-.21-3.9-6,0-6S231.66,46.68,227.79,46.89Zm0-7.55c-2.52-.14-2.54-3.94,0-3.94S230.32,39.2,227.79,39.34Z"/><path class="cls-1" d="M280,64.81l.22.1h0c3.16,1,5.87-3,7.4-6-.85-.33-1.7-.67-2.54-1a2.9,2.9,0,0,1-3.8-1.67c-.8-.37-1.6-.75-2.38-1.14C277.89,58.28,276.82,63.54,280,64.81Zm-.22-4.54a2,2,0,1,1,1.13,2.39A2,2,0,0,1,279.79,60.27Z"/><path class="cls-1" d="M353.81,138.48h0a2.08,2.08,0,0,0,.13.3c1.64,3.77,9,1.37,11.5.39,0,0,0,0,.07-.05s.05,0,.08,0c2.6-1.12,9.13-4.37,7.9-8.28v0h0c0-.11-.1-.2-.14-.3-1.63-3.77-9-1.36-11.5-.38l-.07,0-.07,0C359.11,131.32,352.58,134.57,353.81,138.48Zm17.67-7.06a2,2,0,0,1-1.07,2.56,2,2,0,0,1-2.56-1.06C367.09,130.55,370.49,129,371.48,131.42Zm-9.24.56a3,3,0,1,1-1.37,3.83A3.09,3.09,0,0,1,362.24,132Zm-2.55,4.32a2,2,0,0,1-3.63,1.5C355.3,135.44,358.7,133.9,359.69,136.3Z"/><path class="cls-1" d="M324.3,287.43c-3,3,2.07,8.9,4,10.93,1.43,1.38,4.74,4.3,7.64,4.87v-1.8a1.94,1.94,0,0,1,0-3.82v-5.34c-.28-.31-.53-.58-.75-.8C333.18,289.49,327.33,284.4,324.3,287.43Zm1.66,1.66c1.86-1.7,4.58,1,2.79,2.79S324.25,291,326,289.09Zm8,8a3,3,0,1,1,0-4.27A3,3,0,0,1,333.91,297.05Z"/><path class="cls-1" d="M280.24,316.94h0a3.31,3.31,0,0,0-.33.15c-3,1.35-2,6.52-1,9.71.78-.39,1.58-.77,2.37-1.14a3,3,0,0,1,3.83-1.68c.83-.35,1.67-.7,2.52-1C286.11,320,283.39,316,280.24,316.94Zm2.18,5.88a2,2,0,0,1-2.56-1.06,2,2,0,0,1,1.06-2.56C283.29,318.43,284.82,321.83,282.42,322.82Z"/><path class="cls-1" d="M131.29,287.43c-3-3-8.9,2.08-10.93,4-.21.22-.47.49-.74.8v5.35a1.92,1.92,0,0,1,1,.5,2,2,0,0,1-1,3.31v1.8c2.9-.57,6.21-3.49,7.63-4.87C129.23,296.32,134.32,290.47,131.29,287.43Zm-5.35,9.62a3,3,0,1,1,0-4.27A3.05,3.05,0,0,1,125.94,297.05Zm3.69-8c1.7,1.87-1,4.59-2.79,2.79S127.76,287.39,129.63,289.09Z"/><path class="cls-1" d="M80.74,186.06c-2.83,0-10.59.58-10.58,4.87s7.75,4.83,10.58,4.87,10.58-.58,10.57-4.87S83.56,186.1,80.74,186.06Zm-8.48,4.87c0-2.55,3.81-2.53,3.94,0C76.07,193.45,72.26,193.48,72.26,190.93Zm5.45,0c0-3.91,5.84-3.87,6.05,0C83.55,194.8,77.71,194.83,77.71,190.93Zm7.31,0c0-2.55,3.81-2.53,3.94,0C88.83,193.45,85,193.48,85,190.93Z"/><path class="cls-1" d="M90,139.11s.05,0,.08,0a.18.18,0,0,0,.07.05c2.49,1,10,3.42,11.53-.46,0-.08.07-.14.1-.23h0c1.21-3.92-5.3-7.16-7.91-8.29l-.08,0-.07,0c-2.49-1-10-3.43-11.53.45a2.29,2.29,0,0,0-.1.23h0v0C80.87,134.74,87.38,138,90,139.11Zm5.91-2.81a2,2,0,0,1,2.56-1.07,2,2,0,0,1-1.32,3.7A2,2,0,0,1,95.9,136.3Zm-6.75-2.79a3,3,0,0,1,3.93-1.64,3,3,0,0,1-2,5.67A3,3,0,0,1,89.15,133.51Zm-5-2.09a2,2,0,0,1,2.56-1.07,2,2,0,0,1-1.32,3.7A2,2,0,0,1,84.11,131.42Z"/><path class="cls-1" d="M324.3,94.42c3,3,8.9-2.07,10.92-4,.22-.22.47-.5.75-.8V84.24a1.91,1.91,0,0,1-1-.5,2,2,0,0,1,1-3.31v-1.8c-2.9.57-6.22,3.49-7.64,4.87C326.36,85.54,321.27,91.39,324.3,94.42Zm5.34-9.61a3,3,0,1,1,0,4.27A3,3,0,0,1,329.64,84.81Zm-3.68,8c-1.71-1.86,1-4.58,2.79-2.78S327.82,94.47,326,92.76Z"/><path class="cls-1" d="M374.85,195.8c2.83,0,10.59-.58,10.58-4.87s-7.75-4.83-10.58-4.87-10.59.58-10.58,4.87S372,195.76,374.85,195.8Zm8.47-4.87c0,2.55-3.8,2.52-3.94,0C379.52,188.4,383.32,188.38,383.32,190.93Zm-5.45,0c0,3.9-5.83,3.87-6,0C372,187.06,377.87,187,377.87,190.93Zm-7.31,0c0,2.55-3.8,2.52-3.94,0C366.76,188.4,370.56,188.38,370.56,190.93Z"/><path class="cls-1" d="M365.6,242.74h-.08s0,0-.07,0c-2.49-1-9.95-3.41-11.52.43a1.36,1.36,0,0,0-.11.25h0c-1.21,3.92,5.29,7.16,7.91,8.29h.07l.07,0c2.49,1,9.95,3.41,11.52-.43,0-.09.09-.16.12-.25h0C374.71,247.11,368.21,243.87,365.6,242.74Zm-5.91,2.82a2,2,0,0,1-2.56,1.06,2,2,0,0,1-1.07-2.56,2,2,0,0,1,2.39-1.13A2,2,0,0,1,359.69,245.56Zm6.75,2.79a3,3,0,0,1-3.93,1.64,3,3,0,1,1,3.93-1.64Zm5,2.09a2,2,0,0,1-2.56,1.07,2,2,0,1,1,2.56-1.07Z"/><path class="cls-1" d="M46,266.42a.69.69,0,0,0-.05-.13.53.53,0,0,0-.08-.17,1.13,1.13,0,0,0-.22-.27h0a1,1,0,0,0-.28-.16l-.09,0a.78.78,0,0,0-.22,0,.91.91,0,0,0-.23,0h-.08c-.21.05-.43.1-.67.14.63.39,1.27.76,1.92,1.13A.94.94,0,0,0,46,266.42Z"/><path class="cls-1" d="M29.92,192c.72.09,1-.47,1-1s-.25-1.14-1-1c-2.3-.3-6.07-2.12-7.69.51a1,1,0,0,0,0,1C23.85,194.09,27.62,192.27,29.92,192Z"/><path class="cls-1" d="M44.79,116.22a.91.91,0,0,0,.23,0l.22,0,.09,0a1,1,0,0,0,.28-.16h0a.92.92,0,0,0,.22-.26.71.71,0,0,0,.08-.18.61.61,0,0,0,.05-.12.94.94,0,0,0,0-.5c-.65.36-1.29.74-1.92,1.13.24,0,.46.09.67.14Z"/><path class="cls-1" d="M409.63,115.44s0,.08,0,.12l.08.18a1.18,1.18,0,0,0,.23.27h0a.85.85,0,0,0,.28.16l.08,0,.22,0a1,1,0,0,0,.24,0h.08l.66-.14c-.63-.39-1.27-.77-1.91-1.13A.94.94,0,0,0,409.63,115.44Z"/><path class="cls-1" d="M425.66,189.89c-.71-.1-1,.47-1,1a.85.85,0,0,0,1,1c2.3.3,6.07,2.12,7.69-.52a1,1,0,0,0,0-1C431.73,187.77,428,189.59,425.66,189.89Z"/><path class="cls-1" d="M410.8,265.64a1,1,0,0,0-.24,0,.78.78,0,0,0-.22,0l-.08,0a.85.85,0,0,0-.28.16h0a1.09,1.09,0,0,0-.21.27,1.51,1.51,0,0,0-.09.18s0,.07,0,.11a1,1,0,0,0,0,.51c.64-.37,1.28-.74,1.91-1.13l-.66-.14Z"/><path class="cls-1" d="M33.72,228.49c-2.41.16-6.55-.9-7.66,2.09a.84.84,0,0,0,.33,1.06c2.06,2.12,5.5-.39,7.61-1.1C35.05,230.18,35,228.41,33.72,228.49Z"/><path class="cls-1" d="M33.72,153.37c1.23.08,1.34-1.69.28-2.05-2.11-.71-5.55-3.23-7.61-1.11a.85.85,0,0,0-.33,1.07C27.16,154.27,31.31,153.21,33.72,153.37Z"/><path class="cls-1" d="M421.86,153.37c2.42-.16,6.56.9,7.66-2.09a.85.85,0,0,0-.32-1.07c-2.07-2.12-5.51.4-7.61,1.11C420.53,151.68,420.63,153.45,421.86,153.37Z"/><path class="cls-1" d="M421.86,228.49c-1.22-.08-1.34,1.69-.27,2,2.1.71,5.54,3.22,7.61,1.11a.85.85,0,0,0,.32-1.07C428.42,227.59,424.27,228.65,421.86,228.49Z"/><path class="cls-1" d="M442.16,169.84a7.7,7.7,0,0,0,8.35,6.82,7.59,7.59,0,0,0,1.88-.44c-.07-.42-.14-.84-.22-1.26a7.18,7.18,0,0,1-1.08.35,6.43,6.43,0,0,1-7.67-5.64,5.94,5.94,0,0,1,5.65-6.71c-.16-.47-.33-.94-.5-1.41A7.69,7.69,0,0,0,442.16,169.84Z"/><path class="cls-1" d="M13.43,212a7.71,7.71,0,0,0-8.36-6.82,7.51,7.51,0,0,0-1.87.44c.07.42.14.84.22,1.26a6.2,6.2,0,0,1,1.08-.35,6.42,6.42,0,0,1,7.66,5.64,5.93,5.93,0,0,1-5.64,6.71c.16.47.32.94.49,1.41A7.7,7.7,0,0,0,13.43,212Z"/><path class="cls-1" d="M442.16,212a7.69,7.69,0,0,0,6.41,8.29c.17-.47.34-.94.5-1.41a5.89,5.89,0,0,1-5.65-6.71c.46-5,5.16-6.48,8.7-5.05.1-.5.18-1,.27-1.5a7.59,7.59,0,0,0-1.88-.44A7.71,7.71,0,0,0,442.16,212Z"/><path class="cls-1" d="M13.43,169.84A7.69,7.69,0,0,0,7,161.55c-.17.47-.33.94-.49,1.41a5.88,5.88,0,0,1,5.64,6.71c-.46,5-5.15,6.48-8.7,5.05-.09.5-.18,1-.26,1.5a7.51,7.51,0,0,0,1.87.44A7.72,7.72,0,0,0,13.43,169.84Z"/><path class="cls-1" d="M186.41,158.65a52.94,52.94,0,0,0-3.07,60.21c13.7,21.72,40.76,29.69,64.43,20.63a.5.5,0,0,0,.12-.08l.13,0c20.18-8.92,33.51-29.08,32.19-51.42a52.49,52.49,0,0,0-93.8-29.31Zm22.63-13a4.31,4.31,0,1,1-2.1,6.1C205.61,149.37,206.8,146.81,209,145.63Zm-16.46,10.09c3.51-3.51,9.48-3.26,13.55-1.14,4.28,2.51,6.63,7.2,8.84,11.44a173,173,0,0,1,7.37,16.24l0,0a9,9,0,0,0-.86.62,63.74,63.74,0,0,0-8.62-8.37,1,1,0,0,0-1.48,1.47,63.46,63.46,0,0,0,8.39,8.64,10.45,10.45,0,0,0-.61.87l-.06-.05a172,172,0,0,1-16.25-7.37c-4.24-2.22-8.93-4.56-11.44-8.85C189.32,165.19,189.07,159.23,192.58,155.72Zm32.13,27.76a8,8,0,0,1,10.53,4.37c1.8,4.34-.36,8.55-4.34,10.58-3.83,1.25-8,.24-10.16-3.46A8.14,8.14,0,0,1,224.71,183.48Zm-42.22-11.31c1.12-2.12,3.53-3.38,5.85-2.23a4.29,4.29,0,1,1-5.85,2.23Zm4.29,8.37c9.35-2.44,22.6,4.47,31,8.11h.09a9.7,9.7,0,0,0-.2,1.05,65.24,65.24,0,0,0-12,.18,1,1,0,0,0,0,2.08,65.13,65.13,0,0,0,12,.18,9.6,9.6,0,0,0,.18,1h-.06c-8.42,3.63-21.65,10.55-31,8.11C175.79,197.71,175.76,184.16,186.78,180.54Zm1.81,31.24c-2.35,1.33-4.92.14-6.1-2.09a4.32,4.32,0,1,1,6.1,2.09Zm26,22.13a4.38,4.38,0,0,1-5.59,2.32c-2.12-1.12-3.37-3.53-2.23-5.85a4.29,4.29,0,0,1,7.82,3.53Zm-8.49-6.63c-4.08,2.12-10,2.37-13.55-1.14s-3.26-9.48-1.14-13.55c2.51-4.28,7.2-6.62,11.44-8.84a172,172,0,0,1,16.25-7.37s0,0,0,0c.19.3.42.57.63.84a64.65,64.65,0,0,0-8.39,8.64,1,1,0,0,0,1.48,1.48,63.53,63.53,0,0,0,8.64-8.4h0a8.39,8.39,0,0,0,.86.61l-.06.09A173,173,0,0,1,215,215.84C212.76,220.08,210.41,224.77,206.13,227.28Zm32.05,4.66c-3.61,11-17.16,11-20.78,0-2.44-9.35,4.48-22.6,8.11-31a.8.8,0,0,0,0-.15,9.62,9.62,0,0,0,1.06.14.24.24,0,0,1,0,.09,65.55,65.55,0,0,0,.18,12.05,1,1,0,0,0,2.08,0A64.68,64.68,0,0,0,229,201s0,0,0-.07a10,10,0,0,0,1.06-.15.7.7,0,0,0,0,.14C233.71,209.34,240.62,222.58,238.18,231.94Zm8.37,4.29a4.32,4.32,0,0,1-3.68-7.8,4.36,4.36,0,0,1,5.77,1.7C250,232.49,248.79,235.05,246.55,236.23ZM263,226.14c-3.51,3.51-9.47,3.26-13.54,1.14-4.29-2.51-6.63-7.2-8.84-11.44a170.54,170.54,0,0,1-7.38-16.24s0-.06-.06-.09a9,9,0,0,0,.85-.64s0,0,0,0a63.61,63.61,0,0,0,8.65,8.4,1,1,0,0,0,1.47-1.48,63.46,63.46,0,0,0-8.39-8.64l-.05,0a9.79,9.79,0,0,0,.62-.86l.11.07a173,173,0,0,1,16.24,7.37c4.25,2.22,8.93,4.56,11.44,8.84C266.27,216.67,266.51,222.63,263,226.14Zm10.09-16.45c-1.12,2.12-3.52,3.38-5.85,2.23a4.29,4.29,0,1,1,5.85-2.23Zm-4.29-8.37c-9.35,2.44-22.59-4.47-31-8.11l-.08,0c.08-.34.15-.69.2-1a65.13,65.13,0,0,0,12-.18,1,1,0,0,0,0-2.08,65,65,0,0,0-12-.18,9.6,9.6,0,0,0-.18-1.05h.05c8.42-3.64,21.66-10.55,31-8.11C279.8,184.15,279.83,197.7,268.8,201.32ZM267,170.08c2.35-1.33,4.91-.14,6.09,2.09a4.32,4.32,0,0,1-7.79,3.69A4.36,4.36,0,0,1,267,170.08ZM241,148a4.37,4.37,0,0,1,5.59-2.32c2.13,1.12,3.38,3.53,2.23,5.85A4.29,4.29,0,0,1,241,148Zm8.5,6.63c4.07-2.13,10-2.37,13.54,1.14s3.26,9.48,1.14,13.54c-2.51,4.29-7.19,6.63-11.44,8.85a173,173,0,0,1-16.24,7.37l0,0a10.56,10.56,0,0,0-.62-.87,63.16,63.16,0,0,0,8.37-8.62,1,1,0,0,0-1.47-1.47,64,64,0,0,0-8.64,8.38c-.27-.21-.57-.41-.86-.6,0,0,0,0,0-.07A170.54,170.54,0,0,1,240.62,166C242.83,161.78,245.17,157.09,249.46,154.58Zm-11.28-4.66c2.44,9.35-4.47,22.59-8.1,31,0,0,0,.06,0,.09a9.65,9.65,0,0,0-1.05-.19,64.47,64.47,0,0,0-.18-12,1,1,0,0,0-2.08,0,65.13,65.13,0,0,0-.18,12,9.6,9.6,0,0,0-1,.18s0,0,0-.06c-3.63-8.42-10.55-21.66-8.11-31C221,138.92,234.56,138.89,238.18,149.92Z"/><path class="cls-1" d="M227.79,221c-.57-.06-1.13.25-1,1-.3,2.3-2.12,6.07.52,7.68a1,1,0,0,0,1,0c2.63-1.61.81-5.39.51-7.68C228.93,221.2,228.36,220.89,227.79,221Z"/><path class="cls-1" d="M206.57,212.15a.86.86,0,0,0-1.43-.05c-1.86,1.44-5.79,2.79-5.06,5.82a1,1,0,0,0,.72.73c3,.72,4.38-3.21,5.82-5.07A.86.86,0,0,0,206.57,212.15Z"/><path class="cls-1" d="M196.8,192c.72.09,1-.47,1-1s-.25-1.14-1-1c-2.29-.3-6.06-2.12-7.68.51a1,1,0,0,0,0,1C190.73,194.09,194.51,192.27,196.8,192Z"/><path class="cls-1" d="M205.14,169.75a1,1,0,0,0,1.48-1.47c-1.44-1.86-2.79-5.79-5.82-5.07a1,1,0,0,0-.72.73C199.35,167,203.29,168.32,205.14,169.75Z"/><path class="cls-1" d="M226.75,159.94c-.09.72.47,1,1,1s1.14-.25,1-1c.3-2.3,2.12-6.07-.51-7.69a1,1,0,0,0-1,0C224.63,153.87,226.45,157.65,226.75,159.94Z"/><path class="cls-1" d="M249,169.7a.85.85,0,0,0,1.42.05c1.86-1.44,5.79-2.78,5.07-5.81a1,1,0,0,0-.73-.73c-3-.72-4.37,3.21-5.81,5.07A.85.85,0,0,0,249,169.7Z"/><path class="cls-1" d="M258.78,189.89c-.72-.1-1,.47-1,1s.25,1.13,1,1c2.3.3,6.07,2.12,7.69-.52a1,1,0,0,0,0-1C264.85,187.77,261.08,189.59,258.78,189.89Z"/><path class="cls-1" d="M250.44,212.1a1,1,0,0,0-1.47,1.48c1.44,1.86,2.78,5.79,5.81,5.07a1.05,1.05,0,0,0,.73-.73C256.23,214.89,252.3,213.54,250.44,212.1Z"/><path class="cls-1" d="M167.87,257.52a4.73,4.73,0,0,0,.5-6,3,3,0,0,0-1.16-1.16,4.7,4.7,0,1,0,.66,7.17Zm-5-5.78a2.92,2.92,0,0,1,4.08,0,3.17,3.17,0,0,1,.36.46,2.88,2.88,0,1,1-4.44-.46Z"/><path class="cls-1" d="M287.72,124.34a4.78,4.78,0,0,0,0,6.67,3.58,3.58,0,0,0,.66.5,4.69,4.69,0,1,0-.66-7.17Zm5,5.78a2.93,2.93,0,0,1-4.09,0,3.1,3.1,0,0,1-.35-.46,2.9,2.9,0,0,1,.35-3.63,2.89,2.89,0,0,1,4.09,4.09Z"/><path class="cls-1" d="M147,152.38a4.76,4.76,0,0,0-6.19,2.43s0,.05,0,.08,0,0-.05.07a4.71,4.71,0,0,0,8.33,4.29,3.79,3.79,0,0,0,.44-.82,4,4,0,0,0,.23-.82A4.76,4.76,0,0,0,147,152.38Zm1.31,5.63a3.36,3.36,0,0,1-.81,1.17c-2,1.68-5.69-.45-4.43-3.42s5.31-1.64,5.49,1A3.61,3.61,0,0,1,148.33,158Z"/><path class="cls-1" d="M308.56,229.48a4.77,4.77,0,0,0,6.2-2.44s0,0,0-.07,0-.05,0-.08a4.7,4.7,0,0,0-8.32-4.28,3.82,3.82,0,0,0-.45.82,4.07,4.07,0,0,0-.22.81A4.76,4.76,0,0,0,308.56,229.48Zm-1.31-5.63a3.36,3.36,0,0,1,.81-1.17c2-1.68,5.69.45,4.44,3.42s-5.31,1.64-5.49-1A3.38,3.38,0,0,1,307.25,223.85Z"/><path class="cls-1" d="M227.79,285.1a4.72,4.72,0,0,0,0-9.43,5.59,5.59,0,0,0-.82.12,4.71,4.71,0,0,0-3.89,4.6A4.76,4.76,0,0,0,227.79,285.1Zm-.65-8.08a6.32,6.32,0,0,1,.65-.1,5.92,5.92,0,0,1,.65.1c3,.78,2.85,5.69-.65,5.69S224.1,277.8,227.14,277Z"/><path class="cls-1" d="M138.33,186.22a4.71,4.71,0,0,0-.22,9.41,4.71,4.71,0,0,0,4.82-3.85,6,6,0,0,0,.12-.85,5.4,5.4,0,0,0-.12-.82A4.71,4.71,0,0,0,138.33,186.22Zm3.37,5.36c-.78,3-5.68,2.85-5.68-.65s4.9-3.69,5.68-.65a2.16,2.16,0,0,1,0,1.3Z"/><path class="cls-1" d="M161.2,124.34a4.78,4.78,0,0,0,0,6.67,4.73,4.73,0,0,0,6,.5,4.41,4.41,0,0,0,.66-.5,4.72,4.72,0,0,0-6.67-6.67Zm5.78,5.78a3.17,3.17,0,0,1-.46.36A2.88,2.88,0,0,1,162.9,126a2.89,2.89,0,1,1,4.08,4.09Z"/><path class="cls-1" d="M227.79,96.76a4.76,4.76,0,0,0-4.7,4.49,4.7,4.7,0,0,0,3.85,4.81,4.05,4.05,0,0,0,.85.12,4.6,4.6,0,0,0,.83-.11,4.69,4.69,0,0,0-.83-9.31Zm.65,8.08a4.25,4.25,0,0,1-.65.09,4.43,4.43,0,0,1-.65-.09c-3-.78-2.85-5.69.65-5.69S231.49,104.06,228.44,104.84Z"/><path class="cls-1" d="M317.25,195.64a4.71,4.71,0,0,0,.22-9.41,4.68,4.68,0,0,0-4.81,3.85,4,4,0,0,0-.12.85,4.49,4.49,0,0,0,.11.82A4.72,4.72,0,0,0,317.25,195.64Zm-3.37-5.36c.78-3,5.69-2.85,5.69.65s-4.91,3.69-5.69.65a2.39,2.39,0,0,1,0-1.3Z"/><path class="cls-1" d="M294.38,257.52a4.77,4.77,0,0,0,0-6.67,4.72,4.72,0,0,0-6-.5,3.58,3.58,0,0,0-.66.5,4.49,4.49,0,0,0-.51.66,4.69,4.69,0,0,0,7.17,6Zm-5.78-5.78a3.17,3.17,0,0,1,.46-.36,2.83,2.83,0,1,1-.46.36Z"/><path class="cls-1" d="M263.76,278s0,0,.07,0a.12.12,0,0,0,.08,0,4.7,4.7,0,0,0-2.82-8.92,3.8,3.8,0,0,0-.8.22,4.15,4.15,0,0,0-.83.45,5.46,5.46,0,0,0-.45.36l-.1.08a4.7,4.7,0,0,0,4.85,7.88Zm-4.24-6.75a3.57,3.57,0,0,1,1.19-.82,3.5,3.5,0,0,1,1.22-.25c2.65.12,4,4.27,1,5.49S257.87,273.22,259.52,271.21Z"/><path class="cls-1" d="M189.24,271.7a4.76,4.76,0,0,0,2.44,6.19.1.1,0,0,0,.07,0l.08,0a4.7,4.7,0,0,0,4.28-8.33,3.79,3.79,0,0,0-.82-.44,4.1,4.1,0,0,0-.81-.23A4.78,4.78,0,0,0,189.24,271.7Zm4.35-1.56a3.55,3.55,0,0,1,1.28.25,3.5,3.5,0,0,1,1.18.81c1.68,2-.46,5.69-3.43,4.43S191,270.32,193.59,270.14Z"/><path class="cls-1" d="M149.53,223.43a3.89,3.89,0,0,0-.45-.83,5.63,5.63,0,0,0-.36-.46l-.08-.09a4.69,4.69,0,0,0-7.88,4.84.35.35,0,0,0,.05.08s0,.05,0,.07a4.7,4.7,0,0,0,8.92-2.82A3.72,3.72,0,0,0,149.53,223.43Zm-6.44,2.67c-1.25-3,2.41-5.09,4.42-3.44a3.34,3.34,0,0,1,.82,1.19,3.44,3.44,0,0,1,.25,1.21C148.47,227.72,144.31,229.11,143.09,226.1Z"/><path class="cls-1" d="M191.83,103.9l-.08,0-.07,0a4.71,4.71,0,0,0,2.81,8.93,4.52,4.52,0,0,0,.8-.22,4.39,4.39,0,0,0,.83-.45,5.63,5.63,0,0,0,.46-.36l.1-.09a4.69,4.69,0,0,0-4.85-7.87Zm4.23,6.74a3.27,3.27,0,0,1-1.19.83,3.4,3.4,0,0,1-1.21.25c-2.65-.12-4-4.27-1-5.5S197.71,108.64,196.06,110.64Z"/><path class="cls-1" d="M266.34,110.16a4.77,4.77,0,0,0-2.43-6.2l-.08,0-.07,0a4.71,4.71,0,0,0-4.29,8.33,4.6,4.6,0,0,0,.82.44,4,4,0,0,0,.82.22A4.75,4.75,0,0,0,266.34,110.16ZM262,111.71a3.43,3.43,0,0,1-1.29-.24,3.36,3.36,0,0,1-1.17-.81c-1.68-2,.45-5.69,3.42-4.44S264.6,111.53,262,111.71Z"/><path class="cls-1" d="M306.05,158.43a4.73,4.73,0,0,0,.45.83,4,4,0,0,0,.37.45.39.39,0,0,0,.08.1,4.69,4.69,0,0,0,7.87-4.85s0,0,0-.07,0,0,0-.08a4.71,4.71,0,0,0-8.93,2.83A4.66,4.66,0,0,0,306.05,158.43Zm6.45-2.67c1.25,3-2.42,5.09-4.42,3.44a3.59,3.59,0,0,1-.83-1.19,3.74,3.74,0,0,1-.25-1.21C307.12,154.14,311.27,152.75,312.5,155.76Z"/><path class="cls-1" d="M228.12,254.67a.56.56,0,0,0-.33-.07.54.54,0,0,0-.32.07c-4.65.86-4.63,10.29.32,10.31S232.76,255.53,228.12,254.67Zm-.33,9.06c-3.43,0-3.34-7.58,0-7.88C231.14,256.15,231.22,263.73,227.79,263.73Z"/><path class="cls-1" d="M213.39,263.55c4.93.93,6.77-8.76,2-10.16a.68.68,0,0,0-.14,0h-.14C210.31,253,208.48,262.64,213.39,263.55Zm1.75-8.93c3.3,1.07,1.67,8.58-1.68,7.62S211.86,254.43,215.14,254.62Z"/><path class="cls-1" d="M203.5,249.79l-.07,0-.08,0c-4.72-1.51-8.53,7.67-3.9,9.6S207.88,252.09,203.5,249.79Zm-3.66,8.29c-3-1.49-.11-8.06,3.1-7.16C206,252.64,203,259.65,199.84,258.08Z"/><path class="cls-1" d="M186.62,252.47c4.15,2.84,9.78-5.46,5.89-8.52l0,0a.34.34,0,0,0-.09-.08C188.06,241.4,182.49,249.64,186.62,252.47Zm5.09-7.56c2.5,2.17-1.33,8.26-4.25,6.58S188.66,243.28,191.71,244.91Z"/><path class="cls-1" d="M182.94,236.2a.81.81,0,0,0-.42-.42c-3.83-2.82-10.58,4-7.09,7.51S185.76,240,182.94,236.2Zm-6.62,6.2c-2.43-2.37,3-7.81,5.57-5.57C184.13,239.39,178.75,244.78,176.32,242.4Z"/><path class="cls-1" d="M174.87,226.33a.34.34,0,0,0-.08-.09s0,0,0,0c-3.07-3.89-11.38,1.76-8.53,5.89S177.32,230.66,174.87,226.33Zm-1.06.69c1.63,3-4.85,7.23-6.57,4.24S171.64,224.5,173.81,227Z"/><path class="cls-1" d="M169,215.29s0,0,0-.07c-2.3-4.38-11.45-.61-9.54,4.05s11.11.82,9.61-3.9A.35.35,0,0,0,169,215.29Zm-8.31,3.59c-1.57-3.13,5.44-6.11,7.16-3.1C168.7,219,162.13,221.86,160.64,218.88Z"/><path class="cls-1" d="M165.36,203.58v0a.22.22,0,0,1,0-.08v0c0-.05,0-.09,0-.13-1.4-4.75-11.07-2.92-10.17,2S165.72,208.41,165.36,203.58Zm-8.87,1.68c-1-3.34,6.54-5,7.62-1.68C164.29,206.87,157.42,208.49,156.49,205.26Z"/><path class="cls-1" d="M164.05,191.25a.48.48,0,0,0,.07-.32.46.46,0,0,0-.07-.32c-.85-4.65-10.28-4.64-10.3.32S163.19,195.9,164.05,191.25Zm-1.18-.32c-.3,3.35-7.87,3.42-7.87,0S162.57,187.59,162.87,190.93Z"/><path class="cls-1" d="M165.34,178.55c0-.05,0-.08,0-.13s0,0,0,0a.22.22,0,0,1,0-.08v0c.36-4.83-9.28-6.66-10.19-1.76S163.94,183.3,165.34,178.55Zm-8.85-2c.93-3.23,7.8-1.6,7.62,1.69C163,181.57,155.52,180,156.49,176.59Z"/><path class="cls-1" d="M159.39,162.59c-1.94,4.64,7.24,8.43,9.54,4,0,0,0,0,0-.08a.18.18,0,0,0,.05-.07C170.5,161.77,161.32,158,159.39,162.59Zm1.25.39c1.49-3,8.06-.11,7.16,3.1C166.08,169.09,159.07,166.1,160.64,163Z"/><path class="cls-1" d="M174.78,155.65s0,0,0,0a.7.7,0,0,0,.08-.1c2.45-4.32-5.79-9.89-8.62-5.76S171.71,159.54,174.78,155.65Zm-7.54-5.05c1.72-3,8.2,1.2,6.57,4.24C171.64,157.35,165.55,153.52,167.24,150.6Z"/><path class="cls-1" d="M182.52,146.08a.66.66,0,0,0,.25-.17.56.56,0,0,0,.17-.25c2.82-3.83-4-10.59-7.51-7.09S178.69,148.9,182.52,146.08Zm-6.2-6.63c2.37-2.42,7.81,3,5.57,5.57C179.33,147.27,173.94,141.88,176.32,139.45Z"/><path class="cls-1" d="M192.39,138a.34.34,0,0,0,.09-.08l0,0c3.89-3.06-1.76-11.38-5.89-8.52S188.06,140.46,192.39,138Zm-4.93-7.64c2.92-1.68,6.76,4.4,4.25,6.58C188.66,138.58,184.47,132.1,187.46,130.37Z"/><path class="cls-1" d="M203.35,132.13l.08,0,.07,0c4.38-2.3.61-11.45-4.05-9.55S198.63,133.64,203.35,132.13Zm-.41-1.19c-3.21.9-6.08-5.67-3.1-7.17C203,122.21,206,129.22,202.94,130.94Z"/><path class="cls-1" d="M213.39,118.3c-4.91.9-3.08,10.55,1.75,10.19h.14a.33.33,0,0,0,.14,0C220.16,127.07,218.33,117.41,213.39,118.3Zm1.75,8.94c-3.29.19-4.91-6.68-1.68-7.62S218.44,126.17,215.14,127.24Z"/><path class="cls-1" d="M227.47,127.19a.54.54,0,0,0,.32.07.56.56,0,0,0,.33-.07c4.64-.86,4.63-10.29-.33-10.31S222.82,126.33,227.47,127.19Zm.32-9.06c3.43,0,3.35,7.58,0,7.88C224.44,125.71,224.37,118.13,227.79,118.13Z"/><path class="cls-1" d="M242.2,118.3c-4.93-.92-6.78,8.77-2,10.17a.3.3,0,0,0,.13,0h.14C245.27,128.85,247.1,119.22,242.2,118.3Zm-1.75,8.94c-3.3-1.07-1.67-8.58,1.68-7.62S243.73,127.43,240.45,127.24Z"/><path class="cls-1" d="M252.08,132.07l.08,0,.07,0c4.72,1.51,8.53-7.67,3.9-9.61S247.7,129.77,252.08,132.07Zm3.66-8.3c3,1.5.12,8.07-3.1,7.17C249.63,129.22,252.62,122.21,255.74,123.77Z"/><path class="cls-1" d="M269,129.39c-4.14-2.84-9.78,5.46-5.89,8.52l0,0a.7.7,0,0,0,.1.08C267.52,140.46,273.09,132.22,269,129.39ZM263.88,137c-2.51-2.18,1.32-8.27,4.25-6.58S266.93,138.58,263.88,137Z"/><path class="cls-1" d="M272.65,145.66a.63.63,0,0,0,.16.25.66.66,0,0,0,.25.17c3.83,2.82,10.59-4,7.09-7.51S269.82,141.83,272.65,145.66Zm6.62-6.21c2.42,2.38-3,7.82-5.57,5.57C271.45,142.46,276.84,137.08,279.27,139.45Z"/><path class="cls-1" d="M280.71,155.52s.06.06.08.1l0,0c3.06,3.89,11.38-1.76,8.52-5.89S278.26,151.2,280.71,155.52Zm1.06-.68c-1.63-3.05,4.85-7.23,6.58-4.24S284,157.35,281.77,154.84Z"/><path class="cls-1" d="M286.63,166.56s0,.05,0,.08c2.3,4.38,11.45.6,9.55-4s-11.12-.82-9.61,3.9A.43.43,0,0,0,286.63,166.56ZM295,163c1.57,3.12-5.45,6.11-7.17,3.1C286.88,162.87,293.45,160,295,163Z"/><path class="cls-1" d="M290.23,178.28v0a.22.22,0,0,0,0,.08s0,0,0,0a.3.3,0,0,0,0,.13c1.4,4.75,11.07,2.91,10.17-2S289.87,173.45,290.23,178.28Zm8.87-1.69c1,3.35-6.55,5-7.62,1.69C291.29,175,298.17,173.36,299.1,176.59Z"/><path class="cls-1" d="M291.53,190.6a.58.58,0,0,0-.07.33.54.54,0,0,0,.07.32c.86,4.65,10.29,4.64,10.31-.32S292.39,186,291.53,190.6Zm1.18.33c.31-3.35,7.88-3.42,7.88,0S293,194.27,292.71,190.93Z"/><path class="cls-1" d="M290.25,203.31a.28.28,0,0,0,0,.13v0a.22.22,0,0,0,0,.08v0c-.36,4.83,9.27,6.66,10.19,1.76S291.65,198.56,290.25,203.31Zm8.85,1.95c-.93,3.23-7.81,1.6-7.62-1.68C292.55,200.29,300.07,201.91,299.1,205.26Z"/><path class="cls-1" d="M296.2,219.27c1.93-4.64-7.25-8.43-9.55-4.05,0,0,0,.05,0,.07s0,.05,0,.08C285.08,220.09,294.27,223.9,296.2,219.27Zm-1.25-.39c-1.5,3-8.07.11-7.17-3.1C289.5,212.77,296.52,215.75,295,218.88Z"/><path class="cls-1" d="M280.81,226.21l0,0s-.06,0-.08.09c-2.45,4.33,5.79,9.9,8.62,5.77S283.87,222.32,280.81,226.21Zm7.54,5c-1.73,3-8.21-1.2-6.58-4.24C284,224.51,290,228.34,288.35,231.26Z"/><path class="cls-1" d="M273.06,235.78a.56.56,0,0,0-.25.17.63.63,0,0,0-.16.25c-2.83,3.83,4,10.59,7.5,7.09S276.89,233,273.06,235.78Zm6.21,6.62c-2.38,2.43-7.82-3-5.57-5.57C276.26,234.59,281.65,240,279.27,242.4Z"/><path class="cls-1" d="M263.2,243.85a.7.7,0,0,0-.1.08l0,0c-3.89,3.06,1.76,11.38,5.89,8.52S267.52,241.4,263.2,243.85Zm4.93,7.64c-2.92,1.68-6.76-4.4-4.25-6.58C266.93,243.28,271.11,249.76,268.13,251.49Z"/><path class="cls-1" d="M252.23,249.73l-.07,0-.08,0c-4.38,2.3-.6,11.45,4,9.54S257,248.22,252.23,249.73Zm.41,1.19c3.22-.9,6.08,5.67,3.1,7.16S249.63,252.64,252.64,250.92Z"/><path class="cls-1" d="M242.2,263.55c4.9-.89,3.07-10.54-1.75-10.18h-.15a.69.69,0,0,0-.13,0C235.42,254.79,237.26,264.45,242.2,263.55Zm-1.75-8.93c3.28-.19,4.91,6.68,1.68,7.62S237.14,255.69,240.45,254.62Z"/></svg>