<?xml version="1.0" encoding="utf-8"?>
<!-- Generator: Adobe Illustrator 22.0.1, SVG Export Plug-In . SVG Version: 6.00 Build 0)  -->
<svg version="1.1" id="Layer_1" xmlns="http://www.w3.org/2000/svg" xmlns:xlink="http://www.w3.org/1999/xlink" x="0px" y="0px"
	 viewBox="0 0 418.6 354.2" style="enable-background:new 0 0 418.6 354.2;" xml:space="preserve">
<style type="text/css">
	.st0{fill:#FFFFFF;}
	.st1{fill:#DBEFF6;}
	.st2{clip-path:url(#SVGID_2_);fill:none;stroke:#EAB72F;stroke-miterlimit:10;}
	.st3{clip-path:url(#SVGID_2_);}
	.st4{fill:#F3EED9;}
	.st5{fill:#EAB72F;}
	.st6{fill:#256637;}
	.st7{fill:#EB9D41;}
	.st8{fill:#B9BA9D;}
	.st9{fill:#5E0042;}
	.st10{fill:none;stroke:#5E0042;stroke-miterlimit:10;}
	.st11{fill:#7C003E;}
	.st12{opacity:0.6;}
	.st13{fill:#7BCCC0;}
	.st14{display:none;fill:#7C003E;}
	.st15{fill:none;stroke:#CA57A2;stroke-width:7;stroke-miterlimit:10;}
	.st16{fill:none;stroke:#FEC621;stroke-width:7;stroke-miterlimit:10;}
	.st17{fill:none;stroke:#FF5460;stroke-width:7;stroke-miterlimit:10;}
	.st18{fill:none;}
	.st19{fill:none;stroke:#1D1D1B;stroke-miterlimit:10;}
	.st20{fill:none;stroke:#5E0042;stroke-width:16;stroke-miterlimit:10;}
	.st21{fill:none;stroke:#CA57A2;stroke-width:16;stroke-miterlimit:10;}
	.st22{fill:none;stroke:#FEC621;stroke-width:16;stroke-miterlimit:10;}
	.st23{fill:none;stroke:#FF5460;stroke-width:16;stroke-miterlimit:10;}
	.st24{fill:none;stroke:#7BCCC0;stroke-width:16;stroke-miterlimit:10;}
	.st25{fill:#EC4863;}
	.st26{fill:#FFC861;}
	.st27{fill:#CA57A2;}
	.st28{fill:none;stroke:#FFFFFF;stroke-miterlimit:10;}
	.st29{fill:#AB9860;}
	.st30{fill:#E1D8C3;}
	.st31{fill:#262729;}
	.st32{fill:#F19541;}
	.st33{fill:#434F47;}
	.st34{fill:#AC8E6F;}
	.st35{fill:#003A75;}
	.st36{fill:#1D1D1B;}
	.st37{fill-rule:evenodd;clip-rule:evenodd;fill:#FFFFFF;}
	.st38{fill:#FEC621;}
	.st39{fill-rule:evenodd;clip-rule:evenodd;fill:#5E0042;}
	.st40{fill-rule:evenodd;clip-rule:evenodd;fill:#FF5460;}
	.st41{fill:#EDEDED;}
	.st42{opacity:0.35;}
	.st43{fill:#5E0042;stroke:#5E0042;stroke-miterlimit:10;}
	.st44{fill:#CA9E67;}
	.st45{fill:#FCEA10;}
	.st46{fill:none;stroke:#FEC621;stroke-width:6;stroke-linecap:round;stroke-miterlimit:10;}
	.st47{fill:none;stroke:#FEC621;stroke-width:12;stroke-linecap:round;stroke-miterlimit:10;}
	.st48{fill:none;stroke:#FEC621;stroke-width:12;stroke-linecap:round;stroke-miterlimit:10;stroke-dasharray:0,25.9523;}
	.st49{fill:none;stroke:#FEC621;stroke-width:12;stroke-linecap:round;stroke-miterlimit:10;stroke-dasharray:0,25.8828;}
	.st50{fill:#FF5460;}
	.st51{clip-path:url(#SVGID_4_);}
	.st52{fill:#ED942C;}
	.st53{fill:#162550;}
	.st54{opacity:0.9;clip-path:url(#SVGID_6_);}
	.st55{fill:#446135;}
	.st56{fill:#E3992B;}
	.st57{fill:#D4D3C9;}
	.st58{fill:#452915;}
	.st59{fill:none;stroke:#5E0042;stroke-width:2;stroke-miterlimit:10;}
	.st60{display:none;}
	.st61{display:inline;fill:#5E0042;}
	.st62{display:inline;}
	.st63{fill:#D3B975;}
	.st64{fill:#A31D2F;}
	.st65{fill:#2B4057;}
	.st66{fill:#FAD53B;}
	.st67{fill:#F06683;}
	.st68{fill:#78081B;}
	.st69{fill:#040607;}
	.st70{fill:#893320;}
	.st71{fill:#B17F4A;}
	.st72{fill:#070D5C;}
	.st73{fill:#CF503F;}
	.st74{display:inline;fill:#FF5460;}
	.st75{clip-path:url(#SVGID_8_);}
	.st76{fill:#9E2013;}
	.st77{fill:#C6C6C6;}
	.st78{fill:#263B7A;}
	.st79{fill:#070D36;}
	.st80{fill:#7A002C;}
	.st81{fill:#81C771;}
	.st82{fill:#4B7779;}
	.st83{fill:#E3D6C5;}
	.st84{fill:#924030;}
	.st85{fill:#C74632;}
	.st86{fill:#D19657;}
	.st87{fill:#E2CEA8;}
	.st88{fill:#F5EDDD;}
	.st89{fill:#EF4057;}
	.st90{fill:#B7DFEE;}
	.st91{fill:#324486;}
	.st92{fill:#931B21;}
	.st93{fill:#D05020;}
	.st94{fill:#FF776E;}
	.st95{fill:#D1E7E0;}
	.st96{fill:#7AC2AB;}
	.st97{fill:#4D7EAD;}
	.st98{fill:#E7D4AD;}
	.st99{fill:#E5D2AB;}
	.st100{fill:#D3B975;stroke:#D3B975;stroke-width:3;stroke-miterlimit:10;}
	.st101{fill:#C6C6C6;stroke:#C6C6C6;stroke-width:3;stroke-miterlimit:10;}
	.st102{fill:#B0E0D9;}
	.st103{clip-path:url(#SVGID_10_);fill:#FFFFFF;}
	.st104{clip-path:url(#SVGID_12_);fill:#7EC6BC;}
</style>
<g>
	<path class="st0" d="M308.6,291.8v-34.3h27.8c44.3,0,80.2-36,80.2-80.3s-35.9-80.3-80.2-80.3h-27.8V62.5c-3.9,0-5.5,0.1-8.3,0.1
		c-41.5,0-75.7-24.5-90.9-60.6c-15.2,36.1-49.5,60.6-90.9,60.6c-2.8,0-4.4-0.1-8.3-0.1v34.3H82.2c-44.3,0-80.2,36-80.2,80.3
		s35.9,80.3,80.2,80.3H110v34.3c3.9,0,5.5-0.1,8.3-0.1c41.5,0,75.7,24.5,90.9,60.6c15.2-36.1,49.5-60.6,90.9-60.6
		C303,291.7,304.7,291.8,308.6,291.8z"/>
	<g>
		<g>
			<path class="st79" d="M69.9,282.7h-3.2l-0.7,2h-2l3.3-9.1h2l3.3,9.1h-2L69.9,282.7z M67.2,281.3h2.2l-1.1-3.2h0L67.2,281.3z"/>
			<path class="st79" d="M91.3,283.4c-0.3,0.4-0.8,0.7-1.4,1c-0.6,0.3-1.4,0.4-2.3,0.4c-1.2,0-2.2-0.3-2.9-1s-1.1-1.6-1.1-2.7v-1.9
				c0-1.1,0.4-2,1.1-2.7s1.7-1,2.8-1c1.2,0,2.1,0.3,2.7,0.8c0.6,0.5,0.9,1.2,0.9,2.1l0,0h-1.8c0-0.5-0.2-0.9-0.5-1.1
				c-0.3-0.3-0.7-0.4-1.3-0.4c-0.6,0-1.1,0.2-1.5,0.6c-0.4,0.4-0.6,1-0.6,1.7v1.9c0,0.7,0.2,1.2,0.6,1.7c0.4,0.4,0.9,0.6,1.5,0.6
				c0.5,0,0.8,0,1.1-0.1c0.3-0.1,0.5-0.2,0.6-0.3v-1.8h-1.9v-1.3h3.9V283.4z"/>
			<path class="st79" d="M98.4,281.1v3.6h-2v-9.1h3.4c1.1,0,2,0.2,2.6,0.7c0.6,0.5,0.9,1.1,0.9,2c0,0.5-0.1,0.9-0.4,1.2
				c-0.3,0.3-0.7,0.6-1.2,0.8c0.6,0.2,1,0.4,1.2,0.8c0.3,0.4,0.4,0.8,0.4,1.4v0.7c0,0.3,0,0.5,0.1,0.8c0.1,0.3,0.2,0.5,0.4,0.6v0.1
				h-2c-0.2-0.1-0.3-0.4-0.3-0.7c-0.1-0.3-0.1-0.6-0.1-0.9v-0.6c0-0.5-0.1-0.8-0.4-1.1s-0.6-0.4-1.1-0.4H98.4z M98.4,279.6h1.4
				c0.6,0,1-0.1,1.2-0.3c0.3-0.2,0.4-0.5,0.4-1c0-0.4-0.1-0.7-0.4-1s-0.7-0.4-1.2-0.4h-1.4V279.6z"/>
			<path class="st79" d="M114.3,280.7h-3.6v2.6h4.3v1.4h-6.3v-9.1h6.3v1.4h-4.3v2.3h3.6V280.7z"/>
			<path class="st79" d="M124.9,282.7h-3.2l-0.7,2h-2l3.3-9.1h2l3.3,9.1h-2L124.9,282.7z M122.2,281.3h2.2l-1.1-3.2h0L122.2,281.3z"
				/>
			<path class="st79" d="M138.2,277h-2.8v7.7h-2V277h-2.8v-1.4h7.5V277z"/>
			<path class="st79" d="M149.6,284.7v-9.1h3.2c1.2,0,2,0.2,2.7,0.6c0.6,0.4,1,1,1,1.9c0,0.4-0.1,0.8-0.3,1.1
				c-0.2,0.3-0.6,0.6-1,0.7c0.6,0.1,1.1,0.3,1.4,0.7c0.3,0.4,0.5,0.8,0.5,1.4c0,0.9-0.3,1.5-0.9,2c-0.6,0.4-1.5,0.7-2.6,0.7H149.6z
				 M151.5,279.4h1.3c0.5,0,0.9-0.1,1.2-0.3c0.3-0.2,0.4-0.5,0.4-0.9c0-0.4-0.1-0.7-0.4-0.9c-0.3-0.2-0.7-0.3-1.3-0.3h-1.2V279.4z
				 M151.5,280.7v2.6h1.8c0.5,0,0.9-0.1,1.2-0.3s0.4-0.5,0.4-0.9c0-0.4-0.1-0.8-0.4-1c-0.3-0.2-0.7-0.4-1.2-0.4H151.5z"/>
			<path class="st79" d="M163.8,281.1v3.6h-2v-9.1h3.4c1.1,0,2,0.2,2.6,0.7c0.6,0.5,0.9,1.1,0.9,2c0,0.5-0.1,0.9-0.4,1.2
				c-0.3,0.3-0.7,0.6-1.2,0.8c0.6,0.2,1,0.4,1.2,0.8c0.3,0.4,0.4,0.8,0.4,1.4v0.7c0,0.3,0,0.5,0.1,0.8c0.1,0.3,0.2,0.5,0.4,0.6v0.1
				h-2c-0.2-0.1-0.3-0.4-0.3-0.7c-0.1-0.3-0.1-0.6-0.1-0.9v-0.6c0-0.5-0.1-0.8-0.4-1.1s-0.6-0.4-1.1-0.4H163.8z M163.8,279.6h1.4
				c0.6,0,1-0.1,1.2-0.3c0.3-0.2,0.4-0.5,0.4-1c0-0.4-0.1-0.7-0.4-1s-0.7-0.4-1.2-0.4h-1.4V279.6z"/>
			<path class="st79" d="M176.1,284.7h-2v-9.1h2V284.7z"/>
			<path class="st79" d="M188.1,277h-2.8v7.7h-2V277h-2.8v-1.4h7.5V277z"/>
			<path class="st79" d="M194.7,284.7h-2v-9.1h2V284.7z"/>
			<path class="st79" d="M205.2,282.3c0-0.3-0.1-0.6-0.4-0.8c-0.3-0.2-0.7-0.4-1.4-0.6c-1.1-0.3-2-0.7-2.6-1.1
				c-0.6-0.4-0.9-1-0.9-1.8c0-0.7,0.3-1.4,1-1.8c0.7-0.5,1.5-0.7,2.5-0.7c1.1,0,2,0.3,2.6,0.8s1,1.2,1,2l0,0h-1.9
				c0-0.5-0.1-0.8-0.4-1c-0.3-0.2-0.7-0.4-1.2-0.4c-0.5,0-0.9,0.1-1.1,0.3c-0.3,0.2-0.4,0.5-0.4,0.8c0,0.3,0.1,0.6,0.4,0.8
				c0.3,0.2,0.8,0.4,1.5,0.6c1.1,0.3,1.9,0.7,2.5,1.1s0.8,1.1,0.8,1.8c0,0.8-0.3,1.4-1,1.8c-0.7,0.4-1.5,0.7-2.6,0.7
				c-1.1,0-2-0.2-2.7-0.7c-0.8-0.5-1.1-1.2-1.1-2.2l0,0h1.9c0,0.5,0.2,0.9,0.5,1.2c0.3,0.3,0.8,0.4,1.4,0.4c0.5,0,0.9-0.1,1.2-0.3
				S205.2,282.7,205.2,282.3z"/>
			<path class="st79" d="M220,284.7h-2v-3.8h-4v3.8h-2v-9.1h2v3.9h4v-3.9h2V284.7z"/>
			<path class="st79" d="M239.4,281.7L239.4,281.7c0,1-0.3,1.8-0.9,2.3s-1.6,0.8-2.7,0.8c-1.2,0-2.1-0.4-2.8-1.1
				c-0.7-0.7-1.1-1.6-1.1-2.7v-1.8c0-1.1,0.4-2,1.1-2.7c0.7-0.7,1.6-1.1,2.8-1.1c1.2,0,2.1,0.3,2.8,0.8c0.7,0.5,1,1.3,1,2.3l0,0
				h-1.9c0-0.6-0.2-1-0.5-1.3c-0.3-0.3-0.8-0.4-1.4-0.4c-0.6,0-1,0.2-1.4,0.7c-0.3,0.4-0.5,1-0.5,1.7v1.8c0,0.7,0.2,1.3,0.5,1.7
				c0.3,0.4,0.8,0.7,1.4,0.7c0.6,0,1-0.1,1.3-0.4s0.4-0.7,0.4-1.3H239.4z"/>
			<path class="st79" d="M252,275.6v5.9c0,1-0.4,1.8-1.1,2.4s-1.7,0.9-2.8,0.9c-1.2,0-2.1-0.3-2.8-0.9c-0.7-0.6-1.1-1.4-1.1-2.4
				v-5.9h2v5.9c0,0.6,0.2,1.1,0.5,1.4c0.3,0.3,0.8,0.5,1.4,0.5c0.6,0,1.1-0.2,1.4-0.5c0.4-0.3,0.5-0.8,0.5-1.4v-5.9H252z"/>
			<path class="st79" d="M259.1,281.1v3.6h-2v-9.1h3.4c1.1,0,2,0.2,2.6,0.7c0.6,0.5,0.9,1.1,0.9,2c0,0.5-0.1,0.9-0.4,1.2
				c-0.3,0.3-0.7,0.6-1.2,0.8c0.6,0.2,1,0.4,1.2,0.8c0.3,0.4,0.4,0.8,0.4,1.4v0.7c0,0.3,0,0.5,0.1,0.8c0.1,0.3,0.2,0.5,0.4,0.6v0.1
				h-2c-0.2-0.1-0.3-0.4-0.3-0.7c-0.1-0.3-0.1-0.6-0.1-0.9v-0.6c0-0.5-0.1-0.8-0.4-1.1s-0.6-0.4-1.1-0.4H259.1z M259.1,279.6h1.4
				c0.6,0,1-0.1,1.2-0.3c0.3-0.2,0.4-0.5,0.4-1c0-0.4-0.1-0.7-0.4-1s-0.7-0.4-1.2-0.4h-1.4V279.6z"/>
			<path class="st79" d="M271.4,281.1v3.6h-2v-9.1h3.4c1.1,0,2,0.2,2.6,0.7c0.6,0.5,0.9,1.1,0.9,2c0,0.5-0.1,0.9-0.4,1.2
				c-0.3,0.3-0.7,0.6-1.2,0.8c0.6,0.2,1,0.4,1.2,0.8c0.3,0.4,0.4,0.8,0.4,1.4v0.7c0,0.3,0,0.5,0.1,0.8c0.1,0.3,0.2,0.5,0.4,0.6v0.1
				h-2c-0.2-0.1-0.3-0.4-0.3-0.7c-0.1-0.3-0.1-0.6-0.1-0.9v-0.6c0-0.5-0.1-0.8-0.4-1.1s-0.6-0.4-1.1-0.4H271.4z M271.4,279.6h1.4
				c0.6,0,1-0.1,1.2-0.3c0.3-0.2,0.4-0.5,0.4-1c0-0.4-0.1-0.7-0.4-1s-0.7-0.4-1.2-0.4h-1.4V279.6z"/>
			<path class="st79" d="M284.7,279.8L284.7,279.8l2.2-4.2h2.2l-3.4,5.9v3.2h-2v-3.3l-3.3-5.8h2.2L284.7,279.8z"/>
			<path class="st79" d="M308.3,284.7h-2v-3.8h-4v3.8h-2v-9.1h2v3.9h4v-3.9h2V284.7z"/>
			<path class="st79" d="M321.4,281c0,1.1-0.4,2-1.1,2.8c-0.8,0.7-1.7,1.1-3,1.1c-1.2,0-2.2-0.4-2.9-1.1s-1.1-1.6-1.1-2.8v-1.6
				c0-1.1,0.4-2,1.1-2.8c0.8-0.7,1.7-1.1,2.9-1.1c1.2,0,2.2,0.4,3,1.1s1.1,1.6,1.1,2.8V281z M319.5,279.3c0-0.7-0.2-1.3-0.6-1.7
				c-0.4-0.5-0.9-0.7-1.6-0.7c-0.7,0-1.2,0.2-1.5,0.7c-0.4,0.5-0.6,1-0.6,1.7v1.6c0,0.7,0.2,1.3,0.6,1.8c0.4,0.5,0.9,0.7,1.6,0.7
				c0.7,0,1.2-0.2,1.6-0.7c0.4-0.5,0.6-1,0.6-1.8V279.3z"/>
			<path class="st79" d="M334.2,275.6v5.9c0,1-0.4,1.8-1.1,2.4s-1.7,0.9-2.8,0.9c-1.2,0-2.1-0.3-2.8-0.9c-0.7-0.6-1.1-1.4-1.1-2.4
				v-5.9h2v5.9c0,0.6,0.2,1.1,0.5,1.4c0.3,0.3,0.8,0.5,1.4,0.5c0.6,0,1.1-0.2,1.4-0.5c0.4-0.3,0.5-0.8,0.5-1.4v-5.9H334.2z"/>
			<path class="st79" d="M344.4,282.3c0-0.3-0.1-0.6-0.4-0.8c-0.3-0.2-0.7-0.4-1.4-0.6c-1.1-0.3-2-0.7-2.6-1.1
				c-0.6-0.4-0.9-1-0.9-1.8c0-0.7,0.3-1.4,1-1.8c0.7-0.5,1.5-0.7,2.5-0.7c1.1,0,2,0.3,2.6,0.8s1,1.2,1,2l0,0h-1.9
				c0-0.5-0.1-0.8-0.4-1c-0.3-0.2-0.7-0.4-1.2-0.4c-0.5,0-0.9,0.1-1.1,0.3c-0.3,0.2-0.4,0.5-0.4,0.8c0,0.3,0.1,0.6,0.4,0.8
				c0.3,0.2,0.8,0.4,1.5,0.6c1.1,0.3,1.9,0.7,2.5,1.1s0.8,1.1,0.8,1.8c0,0.8-0.3,1.4-1,1.8c-0.7,0.4-1.5,0.7-2.6,0.7
				c-1.1,0-2-0.2-2.7-0.7c-0.8-0.5-1.1-1.2-1.1-2.2l0,0h1.9c0,0.5,0.2,0.9,0.5,1.2c0.3,0.3,0.8,0.4,1.4,0.4c0.5,0,0.9-0.1,1.2-0.3
				S344.4,282.7,344.4,282.3z"/>
			<path class="st79" d="M356.9,280.7h-3.6v2.6h4.3v1.4h-6.3v-9.1h6.3v1.4h-4.3v2.3h3.6V280.7z"/>
		</g>
	</g>
	<g>
		<g>
			<path class="st38" d="M137.6,83.1c0,0,0.5,0,0.5,0c0.3,0,0.6,0.2,0.7,0.5c0.1,0.3,0.1,0.6-0.1,0.8c-0.5,0.6-0.9,1.4-1,2.2
				c0,0.3,0.1,0.6,0.2,0.8c0.1,0.2,0.3,0.3,0.6,0.3c0.4,0.1,0.6,0.4,0.6,0.8l0.2,96.3c0.7-1.4,1.5-2.6,2.3-3.8
				c5.2-7.4,11.3-11.8,18.2-13c5.1-5.1,11.3-7.6,18.4-7.6c6.6,0,12.2,2.1,16.7,6.3l-0.1-42.3c0-0.9,0.3-23.1,22.9-24
				c0.1,0,0.1,0,0.2,0c0,0,0.1,0,0.1,0c0,0,0.3,0,0.3,0s0.4,0,0.4,0c0.1,0,0.1,0,0.1,0c0.1,0,0.1,0,0.2,0c22.6,0.8,22.9,23,23,23.9
				l0,13.8c0.1-0.1,0.1-0.1,0.2-0.2c1.2-1.3,3.3-2.7,6.6-4.5c3.4-1.8,7-2.8,10.8-2.8c8,0,17.4,4.4,17.4,25.3v9.4
				c0.4-0.3,0.9-0.7,1.4-1c4.1-2.7,9.4-4.1,16-4.1c1.1,0,2.2,0.1,3.3,0.2l-0.1-72.4c0-0.4,0.3-0.7,0.6-0.8c0.2,0,0.4-0.2,0.6-0.3
				c0.2-0.2,0.3-0.5,0.2-0.8c-0.1-0.8-0.5-1.6-1-2.2c-0.2-0.2-0.2-0.6-0.1-0.8s0.4-0.5,0.7-0.5l0.5,0c0.4,0,0.7-0.2,0.9-0.5
				c0.2-0.3,0.2-0.7,0-1l-2.3-4.3c-0.2-0.3-0.5-0.6-0.9-0.6l-2.1,0c-0.2,0-0.4-0.1-0.5-0.2c-0.1-0.1-0.2-0.3-0.2-0.6l0-12.3
				c0-0.6-0.5-1-1-1l-11.4,0c-0.2,0-0.4-0.1-0.5-0.2c-0.1-0.1-0.2-0.3-0.2-0.6l0-8.6c0-0.6-0.5-1-1-1c0,0-6.9,0-6.9,0
				c-0.4,0-0.8-0.3-0.8-0.8l0-11.8c0-0.4,0.3-0.8,0.8-0.8l0.9,0c0.3,0,0.6-0.1,0.8-0.4c0.2-0.2,0.3-0.5,0.2-0.8
				c-0.5-2.3-3.1-4.7-6.6-4.7c0,0-3.9,0-3.9,0c-0.1,0-0.2,0-0.3,0c-6.2-2.3-40.8-10.6-45.3-11.4c0,0-0.1,0-0.1,0c0,0-0.1,0-0.1,0
				c0,0-0.1,0-0.1,0c0,0-0.1,0-0.1,0c-4.4,0.8-39,9.2-45.2,11.5c-0.1,0-0.2,0-0.3,0l-3.9,0c-3.5,0-6.1,2.5-6.6,4.8
				c-0.1,0.3,0,0.6,0.2,0.8c0.2,0.2,0.5,0.4,0.8,0.4c0,0,0.9,0,1,0c0.2,0,0.4,0.1,0.5,0.2c0.1,0.1,0.2,0.3,0.2,0.6l0,11.8
				c0,0.2-0.1,0.4-0.2,0.6c-0.1,0.1-0.3,0.2-0.6,0.2l-6.9,0c-0.6,0-1,0.5-1,1l0,8.6c0,0.2-0.1,0.4-0.2,0.6c-0.1,0.1-0.3,0.2-0.6,0.2
				l-11.4,0c-0.6,0-1,0.5-1,1l0,12.3c0,0.2-0.1,0.4-0.2,0.6c-0.1,0.1-0.3,0.2-0.5,0.2l-2.1,0c-0.4,0-0.7,0.2-0.9,0.6l-2.2,4.4
				c-0.2,0.3-0.1,0.7,0,1C136.9,82.9,137.2,83.1,137.6,83.1z"/>
			<g>
				<polygon class="st18" points="145.6,133.3 146.5,133.3 148.4,133.3 149.3,133.3 149.8,133.3 149.8,130.6 149.3,130.6 
					148.4,130.6 146.5,130.6 145.6,130.6 145.2,130.6 144.3,130.6 143.8,130.6 143.8,133.3 144.3,133.3 145.2,133.3 				"/>
				<polygon class="st18" points="145.6,134.2 145.2,134.2 145.2,149.4 145.7,149.4 146.6,149.4 148.5,149.4 148.4,134.2 
					146.5,134.2 				"/>
				<path class="st18" d="M217.5,99.4L217.5,99.4c0.2,0,0.5,0,0.7,0c0.2,0,0.5,0,0.7,0l0,0c23.9,0.9,23.9,24.9,23.9,24.9l0,12.8
					c0.2-0.2,0.4-0.4,0.7-0.6l0-20.3c0-1-0.3-24.8-24.6-25.6c-0.1,0-0.2,0-0.2,0c0,0-0.1,0-0.1,0l-0.4,0l-0.3,0c0,0-0.1,0-0.1,0
					c-0.1,0-0.2,0-0.2,0c-24.2,1-24.5,24.7-24.5,25.7l0.1,48.9c0.2,0.2,0.5,0.4,0.7,0.6l-0.1-41.4
					C193.7,124.4,193.7,100.3,217.5,99.4z"/>
				<path class="st18" d="M297.6,85.8C297.6,85.8,297.6,85.8,297.6,85.8L297.6,85.8c-0.1-0.3-0.3-0.6-0.5-0.8
					c-0.1-0.1-0.2-0.2-0.2-0.3c0,0,0,0,0,0c-0.2-0.2-0.3-0.3-0.5-0.4c0,0,0,0,0,0c-0.3-0.2-0.6-0.3-0.9-0.3l-29.9,0l-0.9,0l-1.9,0
					l-0.9,0l-8.3,0c-0.5,0-1,0.2-1.4,0.6c-0.3,0.3-0.5,0.6-0.7,0.9c-0.2,0.3-0.3,0.7-0.3,1l0.5,0l0.9,0l9.2,0l0.9,0l1.9,0l0.9,0
					l30.9-0.1l0.9,0l0.5,0C297.7,86.3,297.7,86.1,297.6,85.8C297.6,85.8,297.6,85.8,297.6,85.8z"/>
				<path class="st18" d="M150.5,126.8l0.8,0l3,0l1.7,0l12.1,0l1.7,0l1.3,0l0.9,0l0.9,0l0.8,0l0.2,0l0.9,0l0.5,0l0.9,0
					c-0.1-0.3-0.3-0.6-0.5-0.8c-0.2-0.2-0.3-0.3-0.5-0.3l-0.4,0l0,0l-0.5,0l-0.4,0l-0.5,0l-0.2,0l-0.9,0l-0.3,0l-0.9,0l-1,0l-0.9,0
					l-0.5,0l-0.9,0l-11.4,0l-0.9,0l-0.5,0l-0.9,0l-2.2,0l-0.9,0l-0.2,0l-0.9,0l-0.5,0l-0.4,0c-0.2,0-0.4,0.1-0.5,0.3
					c-0.2,0.2-0.4,0.5-0.5,0.8l0.9,0L150.5,126.8z"/>
				<path class="st18" d="M255.3,130.3c-0.1,0-0.1-0.1-0.2-0.1c-0.2-0.2-0.2-0.5-0.2-0.7c0.1-0.4,0.2-0.9,0.4-1.3
					c0-0.1,0.1-0.1,0.1-0.2c0,0,0,0,0,0c0,0,0.1-0.1,0.1-0.1c0.5-0.7,1.2-1.2,2.1-1.2l1.7,0c0.3-0.8,0.8-1.6,1.5-1.9l0-0.9
					c0-0.5,0.4-0.9,0.9-0.9c0,0,0,0,0,0l0.5,0l0-5.1l-0.5,0c0,0,0,0,0,0c-0.5,0-0.9-0.4-0.9-0.9l0-0.6l-0.9,0
					c-0.3,0-0.5-0.1-0.7-0.3s-0.3-0.5-0.2-0.7c0.1-0.7,0.7-3.2,2.3-3.2l0.4,0l0.9,0l1.9,0l0.9,0l22,0c1.6,0,2.3,2.5,2.4,3.2
					c0,0.3,0,0.5-0.2,0.7c-0.2,0.2-0.4,0.3-0.7,0.3l-0.9,0l0,0.6c0,0.5-0.4,0.9-0.9,0.9l-0.5,0l0,5.1l0.5,0c0.5,0,0.9,0.4,0.9,0.9
					l0,0.9c0.7,0.3,1.2,1.1,1.5,1.9l1.7,0c0.9,0,1.6,0.5,2.1,1.2c0,0,0,0.1,0.1,0.1c0,0,0,0.1,0.1,0.1c0,0.1,0.1,0.1,0.1,0.2
					c0.2,0.4,0.4,0.8,0.5,1.3c0,0.3,0,0.5-0.2,0.7c0,0.1-0.1,0.1-0.2,0.1l0,2.8c0,0.5-0.4,0.9-0.9,0.9l-0.5,0l0,15.2l0.5,0
					c0.5,0,0.9,0.4,0.9,0.9l0,0.4c1.5,0.2,2.5,1.6,2.7,3c0,0.3,0,0.5-0.2,0.7c-0.2,0.2-0.4,0.3-0.7,0.3l-2.1,0l0,6
					c0.3,0,0.5,0,0.8,0c0.8,0,1.5,0,2.3,0.1l-0.1-73.1l-30.9,0.1l-0.9,0l-1.9,0l-0.9,0l-9.2,0l0.1,44.3c0.9-0.3,1.8-0.5,2.7-0.7
					L255.3,130.3z M274.5,98.8c3,0,5.5,2.5,5.5,5.5c0,3-2.5,5.5-5.5,5.5c-3,0-5.5-2.5-5.5-5.5C269,101.3,271.4,98.8,274.5,98.8z"/>
				<path class="st18" d="M162,99.9c-2.5,0-4.6,2.1-4.6,4.6c0,0.9,0.3,1.7,0.7,2.4c0.8,0.9,2,1.5,3.4,1.5c2.5,0,4.6-2.1,4.6-4.6
					c0-0.9-0.3-1.7-0.7-2.4C164.5,100.4,163.4,99.9,162,99.9z"/>
				<path class="st18" d="M217.5,89.7L217.5,89.7c0.3,0,0.5,0,0.7,0c0.3,0,0.5,0,0.7,0v0c25.4,0.9,25.5,26.5,25.5,26.5l0,19.7
					c1.1-0.8,2.5-1.6,4.2-2.5c1-0.5,2-1,3.1-1.4l-0.1-44.6l-0.5,0c-0.3,0-0.5-0.1-0.7-0.3c-0.2-0.2-0.2-0.5-0.2-0.7
					c0-0.3,0.1-0.6,0.2-0.9L186,85.6c0.1,0.3,0.2,0.6,0.2,0.9c0,0.3,0,0.5-0.2,0.7c-0.2,0.2-0.4,0.3-0.7,0.3l-0.5,0l0.1,73.7
					c2.6,0.7,5,1.8,7.2,3.3l-0.1-48.2C192.1,116.3,192.1,90.7,217.5,89.7z"/>
				<polygon class="st18" points="149.9,124.9 150.8,124.9 151,124.9 151.9,124.9 154.1,124.8 155,124.8 155.5,124.8 155.5,124 
					155,124 154.1,124 151.9,124 151,124 150.8,124 149.9,124 149.4,124 149.4,124.9 				"/>
				<path class="st18" d="M182.7,152.5c-0.1-0.1-0.2-0.3-0.3-0.4c-0.3-0.3-0.7-0.6-1.1-0.7c-0.1,0-0.2,0-0.3,0l-0.6,0l-0.5,0l-0.9,0
					l-0.4,0l-0.9,0l-1.9,0l-0.9,0l-0.1,0l-0.4,0l-0.5,0l-0.4,0l-0.8,0l-0.7,0l-0.2,0l-0.7,0l-18.6,0l-0.9,0l-0.8,0l-0.9,0l-0.5,0
					l-0.9,0l-1.9,0l-0.9,0l-0.4,0l-0.9,0l-0.5,0l-0.6,0c-0.1,0-0.2,0-0.3,0c-0.4,0.1-0.8,0.3-1.1,0.7c-0.1,0.1-0.2,0.2-0.3,0.4
					c-0.2,0.4-0.4,0.8-0.4,1.2l2.1,0l0.9,0l6.8,0l0.9,0l19.3,0l0.9,0l0.4,0l0.9,0l0.6,0l0.9,0l5.3,0l0.9,0l2.1,0
					C183.1,153.3,182.9,152.9,182.7,152.5z"/>
				<polygon class="st18" points="144.3,150.6 145.2,150.6 145.7,150.6 146.6,150.6 148.5,150.6 149.4,150.6 149.9,150.6 
					149.9,150.3 149.4,150.3 148.5,150.3 146.6,150.3 145.7,150.3 145.2,150.3 144.3,150.3 143.8,150.3 143.8,150.6 				"/>
				<polygon class="st18" points="151,118 150.8,118 150.8,123.1 151,123.1 151.9,123.1 154,123.1 154,118 151.9,118 				"/>
				<path class="st18" d="M253.5,83.1l8.3,0l0.9,0l1.9,0l0.9,0l29.9,0c0.3,0,0.6,0.1,0.9,0.2l0-0.5l-30.9,0.1l-0.9,0l-1.9,0l-0.9,0
					l-87.1,0.1l-0.9,0l-1.9,0l-0.9,0L140.1,83l0,0.5c0.3-0.1,0.6-0.2,0.9-0.2l29.9,0l0.9,0l1.9,0l0.9,0l8.3,0c1.1,0,2,0.6,2.6,1.5
					l65.4-0.1C251.5,83.8,252.4,83.1,253.5,83.1z"/>
				<polygon class="st18" points="174.2,116.5 173.8,116.5 173.3,116.5 173.1,116.5 172.2,116.5 171.9,116.5 171,116.5 170.1,116.5 
					169.2,116.6 168.7,116.6 168.7,117.1 169.2,117.1 170.1,117.1 171,117.1 171.9,117.1 172.2,117.1 173.1,117.1 173.3,117.1 
					173.8,117.1 174.2,117.1 174.7,117.1 174.7,116.5 				"/>
				<polygon class="st18" points="179.8,130.6 178.9,130.6 178.5,130.6 177.6,130.6 175.7,130.6 174.8,130.6 174.7,130.6 
					174.3,130.6 174.3,133.2 174.8,133.2 174.8,133.2 175.7,133.2 177.6,133.2 178.5,133.2 178.9,133.2 179.8,133.2 180.3,133.2 
					180.3,130.6 				"/>
				<path class="st18" d="M149.9,115.7l0.9,0l0.2,0l0.9,0l2.2,0l0.9,0l0.5,0v0l0.9,0v0l11.4,0v0l0.9,0v0l0.5,0l0.9,0l1,0l0.9,0
					l0.3,0l0.9,0l0.2,0l0.5,0l0.4,0l0.5,0v0l0,0l0.9,0v0l0.9,0v0c0-0.2-0.1-0.4-0.2-0.7c-0.1-0.3-0.2-0.5-0.3-0.8
					c-0.3-0.5-0.6-0.9-1-0.9l-0.4,0l-0.9,0l-1.9,0l-0.9,0l-22,0c-0.4,0-0.7,0.4-1,0.9c-0.1,0.3-0.2,0.5-0.3,0.8
					c-0.1,0.3-0.1,0.5-0.2,0.7v0l0.9,0v0l0.9,0v0L149.9,115.7z"/>
				<path class="st18" d="M168.7,118c-0.2,0-0.3-0.1-0.4-0.1l0,5.3c0.1-0.1,0.3-0.1,0.4-0.1l0.5,0l0-5.1L168.7,118z"/>
				<polygon class="st18" points="171.9,123.1 172.2,123.1 173.1,123.1 173.3,123.1 173.3,118 173.1,118 172.2,118 171.9,118 
					171,118 170.1,118 170.1,123.1 171,123.1 				"/>
				<path class="st18" d="M278.5,103.5c0-0.9-0.3-1.7-0.7-2.4c-0.8-0.9-2-1.5-3.4-1.5c-2.5,0-4.6,2.1-4.6,4.6c0,0.9,0.3,1.7,0.7,2.4
					c0.8,0.9,2,1.4,3.3,1.4C276.5,108.1,278.5,106.1,278.5,103.5z"/>
				<polygon class="st18" points="151,117.1 151.9,117.1 154,117.1 154.9,117.1 155.4,117.1 155.4,116.6 154.9,116.6 154,116.6 
					151.9,116.6 151,116.6 150.8,116.6 149.9,116.6 149.4,116.6 149.4,117.1 149.9,117.1 150.8,117.1 				"/>
				<path class="st18" d="M154.9,118l0,5.1l0.5,0c0.2,0,0.3,0.1,0.4,0.1l0-5.3c-0.1,0.1-0.3,0.1-0.4,0.1L154.9,118z"/>
				<path class="st18" d="M156.4,124.8l11.4,0l0-0.8c-0.1,0.1-0.3,0.1-0.4,0.1l-10.6,0c-0.2,0-0.3-0.1-0.4-0.1L156.4,124.8z"/>
				
					<rect x="156.8" y="117.3" transform="matrix(1 -1.641616e-03 1.641616e-03 1 -0.1972 0.2662)" class="st18" width="10.6" height="6"/>
				<path class="st18" d="M144.3,129.7l0.9,0l0.4,0l0.9,0l1.9,0l0.9,0l0.5,0v0l0.9,0v0l20.3,0l0.9,0l1.5,0v0l0.4,0l0.5,0v0l0.4,0
					l0.1,0l0.9,0l1.9,0l0.9,0l0.4,0l0.9,0l0.5,0v0l0.4,0c0-0.4-0.2-0.7-0.4-1.1c0,0,0,0,0,0c-0.1-0.1-0.1-0.2-0.2-0.3
					c-0.3-0.3-0.6-0.5-1-0.6c-0.1,0-0.2,0-0.3,0l-1.5,0l-0.9,0l-1.7,0l-0.9,0l-1.9,0l-0.9,0l-23.4,0l-0.9,0l-1.5,0
					c-0.1,0-0.2,0-0.3,0c-0.4,0.1-0.7,0.3-1,0.6c-0.1,0.1-0.1,0.2-0.2,0.3c0,0,0,0,0,0c-0.2,0.3-0.3,0.7-0.4,1.1l0.4,0v0
					L144.3,129.7z"/>
				<path class="st18" d="M277.8,101.2c0.4,0.4,0.7,0.9,0.9,1.4C278.5,102,278.2,101.6,277.8,101.2z"/>
				<polygon class="st18" points="285.6,123.8 284.7,123.8 282.5,123.8 281.6,123.8 281.1,123.8 281.1,124.6 281.6,124.6 
					282.5,124.6 284.7,124.6 285.6,124.6 285.7,124.6 286.6,124.6 287.2,124.6 287.2,123.8 286.6,123.8 285.7,123.8 				"/>
				<path class="st18" d="M276.8,154.4c0,0.5,0,1,0,1.5v9.4c0.4-0.3,0.9-0.7,1.4-1c1.9-1.3,4.1-2.2,6.6-2.9l0-7.1L276.8,154.4z"/>
				<path class="st18" d="M281.1,117.8c-0.2,0-0.3-0.1-0.4-0.1l0,5.3c0.1-0.1,0.3-0.1,0.4-0.1l0.5,0l0-5.1L281.1,117.8z"/>
				<polygon class="st18" points="285.6,122.9 285.7,122.9 285.7,117.8 285.6,117.8 284.7,117.8 282.5,117.8 282.5,122.9 
					284.7,122.9 				"/>
				<path class="st18" d="M174.7,87.6l-0.9,0l-1.9,0l-0.9,0l-30.9,0.1l0.2,95.4c0.4-0.7,0.8-1.3,1.3-2c0.6-0.8,1.2-1.6,1.8-2.4l0-24
					l-2.1,0c-0.3,0-0.5-0.1-0.7-0.3c-0.2-0.2-0.3-0.5-0.2-0.7c0.2-1.4,1.3-2.8,2.7-3l0-0.4c0-0.5,0.4-0.9,0.9-0.9l0.5,0l0-15.2
					l-0.5,0c-0.5,0-0.9-0.4-0.9-0.9l0-2.8c-0.1,0-0.1-0.1-0.2-0.1c-0.2-0.2-0.3-0.5-0.2-0.7c0.1-0.4,0.2-0.9,0.4-1.3
					c0-0.1,0.1-0.1,0.1-0.2c0,0,0-0.1,0.1-0.1c0,0,0-0.1,0.1-0.1c0.5-0.7,1.2-1.2,2.1-1.2l1.7,0c0.3-0.8,0.8-1.6,1.5-1.9l0-0.9
					c0-0.5,0.4-0.9,0.9-0.9l0.5,0l0-5.1l-0.5,0c-0.5,0-0.9-0.4-0.9-0.9l0-0.6l-0.9,0c-0.3,0-0.5-0.1-0.7-0.3
					c-0.2-0.2-0.3-0.5-0.2-0.7c0.1-0.7,0.7-3.2,2.3-3.2l22,0l0.9,0l1.9,0l0.9,0l0.4,0c1.6,0,2.3,2.5,2.4,3.2c0,0.3,0,0.5-0.2,0.7
					s-0.4,0.3-0.7,0.3l-0.9,0l0,0.6c0,0.5-0.4,0.9-0.9,0.9c0,0,0,0,0,0l-0.5,0l0,5.1l0.5,0c0,0,0,0,0,0c0.5,0,0.9,0.4,0.9,0.9l0,0.9
					c0.7,0.3,1.2,1.1,1.5,1.9l1.7,0c0.9,0,1.6,0.5,2.1,1.2c0,0,0.1,0.1,0.1,0.1c0,0,0,0.1,0.1,0.1c0,0.1,0.1,0.1,0.1,0.2
					c0.2,0.4,0.4,0.8,0.5,1.3c0,0.3,0,0.5-0.2,0.7c0,0.1-0.1,0.1-0.2,0.1l0,2.8c0,0.5-0.4,0.9-0.9,0.9l-0.5,0l0,15.2l0.5,0
					c0.5,0,0.9,0.4,0.9,0.9l0,0.4c1.5,0.2,2.5,1.6,2.7,3c0,0.3,0,0.5-0.2,0.7c-0.2,0.2-0.4,0.3-0.7,0.3l-2.1,0l0,5.9
					c1,0.1,2.1,0.3,3,0.5l-0.1-73.5L174.7,87.6z M162,110c-3,0-5.5-2.5-5.5-5.5c0-3,2.5-5.5,5.5-5.5c3,0,5.5,2.5,5.5,5.5
					C167.5,107.5,165.1,110,162,110z"/>
				<path class="st18" d="M266.4,131.4l16.2,0c0.5,0,0.9,0.4,0.9,0.9l0,0.7l0.6,0c0.5,0,0.9,0.4,0.9,0.9l0,16.4l0.8,0l0-0.3
					c0-0.5,0.4-0.9,0.9-0.9l0.5,0l0-15.2l-0.5,0c-0.5,0-0.9-0.4-0.9-0.9l0-2.6l-20.3,0l-0.9,0l-1.5,0l0,0.6c0.9,0.2,1.7,0.4,2.6,0.8
					C265.9,131.6,266.2,131.4,266.4,131.4z"/>
				<path class="st18" d="M261.8,130.5L261.8,130.5l-1,0l-1.9,0l-0.9,0l-0.4,0l-0.9,0l-0.5,0l0,0.4c1.1-0.2,2.1-0.2,3.2-0.2
					c0.9,0,1.9,0.1,2.9,0.2l0-0.4L261.8,130.5z"/>
				<polygon class="st18" points="286.6,116.4 285.7,116.4 285.6,116.4 284.7,116.4 282.5,116.4 281.6,116.4 281.1,116.4 
					281.1,116.9 281.6,116.9 282.5,116.9 284.7,116.9 285.6,116.9 285.7,116.9 286.6,116.9 287.1,116.9 287.1,116.4 				"/>
				<path class="st18" d="M284.1,133.9l-0.6,0l-0.9,0l-13.1,0c3.5,2.8,6.3,7.9,7.1,16.4l7.6,0L284.1,133.9z"/>
				<path class="st18" d="M285.7,153.5l6.8,0l0.9,0l2.1,0c-0.1-0.4-0.2-0.8-0.4-1.2c-0.1-0.1-0.2-0.3-0.3-0.4
					c-0.3-0.3-0.7-0.6-1.1-0.7c-0.1,0-0.2,0-0.3,0l-0.6,0l-0.5,0l-0.9,0l-0.4,0l-0.9,0l-1.9,0l-0.9,0l-0.5,0l-0.9,0l-0.8,0l-0.9,0
					l-7.5,0c0.1,0.7,0.1,1.5,0.1,2.3l8,0L285.7,153.5z"/>
				<path class="st18" d="M282.6,132.3l-15.5,0c0.4,0.2,0.8,0.5,1.2,0.7l14.3,0L282.6,132.3z"/>
				<path class="st18" d="M285.7,154.4l0,6.9c2.1-0.5,4.3-0.8,6.8-0.9l0-6L285.7,154.4z"/>
				<path class="st18" d="M287.2,129.5l0.9,0l1.9,0l0.9,0l0.4,0l0.9,0l0.5,0v0l0.4,0c0-0.4-0.2-0.7-0.4-1.1c0,0,0,0,0,0
					c-0.1-0.1-0.1-0.2-0.2-0.3c-0.3-0.3-0.6-0.5-1-0.6c-0.1,0-0.2,0-0.3,0l-1.5,0l-0.9,0l-23.3,0l-0.9,0l-1.9,0l-0.9,0l-1.7,0
					l-0.9,0l-1.5,0c-0.1,0-0.2,0-0.3,0c-0.4,0.1-0.7,0.3-1,0.6c-0.1,0.1-0.1,0.2-0.2,0.3c0,0,0,0,0,0c-0.1,0.2-0.2,0.3-0.3,0.5
					c-0.1,0.2-0.1,0.4-0.1,0.5l0.4,0v0l0.5,0l0.9,0l0.4,0l0.9,0l1.9,0l0.9,0l0.1,0l0.4,0v0l0.5,0l0.4,0v0l1.5,0l0.9,0l20.3,0v0
					l0.9,0v0L287.2,129.5z"/>
				<polygon class="st18" points="290.1,133 291,133 291.4,133 292.3,133 292.8,133 292.8,130.4 292.3,130.4 291.4,130.4 
					290.9,130.4 290,130.4 288.1,130.4 287.2,130.4 286.7,130.4 286.7,133 287.3,133 288.2,133 				"/>
				<path class="st18" d="M261.8,126.6l0.9,0l0.2,0l0.8,0l0.9,0l0.9,0l1.3,0l1.7,0l12.1,0l1.7,0l3,0l0.8,0l1.7,0l0.9,0
					c-0.1-0.3-0.3-0.6-0.5-0.8c-0.2-0.2-0.3-0.3-0.5-0.3l-0.4,0l-0.5,0l-0.9,0l-0.2,0l-0.9,0l-2.2,0l-0.9,0l-0.5,0l-0.9,0l-11.4,0
					l-0.9,0l-0.5,0l-0.9,0l-1,0l-0.9,0l-0.3,0l-0.9,0l-0.2,0l-0.5,0l-0.4,0l-0.5,0l0,0l-0.4,0c-0.2,0-0.4,0.1-0.5,0.3
					c-0.2,0.2-0.4,0.5-0.5,0.8l0.9,0L261.8,126.6z"/>
				<polygon class="st18" points="292.3,150 291.4,150 291,150 290.1,150 288.2,150 287.3,150 286.8,150 286.8,150.4 287.3,150.4 
					288.2,150.4 290.1,150.4 291,150.4 291.4,150.4 292.3,150.4 292.8,150.4 292.8,150 				"/>
				<polygon class="st18" points="290.1,133.9 288.2,133.9 288.2,149.1 290.1,149.1 291,149.1 291.4,149.1 291.4,133.9 291,133.9 
									"/>
				<polygon class="st18" points="262.4,124.7 262.7,124.7 263.3,124.7 263.4,124.7 264.3,124.7 264.6,124.7 265.5,124.7 
					266.5,124.7 267.4,124.7 267.9,124.7 267.9,123.8 267.4,123.8 266.5,123.8 265.5,123.8 264.6,123.8 264.3,123.8 263.4,123.8 
					263.3,123.8 262.7,123.8 262.4,123.8 261.9,123.8 261.9,124.7 				"/>
				<polygon class="st18" points="264.6,117.8 264.3,117.8 263.4,117.8 263.2,117.8 263.3,122.9 263.4,122.9 264.3,122.9 
					264.6,122.9 265.5,122.9 266.5,122.9 266.5,117.8 265.5,117.8 				"/>
				<path class="st18" d="M262.3,115.5l0.4,0l0.5,0l0.2,0l0.9,0l0.3,0l0.9,0l1,0l0.9,0l0.5,0v0l0.9,0v0l11.4,0v0l0.9,0v0l0.5,0
					l0.9,0l2.2,0l0.9,0l0.2,0l0.9,0l0.5,0v0l0.9,0v0l0.9,0v0c0-0.1,0-0.2-0.1-0.4c-0.1-0.2-0.1-0.5-0.2-0.7
					c-0.1-0.1-0.1-0.3-0.2-0.4c-0.3-0.5-0.6-0.9-1-0.9l-22,0l-0.9,0l-1.9,0l-0.9,0l-0.4,0c-0.4,0-0.7,0.4-1,0.9
					c-0.1,0.1-0.1,0.3-0.2,0.4c-0.1,0.2-0.2,0.5-0.2,0.7c0,0.1-0.1,0.3-0.1,0.4v0l0.9,0v0l0.9,0l0,0v0L262.3,115.5z"/>
				<path class="st18" d="M268.8,124.7l11.4,0l0-0.8c-0.1,0.1-0.3,0.1-0.4,0.1l-10.6,0c-0.2,0-0.3-0.1-0.4-0.1L268.8,124.7z"/>
				
					<rect x="269.2" y="117.1" transform="matrix(1 -1.653253e-03 1.653253e-03 1 -0.1982 0.454)" class="st18" width="10.6" height="6"/>
				<polygon class="st18" points="263.2,116.9 263.4,116.9 264.3,116.9 264.6,116.9 265.5,116.9 266.5,116.9 267.4,116.9 
					267.9,116.9 267.9,116.4 267.4,116.4 266.5,116.4 265.5,116.4 264.6,116.4 264.3,116.4 263.4,116.4 263.2,116.4 262.7,116.4 
					262.3,116.4 261.8,116.4 261.8,117 262.3,116.9 262.7,116.9 				"/>
				<path class="st18" d="M267.4,117.8l0,5.1l0.5,0c0.2,0,0.3,0.1,0.4,0.1l0-5.3c-0.1,0.1-0.3,0.1-0.4,0.1L267.4,117.8z"/>
				<polygon class="st18" points="173.3,124 173.2,124 172.3,124 171.9,124 171,124 170.1,124 169.2,124 168.7,124 168.7,124.8 
					169.2,124.8 170.1,124.8 171,124.8 171.9,124.8 172.3,124.8 173.2,124.8 173.3,124.8 173.8,124.8 174.2,124.8 174.7,124.8 
					174.7,124 174.2,124 173.8,124 				"/>
				<path class="st18" d="M191.9,50.4l52.6-0.1c1.2,0,2.2-0.5,3-1.2c0.4-0.4,0.7-0.8,0.9-1.3c0.2-0.5,0.3-1.1,0.3-1.6l0,0
					c0-2.3-1.9-4.2-4.2-4.2L191.9,42c-2.3,0-4.2,1.9-4.2,4.2c0,0.6,0.1,1.1,0.3,1.6s0.5,1,0.9,1.3C189.7,50,190.7,50.4,191.9,50.4z"
					/>
				<path class="st18" d="M173.9,149.5c0.1-0.1,0.3-0.1,0.5-0.1l0.4,0l0.1,0l0-15.2l-0.1,0l-0.4,0c-0.2,0-0.3-0.1-0.5-0.1
					c-0.3-0.2-0.4-0.4-0.4-0.8l0-2.6l-1.5,0l-0.9,0l-20.3,0l0,2.6c0,0.5-0.4,0.9-0.9,0.9l-0.5,0l0,15.2l0.5,0c0.5,0,0.9,0.4,0.9,0.9
					l0,0.3l0.8,0l0-16.4c0-0.5,0.4-0.9,0.9-0.9l0.6,0l0-0.7c0-0.5,0.4-0.9,0.9-0.9l16.2,0c0.5,0,0.8,0.4,0.9,0.8c0,0,0,0.1,0,0.1
					l0,0.7l0.6,0c0.1,0,0.2,0,0.2,0c0.4,0.1,0.7,0.4,0.7,0.9l0,16.4l0.8,0l0-0.3C173.4,149.9,173.6,149.6,173.9,149.5z"/>
				<polygon class="st18" points="178.5,150.2 177.6,150.2 175.7,150.2 174.8,150.2 174.8,150.2 174.3,150.2 174.3,150.6 
					174.8,150.5 174.8,150.5 175.7,150.5 177.6,150.5 178.5,150.5 179,150.5 179.9,150.5 180.4,150.5 180.4,150.2 179.9,150.2 
					179,150.2 				"/>
				<polygon class="st18" points="152.5,134.1 152.5,150.6 171.1,150.6 171.7,150.6 171.7,134.1 171.1,134.1 171,134.1 170.2,134.1 
					154,134.1 153.1,134.1 				"/>
				<path class="st18" d="M263,44.3c-0.1-0.2-0.2-0.4-0.4-0.7C262.8,43.9,262.9,44.1,263,44.3C263,44.4,263,44.3,263,44.3z"/>
				<path class="st18" d="M175.4,32.9l85.5-0.1l0,0h0c0,0-0.1,0-0.1,0c-0.1,0-0.2-0.1-0.3-0.1c-0.1,0-0.2-0.1-0.3-0.1
					c0,0-0.1,0-0.1,0c0,0,0,0,0,0c0,0,0,0,0,0c0,0,0,0,0,0c0,0,0,0,0,0c0,0,0,0,0,0c-0.2,0-0.3-0.1-0.5-0.1c0,0-0.1,0-0.1,0
					c-0.2-0.1-0.4-0.1-0.6-0.2c0,0,0,0-0.1,0c0,0,0,0,0,0c0,0,0,0,0,0c0,0,0,0,0,0c-0.1,0-0.2,0-0.2-0.1c-0.1,0-0.2-0.1-0.4-0.1
					c-0.1,0-0.2-0.1-0.4-0.1c-0.1,0-0.3-0.1-0.4-0.1c-0.1,0-0.3-0.1-0.4-0.1c-0.1,0-0.3-0.1-0.4-0.1c-0.1,0-0.3-0.1-0.4-0.1
					c-0.1,0-0.1,0-0.2-0.1c0,0,0,0-0.1,0c0,0,0,0,0,0c0,0,0,0-0.1,0c0,0,0,0,0,0c0,0,0,0,0,0c0,0,0,0,0,0c-0.1,0-0.2,0-0.2-0.1
					c-0.2-0.1-0.4-0.1-0.6-0.2c-0.1,0-0.2,0-0.2-0.1c-0.1,0-0.2,0-0.2-0.1c0,0,0,0-0.1,0c0,0,0,0,0,0c0,0-0.1,0-0.1,0c0,0,0,0,0,0
					c0,0,0,0,0,0c0,0-0.1,0-0.1,0c-0.1,0-0.2-0.1-0.4-0.1c-0.2,0-0.3-0.1-0.5-0.1c-0.1,0-0.3-0.1-0.4-0.1c0,0-0.1,0-0.1,0
					c-0.1,0-0.1,0-0.2,0c0,0-0.1,0-0.1,0c0,0,0,0,0,0c0,0,0,0,0,0c0,0,0,0,0,0c-0.1,0-0.1,0-0.2,0c-0.2,0-0.4-0.1-0.6-0.1
					c-0.1,0-0.3-0.1-0.4-0.1c-0.1,0-0.2,0-0.3-0.1c0,0,0,0,0,0c0,0,0,0-0.1,0c-0.1,0-0.2-0.1-0.3-0.1c0,0,0,0,0,0c0,0,0,0-0.1,0
					c-0.1,0-0.1,0-0.2-0.1c-0.1,0-0.1,0-0.2,0c-0.3-0.1-0.6-0.1-0.8-0.2c0,0-0.1,0-0.1,0c0,0,0,0,0,0c0,0,0,0,0,0c0,0,0,0,0,0
					c-0.1,0-0.2,0-0.3-0.1c-0.1,0-0.1,0-0.2,0c0,0,0,0,0,0c0,0,0,0-0.1,0c-0.1,0-0.2,0-0.2-0.1c-0.3-0.1-0.6-0.1-0.9-0.2
					c-0.1,0-0.1,0-0.2,0c0,0,0,0-0.1,0c0,0,0,0-0.1,0c-0.1,0-0.3-0.1-0.4-0.1c-0.1,0-0.1,0-0.2,0c0,0,0,0,0,0c0,0,0,0-0.1,0
					c-0.1,0-0.2-0.1-0.3-0.1c0,0,0,0,0,0c-0.2-0.1-0.4-0.1-0.7-0.2c-0.1,0-0.1,0-0.2,0c0,0-0.1,0-0.1,0c0,0,0,0,0,0c0,0-0.1,0-0.1,0
					c-0.1,0-0.3-0.1-0.4-0.1c0,0-0.1,0-0.1,0c0,0-0.1,0-0.1,0c-0.3-0.1-0.6-0.1-0.9-0.2c0,0,0,0,0,0c0,0-0.1,0-0.1,0
					c-0.1,0-0.2,0-0.3-0.1c-0.2-0.1-0.4-0.1-0.6-0.2c0,0,0,0,0,0c0,0,0,0,0,0c0,0,0,0-0.1,0c-0.1,0-0.2,0-0.3-0.1c0,0,0,0,0,0
					c-0.2,0-0.3-0.1-0.5-0.1c0,0-0.1,0-0.1,0c-0.1,0-0.1,0-0.2-0.1c-0.1,0-0.2-0.1-0.4-0.1c-0.2,0-0.3-0.1-0.5-0.1c0,0,0,0,0,0
					c0,0-0.1,0-0.1,0c-0.1,0-0.3-0.1-0.4-0.1c-0.1,0-0.2,0-0.3-0.1c0,0,0,0,0,0c0,0-0.1,0-0.1,0c0,0-0.1,0-0.1,0
					c-0.2,0-0.4-0.1-0.6-0.1c-0.2,0-0.3-0.1-0.5-0.1c0,0,0,0,0,0c0,0,0,0,0,0c0,0-0.1,0-0.1,0c-0.2,0-0.3-0.1-0.5-0.1
					c0,0-0.1,0-0.1,0c0,0-0.1,0-0.1,0c-0.1,0-0.1,0-0.2,0c-0.2,0-0.4-0.1-0.6-0.1c-0.1,0-0.2-0.1-0.3-0.1c-0.1,0-0.1,0-0.2,0
					c-0.1,0-0.1,0-0.2-0.1c-0.1,0-0.2,0-0.3-0.1c0,0-0.1,0-0.1,0c0,0,0,0,0,0c-0.2,0-0.4-0.1-0.5-0.1c-0.1,0-0.2,0-0.3-0.1
					c0,0-0.1,0-0.1,0c-0.1,0-0.2-0.1-0.3-0.1c-0.1,0-0.2,0-0.2-0.1c-0.1,0-0.3-0.1-0.4-0.1c0,0,0,0,0,0c0,0,0,0,0,0
					c-0.2,0-0.4-0.1-0.6-0.1c0,0-0.1,0-0.1,0c0,0,0,0,0,0c0,0-0.1,0-0.1,0c-0.1,0-0.2-0.1-0.4-0.1c-0.1,0-0.1,0-0.2,0c0,0,0,0,0,0
					c-0.1,0-0.2,0-0.3-0.1c-0.1,0-0.1,0-0.2,0c0,0,0,0-0.1,0c-0.1,0-0.2-0.1-0.3-0.1c-0.1,0-0.3-0.1-0.4-0.1c0,0,0,0-0.1,0
					c0,0-0.1,0-0.1,0c-0.1,0-0.2,0-0.3-0.1c-0.1,0-0.2,0-0.3-0.1c0,0-0.1,0-0.1,0c0,0-0.1,0-0.1,0c-0.1,0-0.1,0-0.2,0c0,0,0,0,0,0
					c-0.2,0-0.4-0.1-0.6-0.1c0,0,0,0-0.1,0c0,0,0,0,0,0c0,0-0.1,0-0.1,0c0,0-0.1,0-0.1,0c-0.1,0-0.2-0.1-0.3-0.1c0,0,0,0-0.1,0
					c0,0-0.1,0-0.1,0c0,0,0,0,0,0c-0.1,0-0.3-0.1-0.4-0.1c-0.2-0.1-0.4-0.1-0.6-0.2c0,0,0,0,0,0c0,0-0.1,0-0.1,0c0,0,0,0-0.1,0
					c-0.1,0-0.1,0-0.2,0c0,0-0.1,0-0.1,0c-0.1,0-0.2,0-0.3-0.1c-0.1,0-0.2-0.1-0.4-0.1c-0.1,0-0.3-0.1-0.4-0.1c0,0-0.1,0-0.1,0
					c0,0-0.1,0-0.1,0c0,0-0.1,0-0.1,0c-0.1,0-0.1,0-0.2,0c0,0-0.1,0-0.1,0c0,0-0.1,0-0.1,0c-0.3-0.1-0.6-0.1-0.8-0.2
					c-0.2,0-0.3-0.1-0.5-0.1c0,0,0,0,0,0c-0.1,0-0.3-0.1-0.4-0.1c-0.1,0-0.3-0.1-0.4-0.1c-0.2,0-0.3-0.1-0.5-0.1
					c-0.1,0-0.2,0-0.3-0.1c0,0,0,0,0,0c0,0,0,0,0,0c0,0-0.1,0-0.1,0c0,0,0,0,0,0c-0.1,0-0.1,0-0.2,0c-0.2,0-0.4-0.1-0.5-0.1
					c-0.1,0-0.2,0-0.2-0.1c0,0,0,0,0,0c0,0,0,0,0,0c0,0-0.1,0-0.1,0c0,0,0,0,0,0c-0.1,0-0.2,0-0.3-0.1c-0.1,0-0.1,0-0.2,0
					c0,0-0.1,0-0.1,0c0,0,0,0,0,0c0,0-0.1,0-0.1,0c0,0,0,0-0.1,0c0,0,0,0-0.1,0c0,0,0,0-0.1,0c-0.1,0-0.2,0-0.3-0.1c0,0-0.1,0-0.1,0
					c0,0,0,0,0,0c0,0,0,0,0,0c0,0-0.1,0-0.1,0c0,0-0.1,0-0.1,0c0,0,0,0,0,0c0,0-0.1,0-0.1,0c-0.1,0-0.1,0-0.2,0c0,0-0.1,0-0.1,0
					c0,0,0,0,0,0c0,0,0,0,0,0c0,0,0,0,0,0c0,0,0,0-0.1,0c0,0,0,0,0,0c0,0-0.1,0-0.1,0c0,0-0.1,0-0.1,0c0,0,0,0-0.1,0c0,0,0,0,0,0
					l0,0c0,0,0,0,0,0l0,0c0,0,0,0,0,0l0,0c0,0,0,0,0,0c0,0,0,0,0,0c0,0,0,0-0.1,0c0,0,0,0,0,0c0,0,0,0,0,0c0,0,0,0,0,0h0l0,0l0,0
					l0,0c0,0,0,0,0,0c0,0,0,0,0,0c0,0,0,0,0,0c0,0,0,0-0.1,0c0,0,0,0,0,0c0,0,0,0,0,0c0,0,0,0,0,0c0,0,0,0,0,0c0,0,0,0,0,0
					c0,0,0,0-0.1,0c0,0-0.1,0-0.1,0c0,0-0.1,0-0.1,0c0,0,0,0,0,0c0,0,0,0-0.1,0c0,0,0,0,0,0c0,0,0,0,0,0c0,0,0,0,0,0
					c0,0-0.1,0-0.1,0c-0.1,0-0.1,0-0.2,0c0,0-0.1,0-0.1,0c0,0,0,0,0,0c0,0,0,0,0,0c0,0,0,0-0.1,0c0,0-0.1,0-0.1,0c0,0,0,0,0,0
					c0,0,0,0,0,0c0,0-0.1,0-0.1,0c-0.1,0-0.2,0-0.3,0.1c0,0,0,0-0.1,0c0,0,0,0-0.1,0c0,0,0,0,0,0c-0.1,0-0.1,0-0.2,0c0,0,0,0,0,0
					c0,0,0,0-0.1,0c0,0,0,0-0.1,0c-0.1,0-0.3,0.1-0.4,0.1c0,0,0,0,0,0c0,0-0.1,0-0.1,0c0,0,0,0,0,0c0,0,0,0-0.1,0
					c-0.1,0-0.1,0-0.2,0c0,0,0,0,0,0c0,0-0.1,0-0.1,0c-0.1,0-0.1,0-0.2,0c-0.1,0-0.2,0.1-0.3,0.1c0,0,0,0,0,0c0,0-0.1,0-0.1,0
					c0,0,0,0,0,0c0,0-0.1,0-0.1,0c0,0-0.1,0-0.1,0c0,0,0,0-0.1,0c0,0,0,0-0.1,0c-0.1,0-0.1,0-0.2,0c0,0-0.1,0-0.1,0
					c-0.1,0-0.2,0.1-0.4,0.1c0,0-0.1,0-0.1,0c0,0,0,0,0,0c0,0,0,0,0,0c0,0,0,0,0,0c0,0,0,0,0,0c0,0-0.1,0-0.1,0
					c-0.1,0-0.2,0-0.2,0.1c0,0,0,0-0.1,0c-0.1,0-0.2,0-0.3,0.1c0,0-0.1,0-0.1,0c-0.1,0-0.1,0-0.2,0c-0.1,0-0.2,0-0.3,0.1
					c0,0-0.1,0-0.1,0c-0.1,0-0.2,0.1-0.3,0.1c0,0,0,0-0.1,0c0,0,0,0,0,0c0,0,0,0,0,0l0,0c0,0,0,0,0,0c-0.1,0-0.2,0-0.3,0.1
					c-0.1,0-0.2,0.1-0.3,0.1c0,0-0.1,0-0.1,0c0,0,0,0,0,0c-0.1,0-0.2,0.1-0.3,0.1c-0.1,0-0.2,0.1-0.4,0.1c0,0,0,0,0,0c0,0,0,0-0.1,0
					c-0.1,0-0.2,0.1-0.4,0.1c-0.1,0-0.2,0-0.2,0.1c0,0-0.1,0-0.1,0c0,0-0.1,0-0.1,0c-0.1,0-0.2,0.1-0.4,0.1c0,0,0,0,0,0
					c0,0-0.1,0-0.1,0c-0.1,0-0.1,0-0.2,0.1c0,0-0.1,0-0.1,0c-0.1,0-0.2,0-0.2,0.1c-0.1,0-0.2,0-0.3,0.1c-0.1,0-0.2,0-0.2,0.1
					c0,0,0,0-0.1,0c0,0-0.1,0-0.1,0c-0.2,0-0.4,0.1-0.6,0.1c0,0-0.1,0-0.1,0c-0.3,0.1-0.5,0.1-0.8,0.2c0,0-0.1,0-0.1,0
					c0,0-0.1,0-0.1,0c0,0-0.1,0-0.1,0c-0.2,0-0.3,0.1-0.5,0.1c0,0-0.1,0-0.1,0c0,0,0,0-0.1,0c0,0,0,0,0,0c0,0-0.1,0-0.1,0
					c-0.2,0-0.3,0.1-0.5,0.1c-0.1,0-0.3,0.1-0.4,0.1c0,0-0.1,0-0.2,0c0,0,0,0,0,0c0,0,0,0,0,0c0,0,0,0,0,0c-0.1,0-0.2,0-0.2,0.1
					c-0.1,0-0.2,0-0.3,0.1c0,0,0,0,0,0c0,0-0.1,0-0.1,0c0,0-0.1,0-0.1,0c-0.1,0-0.3,0.1-0.4,0.1c-0.2,0-0.4,0.1-0.5,0.1
					c-0.1,0-0.1,0-0.2,0c0,0,0,0-0.1,0c0,0-0.1,0-0.1,0c-0.2,0-0.3,0.1-0.5,0.1c0,0,0,0,0,0c-0.2,0-0.4,0.1-0.6,0.1
					c-0.2,0.1-0.4,0.1-0.7,0.2c0,0,0,0,0,0c0,0,0,0-0.1,0c0,0,0,0,0,0c-0.1,0-0.1,0-0.2,0c-0.1,0-0.2,0-0.2,0.1c0,0-0.1,0-0.1,0
					c-0.1,0-0.2,0.1-0.4,0.1c-0.2,0-0.3,0.1-0.5,0.1c-0.1,0-0.3,0.1-0.4,0.1c0,0-0.1,0-0.1,0c0,0,0,0,0,0c0,0,0,0,0,0
					c-0.1,0-0.2,0.1-0.3,0.1c0,0,0,0-0.1,0c-0.1,0-0.1,0-0.2,0c0,0,0,0,0,0c0,0-0.1,0-0.1,0c-0.1,0-0.2,0.1-0.4,0.1
					c-0.2,0-0.3,0.1-0.5,0.1c-0.1,0-0.2,0-0.2,0.1c-0.1,0-0.1,0-0.2,0c-0.1,0-0.2,0-0.2,0.1c0,0,0,0,0,0c-0.1,0-0.1,0-0.2,0
					c0,0-0.1,0-0.1,0c-0.2,0.1-0.5,0.1-0.7,0.2c-0.1,0-0.2,0.1-0.3,0.1c-0.1,0-0.2,0-0.3,0.1c-0.1,0-0.1,0-0.2,0.1
					c-0.1,0-0.2,0-0.2,0.1c0,0,0,0,0,0c-0.3,0.1-0.7,0.2-1,0.3c-0.1,0-0.3,0.1-0.4,0.1c0,0-0.1,0-0.1,0c0,0-0.1,0-0.1,0c0,0,0,0,0,0
					c0,0,0,0,0,0c-0.1,0-0.2,0-0.3,0.1c0,0,0,0-0.1,0c0,0,0,0,0,0c-0.2,0-0.3,0.1-0.5,0.1c-0.2,0-0.3,0.1-0.5,0.1
					c-0.1,0-0.3,0.1-0.4,0.1c0,0-0.1,0-0.1,0c0,0,0,0,0,0c0,0-0.1,0-0.1,0c-0.1,0-0.1,0-0.2,0.1c0,0,0,0,0,0c-0.1,0-0.1,0-0.2,0.1
					c0,0-0.1,0-0.1,0c-0.3,0.1-0.6,0.2-0.9,0.2c-0.1,0-0.1,0-0.2,0c-0.1,0-0.1,0-0.2,0c0,0-0.1,0-0.1,0c-0.1,0-0.1,0-0.2,0.1
					c0,0,0,0-0.1,0c-0.1,0-0.2,0-0.3,0.1c-0.1,0-0.3,0.1-0.4,0.1c-0.2,0.1-0.4,0.1-0.6,0.1c-0.1,0-0.2,0.1-0.3,0.1c0,0,0,0-0.1,0
					c0,0,0,0,0,0c0,0-0.1,0-0.1,0c0,0,0,0,0,0c0,0,0,0-0.1,0c-0.1,0-0.3,0.1-0.4,0.1c-0.1,0-0.2,0-0.3,0.1c-0.3,0.1-0.6,0.2-0.9,0.2
					c0,0,0,0-0.1,0c0,0,0,0-0.1,0c0,0,0,0-0.1,0c-0.2,0-0.4,0.1-0.5,0.1c-0.1,0-0.2,0.1-0.3,0.1c-0.2,0.1-0.4,0.1-0.6,0.2
					c-0.1,0-0.1,0-0.2,0c0,0,0,0,0,0c0,0,0,0,0,0c0,0,0,0,0,0c0,0-0.1,0-0.1,0c0,0-0.1,0-0.1,0c-0.2,0-0.3,0.1-0.5,0.1
					c-0.1,0-0.2,0-0.2,0.1c-0.2,0.1-0.4,0.1-0.6,0.2c0,0-0.1,0-0.1,0c0,0,0,0,0,0c0,0,0,0,0,0c0,0,0,0,0,0c-0.1,0-0.1,0-0.2,0.1
					c-0.2,0-0.3,0.1-0.5,0.1c-0.1,0-0.2,0.1-0.3,0.1c-0.2,0-0.3,0.1-0.5,0.1c-0.2,0-0.3,0.1-0.5,0.1c-0.1,0-0.2,0.1-0.3,0.1
					c-0.1,0-0.2,0.1-0.4,0.1c-0.1,0-0.3,0.1-0.4,0.1c-0.1,0-0.2,0-0.2,0.1c-0.2,0-0.3,0.1-0.5,0.1c-0.1,0-0.2,0.1-0.3,0.1
					c-0.1,0-0.2,0.1-0.4,0.1c-0.1,0-0.2,0.1-0.3,0.1c-0.1,0-0.3,0.1-0.4,0.1C175.5,32.9,175.4,32.9,175.4,32.9L175.4,32.9
					L175.4,32.9z"/>
				<path class="st18" d="M262.8,45.4c0-0.9-0.3-1.7-0.7-2.4c0,0,0,0,0-0.1c-0.4-0.4-0.9-0.8-1.4-1c0,0-0.1,0-0.1,0
					c-0.3-0.1-0.5-0.2-0.8-0.3c0,0-0.1,0-0.1,0c-0.3-0.1-0.6-0.1-0.9-0.1c-1.4,0-2.7,0.7-3.5,1.7c-0.3,0.3-0.5,0.7-0.7,1.1
					c-0.2,0.5-0.4,1.2-0.4,1.8c0,0.9,0.3,1.7,0.7,2.4c0.8,0.9,2,1.4,3.3,1.4C260.8,50,262.8,47.9,262.8,45.4z"/>
				<path class="st18" d="M181.8,44.5c-0.1-0.2-0.2-0.4-0.4-0.6C181.6,44,181.7,44.3,181.8,44.5C181.8,44.5,181.8,44.5,181.8,44.5z"
					/>
				<path class="st18" d="M165.6,37.8L165.6,37.8l105.1-0.2l0,0l0.9,0l1.8,0c0-0.2-0.1-0.5-0.2-0.7c-0.7-1.6-2.8-3.2-5.4-3.2l-2.7,0
					l-1.5,0l0,0l0,0l-90.9,0.1v0l-1.5,0l-2.7,0c-2.5,0-4.6,1.6-5.3,3.2c-0.1,0.2-0.2,0.5-0.2,0.7l1.8,0L165.6,37.8z"/>
				<polygon class="st18" points="140.1,82.1 171,82 171.9,82 173.8,82 174.7,82 261.8,81.9 262.7,81.9 264.6,81.9 265.5,81.9 
					296.3,81.8 297.2,81.8 298.9,81.8 296.6,77.5 293.6,77.5 292.7,77.5 265.5,77.5 264.6,77.5 262.7,77.5 261.8,77.5 174.7,77.7 
					173.8,77.7 171.9,77.7 171,77.7 143.7,77.7 142.8,77.7 139.8,77.7 137.6,82.1 139.2,82.1 				"/>
				<path class="st18" d="M171.9,86.7l1.9,0l0.9,0l9.2,0l0.9,0l0.5,0c0-0.3-0.2-0.7-0.3-1c-0.2-0.3-0.4-0.6-0.7-0.9
					c-0.4-0.4-0.9-0.6-1.4-0.6l-8.3,0l-0.9,0l-1.9,0l-0.9,0l-29.9,0c-0.3,0-0.6,0.1-0.9,0.3c0,0,0,0,0,0h0c-0.2,0.1-0.3,0.2-0.5,0.4
					c0,0,0,0,0,0c0,0,0,0,0,0l0,0c-0.1,0.1-0.2,0.2-0.2,0.3c-0.1,0.1-0.1,0.1-0.2,0.2c0,0,0,0,0,0c-0.1,0.2-0.2,0.4-0.3,0.5v0
					c0,0,0,0.1-0.1,0.1v0c-0.1,0.2-0.1,0.4-0.1,0.6l0.5,0l0.9,0l30.9-0.1L171.9,86.7z"/>
				<polygon class="st18" points="171,76.8 171.8,76.8 174,76.8 262.4,76.6 264.6,76.6 265.5,76.6 292.7,76.6 292.7,63.4 
					280.3,63.4 279.4,63.4 271.6,63.4 270.7,63.4 165.6,63.6 164.7,63.6 156.9,63.6 156,63.6 143.7,63.6 143.7,76.8 				"/>
				<path class="st18" d="M181.6,45.5c0-0.9-0.3-1.7-0.7-2.4c-0.8-0.9-2-1.5-3.4-1.5c-1.4,0-2.7,0.7-3.5,1.7
					c-0.3,0.3-0.5,0.7-0.7,1.1c-0.2,0.5-0.4,1.2-0.4,1.8c0,0.9,0.3,1.7,0.7,2.4c0.8,0.9,2,1.5,3.4,1.5
					C179.5,50.1,181.6,48,181.6,45.5z"/>
				
					<rect x="154" y="132.5" transform="matrix(1 -1.635095e-03 1.635095e-03 1 -0.217 0.2652)" class="st18" width="16.2" height="0.7"/>
				<path class="st18" d="M165.6,52.3l105.1-0.2l0-13.6l-105.1,0.2L165.6,52.3z M258.8,40.6c3,0,5.5,2.5,5.5,5.5
					c0,3-2.5,5.5-5.5,5.5c-3,0-5.5-2.5-5.5-5.5C253.3,43.1,255.7,40.6,258.8,40.6z M191.9,41.1l52.6-0.1c2.8,0,5.1,2.3,5.1,5.1
					c0,2.8-2.3,5.1-5.1,5.1l-52.6,0.1c-2.8,0-5.1-2.3-5.1-5.1C186.8,43.4,189,41.1,191.9,41.1z M177.5,40.8c3,0,5.5,2.5,5.5,5.5
					c0,3-2.5,5.5-5.5,5.5c-3,0-5.5-2.5-5.5-5.5C172,43.2,174.5,40.8,177.5,40.8z"/>
				<polygon class="st18" points="164.7,62.7 165.6,62.7 270.7,62.5 271.6,62.5 279.4,62.5 279.4,53 271.6,53 270.7,53 165.6,53.2 
					164.7,53.2 156.9,53.2 156.9,62.7 				"/>
				<polygon class="st18" points="178.5,149.3 179,149.3 178.9,134.1 178.5,134.1 177.6,134.1 175.7,134.1 175.7,149.3 177.6,149.3 
									"/>
				<path class="st18" d="M144.1,154.7l0,22.9c2.1-2.5,4.4-4.5,6.8-6.1l0-16.8L144.1,154.7z"/>
				<path class="st18" d="M174.8,154.6l-0.9,0l-0.6,0l0,6.2c1.5-0.3,3.1-0.4,4.8-0.4c0.7,0,1.3,0,2,0.1l0-5.8L174.8,154.6z"/>
				<path class="st18" d="M172,154.6l-0.9,0l-19.3,0l0,16.3c2.5-1.5,5.1-2.5,7.8-2.9c3.7-3.7,8-6,12.7-7l0-6.3L172,154.6z"/>
				<path class="st27" d="M245.1,28.6C245,28.6,245,28.6,245.1,28.6C245,28.6,245.1,28.6,245.1,28.6
					C245.1,28.6,245.1,28.6,245.1,28.6z"/>
				<path class="st27" d="M197.2,27.2c0,0-0.1,0-0.1,0c0,0,0,0,0,0C197.1,27.2,197.1,27.2,197.2,27.2z"/>
				<path class="st27" d="M255.8,31.4C255.8,31.4,255.8,31.4,255.8,31.4C255.8,31.3,255.8,31.3,255.8,31.4
					C255.8,31.3,255.8,31.3,255.8,31.4C255.8,31.4,255.8,31.4,255.8,31.4z"/>
				<path class="st27" d="M254.2,30.9C254.2,30.9,254.2,30.9,254.2,30.9C254.2,30.9,254.2,30.9,254.2,30.9
					C254.2,30.9,254.2,30.9,254.2,30.9C254.2,30.9,254.2,30.9,254.2,30.9z"/>
				<path class="st27" d="M182.2,31C182.2,31,182.2,31,182.2,31C182.2,31,182.2,31,182.2,31C182.1,31,182.1,31,182.2,31
					C182.1,31,182.2,31,182.2,31C182.2,31,182.2,31,182.2,31z"/>
				<polygon class="st27" points="271.6,37.6 273.4,37.6 273.4,37.6 271.6,37.6 				"/>
				<path class="st27" d="M208.4,24.5c-0.1,0-0.1,0-0.2,0c-0.1,0-0.1,0-0.2,0c0,0,0.1,0,0.1,0C208.3,24.5,208.4,24.5,208.4,24.5z"/>
				<polygon class="st27" points="218.1,22.2 218.1,22.2 218.1,22.2 				"/>
				<polygon class="st27" points="217.9,22.2 217.9,22.2 217.9,22.2 				"/>
				<polygon class="st27" points="218.3,22.2 218.3,22.2 218.3,22.2 				"/>
				<polygon class="st27" points="218.1,22.2 218.1,22.2 218.1,22.2 				"/>
				<polygon class="st27" points="164.7,37.8 162.9,37.8 162.9,37.8 164.7,37.8 				"/>
				<path class="st27" d="M140.1,87.6l30.9-0.1l0.9,0l1.9,0l0.9,0l9.2,0L184,161c0.3,0.1,0.6,0.1,0.9,0.2l-0.1-73.7l0.5,0
					c0.3,0,0.5-0.1,0.7-0.3c0.2-0.2,0.2-0.5,0.2-0.7c0-0.3-0.1-0.6-0.2-0.9l64.5-0.1c-0.1,0.3-0.2,0.6-0.2,0.9c0,0.3,0,0.5,0.2,0.7
					c0.2,0.2,0.4,0.3,0.7,0.3l0.5,0l0.1,44.6c0.3-0.1,0.6-0.2,0.9-0.3l-0.1-44.3l9.2,0l0.9,0l1.9,0l0.9,0l30.9-0.1l0.1,73.1
					c0.6,0.1,1.2,0.1,1.8,0.2l-0.1-72.5c0.4-0.1,0.7-0.3,1-0.6c0.3-0.4,0.5-0.9,0.4-1.4c-0.1-1-0.6-1.9-1.2-2.6l0.5,0
					c0.6,0,1.2-0.3,1.5-0.9c0.3-0.5,0.3-1.2,0.1-1.8l-2.3-4.3c-0.3-0.6-0.9-1-1.6-1l-2.1,0l0-12.3c0-1-0.8-1.8-1.8-1.8l-11.4,0
					l0-8.6c0-1-0.8-1.8-1.8-1.8l-6.9,0l0-11.8l0.9,0c0.5,0,1-0.2,1.4-0.7c0.3-0.4,0.5-1,0.4-1.5c-0.5-2.6-3.5-5.4-7.4-5.4l-3.9,0
					c-6.5-2.4-41.1-10.6-45.4-11.4l0,0c-0.1,0-0.3,0-0.4,0c0,0,0,0,0,0c0,0,0,0,0,0c0,0,0,0,0,0c0,0,0,0,0,0c0,0,0,0,0,0
					c-0.1,0-0.3,0-0.4,0l0,0c-4.2,0.8-38.9,9.2-45.4,11.5l-3.9,0c-3.9,0-6.8,2.8-7.3,5.4c-0.1,0.5,0,1.1,0.4,1.5
					c0.3,0.4,0.9,0.7,1.4,0.7l0.9,0l0,11.8l-6.9,0c-1,0-1.8,0.8-1.8,1.8l0,8.6l-11.4,0c-1,0-1.8,0.8-1.8,1.8l0,12.3l-2.1,0
					c-0.7,0-1.3,0.4-1.6,1l-2.2,4.4c-0.3,0.6-0.3,1.2,0.1,1.8c0.3,0.5,0.9,0.9,1.5,0.9l0.5,0c-0.6,0.7-1.1,1.7-1.2,2.6
					c-0.1,0.5,0.1,1,0.4,1.4c0.3,0.3,0.6,0.5,1,0.6l0.2,97.9c0.6-1.2,1.1-2.3,1.8-3.4L140.1,87.6z M185.5,84.7
					c-0.6-0.9-1.5-1.5-2.6-1.5l-8.3,0l-0.9,0l-1.9,0l-0.9,0l-29.9,0c-0.3,0-0.6,0.1-0.9,0.2l0-0.5l30.9-0.1l0.9,0l1.9,0l0.9,0
					l87.1-0.1l0.9,0l1.9,0l0.9,0l30.9-0.1l0,0.5c-0.3-0.1-0.6-0.2-0.9-0.2l-29.9,0l-0.9,0l-1.9,0l-0.9,0l-8.3,0
					c-1.1,0-2,0.7-2.5,1.5L185.5,84.7z M297.2,86.5l-0.9,0l-30.9,0.1l-0.9,0l-1.9,0l-0.9,0l-9.2,0l-0.9,0l-0.5,0
					c0-0.3,0.2-0.7,0.3-1c0.2-0.3,0.4-0.6,0.7-0.9c0.4-0.4,0.9-0.6,1.4-0.6l8.3,0l0.9,0l1.9,0l0.9,0l29.9,0c0.3,0,0.6,0.1,0.9,0.3
					c0,0,0,0,0,0c0.2,0.1,0.3,0.2,0.5,0.4c0,0,0,0,0,0c0.1,0.1,0.2,0.2,0.2,0.3c0.2,0.2,0.3,0.5,0.4,0.8v0c0,0,0,0,0,0.1
					c0,0,0,0.1,0,0.1c0.1,0.2,0.1,0.4,0.1,0.6L297.2,86.5z M257.3,31.8C257.3,31.8,257.3,31.7,257.3,31.8
					C257.3,31.7,257.3,31.8,257.3,31.8z M175.5,32.9c0.1,0,0.2-0.1,0.4-0.1c0.1,0,0.2-0.1,0.3-0.1c0.1,0,0.2-0.1,0.4-0.1
					c0.1,0,0.2-0.1,0.3-0.1c0.1,0,0.3-0.1,0.5-0.1c0.1,0,0.2,0,0.2-0.1c0.1,0,0.2-0.1,0.4-0.1c0.1,0,0.2-0.1,0.4-0.1
					c0.1,0,0.2-0.1,0.3-0.1c0.2,0,0.3-0.1,0.5-0.1c0.2,0,0.3-0.1,0.5-0.1c0.1,0,0.2-0.1,0.3-0.1c0.2,0,0.3-0.1,0.5-0.1
					c0.1,0,0.1,0,0.2-0.1c0,0,0,0,0,0c0,0,0.1,0,0.1,0c0.2-0.1,0.4-0.1,0.6-0.2c0.1,0,0.2,0,0.2-0.1c0.2,0,0.3-0.1,0.5-0.1
					c0,0,0.1,0,0.1,0c0,0,0,0,0,0c0,0,0,0,0.1,0c0,0,0,0,0,0c0,0,0,0,0,0c0,0,0,0,0,0c0.1,0,0.1,0,0.2,0c0.2-0.1,0.4-0.1,0.6-0.2
					c0.1,0,0.2-0.1,0.3-0.1c0.2,0,0.4-0.1,0.5-0.1c0,0,0,0,0.1,0c0,0,0,0,0.1,0c0,0,0,0,0.1,0c0.3-0.1,0.6-0.2,0.9-0.2
					c0.1,0,0.2,0,0.3-0.1c0.1,0,0.3-0.1,0.4-0.1c0,0,0,0,0.1,0c0,0,0,0,0,0c0,0,0.1,0,0.1,0c0,0,0,0,0,0c0,0,0,0,0.1,0
					c0.1,0,0.2-0.1,0.3-0.1c0.2,0,0.4-0.1,0.6-0.1c0.1,0,0.3-0.1,0.4-0.1c0.1,0,0.2,0,0.3-0.1c0,0,0,0,0.1,0c0.1,0,0.1,0,0.2-0.1
					c0,0,0.1,0,0.1,0c0.1,0,0.1,0,0.2,0c0.1,0,0.1,0,0.2,0c0.3-0.1,0.6-0.2,0.9-0.2c0,0,0.1,0,0.1,0c0.1,0,0.1,0,0.2-0.1
					c0,0,0,0,0,0c0.1,0,0.1,0,0.2-0.1c0,0,0.1,0,0.1,0c0,0,0,0,0,0c0,0,0.1,0,0.1,0c0.1,0,0.3-0.1,0.4-0.1c0.2,0,0.3-0.1,0.5-0.1
					c0.2,0,0.3-0.1,0.5-0.1c0,0,0,0,0,0c0,0,0,0,0.1,0c0.1,0,0.2,0,0.3-0.1c0,0,0,0,0,0c0,0,0,0,0,0c0,0,0.1,0,0.1,0
					c0,0,0.1,0,0.1,0c0.1,0,0.3-0.1,0.4-0.1c0.3-0.1,0.7-0.2,1-0.3c0,0,0,0,0,0c0.1,0,0.2,0,0.2-0.1c0.1,0,0.1,0,0.2-0.1
					c0.1,0,0.2,0,0.3-0.1c0.1,0,0.2-0.1,0.3-0.1c0.2-0.1,0.5-0.1,0.7-0.2c0,0,0.1,0,0.1,0c0.1,0,0.1,0,0.2,0c0,0,0,0,0,0
					c0.1,0,0.2,0,0.2-0.1c0.1,0,0.1,0,0.2,0c0.1,0,0.2,0,0.2-0.1c0.2,0,0.3-0.1,0.5-0.1c0.1,0,0.2-0.1,0.4-0.1c0,0,0.1,0,0.1,0
					c0,0,0.1,0,0.1,0c0,0,0,0,0,0c0,0,0,0,0.1,0c0.1,0,0.2-0.1,0.3-0.1c0,0,0,0,0,0c0,0,0,0,0,0c0,0,0.1,0,0.1,0
					c0.1,0,0.3-0.1,0.4-0.1c0.2,0,0.3-0.1,0.5-0.1c0.1,0,0.2-0.1,0.4-0.1c0,0,0.1,0,0.1,0c0.1,0,0.2,0,0.2-0.1c0.1,0,0.1,0,0.2,0
					c0,0,0,0,0,0c0,0,0,0,0.1,0c0,0,0,0,0,0c0.2-0.1,0.4-0.1,0.7-0.2c0.2,0,0.4-0.1,0.6-0.1c0,0,0,0,0,0c0.2,0,0.3-0.1,0.5-0.1
					c0,0,0.1,0,0.1,0c0,0,0,0,0.1,0c0.1,0,0.1,0,0.2,0c0.2,0,0.4-0.1,0.5-0.1c0.1,0,0.3-0.1,0.4-0.1c0,0,0.1,0,0.1,0
					c0,0,0.1,0,0.1,0c0,0,0,0,0,0c0.1,0,0.2,0,0.3-0.1c0.1,0,0.2,0,0.2-0.1c0,0,0,0,0,0c0,0,0,0,0,0c0,0,0,0,0,0c0.1,0,0.1,0,0.2,0
					c0.1,0,0.3-0.1,0.4-0.1c0.2,0,0.3-0.1,0.5-0.1c0,0,0.1,0,0.1,0c0,0,0,0,0.1,0c0,0,0,0,0.1,0c0.2,0,0.3-0.1,0.5-0.1
					c0,0,0.1,0,0.1,0c0,0,0.1,0,0.1,0c0,0,0.1,0,0.1,0c0.3-0.1,0.5-0.1,0.8-0.2c0,0,0.1,0,0.1,0c0.2,0,0.4-0.1,0.6-0.1
					c0,0,0.1,0,0.1,0c0,0,0,0,0.1,0c0.1,0,0.2,0,0.2-0.1c0.1,0,0.2,0,0.3-0.1c0.1,0,0.2,0,0.2-0.1c0.1,0,0.1,0,0.2,0
					c0.1,0,0.1,0,0.2,0c0,0,0.1,0,0.1,0c0,0,0,0,0,0c0.1,0,0.2-0.1,0.4-0.1c0,0,0.1,0,0.1,0c0,0,0.1,0,0.1,0c0.1,0,0.2,0,0.2-0.1
					c0.1,0,0.2-0.1,0.4-0.1c0,0,0,0,0.1,0c0,0,0,0,0,0c0,0,0,0,0,0c0,0,0,0,0,0c0,0,0,0,0,0c0.1,0,0.2-0.1,0.4-0.1
					c0.1,0,0.2-0.1,0.3-0.1c0,0,0,0,0,0c0,0,0.1,0,0.1,0c0.1,0,0.2-0.1,0.3-0.1c0.1,0,0.2,0,0.3-0.1c0,0,0,0,0,0l0,0c0,0,0,0,0,0
					c0,0,0,0,0,0c0,0,0,0,0,0c0,0,0,0,0,0l0,0c0,0,0,0,0.1,0c0.1,0,0.2-0.1,0.3-0.1c0,0,0.1,0,0.1,0c0.1,0,0.2,0,0.3-0.1
					c0.1,0,0.1,0,0.2,0c0,0,0.1,0,0.1,0c0.1,0,0.2,0,0.3-0.1c0,0,0,0,0.1,0c0.1,0,0.2,0,0.2-0.1c0,0,0.1,0,0.1,0c0,0,0,0,0,0
					c0,0,0,0,0,0c0,0,0,0,0,0c0,0,0,0,0,0c0,0,0.1,0,0.1,0c0.1,0,0.2-0.1,0.4-0.1c0,0,0.1,0,0.1,0c0.1,0,0.1,0,0.2,0c0,0,0,0,0.1,0
					c0,0,0,0,0.1,0c0,0,0.1,0,0.1,0c0,0,0.1,0,0.1,0c0,0,0,0,0,0c0,0,0.1,0,0.1,0c0,0,0,0,0,0c0.1,0,0.2-0.1,0.3-0.1
					c0.1,0,0.1,0,0.2,0c0.1,0,0.1,0,0.1,0c0,0,0,0,0,0c0.1,0,0.1,0,0.2,0c0,0,0,0,0.1,0c0,0,0,0,0,0c0,0,0.1,0,0.1,0c0,0,0,0,0,0
					c0.1,0,0.3-0.1,0.4-0.1c0,0,0,0,0.1,0c0,0,0,0,0.1,0c0,0,0,0,0,0c0.1,0,0.1,0,0.2,0c0,0,0,0,0,0c0,0,0,0,0.1,0c0,0,0,0,0.1,0
					c0.1,0,0.2,0,0.3-0.1c0,0,0.1,0,0.1,0c0,0,0,0,0,0c0,0,0,0,0,0c0,0,0.1,0,0.1,0c0,0,0,0,0.1,0c0,0,0,0,0,0c0,0,0,0,0,0
					c0,0,0.1,0,0.1,0c0.1,0,0.1,0,0.2,0c0,0,0.1,0,0.1,0c0,0,0,0,0,0c0,0,0,0,0,0c0,0,0,0,0,0c0,0,0,0,0.1,0c0,0,0,0,0,0
					c0,0,0.1,0,0.1,0c0,0,0.1,0,0.1,0c0,0,0,0,0.1,0c0,0,0,0,0,0c0,0,0,0,0,0c0,0,0,0,0,0c0,0,0,0,0,0c0,0,0,0,0,0c0,0,0,0,0,0
					c0,0,0,0,0.1,0c0,0,0,0,0,0c0,0,0,0,0,0c0,0,0,0,0,0c0,0,0,0,0,0l0,0l0,0l0,0h0c0,0,0,0,0,0c0,0,0,0,0,0c0,0,0,0,0,0
					c0,0,0,0,0,0c0,0,0,0,0.1,0c0,0,0,0,0,0c0,0,0,0,0,0l0,0c0,0,0,0,0,0l0,0c0,0,0,0,0,0c0,0,0,0,0.1,0c0,0,0.1,0,0.1,0
					c0,0,0.1,0,0.1,0c0,0,0,0,0,0c0,0,0,0,0.1,0c0,0,0,0,0,0c0,0,0,0,0,0c0,0,0,0,0,0c0,0,0.1,0,0.1,0c0.1,0,0.1,0,0.2,0
					c0,0,0.1,0,0.1,0c0,0,0,0,0,0c0,0,0.1,0,0.1,0c0,0,0.1,0,0.1,0c0,0,0,0,0,0c0,0,0,0,0,0c0,0,0.1,0,0.1,0c0.1,0,0.2,0,0.3,0.1
					c0,0,0,0,0.1,0c0,0,0,0,0.1,0c0,0,0,0,0.1,0c0,0,0.1,0,0.1,0c0,0,0,0,0,0c0,0,0.1,0,0.1,0c0.1,0,0.1,0,0.2,0
					c0.1,0,0.2,0,0.3,0.1c0,0,0,0,0,0c0,0,0.1,0,0.1,0c0,0,0,0,0,0c0,0,0,0,0,0c0.1,0,0.2,0,0.2,0.1c0.2,0,0.3,0.1,0.5,0.1
					c0.1,0,0.1,0,0.2,0c0,0,0,0,0,0c0,0,0.1,0,0.1,0c0,0,0,0,0,0c0,0,0,0,0,0c0.1,0,0.2,0,0.3,0.1c0.2,0,0.3,0.1,0.5,0.1
					c0.1,0,0.3,0.1,0.4,0.1c0.1,0,0.3,0.1,0.4,0.1c0,0,0,0,0,0c0.2,0,0.3,0.1,0.5,0.1c0.3,0.1,0.5,0.1,0.8,0.2c0,0,0.1,0,0.1,0
					c0,0,0.1,0,0.1,0c0.1,0,0.1,0,0.2,0c0,0,0.1,0,0.1,0c0,0,0.1,0,0.1,0c0,0,0.1,0,0.1,0c0.1,0,0.3,0.1,0.4,0.1
					c0.1,0,0.2,0.1,0.4,0.1c0.1,0,0.2,0,0.3,0.1c0,0,0.1,0,0.1,0c0.1,0,0.1,0,0.2,0c0,0,0,0,0.1,0c0,0,0.1,0,0.1,0c0,0,0,0,0,0
					c0.2,0.1,0.4,0.1,0.6,0.2c0.1,0,0.3,0.1,0.4,0.1c0,0,0,0,0,0c0,0,0.1,0,0.1,0c0,0,0,0,0.1,0c0.1,0,0.2,0.1,0.3,0.1
					c0,0,0.1,0,0.1,0c0,0,0.1,0,0.1,0c0,0,0,0,0,0c0,0,0,0,0.1,0c0.2,0,0.4,0.1,0.6,0.1c0,0,0,0,0,0c0.1,0,0.2,0,0.3,0.1
					c0,0,0,0,0,0c0,0,0.1,0,0.1,0c0.1,0,0.2,0,0.3,0.1c0.1,0,0.2,0,0.3,0.1c0,0,0.1,0,0.1,0c0,0,0,0,0.1,0c0.1,0,0.3,0.1,0.4,0.1
					c0.1,0,0.2,0.1,0.3,0.1c0,0,0,0,0.1,0c0.1,0,0.1,0,0.2,0c0.1,0,0.2,0,0.3,0.1c0,0,0,0,0,0c0.1,0,0.1,0,0.2,0
					c0.1,0,0.2,0.1,0.4,0.1c0,0,0.1,0,0.1,0c0,0,0,0,0,0c0,0,0.1,0,0.1,0c0.2,0,0.4,0.1,0.6,0.1c0,0,0,0,0,0c0,0,0,0,0,0
					c0.1,0,0.3,0.1,0.4,0.1c0.1,0,0.2,0,0.2,0.1c0.1,0,0.2,0.1,0.3,0.1c0,0,0.1,0,0.1,0c0.1,0,0.2,0,0.3,0.1c0.2,0,0.4,0.1,0.5,0.1
					c0,0,0,0,0,0c0,0,0.1,0,0.1,0c0.1,0,0.2,0,0.3,0.1c0.1,0,0.1,0,0.2,0.1c0.1,0,0.1,0,0.2,0c0.1,0,0.2,0.1,0.3,0.1
					c0.2,0,0.4,0.1,0.6,0.1c0.1,0,0.1,0,0.2,0c0,0,0.1,0,0.1,0c0,0,0.1,0,0.1,0c0.2,0,0.3,0.1,0.5,0.1c0,0,0.1,0,0.1,0c0,0,0,0,0,0
					c0,0,0,0,0,0c0.2,0,0.3,0.1,0.5,0.1c0.2,0,0.4,0.1,0.6,0.1c0,0,0.1,0,0.1,0c0,0,0.1,0,0.1,0c0,0,0,0,0,0c0.1,0,0.2,0,0.3,0.1
					c0.1,0,0.3,0.1,0.4,0.1c0,0,0.1,0,0.1,0c0,0,0,0,0,0c0.2,0,0.3,0.1,0.5,0.1c0.1,0,0.2,0.1,0.4,0.1c0.1,0,0.1,0,0.2,0.1
					c0,0,0.1,0,0.1,0c0.2,0,0.3,0.1,0.5,0.1c0,0,0,0,0,0c0.1,0,0.2,0,0.3,0.1c0,0,0,0,0.1,0c0,0,0,0,0,0c0,0,0,0,0,0
					c0.2,0.1,0.4,0.1,0.6,0.2c0.1,0,0.2,0,0.3,0.1c0,0,0,0,0,0c0,0,0.1,0,0.1,0c0.3,0.1,0.6,0.1,0.9,0.2c0,0,0.1,0,0.1,0
					c0,0,0.1,0,0.1,0c0.1,0,0.3,0.1,0.4,0.1c0,0,0.1,0,0.1,0c0,0,0,0,0,0c0,0,0.1,0,0.1,0c0,0,0,0,0,0c0.1,0,0.1,0,0.2,0
					c0.2,0.1,0.4,0.1,0.7,0.2c0,0,0,0,0,0c0.1,0,0.2,0.1,0.3,0.1c0,0,0,0,0.1,0c0,0,0,0,0,0c0.1,0,0.1,0,0.2,0
					c0.1,0,0.3,0.1,0.4,0.1c0,0,0,0,0.1,0c0,0,0,0,0.1,0c0.1,0,0.1,0,0.2,0c0.3,0.1,0.6,0.1,0.9,0.2c0.1,0,0.2,0,0.2,0.1
					c0,0,0,0,0.1,0c0,0,0,0,0,0c0.1,0,0.1,0,0.2,0c0.1,0,0.2,0,0.3,0.1c0,0,0,0,0,0c0,0,0,0,0,0c0,0,0,0,0,0c0,0,0.1,0,0.1,0
					c0.3,0.1,0.6,0.1,0.8,0.2c0.1,0,0.1,0,0.2,0c0.1,0,0.1,0,0.2,0.1c0,0,0,0,0.1,0c0,0,0,0,0,0c0.1,0,0.2,0.1,0.3,0.1
					c0,0,0,0,0.1,0c0,0,0,0,0,0c0.1,0,0.2,0,0.3,0.1c0.1,0,0.3,0.1,0.4,0.1c0.2,0,0.4,0.1,0.6,0.1c0.1,0,0.1,0,0.2,0c0,0,0,0,0,0
					c0,0,0,0,0,0c0,0,0,0,0,0c0,0,0.1,0,0.1,0c0.1,0,0.1,0,0.2,0c0,0,0.1,0,0.1,0c0.1,0,0.3,0.1,0.4,0.1c0.2,0,0.3,0.1,0.5,0.1
					c0.1,0,0.2,0.1,0.4,0.1c0,0,0.1,0,0.1,0c0,0,0,0,0,0c0,0,0,0,0,0c0.1,0,0.1,0,0.1,0c0,0,0,0,0.1,0c0,0,0,0,0,0
					c0.1,0,0.2,0,0.2,0.1c0.1,0,0.2,0,0.2,0.1c0.2,0.1,0.4,0.1,0.6,0.2c0.1,0,0.2,0,0.2,0.1c0,0,0,0,0,0c0,0,0,0,0,0c0,0,0,0,0,0
					c0,0,0,0,0.1,0c0,0,0,0,0.1,0c0,0,0,0,0,0c0.1,0,0.1,0,0.2,0.1c0.1,0,0.3,0.1,0.4,0.1c0.1,0,0.3,0.1,0.4,0.1
					c0.1,0,0.3,0.1,0.4,0.1c0.1,0,0.3,0.1,0.4,0.1c0.1,0,0.3,0.1,0.4,0.1c0.1,0,0.2,0.1,0.4,0.1c0.1,0,0.2,0,0.2,0.1c0,0,0,0,0,0
					c0,0,0,0,0,0c0,0,0,0,0,0c0,0,0,0,0.1,0c0.2,0.1,0.4,0.1,0.6,0.2c0,0,0.1,0,0.1,0c0.2,0,0.3,0.1,0.5,0.1c0,0,0,0,0,0
					c0,0,0,0,0,0c0,0,0,0,0,0c0,0,0,0,0,0c0,0,0,0,0,0c0,0,0.1,0,0.1,0c0.1,0,0.2,0.1,0.3,0.1c0.1,0,0.2,0.1,0.3,0.1
					c0,0,0.1,0,0.1,0h0l0,0l-85.5,0.1h0h0C175.4,32.9,175.5,32.9,175.5,32.9z M162.9,37.8L162.9,37.8c0-0.2,0.1-0.5,0.2-0.7
					c0.7-1.6,2.8-3.2,5.3-3.2l2.7,0l1.5,0v0l90.9-0.1l0,0l0,0l1.5,0l2.7,0c2.5,0,4.6,1.6,5.4,3.2c0.1,0.2,0.2,0.5,0.2,0.7l0,0
					l-1.8,0v0l-0.9,0l0,0l-105.1,0.2v0l-0.9,0v0L162.9,37.8z M270.7,52.1l-105.1,0.2l0-13.6l105.1-0.2L270.7,52.1z M164.7,53.2
					l0.9,0L270.7,53l0.9,0l7.8,0l0,9.5l-7.8,0l-0.9,0l-105.1,0.2l-0.9,0l-7.8,0l0-9.5L164.7,53.2z M156,63.6l0.9,0l7.8,0l0.9,0
					l105.1-0.2l0.9,0l7.8,0l0.9,0l12.3,0l0,13.2l-27.2,0l-0.9,0l-2.1,0L174,76.8l-2.1,0l-0.9,0l-27.2,0l0-13.2L156,63.6z
					 M137.6,82.1l2.2-4.4l3,0l0.9,0l27.2,0l0.9,0l1.9,0l0.9,0l87.1-0.1l0.9,0l1.9,0l0.9,0l27.2,0l0.9,0l3,0l2.3,4.3l-1.6,0l-0.9,0
					l-30.9,0.1l-0.9,0l-1.9,0l-0.9,0L174.7,82l-0.9,0l-1.9,0l-0.9,0l-30.9,0.1l-0.9,0L137.6,82.1z M139.2,86.7l-0.5,0
					c0-0.2,0.1-0.4,0.1-0.6v0c0,0,0-0.1,0.1-0.1v0c0.1-0.2,0.2-0.4,0.3-0.5c0,0,0,0,0,0c0-0.1,0.1-0.2,0.2-0.2
					c0.1-0.1,0.2-0.2,0.2-0.3l0,0c0,0,0,0,0,0c0,0,0,0,0,0c0.2-0.2,0.3-0.3,0.5-0.4h0c0,0,0,0,0,0c0.3-0.2,0.6-0.3,0.9-0.3l29.9,0
					l0.9,0l1.9,0l0.9,0l8.3,0c0.5,0,1,0.2,1.4,0.6c0.3,0.3,0.5,0.6,0.7,0.9c0.2,0.3,0.3,0.7,0.3,1l-0.5,0l-0.9,0l-9.2,0l-0.9,0
					l-1.9,0l-0.9,0l-30.9,0.1L139.2,86.7z"/>
				<path class="st27" d="M217.5,90.6c0.1,0,0.2,0,0.2,0c0,0,0.1,0,0.1,0l0.3,0l0.4,0c0,0,0.1,0,0.1,0c0.1,0,0.1,0,0.2,0
					c24.3,0.9,24.6,24.6,24.6,25.6l0,20.3c0.3-0.2,0.6-0.4,0.9-0.7l0-19.7c0,0-0.1-25.6-25.5-26.5v0c-0.3,0-0.5,0-0.7,0
					c-0.3,0-0.5,0-0.7,0v0c-25.4,1-25.4,26.6-25.4,26.6l0.1,48.2c0.3,0.2,0.6,0.4,0.9,0.7l-0.1-48.9
					C193,115.3,193.3,91.6,217.5,90.6z"/>
				<path class="st27" d="M217.6,101.2c0.1,0,0.2,0,0.3,0l0.3,0l0.4,0c0.1,0,0.2,0,0.3,0c21.8,0.8,22.2,22.2,22.2,23.1l0,14.7
					c0.3-0.3,0.6-0.7,1-1.1c0.2-0.2,0.5-0.5,0.8-0.8l0-12.8c0,0-0.1-24.1-23.9-24.9l0,0c-0.2,0-0.5,0-0.7,0c-0.2,0-0.5,0-0.7,0v0
					c-23.9,1-23.9,25-23.9,25l0.1,41.4c0.6,0.5,1.2,1.1,1.8,1.6l-0.1-43C195.5,123.5,195.8,102,217.6,101.2z"/>
				<path class="st27" d="M183.1,154.6c0.3,0,0.5-0.1,0.7-0.3c0.2-0.2,0.2-0.5,0.2-0.7c-0.2-1.4-1.3-2.8-2.7-3l0-0.4
					c0-0.5-0.4-0.9-0.9-0.9l-0.5,0l0-15.2l0.5,0c0.5,0,0.9-0.4,0.9-0.9l0-2.8c0.1,0,0.1-0.1,0.2-0.1c0.2-0.2,0.2-0.5,0.2-0.7
					c-0.1-0.4-0.2-0.9-0.5-1.3c0-0.1-0.1-0.1-0.1-0.2c0,0,0-0.1-0.1-0.1c0,0,0-0.1-0.1-0.1c-0.5-0.7-1.2-1.2-2.1-1.2l-1.7,0
					c-0.3-0.8-0.8-1.6-1.5-1.9l0-0.9c0-0.5-0.4-0.9-0.9-0.9c0,0,0,0,0,0l-0.5,0l0-5.1l0.5,0c0,0,0,0,0,0c0.5,0,0.9-0.4,0.9-0.9
					l0-0.6l0.9,0c0.3,0,0.5-0.1,0.7-0.3s0.2-0.5,0.2-0.7c-0.1-0.7-0.8-3.2-2.4-3.2l-0.4,0l-0.9,0l-1.9,0l-0.9,0l-22,0
					c-1.6,0-2.3,2.5-2.3,3.2c0,0.3,0,0.5,0.2,0.7c0.2,0.2,0.4,0.3,0.7,0.3l0.9,0l0,0.6c0,0.5,0.4,0.9,0.9,0.9l0.5,0l0,5.1l-0.5,0
					c-0.5,0-0.9,0.4-0.9,0.9l0,0.9c-0.7,0.3-1.2,1.1-1.5,1.9l-1.7,0c-0.9,0-1.6,0.5-2.1,1.2c0,0-0.1,0.1-0.1,0.1c0,0,0,0-0.1,0.1
					c0,0.1-0.1,0.1-0.1,0.2c-0.2,0.4-0.4,0.8-0.4,1.3c0,0.3,0,0.5,0.2,0.7c0,0.1,0.1,0.1,0.2,0.1l0,2.8c0,0.5,0.4,0.9,0.9,0.9l0.5,0
					l0,15.2l-0.5,0c-0.5,0-0.9,0.4-0.9,0.9l0,0.4c-1.5,0.2-2.5,1.6-2.7,3c0,0.3,0,0.5,0.2,0.7c0.2,0.2,0.4,0.3,0.7,0.3l2.1,0l0,24
					c0.3-0.4,0.6-0.7,0.9-1.1l0-22.9l6.8,0l0,16.8c0.3-0.2,0.6-0.4,0.9-0.6l0-16.3l19.3,0l0.9,0l0.4,0l0,6.3
					c0.3-0.1,0.6-0.1,0.9-0.2l0-6.2l0.6,0l0.9,0l5.3,0l0,5.8c0.3,0,0.6,0,0.9,0.1l0-5.9L183.1,154.6z M179.9,150.2l0.5,0l0,0.3
					l-0.5,0l-0.9,0l-0.4,0l-0.9,0l-1.9,0l-0.9,0l-0.1,0l-0.4,0l0-0.3l0.4,0l0.1,0l0.9,0l1.9,0l0.9,0l0.4,0L179.9,150.2z
					 M173.4,150.6l-0.8,0l0-16.4c0-0.4-0.3-0.7-0.7-0.9c-0.1,0-0.2,0-0.2,0l-0.6,0l0-0.7c0,0,0-0.1,0-0.1c0-0.5-0.4-0.8-0.9-0.8
					l-16.2,0c-0.5,0-0.9,0.4-0.9,0.9l0,0.7l-0.6,0c-0.5,0-0.9,0.4-0.9,0.9l0,16.4l-0.8,0l0-0.3c0-0.5-0.4-0.9-0.9-0.9l-0.5,0l0-15.2
					l0.5,0c0.5,0,0.9-0.4,0.9-0.9l0-2.6l20.3,0l0.9,0l1.5,0l0,2.6c0,0.3,0.2,0.6,0.4,0.8c0.1,0.1,0.3,0.1,0.5,0.1l0.4,0l0.1,0
					l0,15.2l-0.1,0l-0.4,0c-0.2,0-0.3,0.1-0.5,0.1c-0.3,0.2-0.4,0.4-0.4,0.8L173.4,150.6z M154,134.1l16.2,0l0.9,0h0l0.6,0l0,16.4
					l-0.7,0l-18.6,0l0-16.4l0.6,0L154,134.1z M154,132.5l16.2,0l0,0.7l-16.2,0L154,132.5z M175.7,134.1l1.9,0l0.9,0l0.4,0l0,15.2
					l-0.4,0l-0.9,0l-1.9,0L175.7,134.1z M179.8,133.2l-0.9,0l-0.4,0l-0.9,0l-1.9,0l-0.9,0l-0.1,0l-0.4,0l0-2.6l0.4,0l0.1,0l0.9,0
					l1.9,0l0.9,0l0.4,0l0.9,0l0.5,0l0,2.6L179.8,133.2z M174.2,124l0.5,0l0,0.8l-0.5,0l-0.4,0l-0.5,0l-0.2,0l-0.9,0l-0.3,0l-0.9,0
					l-1,0l-0.9,0l-0.5,0l0-0.8l0.5,0l0.9,0l1,0l0.9,0l0.3,0l0.9,0l0.2,0l0.5,0L174.2,124z M168.7,123.1c-0.2,0-0.3,0.1-0.4,0.1
					l0-5.3c0.1,0.1,0.3,0.1,0.4,0.1l0.5,0l0,5.1L168.7,123.1z M170.1,118l1,0l0.9,0l0.3,0l0.9,0l0.2,0l0,5.1l-0.2,0l-0.9,0l-0.3,0
					l-0.9,0l-1,0L170.1,118z M174.2,117.1l-0.4,0l-0.5,0l-0.2,0l-0.9,0l-0.3,0l-0.9,0l-1,0l-0.9,0l-0.5,0l0-0.6l0.5,0l0.9,0l1,0
					l0.9,0l0.3,0l0.9,0l0.2,0l0.5,0l0.4,0l0.5,0l0,0.6L174.2,117.1z M148.5,115.7L148.5,115.7l-0.9,0v0c0-0.2,0.1-0.4,0.2-0.7
					c0.1-0.3,0.2-0.5,0.3-0.8c0.3-0.5,0.6-0.9,1-0.9l22,0l0.9,0l1.9,0l0.9,0l0.4,0c0.4,0,0.7,0.4,1,0.9c0.1,0.3,0.2,0.5,0.3,0.8
					c0.1,0.3,0.1,0.5,0.2,0.7v0l-0.9,0v0l-0.9,0l0,0v0l-0.5,0l-0.4,0l-0.5,0l-0.2,0l-0.9,0l-0.3,0l-0.9,0l-1,0l-0.9,0l-0.5,0v0
					l-0.9,0v0l-11.4,0v0l-0.9,0v0l-0.5,0l-0.9,0l-2.2,0l-0.9,0l-0.2,0l-0.9,0l-0.5,0v0L148.5,115.7z M156.8,124.2l10.6,0
					c0.2,0,0.3-0.1,0.4-0.1l0,0.8l-11.4,0l0-0.8C156.5,124.2,156.6,124.2,156.8,124.2z M156.8,117.3l10.6,0l0,6l-10.6,0L156.8,117.3
					z M155.9,123.2c-0.1-0.1-0.3-0.1-0.4-0.1l-0.5,0l0-5.1l0.5,0c0.2,0,0.3-0.1,0.4-0.1L155.9,123.2z M149.9,117.1l-0.5,0l0-0.6
					l0.5,0l0.9,0l0.2,0l0.9,0l2.2,0l0.9,0l0.5,0l0,0.6l-0.5,0l-0.9,0l-2.2,0l-0.9,0l-0.2,0L149.9,117.1z M154,123.1l-2.2,0l-0.9,0
					l-0.2,0l0-5.1l0.2,0l0.9,0l2.2,0L154,123.1z M149.9,124l0.9,0l0.2,0l0.9,0l2.2,0l0.9,0l0.5,0l0,0.8l-0.5,0l-0.9,0l-2.2,0l-0.9,0
					l-0.2,0l-0.9,0l-0.5,0l0-0.8L149.9,124z M148.5,126c0.2-0.2,0.3-0.3,0.5-0.3l0.4,0l0.5,0l0.9,0l0.2,0l0.9,0l2.2,0l0.9,0l0.5,0
					l0.9,0l11.4,0l0.9,0l0.5,0l0.9,0l1,0l0.9,0l0.3,0l0.9,0l0.2,0l0.5,0l0.4,0l0.5,0l0,0l0.4,0c0.2,0,0.4,0.1,0.5,0.3
					c0.2,0.2,0.4,0.5,0.5,0.8l-0.9,0l-0.5,0l-0.9,0l-0.2,0l-0.8,0l-0.9,0l-0.9,0l-1.3,0l-1.7,0l-12.1,0l-1.7,0l-3,0l-0.8,0l-1.7,0
					l-0.9,0C148.1,126.5,148.3,126.2,148.5,126z M143.4,129.7c0-0.4,0.2-0.7,0.4-1.1c0,0,0,0,0,0c0.1-0.1,0.1-0.2,0.2-0.3
					c0.3-0.3,0.6-0.5,1-0.6c0.1,0,0.2,0,0.3,0l1.5,0l0.9,0l23.4,0l0.9,0l1.9,0l0.9,0l1.7,0l0.9,0l1.5,0c0.1,0,0.2,0,0.3,0
					c0.4,0.1,0.7,0.3,1,0.6c0.1,0.1,0.1,0.2,0.2,0.3c0,0,0,0,0,0c0.2,0.3,0.3,0.7,0.4,1.1l-0.4,0v0l-0.5,0l-0.9,0l-0.4,0l-0.9,0
					l-1.9,0l-0.9,0l-0.1,0l-0.4,0v0l-0.5,0l-0.4,0v0l-1.5,0l-0.9,0l-20.3,0v0l-0.9,0v0l-0.5,0l-0.9,0l-1.9,0l-0.9,0l-0.4,0l-0.9,0
					l-0.5,0v0L143.4,129.7z M144.3,133.3l-0.5,0l0-2.6l0.5,0l0.9,0l0.4,0l0.9,0l1.9,0l0.9,0l0.5,0l0,2.6l-0.5,0l-0.9,0l-1.9,0
					l-0.9,0l-0.4,0L144.3,133.3z M148.5,149.4l-1.9,0l-0.9,0l-0.4,0l0-15.2l0.4,0l0.9,0l1.9,0L148.5,149.4z M144.3,150.3l0.9,0
					l0.4,0l0.9,0l1.9,0l0.9,0l0.5,0l0,0.3l-0.5,0l-0.9,0l-1.9,0l-0.9,0l-0.4,0l-0.9,0l-0.5,0l0-0.3L144.3,150.3z M180.1,153.7
					l-5.3,0l-0.9,0l-0.6,0l-0.9,0l-0.4,0l-0.9,0l-19.3,0l-0.9,0l-6.8,0l-0.9,0l-2.1,0c0.1-0.4,0.2-0.8,0.4-1.2
					c0.1-0.1,0.2-0.3,0.3-0.4c0.3-0.3,0.7-0.6,1.1-0.7c0.1,0,0.2,0,0.3,0l0.6,0l0.5,0l0.9,0l0.4,0l0.9,0l1.9,0l0.9,0l0.5,0l0.9,0
					l0.8,0l0.9,0l18.6,0l0.7,0l0.2,0l0.7,0l0.8,0l0.4,0l0.5,0l0.4,0l0.1,0l0.9,0l1.9,0l0.9,0l0.4,0l0.9,0l0.5,0l0.6,0
					c0.1,0,0.2,0,0.3,0c0.4,0.1,0.8,0.3,1.1,0.7c0.1,0.1,0.2,0.2,0.3,0.4c0.2,0.4,0.4,0.8,0.4,1.2l-2.1,0L180.1,153.7z"/>
				<path class="st27" d="M295.6,154.4c0.3,0,0.5-0.1,0.7-0.3c0.2-0.2,0.2-0.5,0.2-0.7c-0.2-1.4-1.3-2.8-2.7-3l0-0.4
					c0-0.5-0.4-0.9-0.9-0.9l-0.5,0l0-15.2l0.5,0c0.5,0,0.9-0.4,0.9-0.9l0-2.8c0.1,0,0.1-0.1,0.2-0.1c0.2-0.2,0.2-0.5,0.2-0.7
					c-0.1-0.4-0.2-0.9-0.5-1.3c0-0.1-0.1-0.1-0.1-0.2c0,0,0-0.1-0.1-0.1c0,0,0-0.1-0.1-0.1c-0.5-0.7-1.2-1.2-2.1-1.2l-1.7,0
					c-0.3-0.8-0.8-1.6-1.5-1.9l0-0.9c0-0.5-0.4-0.9-0.9-0.9l-0.5,0l0-5.1l0.5,0c0.5,0,0.9-0.4,0.9-0.9l0-0.6l0.9,0
					c0.3,0,0.5-0.1,0.7-0.3c0.2-0.2,0.2-0.5,0.2-0.7c-0.1-0.7-0.8-3.2-2.4-3.2l-22,0l-0.9,0l-1.9,0l-0.9,0l-0.4,0
					c-1.6,0-2.3,2.5-2.3,3.2c0,0.3,0,0.5,0.2,0.7s0.4,0.3,0.7,0.3l0.9,0l0,0.6c0,0.5,0.4,0.9,0.9,0.9c0,0,0,0,0,0l0.5,0l0,5.1
					l-0.5,0c0,0,0,0,0,0c-0.5,0-0.9,0.4-0.9,0.9l0,0.9c-0.7,0.3-1.2,1.1-1.5,1.9l-1.7,0c-0.9,0-1.6,0.5-2.1,1.2c0,0-0.1,0.1-0.1,0.1
					c0,0,0,0,0,0c0,0.1-0.1,0.1-0.1,0.2c-0.2,0.4-0.4,0.8-0.4,1.3c0,0.3,0,0.5,0.2,0.7c0,0.1,0.1,0.1,0.2,0.1l0,0.7
					c0.3-0.1,0.6-0.1,0.9-0.1l0-0.4l0.5,0l0.9,0l0.4,0l0.9,0l1.9,0l0.9,0l0.1,0l0.4,0l0,0.4c0.3,0,0.6,0.1,0.9,0.2l0-0.6l1.5,0
					l0.9,0l20.3,0l0,2.6c0,0.5,0.4,0.9,0.9,0.9l0.5,0l0,15.2l-0.5,0c-0.5,0-0.9,0.4-0.9,0.9l0,0.3l-0.8,0l0-16.4
					c0-0.5-0.4-0.9-0.9-0.9l-0.6,0l0-0.7c0-0.5-0.4-0.9-0.9-0.9l-16.2,0c-0.3,0-0.5,0.1-0.7,0.3c0.4,0.2,0.9,0.4,1.3,0.6l15.5,0
					l0,0.7l-14.3,0c0.4,0.3,0.8,0.6,1.2,0.9l13.1,0l0.9,0l0.6,0l0,16.4l-7.6,0c0,0.3,0.1,0.6,0.1,0.9l7.5,0l0.9,0l0.8,0l0.9,0l0.5,0
					l0.9,0l1.9,0l0.9,0l0.4,0l0.9,0l0.5,0l0.6,0c0.1,0,0.2,0,0.3,0c0.4,0.1,0.8,0.3,1.1,0.7c0.1,0.1,0.2,0.2,0.3,0.4
					c0.2,0.4,0.4,0.8,0.4,1.2l-2.1,0l-0.9,0l-6.8,0l-0.9,0l-8,0c0,0.3,0,0.6,0,0.9l8,0l0,7.1c0.3-0.1,0.6-0.2,0.9-0.2l0-6.9l6.8,0
					l0,6c0.3,0,0.6,0,0.9,0l0-6L295.6,154.4z M286.6,123.8l0.5,0l0,0.8l-0.5,0l-0.9,0l-0.2,0l-0.9,0l-2.2,0l-0.9,0l-0.5,0l0-0.8
					l0.5,0l0.9,0l2.2,0l0.9,0l0.2,0L286.6,123.8z M281.1,122.9c-0.2,0-0.3,0.1-0.4,0.1l0-5.3c0.1,0.1,0.3,0.1,0.4,0.1l0.5,0l0,5.1
					L281.1,122.9z M282.5,117.8l2.2,0l0.9,0l0.2,0l0,5.1l-0.2,0l-0.9,0l-2.2,0L282.5,117.8z M286.6,116.9l-0.9,0l-0.2,0l-0.9,0
					l-2.2,0l-0.9,0l-0.5,0l0-0.6l0.5,0l0.9,0l2.2,0l0.9,0l0.2,0l0.9,0l0.5,0l0,0.6L286.6,116.9z M261.8,115.5l-0.9,0v0l-0.9,0v0
					c0-0.1,0-0.2,0.1-0.4c0.1-0.2,0.1-0.5,0.2-0.7c0.1-0.1,0.1-0.3,0.2-0.4c0.3-0.5,0.6-0.9,1-0.9l0.4,0l0.9,0l1.9,0l0.9,0l22,0
					c0.4,0,0.7,0.4,1,0.9c0.1,0.1,0.1,0.3,0.2,0.4c0.1,0.2,0.2,0.5,0.2,0.7c0,0.1,0.1,0.3,0.1,0.4v0l-0.9,0v0l-0.9,0v0l-0.5,0
					l-0.9,0l-0.2,0l-0.9,0l-2.2,0l-0.9,0l-0.5,0v0l-0.9,0v0l-11.4,0v0l-0.9,0v0l-0.5,0l-0.9,0l-1,0l-0.9,0l-0.3,0l-0.9,0l-0.2,0
					l-0.5,0l-0.4,0L261.8,115.5L261.8,115.5L261.8,115.5z M269.2,124l10.6,0c0.2,0,0.3-0.1,0.4-0.1l0,0.8l-11.4,0l0-0.8
					C268.9,124,269.1,124,269.2,124z M269.2,117.1l10.6,0l0,6l-10.6,0L269.2,117.1z M268.3,123c-0.1-0.1-0.3-0.1-0.4-0.1l-0.5,0
					l0-5.1l0.5,0c0.2,0,0.3-0.1,0.4-0.1L268.3,123z M262.3,116.9l-0.5,0l0-0.6l0.5,0l0.4,0l0.5,0l0.2,0l0.9,0l0.3,0l0.9,0l1,0l0.9,0
					l0.5,0l0,0.6l-0.5,0l-0.9,0l-1,0l-0.9,0l-0.3,0l-0.9,0l-0.2,0l-0.5,0L262.3,116.9z M266.5,122.9l-1,0l-0.9,0l-0.3,0l-0.9,0
					l-0.2,0l0-5.1l0.2,0l0.9,0l0.3,0l0.9,0l1,0L266.5,122.9z M262.4,123.8l0.4,0l0.5,0l0.2,0l0.9,0l0.3,0l0.9,0l1,0l0.9,0l0.5,0
					l0,0.8l-0.5,0l-0.9,0l-1,0l-0.9,0l-0.3,0l-0.9,0l-0.2,0l-0.5,0l-0.4,0l-0.5,0l0-0.8L262.4,123.8z M261,125.8
					c0.2-0.2,0.3-0.3,0.5-0.3l0.4,0l0,0l0.5,0l0.4,0l0.5,0l0.2,0l0.9,0l0.3,0l0.9,0l1,0l0.9,0l0.5,0l0.9,0l11.4,0l0.9,0l0.5,0l0.9,0
					l2.2,0l0.9,0l0.2,0l0.9,0l0.5,0l0.4,0c0.2,0,0.4,0.1,0.5,0.3c0.2,0.2,0.4,0.5,0.5,0.8l-0.9,0l-1.7,0l-0.8,0l-3,0l-1.7,0l-12.1,0
					l-1.7,0l-1.3,0l-0.9,0l-0.9,0l-0.8,0l-0.2,0l-0.9,0l-0.5,0l-0.9,0C260.6,126.3,260.8,126,261,125.8z M285.8,129.5L285.8,129.5
					l-20.3,0l-0.9,0l-1.5,0v0l-0.4,0l-0.5,0v0l-0.4,0l-0.1,0l-0.9,0l-1.9,0l-0.9,0l-0.4,0l-0.9,0l-0.5,0v0l-0.4,0
					c0-0.2,0.1-0.4,0.1-0.5c0.1-0.2,0.2-0.4,0.3-0.5c0,0,0,0,0,0c0.1-0.1,0.1-0.2,0.2-0.3c0.3-0.3,0.6-0.5,1-0.6c0.1,0,0.2,0,0.3,0
					l1.5,0l0.9,0l1.7,0l0.9,0l1.9,0l0.9,0l23.3,0l0.9,0l1.5,0c0.1,0,0.2,0,0.3,0c0.4,0.1,0.7,0.3,1,0.6c0.1,0.1,0.1,0.2,0.2,0.3
					c0,0,0,0,0,0c0.2,0.3,0.3,0.7,0.4,1.1l-0.4,0v0l-0.5,0l-0.9,0l-0.4,0l-0.9,0l-1.9,0l-0.9,0l-0.5,0v0L285.8,129.5z M287.3,133
					l-0.5,0l0-2.6l0.5,0l0.9,0l1.9,0l0.9,0l0.4,0l0.9,0l0.5,0l0,2.6l-0.5,0l-0.9,0l-0.4,0l-0.9,0l-1.9,0L287.3,133z M291.4,149.1
					l-0.4,0l-0.9,0l-1.9,0l0-15.2l1.9,0l0.9,0l0.4,0L291.4,149.1z M292.3,150.4l-0.9,0l-0.4,0l-0.9,0l-1.9,0l-0.9,0l-0.5,0l0-0.3
					l0.5,0l0.9,0l1.9,0l0.9,0l0.4,0l0.9,0l0.5,0l0,0.3L292.3,150.4z"/>
				<path class="st27" d="M197.2,27.2C197.2,27.2,197.2,27.2,197.2,27.2C197.2,27.2,197.2,27.2,197.2,27.2
					C197.2,27.2,197.2,27.2,197.2,27.2z"/>
				<path class="st27" d="M230,24.9C229.9,24.9,229.9,24.9,230,24.9c-0.1,0-0.2-0.1-0.3-0.1c0.1,0,0.1,0,0.2,0
					C229.9,24.9,229.9,24.9,230,24.9z"/>
				<path class="st27" d="M243.3,28.2C243.3,28.2,243.2,28.1,243.3,28.2c-0.1,0-0.1,0-0.1,0C243.2,28.1,243.3,28.1,243.3,28.2
					C243.3,28.2,243.3,28.2,243.3,28.2z"/>
				<polygon class="st27" points="211.3,23.8 211.3,23.8 211.3,23.8 				"/>
				<path class="st27" d="M204.8,25.3c0,0-0.1,0-0.1,0C204.7,25.4,204.7,25.3,204.8,25.3C204.8,25.3,204.8,25.3,204.8,25.3z"/>
				<polygon class="st27" points="218.3,22.2 218.3,22.2 218.3,22.2 				"/>
				<path class="st27" d="M209.8,24.1C209.8,24.1,209.8,24.1,209.8,24.1C209.8,24.1,209.7,24.1,209.8,24.1
					C209.7,24.1,209.7,24.1,209.8,24.1z"/>
				<path class="st27" d="M258.8,51.6c3,0,5.5-2.5,5.5-5.5c0-3-2.5-5.5-5.5-5.5c-3,0-5.5,2.5-5.5,5.5
					C253.3,49.2,255.8,51.6,258.8,51.6z M263,44.3C263,44.3,263,44.4,263,44.3c-0.1-0.2-0.2-0.4-0.4-0.7
					C262.8,43.9,262.9,44.1,263,44.3z M254.2,46.1c0-0.6,0.1-1.2,0.4-1.8c0.2-0.4,0.4-0.8,0.7-1.1c0.8-1,2.1-1.7,3.5-1.7
					c0.3,0,0.6,0,0.9,0.1c0.1,0,0.1,0,0.1,0c0.3,0.1,0.5,0.2,0.8,0.3c0,0,0.1,0,0.1,0c0.5,0.2,1,0.6,1.4,1c0,0,0,0,0,0.1
					c0.4,0.7,0.7,1.5,0.7,2.4c0,2.5-2,4.6-4.6,4.6c-1.3,0-2.5-0.6-3.3-1.4C254.5,47.8,254.2,47,254.2,46.1z"/>
				<path class="st27" d="M177.5,51.7c3,0,5.5-2.5,5.5-5.5c0-3-2.5-5.5-5.5-5.5c-3,0-5.5,2.5-5.5,5.5
					C172.1,49.3,174.5,51.7,177.5,51.7z M181.8,44.5C181.8,44.5,181.8,44.5,181.8,44.5c-0.1-0.2-0.2-0.4-0.4-0.6
					C181.5,44,181.7,44.2,181.8,44.5z M172.9,46.3c0-0.6,0.1-1.2,0.4-1.8c0.2-0.4,0.4-0.8,0.7-1.1c0.8-1,2.1-1.7,3.5-1.7
					c1.3,0,2.5,0.6,3.4,1.5c0.4,0.7,0.7,1.5,0.7,2.4c0,2.5-2,4.6-4.6,4.6c-1.3,0-2.5-0.6-3.4-1.5C173.2,47.9,172.9,47.1,172.9,46.3z
					"/>
				<path class="st27" d="M191.9,51.3l52.6-0.1c2.8,0,5.1-2.3,5.1-5.1c0-2.8-2.3-5.1-5.1-5.1l-52.6,0.1c-2.8,0-5.1,2.3-5.1,5.1
					C186.8,49.1,189.1,51.3,191.9,51.3z M187.7,46.2c0-2.3,1.9-4.2,4.2-4.2l52.6-0.1c2.3,0,4.2,1.9,4.2,4.2l0,0
					c0,0.6-0.1,1.1-0.3,1.6c-0.2,0.5-0.5,1-0.9,1.3c-0.8,0.8-1.8,1.2-3,1.2l-52.6,0.1c-1.2,0-2.2-0.5-3-1.2
					c-0.4-0.4-0.7-0.8-0.9-1.3S187.7,46.8,187.7,46.2z"/>
				<path class="st27" d="M274.5,109.8c3,0,5.5-2.5,5.5-5.5c0-3-2.5-5.5-5.5-5.5c-3,0-5.5,2.5-5.5,5.5
					C269,107.3,271.5,109.8,274.5,109.8z M278.7,102.6c-0.2-0.5-0.5-1-0.9-1.4C278.2,101.6,278.5,102,278.7,102.6z M269.9,104.3
					c0-2.5,2-4.6,4.6-4.6c1.3,0,2.5,0.6,3.4,1.5c0.4,0.7,0.7,1.5,0.7,2.4c0,2.5-2,4.6-4.6,4.6c-1.3,0-2.5-0.6-3.3-1.4
					C270.2,106,269.9,105.2,269.9,104.3z"/>
				<path class="st27" d="M162,99c-3,0-5.5,2.5-5.5,5.5c0,3,2.5,5.5,5.5,5.5s5.5-2.5,5.5-5.5C167.5,101.4,165,99,162,99z
					 M161.5,108.3c-1.3,0-2.5-0.6-3.4-1.5c-0.4-0.7-0.7-1.5-0.7-2.4c0-2.5,2-4.6,4.6-4.6c1.3,0,2.5,0.6,3.4,1.5
					c0.4,0.7,0.7,1.5,0.7,2.4C166.1,106.2,164,108.3,161.5,108.3z"/>
			</g>
		</g>
		<g class="st60">
			<g class="st62">
				<g>
					<path class="st9" d="M255.3,103.4c0,0-0.1-44.2-44-45.9v-0.1c-0.4,0-0.9,0-1.3,0c-0.4,0-0.9,0-1.3,0v0.1
						c-43.9,1.8-43.9,46-43.9,46l0.1,49.6c0.5-0.2,1-0.4,1.6-0.6l-0.1-49.1c0-1.7,0.5-42.8,42.4-44.4c0.1,0,0.3,0,0.4-0.1
						c0.1,0,0.1,0,0.2,0l0.6,0l0.6,0c0.1,0,0.1,0,0.2,0c0.1,0,0.3,0.1,0.4,0.1c41.9,1.5,42.5,42.6,42.5,44.3l0,18.1
						c0.5-0.1,1-0.2,1.6-0.2L255.3,103.4z"/>
					<path class="st9" d="M83.8,134.4l0.8,0l1.6,0l1.6,0c0,0,0-0.1,0.1-0.1c0.4-0.5,0.8-0.9,1.2-1.5l-2.9,0l-1.6,0l-0.8,0l-1.6,0
						l-0.9,0l0-4.5l0.9,0l1.6,0l0.8,0l1.6,0l3.3,0l1.6,0l0.9,0l0,1.6c0.5-0.4,1-0.8,1.6-1.2l0-0.4l0.5,0c0.7-0.5,1.5-1,2.4-1.6
						l-2.9,0v0l-1.6,0v0l-0.9,0l-1.6,0l-3.3,0l-1.6,0l-0.8,0l-1.6,0l-0.9,0v0l-0.7,0c0.1-0.6,0.3-1.3,0.7-1.8c0,0,0,0,0,0
						c0.1-0.2,0.2-0.3,0.4-0.5c0.5-0.5,1-0.9,1.7-1.1c0.2,0,0.3-0.1,0.5-0.1l2.5,0l1.6,0l14.9,0c1.7-0.7,3.4-1.2,5.2-1.6l-5.7,0
						l-2.9,0l-5.2,0l-1.4,0l-2.9,0l-1.5,0c0.2-0.5,0.5-1,0.9-1.4c0.3-0.3,0.6-0.5,0.9-0.5l0.6,0l0.9,0l1.6,0l0.3,0l1.6,0l3.8,0
						l1.6,0l0.9,0l1.6,0l19.7,0l1.6,0l0.9,0l1.6,0l1.6,0l1.6,0l0.6,0l1.6,0l0.3,0l0.9,0l0.6,0l0.9,0l0,0l0.6,0
						c0.3,0,0.6,0.2,0.9,0.5c0.3,0.3,0.6,0.8,0.9,1.4l-1.5,0l-0.9,0l-1.6,0l-0.4,0l-1.4,0l-1.5,0l-1.6,0l-2.2,0l-2.9,0l-2.3,0
						c1.5,0.3,3.1,0.8,4.7,1.5l2.7,0l1.6,0l3.3,0l1.6,0l3,0l1.6,0l2.5,0c0.2,0,0.3,0,0.5,0.1c0.7,0.1,1.2,0.5,1.7,1.1
						c0.1,0.2,0.3,0.3,0.4,0.5c0,0,0,0,0,0c0.4,0.6,0.6,1.2,0.7,1.8l-0.7,0v0l-0.9,0l-1.6,0l-0.8,0l-1.6,0l-3.3,0l-1.6,0l-0.1,0
						l-0.8,0v0l-0.8,0l-0.8,0v0l-1.1,0c0.9,0.8,1.8,1.6,2.7,2.6l0-1l0.8,0l0.1,0l1.6,0l3.3,0l1.6,0l0.8,0l1.6,0l0.9,0l0,4.5l-0.9,0
						l-1.6,0l-0.8,0l-1.6,0l-3.1,0c0.3,0.5,0.6,1,0.9,1.6l2.2,0l1.6,0l0.8,0l0,26.3l0,0v1.6l0,0l1.6,0l0.9,0l0,0.6l-0.9,0l-1.6,0
						l0,0v1.6l0.1,0l1.6,0l0.7,0c0.7-0.5,1.4-1,2.1-1.4c-0.1,0-0.2-0.1-0.4-0.1l0-0.6c0-0.9-0.7-1.6-1.6-1.6l-0.9,0l0-26.3l0.9,0
						c0.9,0,1.6-0.7,1.6-1.6l0-4.8c0.1-0.1,0.2-0.1,0.3-0.2c0.3-0.3,0.4-0.8,0.4-1.2c-0.1-0.7-0.4-1.5-0.8-2.2
						c-0.1-0.1-0.1-0.2-0.2-0.3c0,0-0.1-0.1-0.1-0.1c0-0.1-0.1-0.1-0.1-0.2c-0.9-1.2-2.1-2-3.6-2l-3,0c-0.5-1.3-1.3-2.7-2.6-3.2
						l0-1.6c0-0.8-0.7-1.5-1.5-1.5c0,0,0,0,0,0l-0.9,0l0-8.8l0.9,0c0,0,0,0,0,0c0.8,0,1.5-0.7,1.5-1.5l0-1l1.6,0
						c0.4,0,0.9-0.2,1.2-0.5c0.3-0.3,0.4-0.8,0.4-1.2c-0.2-1.2-1.3-5.6-4.1-5.6l-0.6,0l-1.6,0l-3.3,0l-1.6,0l-38,0.1
						c-2.8,0-3.9,4.4-4.1,5.6c-0.1,0.4,0.1,0.9,0.4,1.2c0.3,0.3,0.7,0.5,1.2,0.5l1.6,0l0,1c0,0.9,0.7,1.6,1.6,1.6l0.9,0l0,8.8
						l-0.9,0c-0.9,0-1.6,0.7-1.6,1.6l0,1.6c-1.3,0.5-2.1,1.9-2.6,3.2l-3,0c-1.5,0-2.8,0.9-3.6,2.1c0,0.1-0.1,0.1-0.1,0.2
						c0,0-0.1,0.1-0.1,0.1c-0.1,0.1-0.1,0.2-0.2,0.3c-0.4,0.7-0.7,1.5-0.8,2.2c-0.1,0.4,0.1,0.9,0.4,1.2c0.1,0.1,0.2,0.1,0.3,0.2
						l0,4.8c0,0.9,0.7,1.6,1.6,1.6l0.9,0l0,22.1c0.5-0.2,1-0.3,1.6-0.5L83.8,134.4z M101.5,115.3l-0.9,0l0-8.8l0.9,0
						c0.3,0,0.5-0.1,0.7-0.2l0,9.2C102,115.4,101.8,115.3,101.5,115.3z M103.1,118.3l0-1.3c0.2,0.1,0.5,0.2,0.7,0.2l18.2,0
						c0.3,0,0.5-0.1,0.7-0.2l0,1.3L103.1,118.3z M103.8,105.2l18.2,0l0,10.4l-18.2,0L103.8,105.2z M123.6,115.5l0-9.2
						c0.2,0.1,0.5,0.2,0.7,0.2l0.9,0l0,8.8l-0.9,0C124.1,115.3,123.8,115.4,123.6,115.5z M133.9,116.8l0.9,0l0,1.4l-0.9,0l-0.6,0
						l-0.9,0l-0.3,0l-1.6,0l-0.6,0l-1.6,0l-1.6,0l-1.6,0l-0.9,0l0-1.4l0.9,0l1.6,0l1.6,0l1.6,0l0.6,0l1.6,0l0.3,0l0.9,0L133.9,116.8
						z M126.7,106.5l1.6,0l1.6,0l0.6,0l1.6,0l0.3,0l0,8.8l-0.3,0l-1.6,0l-0.6,0l-1.6,0l-1.6,0L126.7,106.5z M133.9,104.9l-0.6,0
						l-0.9,0l-0.3,0l-1.6,0l-0.6,0l-1.6,0l-1.6,0l-1.6,0l-0.9,0l0-1l0.9,0l1.6,0l1.6,0l1.6,0l0.6,0l1.6,0l0.3,0l0.9,0l0.6,0l0.9,0
						l0,1L133.9,104.9z M89.5,102.5L89.5,102.5l-1.6,0v0c0-0.3,0.1-0.7,0.3-1.2c0.1-0.5,0.3-0.9,0.5-1.4c0.4-0.9,1-1.6,1.7-1.6
						l38-0.1l1.6,0l3.3,0l1.6,0l0.6,0c0.7,0,1.2,0.7,1.7,1.6c0.2,0.4,0.4,0.9,0.6,1.4c0.1,0.5,0.2,0.9,0.3,1.2v0l-1.6,0v0l-1.5,0
						l0,0v0l-0.9,0l-0.6,0l-0.9,0l-0.3,0l-1.6,0l-0.6,0l-1.6,0l-1.6,0l-1.6,0l-0.9,0v0l-1.6,0v0l-19.7,0v0l-1.6,0l0,0l-0.9,0l-1.6,0
						l-3.8,0l-1.6,0l-0.3,0l-1.6,0l-0.9,0v0L89.5,102.5z M91.9,105l-0.9,0l0-1l0.9,0l1.6,0l0.3,0l1.6,0l3.8,0l1.6,0l0.9,0l0,1
						l-0.9,0l-1.6,0l-3.8,0l-1.6,0l-0.3,0L91.9,105z M99.1,115.3l-3.8,0l-1.6,0l-0.3,0l0-8.8l0.3,0l1.6,0l3.8,0L99.1,115.3z
						 M91.9,116.9l1.6,0l0.3,0l1.6,0l3.8,0l1.6,0l0.9,0l0,1.4l-0.9,0l-1.6,0l-3.8,0l-1.6,0l-0.3,0l-1.6,0l-0.9,0l0-1.4L91.9,116.9z"
						/>
					<path class="st9" d="M252.5,117.3c0,0-0.1-41.6-41.4-43.1v-0.1c-0.4,0-0.8,0-1.2,0c-0.4,0-0.8,0-1.2,0l0,0.1
						c-41.2,1.7-41.2,43.2-41.2,43.2l0.1,34.7c1-0.3,2.1-0.6,3.1-0.8l-0.1-34c0-1.6,0.5-38.6,38.2-40.1c0.2,0,0.3,0,0.5-0.1l0.6,0
						l0.7,0c0.2,0,0.3,0,0.5,0.1c37.7,1.4,38.3,38.4,38.4,40l0,5.2c1-0.3,2.1-0.6,3.1-0.8L252.5,117.3z"/>
					<path class="st9" d="M281.2,121.4l-3,0c-1.5,0-2.8,0.9-3.6,2.1c0,0.1-0.1,0.1-0.1,0.2c0,0,0,0.1-0.1,0.1
						c-0.1,0.1-0.1,0.2-0.2,0.3c-0.2,0.3-0.4,0.7-0.5,1c0.4,0.3,0.9,0.6,1.3,0.9c0-0.2,0.1-0.3,0.2-0.5c0.1-0.3,0.3-0.6,0.4-0.9
						c0,0,0,0,0,0c0.1-0.2,0.2-0.3,0.4-0.5c0.5-0.5,1-0.9,1.7-1.1c0.2,0,0.3-0.1,0.5-0.1l2.5,0l1.6,0l3,0l1.6,0l3.3,0l1.6,0l25.4,0
						c0.4-0.5,0.9-1,1.4-1.6l-0.8,0l-20.9,0l-2.9,0l-2.2,0l-1.6,0l-1.5,0l-1.4,0l-0.4,0l-1.6,0l-0.9,0l-1.5,0c0.2-0.5,0.5-1,0.9-1.4
						c0.3-0.3,0.6-0.5,0.9-0.5l0.6,0l0,0l0.9,0l0.6,0l0.9,0l0.3,0l1.6,0l0.6,0l1.6,0l1.6,0l1.6,0l0.9,0l1.6,0l19.7,0l1.6,0l0.9,0
						l0.9,0c0.6-0.5,1.2-1,1.8-1.6l-1.2,0l-1.6,0l-0.9,0l0-1.4l0.9,0l1.6,0l3,0c0.1-0.1,0.3-0.2,0.4-0.3c0.6-0.4,1.2-0.8,1.8-1.2
						l-1.4,0l-3.8,0l0-8.8l3.8,0l1.6,0l0.3,0l0,8.6c0.5-0.3,1-0.6,1.6-0.9l0-7.7l0.9,0c0.9,0,1.6-0.7,1.6-1.6l0-1l1.6,0
						c0.4,0,0.9-0.2,1.2-0.5c0.3-0.3,0.4-0.8,0.4-1.2c-0.2-1.2-1.3-5.6-4.1-5.6l-38,0.1l-1.6,0l-3.3,0l-1.6,0l-0.6,0
						c-2.8,0-3.9,4.4-4.1,5.6c-0.1,0.4,0.1,0.9,0.4,1.2c0.3,0.3,0.7,0.5,1.2,0.5l1.6,0l0,1c0,0.8,0.7,1.5,1.5,1.5c0,0,0,0,0,0l0.9,0
						l0,8.8l-0.9,0c0,0,0,0,0,0c-0.8,0-1.5,0.7-1.5,1.5l0,1.6C282.5,118.7,281.7,120.1,281.2,121.4z M295.8,115l-0.9,0l0-8.8l0.9,0
						c0.3,0,0.5-0.1,0.7-0.2l0,9.2C296.3,115.1,296,115,295.8,115z M297.3,118l0-1.3c0.2,0.1,0.5,0.2,0.7,0.2l18.2,0
						c0.3,0,0.5-0.1,0.7-0.2l0,1.3L297.3,118z M298,104.9l18.2,0l0,10.4l-18.2,0L298,104.9z M318.6,115c-0.3,0-0.5,0.1-0.7,0.2
						l0-9.2c0.2,0.1,0.5,0.2,0.7,0.2l0.9,0l0,8.8L318.6,115z M328.1,104.6l-1.6,0l-0.3,0l-1.6,0l-3.8,0l-1.6,0l-0.9,0l0-1l0.9,0
						l1.6,0l3.8,0l1.6,0l0.3,0l1.6,0l0.9,0l0,1L328.1,104.6z M285.3,102.2l-1.5,0v0l-1.6,0v0c0-0.2,0.1-0.4,0.1-0.7
						c0.1-0.4,0.2-0.8,0.4-1.2c0.1-0.2,0.2-0.5,0.3-0.7c0.4-0.9,1-1.6,1.7-1.6l0.6,0l1.6,0l3.3,0l1.6,0l38-0.1
						c0.7,0,1.2,0.7,1.7,1.6c0.1,0.2,0.2,0.5,0.3,0.7c0.2,0.4,0.3,0.8,0.4,1.2c0.1,0.3,0.1,0.5,0.1,0.7v0l-1.6,0v0l-1.6,0v0l-0.9,0
						l-1.6,0l-0.3,0l-1.6,0l-3.8,0l-1.6,0l-0.9,0v0l-1.6,0l0,0l-19.7,0v0l-1.6,0v0l-0.9,0l-1.6,0l-1.6,0l-1.6,0l-0.6,0l-1.6,0
						l-0.3,0l-0.9,0l-0.6,0L285.3,102.2L285.3,102.2L285.3,102.2z M286.2,104.7l-0.9,0l0-1l0.9,0l0.6,0l0.9,0l0.3,0l1.6,0l0.6,0
						l1.6,0l1.6,0l1.6,0l0.9,0l0,1l-0.9,0l-1.6,0l-1.6,0l-1.6,0l-0.6,0l-1.6,0l-0.3,0l-0.9,0L286.2,104.7z M293.3,115l-1.6,0l-1.6,0
						l-0.6,0l-1.6,0l-0.3,0l0-8.8l0.3,0l1.6,0l0.6,0l1.6,0l1.6,0L293.3,115z M286.2,116.6l0.6,0l0.9,0l0.3,0l1.6,0l0.6,0l1.6,0
						l1.6,0l1.6,0l0.9,0l0,1.4l-0.9,0l-1.6,0l-1.6,0l-1.6,0l-0.6,0l-1.6,0l-0.3,0l-0.9,0l-0.6,0l-0.9,0l0-1.4L286.2,116.6z"/>
					<path class="st9" d="M290.6,134l1.1,0h0l1.5,0l18.6,0c0-0.5,0.1-1,0.2-1.6l-18.8,0l0-1.2l19.1,0c0.1-0.5,0.3-1,0.5-1.6l-19.7,0
						c-0.8,0-1.4,0.6-1.5,1.4c0,0.1,0,0.1,0,0.2l0,1.2l-1.1,0c-0.1,0-0.3,0-0.4,0.1c-0.7,0.2-1.1,0.8-1.1,1.5l0,16.9
						c0.5-0.1,1-0.1,1.6-0.1L290.6,134z"/>
					<path class="st9" d="M70.6,47.5l0.8,0c-1.1,1.3-1.8,2.9-2,4.5c-0.1,0.9,0.2,1.8,0.7,2.5c0.4,0.5,1,0.9,1.7,1l0.2,106
						c1-0.7,2-1.3,3.1-1.8L75,54l53.3-0.1l1.6,0l3.3,0l1.6,0l15.9,0l0.2,106.7c0.5-0.2,1-0.4,1.6-0.6l-0.2-106.1l0.9,0
						c0.4,0,0.9-0.2,1.2-0.5c0.3-0.3,0.4-0.8,0.4-1.2c-0.1-0.5-0.2-1-0.4-1.5l111.4-0.2c-0.2,0.5-0.3,1-0.4,1.5
						c-0.1,0.4,0.1,0.9,0.4,1.2c0.3,0.3,0.7,0.5,1.2,0.5l0.9,0l0.1,68.6c0.5,0.2,1,0.4,1.6,0.6l-0.1-69.2l15.9,0l1.6,0l3.3,0l1.6,0
						l53.3-0.1l0.1,57.2c1.1,0.1,2.1,0.3,3.1,0.5L348,55c0.7-0.1,1.3-0.5,1.7-1c0.6-0.7,0.9-1.6,0.7-2.5c-0.2-1.7-1-3.3-2-4.5l0.8,0
						c1.1,0,2.1-0.6,2.7-1.5c0.6-0.9,0.6-2.1,0.1-3l-3.9-7.5c-0.5-1-1.6-1.7-2.8-1.7l-3.7,0l0-21.2c0-1.7-1.4-3.1-3.1-3.1l-19.7,0
						l0-14.9c0-1.7-1.4-3.1-3.1-3.1l-11.9,0l0-20.4l1.6,0c0.9,0,1.8-0.4,2.4-1.1c0.6-0.7,0.8-1.7,0.6-2.6c-0.9-4.5-6-9.3-12.7-9.3
						l-6.8,0c-11.2-4.1-71.1-18.3-78.4-19.7l0,0c-0.2-0.1-0.5-0.1-0.7-0.1c0,0,0,0,0,0c0,0,0,0,0,0c0,0,0,0,0,0c0,0,0,0,0,0
						c0,0,0,0,0,0c-0.2,0-0.5,0-0.7,0.1l0,0c-7.3,1.4-67.2,15.8-78.4,19.9l-6.8,0c-6.7,0-11.8,4.8-12.7,9.3
						c-0.2,0.9,0.1,1.9,0.6,2.6c0.6,0.7,1.5,1.1,2.4,1.1l1.6,0l0,20.4l-11.9,0c-1.7,0-3.1,1.4-3.1,3.1l0,14.9l-19.7,0
						c-1.7,0-3.1,1.4-3.1,3.1l0,21.2l-3.7,0c-1.2,0-2.2,0.7-2.8,1.7L67.9,43c-0.5,1-0.5,2.1,0.1,3C68.5,47,69.5,47.5,70.6,47.5z
						 M152.2,52.3l-1.6,0l-15.9,0l-1.6,0l-3.3,0l-1.6,0L75,52.4l-1.6,0l-0.9,0c0-0.3,0.1-0.7,0.3-1l0,0c0-0.1,0.1-0.2,0.1-0.2v0
						c0.1-0.3,0.3-0.6,0.5-0.9c0,0,0,0,0,0c0.1-0.1,0.2-0.3,0.3-0.4c0.1-0.2,0.3-0.4,0.4-0.5l0,0c0,0,0,0,0,0c0,0,0,0,0,0
						c0.3-0.3,0.5-0.5,0.9-0.7h0c0,0,0,0,0,0c0.5-0.3,1-0.5,1.6-0.5l51.7-0.1l1.6,0l3.3,0l1.6,0l14.3,0c0.9,0,1.7,0.4,2.4,1.1
						c0.5,0.4,0.9,1,1.1,1.6c0.3,0.6,0.5,1.2,0.6,1.7L152.2,52.3z M153.5,49c-1-1.5-2.6-2.6-4.4-2.6l-14.3,0l-1.6,0l-3.3,0l-1.6,0
						l-51.7,0.1c-0.6,0-1.1,0.1-1.6,0.3l0-0.9l53.3-0.1l1.6,0l3.3,0l1.6,0l150.5-0.2l1.6,0l3.3,0l1.6,0l53.3-0.1l0,0.9
						c-0.5-0.2-1-0.3-1.6-0.3l-51.7,0.1l-1.6,0l-3.3,0l-1.6,0l-14.3,0c-1.8,0-3.4,1.1-4.4,2.6L153.5,49z M346.5,52l-1.6,0l-53.3,0.1
						l-1.6,0l-3.3,0l-1.6,0l-15.9,0l-1.6,0l-0.9,0c0.1-0.6,0.3-1.2,0.6-1.7c0.3-0.6,0.7-1.1,1.1-1.6c0.7-0.6,1.5-1.1,2.4-1.1l14.3,0
						l1.6,0l3.3,0l1.6,0l51.7-0.1c0.6,0,1.1,0.2,1.6,0.5c0,0,0,0,0,0c0.3,0.2,0.6,0.4,0.9,0.7c0,0,0.1,0.1,0.1,0.1
						c0.2,0.2,0.3,0.3,0.4,0.5c0.3,0.4,0.6,0.9,0.8,1.4l0,0c0,0,0,0.1,0,0.1c0,0,0,0.1,0.1,0.1c0.1,0.3,0.2,0.7,0.3,1L346.5,52z
						 M136.2-40.6c0.2-0.1,0.4-0.1,0.6-0.2c0.1,0,0.3-0.1,0.4-0.1c0.2-0.1,0.4-0.1,0.6-0.2c0.2,0,0.3-0.1,0.5-0.1
						c0.3-0.1,0.5-0.2,0.8-0.2c0.1,0,0.3-0.1,0.4-0.1c0.2-0.1,0.4-0.1,0.6-0.2c0.2-0.1,0.4-0.1,0.6-0.2c0.2,0,0.3-0.1,0.5-0.1
						c0.3-0.1,0.6-0.2,0.9-0.2c0.3-0.1,0.5-0.1,0.8-0.2c0.2-0.1,0.4-0.1,0.5-0.2c0.3-0.1,0.6-0.2,0.9-0.2c0.1,0,0.2-0.1,0.4-0.1
						c0,0,0,0,0,0c0.1,0,0.1,0,0.2-0.1c0.3-0.1,0.7-0.2,1-0.3c0.1,0,0.3-0.1,0.4-0.1c0.3-0.1,0.6-0.2,0.9-0.2c0.1,0,0.1,0,0.2-0.1
						c0,0,0,0,0,0c0,0,0.1,0,0.1,0c0,0,0,0,0,0c0,0,0,0,0,0c0,0,0,0,0,0c0.1,0,0.2-0.1,0.3-0.1c0.3-0.1,0.7-0.2,1-0.3
						c0.2,0,0.3-0.1,0.5-0.1c0.3-0.1,0.6-0.2,0.9-0.2c0,0,0.1,0,0.1,0c0,0,0.1,0,0.1,0c0,0,0.1,0,0.1,0c0.5-0.1,1.1-0.3,1.6-0.4
						c0.1,0,0.3-0.1,0.4-0.1c0.2-0.1,0.5-0.1,0.7-0.2c0,0,0.1,0,0.1,0c0,0,0.1,0,0.1,0c0.1,0,0.1,0,0.2,0c0,0,0,0,0,0
						c0,0,0.1,0,0.1,0c0.2,0,0.4-0.1,0.5-0.1c0.3-0.1,0.7-0.2,1-0.3c0.2-0.1,0.4-0.1,0.7-0.2c0.2,0,0.3-0.1,0.5-0.1c0,0,0.1,0,0.1,0
						c0.1,0,0.2-0.1,0.3-0.1c0,0,0.1,0,0.1,0c0.1,0,0.2-0.1,0.3-0.1c0.1,0,0.2-0.1,0.3-0.1c0.5-0.1,1.1-0.3,1.6-0.4
						c0.1,0,0.1,0,0.2,0c0.1,0,0.2-0.1,0.4-0.1c0,0,0.1,0,0.1,0c0.1,0,0.2-0.1,0.4-0.1c0,0,0.1,0,0.1,0c0,0,0,0,0,0c0,0,0.1,0,0.1,0
						c0.3-0.1,0.5-0.1,0.8-0.2c0.3-0.1,0.6-0.1,0.9-0.2c0.3-0.1,0.6-0.2,0.9-0.2c0,0,0,0,0.1,0c0,0,0.1,0,0.1,0
						c0.2,0,0.3-0.1,0.5-0.1c0,0,0,0,0,0c0,0,0,0,0.1,0c0.1,0,0.1,0,0.2,0c0,0,0.1,0,0.1,0c0.3-0.1,0.5-0.1,0.8-0.2
						c0.6-0.1,1.2-0.3,1.8-0.4c0,0,0,0,0,0c0.1,0,0.3-0.1,0.4-0.1c0.1,0,0.2-0.1,0.4-0.1c0.2,0,0.3-0.1,0.5-0.1
						c0.2,0,0.4-0.1,0.5-0.1c0.4-0.1,0.8-0.2,1.2-0.3c0.1,0,0.1,0,0.2,0c0.1,0,0.2-0.1,0.3-0.1c0,0,0,0,0,0c0.1,0,0.3-0.1,0.4-0.1
						c0.1,0,0.2,0,0.3-0.1c0.1,0,0.3-0.1,0.4-0.1c0.3-0.1,0.5-0.1,0.8-0.2c0.2-0.1,0.4-0.1,0.6-0.2c0.1,0,0.1,0,0.2,0
						c0.1,0,0.2-0.1,0.4-0.1c0.2,0,0.4-0.1,0.6-0.1c0,0,0,0,0,0c0,0,0,0,0,0c0.1,0,0.1,0,0.2,0c0.2-0.1,0.5-0.1,0.7-0.2
						c0.3-0.1,0.6-0.1,0.9-0.2c0.2-0.1,0.4-0.1,0.6-0.2c0.1,0,0.1,0,0.2,0c0.1,0,0.3-0.1,0.4-0.1c0.1,0,0.2-0.1,0.3-0.1c0,0,0,0,0,0
						c0,0,0.1,0,0.1,0c0,0,0.1,0,0.1,0c0.4-0.1,0.8-0.2,1.1-0.3c0.3-0.1,0.7-0.2,1-0.2c0,0,0.1,0,0.1,0c0.3-0.1,0.6-0.1,0.9-0.2
						c0.1,0,0.2,0,0.2-0.1c0,0,0.1,0,0.1,0c0.1,0,0.2-0.1,0.3-0.1c0.3-0.1,0.6-0.1,0.9-0.2c0.2-0.1,0.5-0.1,0.7-0.2
						c0.1,0,0.1,0,0.2-0.1c0.1,0,0.1,0,0.2,0c0,0,0,0,0.1,0c0.1,0,0.3-0.1,0.4-0.1c0.1,0,0.3-0.1,0.4-0.1c0,0,0,0,0.1,0c0,0,0,0,0,0
						c0,0,0,0,0.1,0c0.1,0,0.2,0,0.3-0.1c0.2-0.1,0.5-0.1,0.7-0.2c0.3-0.1,0.6-0.1,0.8-0.2c0.1,0,0.1,0,0.2,0c0,0,0,0,0.1,0
						c0,0,0.1,0,0.1,0c0,0,0.1,0,0.1,0c0.3-0.1,0.6-0.1,0.8-0.2c0,0,0.1,0,0.1,0c0.1,0,0.1,0,0.2,0c0.1,0,0.1,0,0.2-0.1
						c0.5-0.1,0.9-0.2,1.4-0.3c0.1,0,0.1,0,0.2,0c0.3-0.1,0.7-0.2,1-0.2c0,0,0.1,0,0.1,0c0,0,0.1,0,0.1,0c0.1,0,0.3-0.1,0.4-0.1
						c0.2,0,0.3-0.1,0.5-0.1c0.1,0,0.3-0.1,0.4-0.1c0.1,0,0.2-0.1,0.3-0.1c0.1,0,0.2,0,0.3-0.1c0,0,0.1,0,0.1,0c0,0,0,0,0,0
						c0.2-0.1,0.4-0.1,0.6-0.2c0.1,0,0.1,0,0.2,0c0.1,0,0.1,0,0.2,0c0.1,0,0.3-0.1,0.4-0.1c0.2,0,0.4-0.1,0.6-0.1c0,0,0.1,0,0.1,0
						c0,0,0,0,0,0c0.2,0,0.4-0.1,0.6-0.1c0.2,0,0.4-0.1,0.6-0.1c0,0,0,0,0.1,0c0.1,0,0.2,0,0.2-0.1c0.2,0,0.4-0.1,0.6-0.1
						c0.2,0,0.3-0.1,0.5-0.1c0,0,0,0,0.1,0l0,0c0,0,0,0,0,0c0,0,0,0,0,0c0,0,0.1,0,0.1,0c0.2,0,0.4-0.1,0.6-0.1c0.1,0,0.2,0,0.2-0.1
						c0.2,0,0.3-0.1,0.5-0.1c0.1,0,0.2,0,0.3-0.1c0.1,0,0.1,0,0.2,0c0.2,0,0.3-0.1,0.5-0.1c0,0,0.1,0,0.1,0c0.1,0,0.3-0.1,0.4-0.1
						c0.1,0,0.1,0,0.2,0c0,0,0,0,0.1,0c0,0,0,0,0,0c0,0,0,0,0,0c0,0,0,0,0.1,0c0.1,0,0.2,0,0.3-0.1c0.2,0,0.4-0.1,0.6-0.1
						c0.1,0,0.1,0,0.2-0.1c0.1,0,0.2-0.1,0.4-0.1c0,0,0.1,0,0.1,0c0,0,0.1,0,0.1,0c0.1,0,0.1,0,0.2,0c0.1,0,0.1,0,0.2,0
						c0,0,0,0,0.1,0c0,0,0.1,0,0.2,0c0,0,0,0,0,0c0.2,0,0.4-0.1,0.6-0.1c0.1,0,0.2-0.1,0.4-0.1c0.1,0,0.2,0,0.2-0.1c0,0,0,0,0.1,0
						c0.1,0,0.2,0,0.3-0.1c0,0,0.1,0,0.1,0c0,0,0,0,0,0c0.1,0,0.1,0,0.2,0c0,0,0,0,0.1,0c0.2-0.1,0.5-0.1,0.7-0.2c0,0,0.1,0,0.1,0
						c0,0,0.1,0,0.1,0c0,0,0.1,0,0.1,0c0.1,0,0.2-0.1,0.3-0.1c0,0,0,0,0,0c0,0,0.1,0,0.1,0c0,0,0.1,0,0.1,0c0.2,0,0.3-0.1,0.4-0.1
						c0.1,0,0.2,0,0.2-0.1c0,0,0,0,0.1,0c0,0,0,0,0.1,0c0.1,0,0.1,0,0.2,0c0,0,0.1,0,0.1,0c0,0,0,0,0,0c0,0,0,0,0,0
						c0.1,0,0.1,0,0.2,0c0.1,0,0.2,0,0.3-0.1c0.1,0,0.1,0,0.2,0c0,0,0,0,0,0c0,0,0,0,0.1,0c0,0,0,0,0.1,0c0,0,0.1,0,0.1,0
						c0,0,0,0,0,0c0,0,0.1,0,0.1,0c0.1,0,0.1,0,0.2,0c0,0,0.1,0,0.1,0c0,0,0,0,0,0c0,0,0,0,0,0c0,0,0,0,0,0c0,0,0,0,0,0
						c0,0,0,0,0.1,0c0,0,0,0,0,0c0,0,0.1,0,0.1,0c0,0,0,0,0.1,0c0,0,0,0,0,0c0,0,0,0,0,0c0,0,0,0,0,0l0,0l0,0l0,0l0,0c0,0,0,0,0,0
						c0,0,0,0,0,0c0,0,0,0,0,0c0,0,0,0,0.1,0c0,0,0.1,0,0.1,0c0,0,0,0,0,0c0,0,0,0,0.1,0l0,0c0,0,0,0,0,0l0,0c0,0,0,0,0,0
						c0,0,0.1,0,0.1,0c0.1,0,0.1,0,0.2,0c0,0,0.1,0,0.1,0c0,0,0,0,0,0c0,0,0.1,0,0.1,0c0,0,0,0,0,0c0,0,0,0,0,0c0,0,0,0,0,0
						c0.1,0,0.1,0,0.2,0c0.1,0,0.2,0,0.4,0.1c0,0,0.1,0,0.1,0c0,0,0,0,0,0c0,0,0.1,0,0.1,0c0,0,0.1,0,0.1,0c0,0,0,0,0.1,0
						c0,0,0.1,0,0.1,0c0.1,0,0.2,0,0.3,0.1c0.1,0,0.3,0.1,0.4,0.1c0,0,0.1,0,0.1,0c0,0,0.1,0,0.1,0c0,0,0.1,0,0.1,0
						c0.1,0,0.2,0,0.2,0.1c0,0,0,0,0,0c0.1,0,0.1,0,0.2,0c0.1,0,0.2,0,0.3,0.1c0.2,0,0.3,0.1,0.5,0.1c0,0,0.1,0,0.1,0
						c0.1,0,0.1,0,0.2,0c0,0,0,0,0,0c0,0,0,0,0,0c0.1,0,0.3,0.1,0.4,0.1c0.3,0.1,0.6,0.1,0.9,0.2c0.1,0,0.2,0.1,0.3,0.1c0,0,0,0,0,0
						c0,0,0.1,0,0.1,0c0,0,0,0,0,0c0,0,0,0,0.1,0c0.2,0,0.4,0.1,0.5,0.1c0.3,0.1,0.6,0.1,0.9,0.2c0.2,0,0.4,0.1,0.7,0.2
						c0.2,0.1,0.5,0.1,0.7,0.2c0,0,0,0,0,0c0.3,0.1,0.6,0.1,0.9,0.2c0.5,0.1,0.9,0.2,1.4,0.3c0.1,0,0.1,0,0.2,0c0.1,0,0.2,0,0.3,0.1
						c0.1,0,0.2,0,0.3,0.1c0.1,0,0.1,0,0.2,0c0,0,0.1,0,0.1,0c0.1,0,0.2,0,0.2,0.1c0.2,0.1,0.5,0.1,0.7,0.2c0.2,0,0.4,0.1,0.6,0.1
						c0.2,0,0.3,0.1,0.5,0.1c0.1,0,0.1,0,0.2,0c0.1,0,0.2,0,0.3,0.1c0,0,0.1,0,0.1,0c0.1,0,0.1,0,0.2,0c0,0,0,0,0,0
						c0.4,0.1,0.7,0.2,1.1,0.3c0.2,0.1,0.5,0.1,0.7,0.2c0,0,0,0,0,0c0,0,0.1,0,0.1,0c0,0,0.1,0,0.1,0c0.2,0,0.4,0.1,0.6,0.1
						c0.1,0,0.1,0,0.2,0c0.1,0,0.1,0,0.2,0c0,0,0,0,0,0c0,0,0.1,0,0.1,0c0.3,0.1,0.7,0.2,1.1,0.2c0,0,0,0,0,0c0.1,0,0.2,0.1,0.3,0.1
						c0.1,0,0.1,0,0.2,0c0,0,0.1,0,0.1,0c0.2,0,0.3,0.1,0.5,0.1c0.1,0,0.3,0.1,0.4,0.1c0.1,0,0.2,0,0.2,0.1c0,0,0.1,0,0.1,0
						c0.2,0.1,0.5,0.1,0.7,0.2c0.2,0,0.4,0.1,0.5,0.1c0,0,0.1,0,0.1,0c0.1,0,0.2,0,0.3,0.1c0.2,0,0.3,0.1,0.5,0.1c0,0,0,0,0.1,0
						c0.1,0,0.2,0,0.3,0.1c0.2,0,0.4,0.1,0.6,0.1c0.1,0,0.2,0,0.2,0.1c0,0,0,0,0,0c0.1,0,0.1,0,0.2,0c0.4,0.1,0.7,0.2,1.1,0.3
						c0,0,0,0,0.1,0c0,0,0,0,0,0c0.3,0.1,0.5,0.1,0.8,0.2c0.1,0,0.3,0.1,0.4,0.1c0.2,0,0.4,0.1,0.6,0.1c0.1,0,0.1,0,0.2,0
						c0.2,0,0.4,0.1,0.5,0.1c0.3,0.1,0.6,0.1,0.9,0.2c0,0,0,0,0,0c0.1,0,0.1,0,0.2,0c0.1,0,0.3,0.1,0.4,0.1c0.1,0,0.2,0.1,0.4,0.1
						c0.1,0,0.2,0.1,0.4,0.1c0.2,0,0.4,0.1,0.6,0.1c0.4,0.1,0.7,0.2,1.1,0.3c0.1,0,0.2,0.1,0.3,0.1c0.1,0,0.1,0,0.2,0
						c0.1,0,0.1,0,0.2,0c0.3,0.1,0.5,0.1,0.8,0.2c0.1,0,0.1,0,0.2,0.1c0,0,0,0,0,0c0,0,0,0,0,0c0.3,0.1,0.5,0.1,0.8,0.2
						c0.3,0.1,0.7,0.2,1,0.3c0,0,0.1,0,0.1,0c0,0,0.1,0,0.1,0c0,0,0,0,0.1,0c0.2,0,0.3,0.1,0.5,0.1c0.3,0.1,0.5,0.1,0.8,0.2
						c0.1,0,0.1,0,0.2,0.1c0,0,0,0,0,0c0.3,0.1,0.6,0.1,0.8,0.2c0.2,0.1,0.4,0.1,0.6,0.2c0.1,0,0.2,0.1,0.4,0.1c0,0,0.1,0,0.1,0
						c0.3,0.1,0.5,0.1,0.8,0.2c0,0,0.1,0,0.1,0c0.2,0,0.3,0.1,0.5,0.1c0,0,0.1,0,0.1,0c0,0,0,0,0,0c0,0,0,0,0.1,0
						c0.4,0.1,0.7,0.2,1.1,0.3c0.2,0,0.3,0.1,0.5,0.1c0.1,0,0.1,0,0.2,0c0,0,0,0,0,0c0.5,0.1,1,0.3,1.6,0.4c0.1,0,0.1,0,0.2,0
						c0.1,0,0.1,0,0.2,0c0.3,0.1,0.5,0.1,0.8,0.2c0,0,0.1,0,0.1,0c0,0,0,0,0.1,0c0.1,0,0.1,0,0.2,0c0.1,0,0.3,0.1,0.4,0.1
						c0.4,0.1,0.8,0.2,1.2,0.3c0,0,0,0,0,0c0.2,0,0.4,0.1,0.6,0.1c0,0,0.1,0,0.1,0c0,0,0.1,0,0.1,0c0.1,0,0.2,0,0.3,0.1
						c0.2,0.1,0.5,0.1,0.7,0.2c0,0,0.1,0,0.1,0c0,0,0.1,0,0.1,0c0.1,0,0.2,0,0.3,0.1c0.5,0.1,1,0.2,1.5,0.4c0.1,0,0.3,0.1,0.4,0.1
						c0,0,0.1,0,0.1,0c0,0,0,0,0,0c0.1,0,0.2,0.1,0.3,0.1c0.2,0,0.3,0.1,0.5,0.1c0,0,0,0,0,0c0,0,0,0,0,0c0,0,0,0,0,0
						c0.1,0,0.2,0,0.2,0.1c0.5,0.1,1,0.2,1.4,0.4c0.1,0,0.2,0,0.3,0.1c0.1,0,0.3,0.1,0.4,0.1c0,0,0.1,0,0.1,0c0,0,0,0,0.1,0
						c0.2,0,0.4,0.1,0.5,0.1c0,0,0.1,0,0.1,0c0,0,0,0,0.1,0c0.2,0,0.3,0.1,0.5,0.1c0.2,0.1,0.5,0.1,0.7,0.2c0.3,0.1,0.7,0.2,1,0.3
						c0.1,0,0.2,0,0.3,0.1c0,0,0,0,0,0c0,0,0,0,0,0c0,0,0,0,0,0c0.1,0,0.1,0,0.2,0c0.1,0,0.2,0.1,0.3,0.1c0.1,0,0.1,0,0.2,0
						c0.2,0.1,0.4,0.1,0.7,0.2c0.3,0.1,0.6,0.2,0.9,0.2c0.2,0.1,0.4,0.1,0.6,0.2c0.1,0,0.1,0,0.2,0c0,0,0,0,0,0c0,0,0,0,0.1,0
						c0.1,0,0.2,0,0.3,0.1c0,0,0.1,0,0.1,0c0,0,0,0,0,0c0.1,0,0.3,0.1,0.4,0.1c0.1,0,0.3,0.1,0.4,0.1c0.4,0.1,0.7,0.2,1.1,0.3
						c0.1,0,0.3,0.1,0.4,0.1c0,0,0,0,0.1,0c0,0,0,0,0.1,0c0,0,0,0,0,0c0,0,0.1,0,0.1,0c0,0,0.1,0,0.1,0c0,0,0,0,0.1,0
						c0.1,0,0.3,0.1,0.4,0.1c0.2,0.1,0.4,0.1,0.7,0.2c0.2,0.1,0.5,0.1,0.7,0.2c0.2,0.1,0.4,0.1,0.7,0.2c0.2,0.1,0.5,0.1,0.7,0.2
						c0.2,0.1,0.4,0.1,0.6,0.2c0.2,0.1,0.4,0.1,0.6,0.2c0.1,0,0.3,0.1,0.4,0.1c0,0,0,0,0.1,0c0,0,0,0,0,0c0,0,0,0,0,0
						c0,0,0.1,0,0.1,0c0.4,0.1,0.7,0.2,1.1,0.3c0,0,0.1,0,0.1,0c0.3,0.1,0.6,0.2,0.8,0.2c0,0,0,0,0,0c0,0,0,0,0,0c0,0,0,0,0,0
						c0,0,0,0,0.1,0c0,0,0,0,0,0c0.1,0,0.1,0,0.2,0.1c0.2,0.1,0.4,0.1,0.6,0.2c0.2,0,0.3,0.1,0.5,0.1c0.1,0,0.2,0,0.3,0.1l0,0h0
						l-147.7,0.2l0,0l0,0C136-40.5,136.1-40.6,136.2-40.6z M114.3-32.1L114.3-32.1c0.1-0.4,0.2-0.8,0.4-1.2c1.3-2.8,4.8-5.6,9.2-5.6
						l4.7,0l2.7,0l0,0l157.1-0.3l0,0l2.7,0l4.7,0c4.4,0,8,2.7,9.3,5.6c0.2,0.4,0.3,0.8,0.4,1.2l0,0l-3.2,0v0l-1.6,0L119-32.1v0
						l-1.6,0v0L114.3-32.1z M300.6-7.3L119.1-7l0-23.5l181.6-0.3L300.6-7.3z M117.5-5.5l1.6,0l181.6-0.3l1.6,0l13.5,0l0,16.4
						l-13.5,0l-1.6,0l-181.6,0.3l-1.6,0L104,11l0-16.4L117.5-5.5z M102.5,12.5l1.6,0l13.5,0l1.6,0l181.6-0.3l1.6,0l13.5,0l1.6,0
						l21.3,0l0,22.8l-47,0.1l-1.6,0l-3.7,0l-152.8,0.3l-3.7,0l-1.6,0l-47,0.1l0-22.8L102.5,12.5z M74.5,36.9l5.2,0l1.6,0l47-0.1
						l1.6,0l3.3,0l1.6,0l150.5-0.2l1.6,0l3.3,0l1.6,0l47-0.1l1.6,0l5.2,0l3.9,7.5l-2.8,0l-1.6,0L291.6,44l-1.6,0l-3.3,0l-1.6,0
						l-150.5,0.2l-1.6,0l-3.3,0l-1.6,0L75,44.4l-1.6,0l-2.8,0L74.5,36.9z"/>
					<path class="st9" d="M275.6,126.5c0.6,0.5,1.2,1,1.7,1.6l0.7,0l0.8,0l1.6,0l3.3,0l1.6,0l0.1,0l0.8,0l0,4.5l-0.8,0l-0.1,0
						l-1.6,0l-2.7,0c0.3,0.5,0.6,1,0.9,1.6l1.8,0l0,3.9c0.6,1.6,1.1,3.3,1.6,5.2l0-9.1l0.1,0l0.8,0c0.3,0,0.6-0.1,0.8-0.2
						c0.4-0.3,0.8-0.7,0.8-1.3l0-4.5l2.5,0l1.6,0l22,0c0.3-0.5,0.6-1,0.9-1.6l-23,0l-1.6,0l-2.5,0v0l-0.8,0l-0.8,0v0l-0.8,0l-0.1,0
						l-1.6,0l-3.3,0l-1.6,0l-0.8,0l-1.6,0L275.6,126.5L275.6,126.5L275.6,126.5z"/>
				</g>
			</g>
		</g>
		<g>
			<path class="st80" d="M128.5,156v80l3.6,8.8c-0.5,0.8-1.1,1.8-1.9,2.9c-0.8,1.1-2.6,2.7-5.2,4.6c-2.7,1.9-5.6,2.9-8.7,2.9
				c-6.4,0-10.7-3.2-12.9-9.6c-3.7,6.4-9,9.6-16.1,9.6c-7.1,0-12.8-2.3-17.2-7c-4.4-4.6-6.5-10.3-6.5-17.1v-26.5
				c0-11.3,3.3-20.4,9.8-27.1c6.5-6.7,14.5-10,24-10c1.5,0,3.1,0.2,4.8,0.5c-0.2-7.2-1.3-14.5-3.1-22l-0.9-3.4
				c0.5-0.6,1.1-1.3,2-2.2c0.9-0.9,2.7-2.1,5.6-3.7c2.9-1.5,5.9-2.3,9.1-2.3C124,134.5,128.5,141.7,128.5,156z M88.2,221.6
				c0,4.5,1,7.8,3,9.9c2,2.1,5.7,3.3,11.1,3.7v-37.4c-0.3-3.1-1.6-5.4-3.9-7c-2.2-1.5-5.6-2.8-10.2-3.7V221.6z"/>
			<path class="st80" d="M197.4,230.7c1.3,1.3,1.9,2.9,1.9,5c0,2.1-0.5,4.2-1.6,6.3c-1.1,2.1-2.7,4.2-4.8,6.2c-2.1,2-5.1,3.7-9,5.1
				c-3.9,1.4-8.2,2.1-12.8,2.1c-4.6,0-8.8-0.7-12.5-2c-3.7-1.3-7.2-3.4-10.5-6.3c-7.2-6.4-10.8-16.9-10.8-31.4
				c0-14.5,2.5-25.3,7.4-32.4c4.9-7,10.5-10.9,16.8-11.6c4.6-4.9,10.1-7.4,16.6-7.4c6.5,0,11.7,2.3,15.8,7
				c4.1,4.7,6.1,11.1,6.1,19.2c0,9.5-3.5,17-10.5,22.5c-5.7,4.6-12.6,8.1-20.6,10.5c4,5.3,10.6,7.9,19.9,7.9
				C191.5,231.4,194.3,231.2,197.4,230.7z M176.1,198.9c0-7-4.3-10.8-12.9-11.5v15.5c0,5.2,0.5,9.3,1.4,12.4
				C172.3,211,176.1,205.6,176.1,198.9z"/>
			<path class="st80" d="M208.2,235v-65.3c0-9.5-0.9-17.4-2.7-23.7l-1-3.3c0.5-0.6,1.1-1.3,2-2.2c0.9-0.9,2.7-2.1,5.6-3.7
				c2.9-1.5,5.8-2.3,8.9-2.3c9,0,13.6,7.2,13.6,21.5v80l3.8,8.8c-0.5,0.8-1.1,1.8-1.9,2.9c-0.8,1.1-2.6,2.7-5.3,4.6
				c-2.7,1.9-5.7,2.9-8.8,2.9C212.9,255.3,208.2,248.5,208.2,235z"/>
			<path class="st80" d="M273,235c0,5.6,0.7,9.8,2.1,12.5c-0.7,1.8-2.6,3.6-5.8,5.2c-3.2,1.7-6.6,2.5-10.5,2.5
				c-3.8,0-6.8-1.2-8.9-3.5c-2.1-2.3-3.2-5.5-3.2-9.5v-72.5c0-9.5-0.9-17.4-2.7-23.7l-1-3.3c0.5-0.6,1.1-1.3,2-2.2
				c0.9-0.9,2.7-2.1,5.6-3.7c2.9-1.5,5.8-2.3,8.9-2.3c9,0,13.6,7.2,13.6,21.5v20.1c1.5-3.3,4-6.1,7.4-8.4c3.4-2.3,8-3.4,13.8-3.4
				c5.8,0,10.7,2.3,14.9,6.8c4.1,4.5,6.2,10.7,6.2,18.6V236l3.8,8.8c-0.5,0.8-1.1,1.8-1.9,2.9c-0.8,1.1-2.6,2.7-5.3,4.6
				c-2.7,1.9-5.7,2.9-8.8,2.9c-9.4,0-14.1-6.8-14.1-20.3v-33.2c0-6.3-1.1-10.5-3.4-12.7c-2.3-2.2-6.5-3.3-12.5-3.3V235z"/>
			<path class="st80" d="M355.1,139.2c0,4.8-1.1,8.6-3.4,11.7c-2.3,3-5.8,4.6-10.4,4.6c-4.6,0-8.1-1.7-10.3-5.1
				c-2.2-3.4-4.1-8.6-5.6-15.5c0.5-0.8,1.1-1.8,1.9-3c0.8-1.2,2.5-2.8,5.2-4.8c2.7-2,5.5-3,8.3-3c5.3,0,9,1.3,11.1,4
				C354.1,130.8,355.1,134.5,355.1,139.2z M342.2,255.3c-9.4,0-14.1-6.8-14.1-20.3c0-34.4,0.4-57,1.2-67.9c2.4-2.4,6.2-3.6,11.5-3.6
				c9,0,13.6,7.2,13.6,21.5v51l3.8,8.8c-0.5,0.8-1.1,1.8-1.9,2.9c-0.8,1.1-2.6,2.7-5.3,4.6C348.2,254.3,345.3,255.3,342.2,255.3z"/>
		</g>
	</g>
</g>
</svg>
