<svg id="Layer_1" data-name="Layer 1" xmlns="http://www.w3.org/2000/svg" width="839.5" height="736.93" viewBox="0 0 839.5 736.93" preserveAspectRatio="xMidYMid meet"><defs><style>.cls-1{fill:none;stroke:#fec621;stroke-miterlimit:10;stroke-width:16px;}</style></defs><title>outline_bg</title><path class="cls-1" d="M617,596.19V528h55.26c88,0,159.26-71.45,159.26-159.57S760.21,208.9,672.24,208.9H617V140.73c-7.8,0-11,.16-16.58.16C518,140.89,450,92.29,419.75,20.61c-30.2,71.68-98.23,120.28-180.65,120.28-5.59,0-8.78-.16-16.58-.16V208.9H167.26C79.29,208.9,8,280.34,8,368.46S79.29,528,167.26,528h55.26v68.16c7.8,0,11-.16,16.58-.16,82.42,0,150.45,48.6,180.65,120.29C450,644.63,518,596,600.4,596,606,596,609.18,596.19,617,596.19Z"/></svg>